M48
;DRILL file {KiCad (5.0.2)-1} date 2019-02-13 16:41:38
;FORMAT={-:-/ absolute / metric / decimal}
FMAT,2
METRIC,TZ
T1C0.400
T2C0.780
T3C0.900
T4C1.000
T5C1.200
T6C1.500
T7C1.600
T8C4.500
%
G90
G05
T1
X116.75Y-120.5
X120.25Y-123.75
X122.75Y-138.75
X123.25Y-62.75
X123.5Y-72.
X126.5Y-123.75
X132.5Y-123.75
X134.5Y-138.75
X135.75Y-92.
X138.5Y-124.
X139.5Y-113.5
X140.5Y-107.25
X140.75Y-88.5
X143.808Y-108.942
X144.09Y-110.25
X144.575Y-113.875
X144.75Y-138.5
X146.25Y-81.25
X146.5Y-110.
X146.75Y-85.75
X146.75Y-108.
X146.75Y-109.
X147.25Y-91.5
X147.5Y-83.75
X148.25Y-126.
X148.5Y-112.5
X149.25Y-81.5
X149.451Y-113.061
X149.75Y-79.5
X150.55Y-104.803
X151.5Y-113.
X151.5Y-99.5
X151.525Y-116.
X152.Y-104.75
X152.036Y-82.981
X152.793Y-117.957
X152.865Y-105.252
X153.032Y-83.07
X153.25Y-113.5
X153.5Y-116.25
X153.5Y-117.25
X153.737Y-104.763
X153.75Y-152.25
X153.985Y-82.765
X154.75Y-104.75
X155.427Y-95.5
X155.5Y-93.
X155.575Y-116.
X155.691Y-111.693
X156.5Y-81.25
X156.5Y-92.75
X157.237Y-91.763
X157.25Y-90.75
X157.5Y-89.775
X157.75Y-86.75
X158.Y-84.25
X158.525Y-110.525
X158.75Y-113.25
X159.25Y-112.25
X160.Y-92.
X160.5Y-84.25
X161.332Y-92.305
X162.5Y-111.
X164.Y-91.75
X164.25Y-81.5
X164.5Y-101.75
X164.5Y-109.75
X167.25Y-109.5
X169.25Y-118.25
X174.25Y-83.
X175.Y-69.25
X175.5Y-112.
X177.828Y-94.445
X183.Y-89.25
X195.Y-94.25
T2
X164.49Y-115.95
X164.49Y-154.05
X167.03Y-115.95
X167.03Y-154.05
X169.57Y-115.95
X172.11Y-115.95
X174.65Y-115.95
X177.19Y-115.95
X179.73Y-115.95
X182.27Y-115.95
X184.81Y-115.95
X187.35Y-115.95
X189.89Y-115.95
X192.43Y-115.95
X194.97Y-115.95
X194.97Y-154.05
X197.51Y-115.95
X197.51Y-154.05
T3
X137.Y-132.08
X139.54Y-132.08
X131.Y-132.08
X133.54Y-132.08
X125.Y-132.08
X127.54Y-132.08
X119.Y-132.08
X121.54Y-132.08
T4
X105.25Y-137.
X109.Y-137.
X112.75Y-137.
X105.25Y-122.25
X109.Y-122.25
X112.75Y-122.25
X105.25Y-152.
X109.Y-152.
X112.75Y-152.
T5
X196.75Y-72.3
X196.75Y-74.84
X196.75Y-77.38
X196.75Y-79.92
X196.75Y-82.46
X196.75Y-85.
T6
X158.25Y-57.5
X162.Y-61.85
X165.75Y-57.5
T7
X137.6Y-59.65
X137.65Y-66.
X137.65Y-72.35
X149.35Y-66.
X149.35Y-72.35
X149.4Y-59.65
T8
X113.5Y-72.
X183.5Y-77.
T3
X196.95Y-92.05G85X198.55Y-92.05
G05
X196.95Y-103.45G85X198.55Y-103.45
G05
T0
M30
