%FSLAX45Y45*%
G04 Gerber Fmt 4.5, Leading zero omitted, Abs format (unit mm)*
G04 Created by KiCad (PCBNEW (5.0.2)-1) date 2019-02-15 17:12:08*
%MOMM*%
%LPD*%
G01*
G04 APERTURE LIST*
%ADD10C,0.200000*%
%ADD11C,0.300000*%
G04 APERTURE END LIST*
D10*
X10100000Y-15500000D02*
X20100000Y-15500000D01*
X20100000Y-15500000D02*
X20100000Y-5500000D01*
X10100000Y-5500000D02*
X10100000Y-15500000D01*
X20100000Y-5500000D02*
X10100000Y-5500000D01*
D10*
X11655000Y-12030000D02*
X11695000Y-12070000D01*
X11695000Y-12030000D02*
X11655000Y-12070000D01*
X12005000Y-12355000D02*
X12045000Y-12395000D01*
X12045000Y-12355000D02*
X12005000Y-12395000D01*
X12255000Y-13855000D02*
X12295000Y-13895000D01*
X12295000Y-13855000D02*
X12255000Y-13895000D01*
X12305000Y-6255000D02*
X12345000Y-6295000D01*
X12345000Y-6255000D02*
X12305000Y-6295000D01*
X12330000Y-7180000D02*
X12370000Y-7220000D01*
X12370000Y-7180000D02*
X12330000Y-7220000D01*
X12630000Y-12355000D02*
X12670000Y-12395000D01*
X12670000Y-12355000D02*
X12630000Y-12395000D01*
X13230000Y-12355000D02*
X13270000Y-12395000D01*
X13270000Y-12355000D02*
X13230000Y-12395000D01*
X13430000Y-13855000D02*
X13470000Y-13895000D01*
X13470000Y-13855000D02*
X13430000Y-13895000D01*
X13555000Y-9180000D02*
X13595000Y-9220000D01*
X13595000Y-9180000D02*
X13555000Y-9220000D01*
X13830000Y-12380000D02*
X13870000Y-12420000D01*
X13870000Y-12380000D02*
X13830000Y-12420000D01*
X13835000Y-10495000D02*
X13875000Y-10535000D01*
X13875000Y-10495000D02*
X13835000Y-10535000D01*
X13985668Y-11406502D02*
X14025668Y-11446502D01*
X14025668Y-11406502D02*
X13985668Y-11446502D01*
X14055000Y-8830000D02*
X14095000Y-8870000D01*
X14095000Y-8830000D02*
X14055000Y-8870000D01*
X14259999Y-10920000D02*
X14299999Y-10960000D01*
X14299999Y-10920000D02*
X14259999Y-10960000D01*
X14389000Y-11005000D02*
X14429000Y-11045000D01*
X14429000Y-11005000D02*
X14389000Y-11045000D01*
X14437500Y-11367500D02*
X14477500Y-11407500D01*
X14477500Y-11367500D02*
X14437500Y-11407500D01*
X14455000Y-13830000D02*
X14495000Y-13870000D01*
X14495000Y-13830000D02*
X14455000Y-13870000D01*
X14605000Y-8105000D02*
X14645000Y-8145000D01*
X14645000Y-8105000D02*
X14605000Y-8145000D01*
X14630000Y-10980000D02*
X14670000Y-11020000D01*
X14670000Y-10980000D02*
X14630000Y-11020000D01*
X14650000Y-11620000D02*
X14690000Y-11660000D01*
X14690000Y-11620000D02*
X14650000Y-11660000D01*
X14655000Y-8555000D02*
X14695000Y-8595000D01*
X14695000Y-8555000D02*
X14655000Y-8595000D01*
X14655000Y-10780000D02*
X14695000Y-10820000D01*
X14695000Y-10780000D02*
X14655000Y-10820000D01*
X14655000Y-10880000D02*
X14695000Y-10920000D01*
X14695000Y-10880000D02*
X14655000Y-10920000D01*
X14705000Y-9130000D02*
X14745000Y-9170000D01*
X14745000Y-9130000D02*
X14705000Y-9170000D01*
X14730000Y-8355000D02*
X14770000Y-8395000D01*
X14770000Y-8355000D02*
X14730000Y-8395000D01*
X14800000Y-9617197D02*
X14840000Y-9657197D01*
X14840000Y-9617197D02*
X14800000Y-9657197D01*
X14805000Y-12580000D02*
X14845000Y-12620000D01*
X14845000Y-12580000D02*
X14805000Y-12620000D01*
X14825123Y-11920000D02*
X14865123Y-11960000D01*
X14865123Y-11920000D02*
X14825123Y-11960000D01*
X14860000Y-11160000D02*
X14900000Y-11200000D01*
X14900000Y-11160000D02*
X14860000Y-11200000D01*
X14905000Y-8130000D02*
X14945000Y-8170000D01*
X14945000Y-8130000D02*
X14905000Y-8170000D01*
X14925240Y-11286764D02*
X14965240Y-11326764D01*
X14965240Y-11286764D02*
X14925240Y-11326764D01*
X14953426Y-10600730D02*
X14993426Y-10640730D01*
X14993426Y-10600730D02*
X14953426Y-10640730D01*
X14955000Y-7930000D02*
X14995000Y-7970000D01*
X14995000Y-7930000D02*
X14955000Y-7970000D01*
X15075000Y-9955000D02*
X15115000Y-9995000D01*
X15115000Y-9955000D02*
X15075000Y-9995000D01*
X15130000Y-11280000D02*
X15170000Y-11320000D01*
X15170000Y-11280000D02*
X15130000Y-11320000D01*
X15132500Y-11580000D02*
X15172500Y-11620000D01*
X15172500Y-11580000D02*
X15132500Y-11620000D01*
X15166000Y-10508000D02*
X15206000Y-10548000D01*
X15206000Y-10508000D02*
X15166000Y-10548000D01*
X15183602Y-8278096D02*
X15223602Y-8318096D01*
X15223602Y-8278096D02*
X15183602Y-8318096D01*
X15195000Y-9920000D02*
X15235000Y-9960000D01*
X15235000Y-9920000D02*
X15195000Y-9960000D01*
X15208755Y-9813201D02*
X15248755Y-9853201D01*
X15248755Y-9813201D02*
X15208755Y-9853201D01*
X15245000Y-9720000D02*
X15285000Y-9760000D01*
X15285000Y-9720000D02*
X15245000Y-9760000D01*
X15259289Y-11775711D02*
X15299289Y-11815711D01*
X15299289Y-11775711D02*
X15259289Y-11815711D01*
X15281998Y-10506743D02*
X15321998Y-10546743D01*
X15321998Y-10506743D02*
X15281998Y-10546743D01*
X15283208Y-8286961D02*
X15323208Y-8326961D01*
X15323208Y-8286961D02*
X15283208Y-8326961D01*
X15305000Y-11330000D02*
X15345000Y-11370000D01*
X15345000Y-11330000D02*
X15305000Y-11370000D01*
X15330000Y-11605000D02*
X15370000Y-11645000D01*
X15370000Y-11605000D02*
X15330000Y-11645000D01*
X15330000Y-11705000D02*
X15370000Y-11745000D01*
X15370000Y-11705000D02*
X15330000Y-11745000D01*
X15355000Y-15205000D02*
X15395000Y-15245000D01*
X15395000Y-15205000D02*
X15355000Y-15245000D01*
X15364051Y-10449580D02*
X15404051Y-10489580D01*
X15404051Y-10449580D02*
X15364051Y-10489580D01*
X15378467Y-8256533D02*
X15418467Y-8296533D01*
X15418467Y-8256533D02*
X15378467Y-8296533D01*
X15463886Y-10455331D02*
X15503886Y-10495331D01*
X15503886Y-10455331D02*
X15463886Y-10495331D01*
X15491044Y-9608958D02*
X15531044Y-9648958D01*
X15531044Y-9608958D02*
X15491044Y-9648958D01*
X15519121Y-9279202D02*
X15559121Y-9319202D01*
X15559121Y-9279202D02*
X15519121Y-9319202D01*
X15537500Y-11580000D02*
X15577500Y-11620000D01*
X15577500Y-11580000D02*
X15537500Y-11620000D01*
X15540000Y-10980000D02*
X15580000Y-11020000D01*
X15580000Y-10980000D02*
X15540000Y-11020000D01*
X15630000Y-8110001D02*
X15670000Y-8150001D01*
X15670000Y-8110001D02*
X15630000Y-8150001D01*
X15630000Y-9255000D02*
X15670000Y-9295000D01*
X15670000Y-9255000D02*
X15630000Y-9295000D01*
X15705000Y-9055000D02*
X15745000Y-9095000D01*
X15745000Y-9055000D02*
X15705000Y-9095000D01*
X15726825Y-9280000D02*
X15766825Y-9320000D01*
X15766825Y-9280000D02*
X15726825Y-9320000D01*
X15730000Y-8957500D02*
X15770000Y-8997500D01*
X15770000Y-8957500D02*
X15730000Y-8997500D01*
X15760000Y-8380000D02*
X15800000Y-8420000D01*
X15800000Y-8380000D02*
X15760000Y-8420000D01*
X15813801Y-11344199D02*
X15853801Y-11384199D01*
X15853801Y-11344199D02*
X15813801Y-11384199D01*
X15840000Y-8620000D02*
X15880000Y-8660000D01*
X15880000Y-8620000D02*
X15840000Y-8660000D01*
X15845000Y-10968000D02*
X15885000Y-11008000D01*
X15885000Y-10968000D02*
X15845000Y-11008000D01*
X15905000Y-11205000D02*
X15945000Y-11245000D01*
X15945000Y-11205000D02*
X15905000Y-11245000D01*
X16030000Y-8405000D02*
X16070000Y-8445000D01*
X16070000Y-8405000D02*
X16030000Y-8445000D01*
X16072000Y-9158000D02*
X16112000Y-9198000D01*
X16112000Y-9158000D02*
X16072000Y-9198000D01*
X16190194Y-9201925D02*
X16230194Y-9241925D01*
X16230194Y-9201925D02*
X16190194Y-9241925D01*
X16230000Y-11080000D02*
X16270000Y-11120000D01*
X16270000Y-11080000D02*
X16230000Y-11120000D01*
X16380000Y-9155000D02*
X16420000Y-9195000D01*
X16420000Y-9155000D02*
X16380000Y-9195000D01*
X16405000Y-8130000D02*
X16445000Y-8170000D01*
X16445000Y-8130000D02*
X16405000Y-8170000D01*
X16430000Y-10155000D02*
X16470000Y-10195000D01*
X16470000Y-10155000D02*
X16430000Y-10195000D01*
X16430000Y-10955000D02*
X16470000Y-10995000D01*
X16470000Y-10955000D02*
X16430000Y-10995000D01*
X16705000Y-10930000D02*
X16745000Y-10970000D01*
X16745000Y-10930000D02*
X16705000Y-10970000D01*
X16905000Y-11805000D02*
X16945000Y-11845000D01*
X16945000Y-11805000D02*
X16905000Y-11845000D01*
X17405000Y-8280000D02*
X17445000Y-8320000D01*
X17445000Y-8280000D02*
X17405000Y-8320000D01*
X17480000Y-6905000D02*
X17520000Y-6945000D01*
X17520000Y-6905000D02*
X17480000Y-6945000D01*
X17530000Y-11180000D02*
X17570000Y-11220000D01*
X17570000Y-11180000D02*
X17530000Y-11220000D01*
X17762773Y-9424478D02*
X17802773Y-9464478D01*
X17802773Y-9424478D02*
X17762773Y-9464478D01*
X18280000Y-8905000D02*
X18320000Y-8945000D01*
X18320000Y-8905000D02*
X18280000Y-8945000D01*
X19200000Y-9260000D02*
X19240000Y-9300000D01*
X19240000Y-9260000D02*
X19200000Y-9300000D01*
X16488000Y-11595000D02*
G75*
G03X16488000Y-11595000I-39000J0D01*
G01*
X16488000Y-15405000D02*
G75*
G03X16488000Y-15405000I-39000J0D01*
G01*
X16742000Y-11595000D02*
G75*
G03X16742000Y-11595000I-39000J0D01*
G01*
X16742000Y-15405000D02*
G75*
G03X16742000Y-15405000I-39000J0D01*
G01*
X16996000Y-11595000D02*
G75*
G03X16996000Y-11595000I-39000J0D01*
G01*
X17250000Y-11595000D02*
G75*
G03X17250000Y-11595000I-39000J0D01*
G01*
X17504000Y-11595000D02*
G75*
G03X17504000Y-11595000I-39000J0D01*
G01*
X17758000Y-11595000D02*
G75*
G03X17758000Y-11595000I-39000J0D01*
G01*
X18012000Y-11595000D02*
G75*
G03X18012000Y-11595000I-39000J0D01*
G01*
X18266000Y-11595000D02*
G75*
G03X18266000Y-11595000I-39000J0D01*
G01*
X18520000Y-11595000D02*
G75*
G03X18520000Y-11595000I-39000J0D01*
G01*
X18774000Y-11595000D02*
G75*
G03X18774000Y-11595000I-39000J0D01*
G01*
X19028000Y-11595000D02*
G75*
G03X19028000Y-11595000I-39000J0D01*
G01*
X19282000Y-11595000D02*
G75*
G03X19282000Y-11595000I-39000J0D01*
G01*
X19536000Y-11595000D02*
G75*
G03X19536000Y-11595000I-39000J0D01*
G01*
X19536000Y-15405000D02*
G75*
G03X19536000Y-15405000I-39000J0D01*
G01*
X19790000Y-11595000D02*
G75*
G03X19790000Y-11595000I-39000J0D01*
G01*
X19790000Y-15405000D02*
G75*
G03X19790000Y-15405000I-39000J0D01*
G01*
X13100000Y-13163000D02*
X13100000Y-13253000D01*
X13055000Y-13208000D02*
X13145000Y-13208000D01*
X13354000Y-13163000D02*
X13354000Y-13253000D01*
X13309000Y-13208000D02*
X13399000Y-13208000D01*
X11900000Y-13163000D02*
X11900000Y-13253000D01*
X11855000Y-13208000D02*
X11945000Y-13208000D01*
X12154000Y-13163000D02*
X12154000Y-13253000D01*
X12109000Y-13208000D02*
X12199000Y-13208000D01*
X13700000Y-13163000D02*
X13700000Y-13253000D01*
X13655000Y-13208000D02*
X13745000Y-13208000D01*
X13954000Y-13163000D02*
X13954000Y-13253000D01*
X13909000Y-13208000D02*
X13999000Y-13208000D01*
X19775000Y-9160000D02*
X19775000Y-9250000D01*
X19730000Y-9205000D02*
X19820000Y-9205000D01*
X19695000Y-9240000D02*
X19855000Y-9240000D01*
X19695000Y-9170000D02*
X19855000Y-9170000D01*
X19855000Y-9240000D02*
G75*
G03X19855000Y-9170000I0J35000D01*
G01*
X19695000Y-9170000D02*
G75*
G03X19695000Y-9240000I0J-35000D01*
G01*
X19775000Y-10300000D02*
X19775000Y-10390000D01*
X19730000Y-10345000D02*
X19820000Y-10345000D01*
X19695000Y-10380000D02*
X19855000Y-10380000D01*
X19695000Y-10310000D02*
X19855000Y-10310000D01*
X19855000Y-10380000D02*
G75*
G03X19855000Y-10310000I0J35000D01*
G01*
X19695000Y-10310000D02*
G75*
G03X19695000Y-10380000I0J-35000D01*
G01*
X12500000Y-13163000D02*
X12500000Y-13253000D01*
X12455000Y-13208000D02*
X12545000Y-13208000D01*
X12754000Y-13163000D02*
X12754000Y-13253000D01*
X12709000Y-13208000D02*
X12799000Y-13208000D01*
X10560356Y-13735356D02*
X10560356Y-13664644D01*
X10489644Y-13664644D01*
X10489644Y-13735356D01*
X10560356Y-13735356D01*
X10935356Y-13735356D02*
X10935356Y-13664644D01*
X10864644Y-13664644D01*
X10864644Y-13735356D01*
X10935356Y-13735356D01*
X11310356Y-13735356D02*
X11310356Y-13664644D01*
X11239644Y-13664644D01*
X11239644Y-13735356D01*
X11310356Y-13735356D01*
X10560356Y-12260356D02*
X10560356Y-12189644D01*
X10489644Y-12189644D01*
X10489644Y-12260356D01*
X10560356Y-12260356D01*
X10935356Y-12260356D02*
X10935356Y-12189644D01*
X10864644Y-12189644D01*
X10864644Y-12260356D01*
X10935356Y-12260356D01*
X11310356Y-12260356D02*
X11310356Y-12189644D01*
X11239644Y-12189644D01*
X11239644Y-12260356D01*
X11310356Y-12260356D01*
X10560356Y-15235356D02*
X10560356Y-15164644D01*
X10489644Y-15164644D01*
X10489644Y-15235356D01*
X10560356Y-15235356D01*
X10935356Y-15235356D02*
X10935356Y-15164644D01*
X10864644Y-15164644D01*
X10864644Y-15235356D01*
X10935356Y-15235356D01*
X11310356Y-15235356D02*
X11310356Y-15164644D01*
X11239644Y-15164644D01*
X11239644Y-15235356D01*
X11310356Y-15235356D01*
X19675000Y-7290000D02*
X19735000Y-7230000D01*
X19675000Y-7170000D01*
X19615000Y-7230000D01*
X19675000Y-7290000D01*
X19675000Y-7544000D02*
X19735000Y-7484000D01*
X19675000Y-7424000D01*
X19615000Y-7484000D01*
X19675000Y-7544000D01*
X19675000Y-7798000D02*
X19735000Y-7738000D01*
X19675000Y-7678000D01*
X19615000Y-7738000D01*
X19675000Y-7798000D01*
X19675000Y-8052000D02*
X19735000Y-7992000D01*
X19675000Y-7932000D01*
X19615000Y-7992000D01*
X19675000Y-8052000D01*
X19675000Y-8306000D02*
X19735000Y-8246000D01*
X19675000Y-8186000D01*
X19615000Y-8246000D01*
X19675000Y-8306000D01*
X19675000Y-8560000D02*
X19735000Y-8500000D01*
X19675000Y-8440000D01*
X19615000Y-8500000D01*
X19675000Y-8560000D01*
X12200000Y-10506000D02*
X12260000Y-10446000D01*
X12200000Y-10386000D01*
X12140000Y-10446000D01*
X12200000Y-10506000D01*
X12200000Y-10760000D02*
X12260000Y-10700000D01*
X12200000Y-10640000D01*
X12140000Y-10700000D01*
X12200000Y-10760000D01*
X15740000Y-6575000D02*
X15890000Y-6725000D01*
X15890000Y-6575000D02*
X15740000Y-6725000D01*
X15890000Y-6650000D02*
G75*
G03X15890000Y-6650000I-75000J0D01*
G01*
X16115000Y-6140000D02*
X16265000Y-6290000D01*
X16265000Y-6140000D02*
X16115000Y-6290000D01*
X16265000Y-6215000D02*
G75*
G03X16265000Y-6215000I-75000J0D01*
G01*
X16490000Y-6575000D02*
X16640000Y-6725000D01*
X16640000Y-6575000D02*
X16490000Y-6725000D01*
X16640000Y-6650000D02*
G75*
G03X16640000Y-6650000I-75000J0D01*
G01*
X13680000Y-5885000D02*
X13840000Y-6045000D01*
X13840000Y-5885000D02*
X13680000Y-6045000D01*
X13760000Y-5885000D02*
X13760000Y-6045000D01*
X13680000Y-5965000D02*
X13840000Y-5965000D01*
X13685000Y-6520000D02*
X13845000Y-6680000D01*
X13845000Y-6520000D02*
X13685000Y-6680000D01*
X13765000Y-6520000D02*
X13765000Y-6680000D01*
X13685000Y-6600000D02*
X13845000Y-6600000D01*
X13685000Y-7155000D02*
X13845000Y-7315000D01*
X13845000Y-7155000D02*
X13685000Y-7315000D01*
X13765000Y-7155000D02*
X13765000Y-7315000D01*
X13685000Y-7235000D02*
X13845000Y-7235000D01*
X14855000Y-6520000D02*
X15015000Y-6680000D01*
X15015000Y-6520000D02*
X14855000Y-6680000D01*
X14935000Y-6520000D02*
X14935000Y-6680000D01*
X14855000Y-6600000D02*
X15015000Y-6600000D01*
X14855000Y-7155000D02*
X15015000Y-7315000D01*
X15015000Y-7155000D02*
X14855000Y-7315000D01*
X14935000Y-7155000D02*
X14935000Y-7315000D01*
X14855000Y-7235000D02*
X15015000Y-7235000D01*
X14860000Y-5885000D02*
X15020000Y-6045000D01*
X15020000Y-5885000D02*
X14860000Y-6045000D01*
X14940000Y-5885000D02*
X14940000Y-6045000D01*
X14860000Y-5965000D02*
X15020000Y-5965000D01*
X18125000Y-7475000D02*
X18575000Y-7925000D01*
X18575000Y-7475000D02*
X18125000Y-7925000D01*
X18509101Y-7859101D02*
X18509101Y-7540899D01*
X18190899Y-7540899D01*
X18190899Y-7859101D01*
X18509101Y-7859101D01*
X11125000Y-6975000D02*
X11575000Y-7425000D01*
X11575000Y-6975000D02*
X11125000Y-7425000D01*
X11509101Y-7359101D02*
X11509101Y-7040899D01*
X11190899Y-7040899D01*
X11190899Y-7359101D01*
X11509101Y-7359101D01*
D11*
X10376428Y-15975714D02*
X10376428Y-15675714D01*
X10447857Y-15675714D01*
X10490714Y-15690000D01*
X10519286Y-15718571D01*
X10533571Y-15747143D01*
X10547857Y-15804286D01*
X10547857Y-15847143D01*
X10533571Y-15904286D01*
X10519286Y-15932857D01*
X10490714Y-15961429D01*
X10447857Y-15975714D01*
X10376428Y-15975714D01*
X10676428Y-15975714D02*
X10676428Y-15775714D01*
X10676428Y-15832857D02*
X10690714Y-15804286D01*
X10705000Y-15790000D01*
X10733571Y-15775714D01*
X10762143Y-15775714D01*
X10862143Y-15975714D02*
X10862143Y-15775714D01*
X10862143Y-15675714D02*
X10847857Y-15690000D01*
X10862143Y-15704286D01*
X10876428Y-15690000D01*
X10862143Y-15675714D01*
X10862143Y-15704286D01*
X11047857Y-15975714D02*
X11019286Y-15961429D01*
X11005000Y-15932857D01*
X11005000Y-15675714D01*
X11205000Y-15975714D02*
X11176428Y-15961429D01*
X11162143Y-15932857D01*
X11162143Y-15675714D01*
X11547857Y-15975714D02*
X11547857Y-15675714D01*
X11647857Y-15890000D01*
X11747857Y-15675714D01*
X11747857Y-15975714D01*
X12019286Y-15975714D02*
X12019286Y-15818571D01*
X12005000Y-15790000D01*
X11976428Y-15775714D01*
X11919286Y-15775714D01*
X11890714Y-15790000D01*
X12019286Y-15961429D02*
X11990714Y-15975714D01*
X11919286Y-15975714D01*
X11890714Y-15961429D01*
X11876428Y-15932857D01*
X11876428Y-15904286D01*
X11890714Y-15875714D01*
X11919286Y-15861429D01*
X11990714Y-15861429D01*
X12019286Y-15847143D01*
X12162143Y-15775714D02*
X12162143Y-16075714D01*
X12162143Y-15790000D02*
X12190714Y-15775714D01*
X12247857Y-15775714D01*
X12276428Y-15790000D01*
X12290714Y-15804286D01*
X12305000Y-15832857D01*
X12305000Y-15918571D01*
X12290714Y-15947143D01*
X12276428Y-15961429D01*
X12247857Y-15975714D01*
X12190714Y-15975714D01*
X12162143Y-15961429D01*
X12433571Y-15947143D02*
X12447857Y-15961429D01*
X12433571Y-15975714D01*
X12419286Y-15961429D01*
X12433571Y-15947143D01*
X12433571Y-15975714D01*
X12433571Y-15790000D02*
X12447857Y-15804286D01*
X12433571Y-15818571D01*
X12419286Y-15804286D01*
X12433571Y-15790000D01*
X12433571Y-15818571D01*
X10050000Y-16450000D02*
X10090000Y-16490000D01*
X10090000Y-16450000D02*
X10050000Y-16490000D01*
X10433571Y-16305714D02*
X10462143Y-16305714D01*
X10490714Y-16320000D01*
X10505000Y-16334286D01*
X10519286Y-16362857D01*
X10533571Y-16420000D01*
X10533571Y-16491429D01*
X10519286Y-16548571D01*
X10505000Y-16577143D01*
X10490714Y-16591429D01*
X10462143Y-16605714D01*
X10433571Y-16605714D01*
X10405000Y-16591429D01*
X10390714Y-16577143D01*
X10376428Y-16548571D01*
X10362143Y-16491429D01*
X10362143Y-16420000D01*
X10376428Y-16362857D01*
X10390714Y-16334286D01*
X10405000Y-16320000D01*
X10433571Y-16305714D01*
X10662143Y-16577143D02*
X10676428Y-16591429D01*
X10662143Y-16605714D01*
X10647857Y-16591429D01*
X10662143Y-16577143D01*
X10662143Y-16605714D01*
X10933571Y-16405714D02*
X10933571Y-16605714D01*
X10862143Y-16291429D02*
X10790714Y-16505714D01*
X10976428Y-16505714D01*
X11147857Y-16305714D02*
X11176428Y-16305714D01*
X11205000Y-16320000D01*
X11219286Y-16334286D01*
X11233571Y-16362857D01*
X11247857Y-16420000D01*
X11247857Y-16491429D01*
X11233571Y-16548571D01*
X11219286Y-16577143D01*
X11205000Y-16591429D01*
X11176428Y-16605714D01*
X11147857Y-16605714D01*
X11119286Y-16591429D01*
X11105000Y-16577143D01*
X11090714Y-16548571D01*
X11076428Y-16491429D01*
X11076428Y-16420000D01*
X11090714Y-16362857D01*
X11105000Y-16334286D01*
X11119286Y-16320000D01*
X11147857Y-16305714D01*
X11376428Y-16605714D02*
X11376428Y-16405714D01*
X11376428Y-16434286D02*
X11390714Y-16420000D01*
X11419286Y-16405714D01*
X11462143Y-16405714D01*
X11490714Y-16420000D01*
X11505000Y-16448571D01*
X11505000Y-16605714D01*
X11505000Y-16448571D02*
X11519286Y-16420000D01*
X11547857Y-16405714D01*
X11590714Y-16405714D01*
X11619286Y-16420000D01*
X11633571Y-16448571D01*
X11633571Y-16605714D01*
X11776428Y-16605714D02*
X11776428Y-16405714D01*
X11776428Y-16434286D02*
X11790714Y-16420000D01*
X11819286Y-16405714D01*
X11862143Y-16405714D01*
X11890714Y-16420000D01*
X11905000Y-16448571D01*
X11905000Y-16605714D01*
X11905000Y-16448571D02*
X11919286Y-16420000D01*
X11947857Y-16405714D01*
X11990714Y-16405714D01*
X12019286Y-16420000D01*
X12033571Y-16448571D01*
X12033571Y-16605714D01*
X12619286Y-16291429D02*
X12362143Y-16677143D01*
X13005000Y-16305714D02*
X13033571Y-16305714D01*
X13062143Y-16320000D01*
X13076428Y-16334286D01*
X13090714Y-16362857D01*
X13105000Y-16420000D01*
X13105000Y-16491429D01*
X13090714Y-16548571D01*
X13076428Y-16577143D01*
X13062143Y-16591429D01*
X13033571Y-16605714D01*
X13005000Y-16605714D01*
X12976428Y-16591429D01*
X12962143Y-16577143D01*
X12947857Y-16548571D01*
X12933571Y-16491429D01*
X12933571Y-16420000D01*
X12947857Y-16362857D01*
X12962143Y-16334286D01*
X12976428Y-16320000D01*
X13005000Y-16305714D01*
X13233571Y-16577143D02*
X13247857Y-16591429D01*
X13233571Y-16605714D01*
X13219286Y-16591429D01*
X13233571Y-16577143D01*
X13233571Y-16605714D01*
X13433571Y-16305714D02*
X13462143Y-16305714D01*
X13490714Y-16320000D01*
X13505000Y-16334286D01*
X13519286Y-16362857D01*
X13533571Y-16420000D01*
X13533571Y-16491429D01*
X13519286Y-16548571D01*
X13505000Y-16577143D01*
X13490714Y-16591429D01*
X13462143Y-16605714D01*
X13433571Y-16605714D01*
X13405000Y-16591429D01*
X13390714Y-16577143D01*
X13376428Y-16548571D01*
X13362143Y-16491429D01*
X13362143Y-16420000D01*
X13376428Y-16362857D01*
X13390714Y-16334286D01*
X13405000Y-16320000D01*
X13433571Y-16305714D01*
X13819286Y-16605714D02*
X13647857Y-16605714D01*
X13733571Y-16605714D02*
X13733571Y-16305714D01*
X13705000Y-16348571D01*
X13676428Y-16377143D01*
X13647857Y-16391429D01*
X14076428Y-16305714D02*
X14019286Y-16305714D01*
X13990714Y-16320000D01*
X13976428Y-16334286D01*
X13947857Y-16377143D01*
X13933571Y-16434286D01*
X13933571Y-16548571D01*
X13947857Y-16577143D01*
X13962143Y-16591429D01*
X13990714Y-16605714D01*
X14047857Y-16605714D01*
X14076428Y-16591429D01*
X14090714Y-16577143D01*
X14105000Y-16548571D01*
X14105000Y-16477143D01*
X14090714Y-16448571D01*
X14076428Y-16434286D01*
X14047857Y-16420000D01*
X13990714Y-16420000D01*
X13962143Y-16434286D01*
X13947857Y-16448571D01*
X13933571Y-16477143D01*
X14219286Y-16305714D02*
X14219286Y-16362857D01*
X14333571Y-16305714D02*
X14333571Y-16362857D01*
X14776428Y-16720000D02*
X14762143Y-16705714D01*
X14733571Y-16662857D01*
X14719286Y-16634286D01*
X14705000Y-16591429D01*
X14690714Y-16520000D01*
X14690714Y-16462857D01*
X14705000Y-16391429D01*
X14719286Y-16348571D01*
X14733571Y-16320000D01*
X14762143Y-16277143D01*
X14776428Y-16262857D01*
X14933571Y-16434286D02*
X14905000Y-16420000D01*
X14890714Y-16405714D01*
X14876428Y-16377143D01*
X14876428Y-16362857D01*
X14890714Y-16334286D01*
X14905000Y-16320000D01*
X14933571Y-16305714D01*
X14990714Y-16305714D01*
X15019286Y-16320000D01*
X15033571Y-16334286D01*
X15047857Y-16362857D01*
X15047857Y-16377143D01*
X15033571Y-16405714D01*
X15019286Y-16420000D01*
X14990714Y-16434286D01*
X14933571Y-16434286D01*
X14905000Y-16448571D01*
X14890714Y-16462857D01*
X14876428Y-16491429D01*
X14876428Y-16548571D01*
X14890714Y-16577143D01*
X14905000Y-16591429D01*
X14933571Y-16605714D01*
X14990714Y-16605714D01*
X15019286Y-16591429D01*
X15033571Y-16577143D01*
X15047857Y-16548571D01*
X15047857Y-16491429D01*
X15033571Y-16462857D01*
X15019286Y-16448571D01*
X14990714Y-16434286D01*
X15333571Y-16605714D02*
X15162143Y-16605714D01*
X15247857Y-16605714D02*
X15247857Y-16305714D01*
X15219286Y-16348571D01*
X15190714Y-16377143D01*
X15162143Y-16391429D01*
X15690714Y-16605714D02*
X15690714Y-16305714D01*
X15819286Y-16605714D02*
X15819286Y-16448571D01*
X15805000Y-16420000D01*
X15776428Y-16405714D01*
X15733571Y-16405714D01*
X15705000Y-16420000D01*
X15690714Y-16434286D01*
X16005000Y-16605714D02*
X15976428Y-16591429D01*
X15962143Y-16577143D01*
X15947857Y-16548571D01*
X15947857Y-16462857D01*
X15962143Y-16434286D01*
X15976428Y-16420000D01*
X16005000Y-16405714D01*
X16047857Y-16405714D01*
X16076428Y-16420000D01*
X16090714Y-16434286D01*
X16105000Y-16462857D01*
X16105000Y-16548571D01*
X16090714Y-16577143D01*
X16076428Y-16591429D01*
X16047857Y-16605714D01*
X16005000Y-16605714D01*
X16276428Y-16605714D02*
X16247857Y-16591429D01*
X16233571Y-16562857D01*
X16233571Y-16305714D01*
X16505000Y-16591429D02*
X16476428Y-16605714D01*
X16419286Y-16605714D01*
X16390714Y-16591429D01*
X16376428Y-16562857D01*
X16376428Y-16448571D01*
X16390714Y-16420000D01*
X16419286Y-16405714D01*
X16476428Y-16405714D01*
X16505000Y-16420000D01*
X16519286Y-16448571D01*
X16519286Y-16477143D01*
X16376428Y-16505714D01*
X16633571Y-16591429D02*
X16662143Y-16605714D01*
X16719286Y-16605714D01*
X16747857Y-16591429D01*
X16762143Y-16562857D01*
X16762143Y-16548571D01*
X16747857Y-16520000D01*
X16719286Y-16505714D01*
X16676428Y-16505714D01*
X16647857Y-16491429D01*
X16633571Y-16462857D01*
X16633571Y-16448571D01*
X16647857Y-16420000D01*
X16676428Y-16405714D01*
X16719286Y-16405714D01*
X16747857Y-16420000D01*
X16862143Y-16720000D02*
X16876428Y-16705714D01*
X16905000Y-16662857D01*
X16919286Y-16634286D01*
X16933571Y-16591429D01*
X16947857Y-16520000D01*
X16947857Y-16462857D01*
X16933571Y-16391429D01*
X16919286Y-16348571D01*
X16905000Y-16320000D01*
X16876428Y-16277143D01*
X16862143Y-16262857D01*
X10090000Y-16866000D02*
G75*
G03X10090000Y-16866000I-39000J0D01*
G01*
X10433571Y-16701714D02*
X10462143Y-16701714D01*
X10490714Y-16716000D01*
X10505000Y-16730286D01*
X10519286Y-16758857D01*
X10533571Y-16816000D01*
X10533571Y-16887429D01*
X10519286Y-16944572D01*
X10505000Y-16973143D01*
X10490714Y-16987429D01*
X10462143Y-17001714D01*
X10433571Y-17001714D01*
X10405000Y-16987429D01*
X10390714Y-16973143D01*
X10376428Y-16944572D01*
X10362143Y-16887429D01*
X10362143Y-16816000D01*
X10376428Y-16758857D01*
X10390714Y-16730286D01*
X10405000Y-16716000D01*
X10433571Y-16701714D01*
X10662143Y-16973143D02*
X10676428Y-16987429D01*
X10662143Y-17001714D01*
X10647857Y-16987429D01*
X10662143Y-16973143D01*
X10662143Y-17001714D01*
X10776428Y-16701714D02*
X10976428Y-16701714D01*
X10847857Y-17001714D01*
X11133571Y-16830286D02*
X11105000Y-16816000D01*
X11090714Y-16801714D01*
X11076428Y-16773143D01*
X11076428Y-16758857D01*
X11090714Y-16730286D01*
X11105000Y-16716000D01*
X11133571Y-16701714D01*
X11190714Y-16701714D01*
X11219286Y-16716000D01*
X11233571Y-16730286D01*
X11247857Y-16758857D01*
X11247857Y-16773143D01*
X11233571Y-16801714D01*
X11219286Y-16816000D01*
X11190714Y-16830286D01*
X11133571Y-16830286D01*
X11105000Y-16844572D01*
X11090714Y-16858857D01*
X11076428Y-16887429D01*
X11076428Y-16944572D01*
X11090714Y-16973143D01*
X11105000Y-16987429D01*
X11133571Y-17001714D01*
X11190714Y-17001714D01*
X11219286Y-16987429D01*
X11233571Y-16973143D01*
X11247857Y-16944572D01*
X11247857Y-16887429D01*
X11233571Y-16858857D01*
X11219286Y-16844572D01*
X11190714Y-16830286D01*
X11376428Y-17001714D02*
X11376428Y-16801714D01*
X11376428Y-16830286D02*
X11390714Y-16816000D01*
X11419286Y-16801714D01*
X11462143Y-16801714D01*
X11490714Y-16816000D01*
X11505000Y-16844572D01*
X11505000Y-17001714D01*
X11505000Y-16844572D02*
X11519286Y-16816000D01*
X11547857Y-16801714D01*
X11590714Y-16801714D01*
X11619286Y-16816000D01*
X11633571Y-16844572D01*
X11633571Y-17001714D01*
X11776428Y-17001714D02*
X11776428Y-16801714D01*
X11776428Y-16830286D02*
X11790714Y-16816000D01*
X11819286Y-16801714D01*
X11862143Y-16801714D01*
X11890714Y-16816000D01*
X11905000Y-16844572D01*
X11905000Y-17001714D01*
X11905000Y-16844572D02*
X11919286Y-16816000D01*
X11947857Y-16801714D01*
X11990714Y-16801714D01*
X12019286Y-16816000D01*
X12033571Y-16844572D01*
X12033571Y-17001714D01*
X12619286Y-16687429D02*
X12362143Y-17073143D01*
X13005000Y-16701714D02*
X13033571Y-16701714D01*
X13062143Y-16716000D01*
X13076428Y-16730286D01*
X13090714Y-16758857D01*
X13105000Y-16816000D01*
X13105000Y-16887429D01*
X13090714Y-16944572D01*
X13076428Y-16973143D01*
X13062143Y-16987429D01*
X13033571Y-17001714D01*
X13005000Y-17001714D01*
X12976428Y-16987429D01*
X12962143Y-16973143D01*
X12947857Y-16944572D01*
X12933571Y-16887429D01*
X12933571Y-16816000D01*
X12947857Y-16758857D01*
X12962143Y-16730286D01*
X12976428Y-16716000D01*
X13005000Y-16701714D01*
X13233571Y-16973143D02*
X13247857Y-16987429D01*
X13233571Y-17001714D01*
X13219286Y-16987429D01*
X13233571Y-16973143D01*
X13233571Y-17001714D01*
X13433571Y-16701714D02*
X13462143Y-16701714D01*
X13490714Y-16716000D01*
X13505000Y-16730286D01*
X13519286Y-16758857D01*
X13533571Y-16816000D01*
X13533571Y-16887429D01*
X13519286Y-16944572D01*
X13505000Y-16973143D01*
X13490714Y-16987429D01*
X13462143Y-17001714D01*
X13433571Y-17001714D01*
X13405000Y-16987429D01*
X13390714Y-16973143D01*
X13376428Y-16944572D01*
X13362143Y-16887429D01*
X13362143Y-16816000D01*
X13376428Y-16758857D01*
X13390714Y-16730286D01*
X13405000Y-16716000D01*
X13433571Y-16701714D01*
X13633571Y-16701714D02*
X13819286Y-16701714D01*
X13719286Y-16816000D01*
X13762143Y-16816000D01*
X13790714Y-16830286D01*
X13805000Y-16844572D01*
X13819286Y-16873143D01*
X13819286Y-16944572D01*
X13805000Y-16973143D01*
X13790714Y-16987429D01*
X13762143Y-17001714D01*
X13676428Y-17001714D01*
X13647857Y-16987429D01*
X13633571Y-16973143D01*
X14105000Y-17001714D02*
X13933571Y-17001714D01*
X14019286Y-17001714D02*
X14019286Y-16701714D01*
X13990714Y-16744571D01*
X13962143Y-16773143D01*
X13933571Y-16787429D01*
X14219286Y-16701714D02*
X14219286Y-16758857D01*
X14333571Y-16701714D02*
X14333571Y-16758857D01*
X14776428Y-17116000D02*
X14762143Y-17101714D01*
X14733571Y-17058857D01*
X14719286Y-17030286D01*
X14705000Y-16987429D01*
X14690714Y-16916000D01*
X14690714Y-16858857D01*
X14705000Y-16787429D01*
X14719286Y-16744571D01*
X14733571Y-16716000D01*
X14762143Y-16673143D01*
X14776428Y-16658857D01*
X15047857Y-17001714D02*
X14876428Y-17001714D01*
X14962143Y-17001714D02*
X14962143Y-16701714D01*
X14933571Y-16744571D01*
X14905000Y-16773143D01*
X14876428Y-16787429D01*
X15219286Y-16830286D02*
X15190714Y-16816000D01*
X15176428Y-16801714D01*
X15162143Y-16773143D01*
X15162143Y-16758857D01*
X15176428Y-16730286D01*
X15190714Y-16716000D01*
X15219286Y-16701714D01*
X15276428Y-16701714D01*
X15305000Y-16716000D01*
X15319286Y-16730286D01*
X15333571Y-16758857D01*
X15333571Y-16773143D01*
X15319286Y-16801714D01*
X15305000Y-16816000D01*
X15276428Y-16830286D01*
X15219286Y-16830286D01*
X15190714Y-16844572D01*
X15176428Y-16858857D01*
X15162143Y-16887429D01*
X15162143Y-16944572D01*
X15176428Y-16973143D01*
X15190714Y-16987429D01*
X15219286Y-17001714D01*
X15276428Y-17001714D01*
X15305000Y-16987429D01*
X15319286Y-16973143D01*
X15333571Y-16944572D01*
X15333571Y-16887429D01*
X15319286Y-16858857D01*
X15305000Y-16844572D01*
X15276428Y-16830286D01*
X15690714Y-17001714D02*
X15690714Y-16701714D01*
X15819286Y-17001714D02*
X15819286Y-16844572D01*
X15805000Y-16816000D01*
X15776428Y-16801714D01*
X15733571Y-16801714D01*
X15705000Y-16816000D01*
X15690714Y-16830286D01*
X16005000Y-17001714D02*
X15976428Y-16987429D01*
X15962143Y-16973143D01*
X15947857Y-16944572D01*
X15947857Y-16858857D01*
X15962143Y-16830286D01*
X15976428Y-16816000D01*
X16005000Y-16801714D01*
X16047857Y-16801714D01*
X16076428Y-16816000D01*
X16090714Y-16830286D01*
X16105000Y-16858857D01*
X16105000Y-16944572D01*
X16090714Y-16973143D01*
X16076428Y-16987429D01*
X16047857Y-17001714D01*
X16005000Y-17001714D01*
X16276428Y-17001714D02*
X16247857Y-16987429D01*
X16233571Y-16958857D01*
X16233571Y-16701714D01*
X16505000Y-16987429D02*
X16476428Y-17001714D01*
X16419286Y-17001714D01*
X16390714Y-16987429D01*
X16376428Y-16958857D01*
X16376428Y-16844572D01*
X16390714Y-16816000D01*
X16419286Y-16801714D01*
X16476428Y-16801714D01*
X16505000Y-16816000D01*
X16519286Y-16844572D01*
X16519286Y-16873143D01*
X16376428Y-16901714D01*
X16633571Y-16987429D02*
X16662143Y-17001714D01*
X16719286Y-17001714D01*
X16747857Y-16987429D01*
X16762143Y-16958857D01*
X16762143Y-16944572D01*
X16747857Y-16916000D01*
X16719286Y-16901714D01*
X16676428Y-16901714D01*
X16647857Y-16887429D01*
X16633571Y-16858857D01*
X16633571Y-16844572D01*
X16647857Y-16816000D01*
X16676428Y-16801714D01*
X16719286Y-16801714D01*
X16747857Y-16816000D01*
X16862143Y-17116000D02*
X16876428Y-17101714D01*
X16905000Y-17058857D01*
X16919286Y-17030286D01*
X16933571Y-16987429D01*
X16947857Y-16916000D01*
X16947857Y-16858857D01*
X16933571Y-16787429D01*
X16919286Y-16744571D01*
X16905000Y-16716000D01*
X16876428Y-16673143D01*
X16862143Y-16658857D01*
X10045000Y-17217000D02*
X10045000Y-17307000D01*
X10000000Y-17262000D02*
X10090000Y-17262000D01*
X10433571Y-17097714D02*
X10462143Y-17097714D01*
X10490714Y-17112000D01*
X10505000Y-17126286D01*
X10519286Y-17154857D01*
X10533571Y-17212000D01*
X10533571Y-17283429D01*
X10519286Y-17340572D01*
X10505000Y-17369143D01*
X10490714Y-17383429D01*
X10462143Y-17397714D01*
X10433571Y-17397714D01*
X10405000Y-17383429D01*
X10390714Y-17369143D01*
X10376428Y-17340572D01*
X10362143Y-17283429D01*
X10362143Y-17212000D01*
X10376428Y-17154857D01*
X10390714Y-17126286D01*
X10405000Y-17112000D01*
X10433571Y-17097714D01*
X10662143Y-17369143D02*
X10676428Y-17383429D01*
X10662143Y-17397714D01*
X10647857Y-17383429D01*
X10662143Y-17369143D01*
X10662143Y-17397714D01*
X10819286Y-17397714D02*
X10876428Y-17397714D01*
X10905000Y-17383429D01*
X10919286Y-17369143D01*
X10947857Y-17326286D01*
X10962143Y-17269143D01*
X10962143Y-17154857D01*
X10947857Y-17126286D01*
X10933571Y-17112000D01*
X10905000Y-17097714D01*
X10847857Y-17097714D01*
X10819286Y-17112000D01*
X10805000Y-17126286D01*
X10790714Y-17154857D01*
X10790714Y-17226286D01*
X10805000Y-17254857D01*
X10819286Y-17269143D01*
X10847857Y-17283429D01*
X10905000Y-17283429D01*
X10933571Y-17269143D01*
X10947857Y-17254857D01*
X10962143Y-17226286D01*
X11147857Y-17097714D02*
X11176428Y-17097714D01*
X11205000Y-17112000D01*
X11219286Y-17126286D01*
X11233571Y-17154857D01*
X11247857Y-17212000D01*
X11247857Y-17283429D01*
X11233571Y-17340572D01*
X11219286Y-17369143D01*
X11205000Y-17383429D01*
X11176428Y-17397714D01*
X11147857Y-17397714D01*
X11119286Y-17383429D01*
X11105000Y-17369143D01*
X11090714Y-17340572D01*
X11076428Y-17283429D01*
X11076428Y-17212000D01*
X11090714Y-17154857D01*
X11105000Y-17126286D01*
X11119286Y-17112000D01*
X11147857Y-17097714D01*
X11376428Y-17397714D02*
X11376428Y-17197714D01*
X11376428Y-17226286D02*
X11390714Y-17212000D01*
X11419286Y-17197714D01*
X11462143Y-17197714D01*
X11490714Y-17212000D01*
X11505000Y-17240572D01*
X11505000Y-17397714D01*
X11505000Y-17240572D02*
X11519286Y-17212000D01*
X11547857Y-17197714D01*
X11590714Y-17197714D01*
X11619286Y-17212000D01*
X11633571Y-17240572D01*
X11633571Y-17397714D01*
X11776428Y-17397714D02*
X11776428Y-17197714D01*
X11776428Y-17226286D02*
X11790714Y-17212000D01*
X11819286Y-17197714D01*
X11862143Y-17197714D01*
X11890714Y-17212000D01*
X11905000Y-17240572D01*
X11905000Y-17397714D01*
X11905000Y-17240572D02*
X11919286Y-17212000D01*
X11947857Y-17197714D01*
X11990714Y-17197714D01*
X12019286Y-17212000D01*
X12033571Y-17240572D01*
X12033571Y-17397714D01*
X12619286Y-17083429D02*
X12362143Y-17469143D01*
X13005000Y-17097714D02*
X13033571Y-17097714D01*
X13062143Y-17112000D01*
X13076428Y-17126286D01*
X13090714Y-17154857D01*
X13105000Y-17212000D01*
X13105000Y-17283429D01*
X13090714Y-17340572D01*
X13076428Y-17369143D01*
X13062143Y-17383429D01*
X13033571Y-17397714D01*
X13005000Y-17397714D01*
X12976428Y-17383429D01*
X12962143Y-17369143D01*
X12947857Y-17340572D01*
X12933571Y-17283429D01*
X12933571Y-17212000D01*
X12947857Y-17154857D01*
X12962143Y-17126286D01*
X12976428Y-17112000D01*
X13005000Y-17097714D01*
X13233571Y-17369143D02*
X13247857Y-17383429D01*
X13233571Y-17397714D01*
X13219286Y-17383429D01*
X13233571Y-17369143D01*
X13233571Y-17397714D01*
X13433571Y-17097714D02*
X13462143Y-17097714D01*
X13490714Y-17112000D01*
X13505000Y-17126286D01*
X13519286Y-17154857D01*
X13533571Y-17212000D01*
X13533571Y-17283429D01*
X13519286Y-17340572D01*
X13505000Y-17369143D01*
X13490714Y-17383429D01*
X13462143Y-17397714D01*
X13433571Y-17397714D01*
X13405000Y-17383429D01*
X13390714Y-17369143D01*
X13376428Y-17340572D01*
X13362143Y-17283429D01*
X13362143Y-17212000D01*
X13376428Y-17154857D01*
X13390714Y-17126286D01*
X13405000Y-17112000D01*
X13433571Y-17097714D01*
X13633571Y-17097714D02*
X13819286Y-17097714D01*
X13719286Y-17212000D01*
X13762143Y-17212000D01*
X13790714Y-17226286D01*
X13805000Y-17240572D01*
X13819286Y-17269143D01*
X13819286Y-17340572D01*
X13805000Y-17369143D01*
X13790714Y-17383429D01*
X13762143Y-17397714D01*
X13676428Y-17397714D01*
X13647857Y-17383429D01*
X13633571Y-17369143D01*
X14090714Y-17097714D02*
X13947857Y-17097714D01*
X13933571Y-17240572D01*
X13947857Y-17226286D01*
X13976428Y-17212000D01*
X14047857Y-17212000D01*
X14076428Y-17226286D01*
X14090714Y-17240572D01*
X14105000Y-17269143D01*
X14105000Y-17340572D01*
X14090714Y-17369143D01*
X14076428Y-17383429D01*
X14047857Y-17397714D01*
X13976428Y-17397714D01*
X13947857Y-17383429D01*
X13933571Y-17369143D01*
X14219286Y-17097714D02*
X14219286Y-17154857D01*
X14333571Y-17097714D02*
X14333571Y-17154857D01*
X14776428Y-17512000D02*
X14762143Y-17497714D01*
X14733571Y-17454857D01*
X14719286Y-17426286D01*
X14705000Y-17383429D01*
X14690714Y-17312000D01*
X14690714Y-17254857D01*
X14705000Y-17183429D01*
X14719286Y-17140572D01*
X14733571Y-17112000D01*
X14762143Y-17069143D01*
X14776428Y-17054857D01*
X14933571Y-17226286D02*
X14905000Y-17212000D01*
X14890714Y-17197714D01*
X14876428Y-17169143D01*
X14876428Y-17154857D01*
X14890714Y-17126286D01*
X14905000Y-17112000D01*
X14933571Y-17097714D01*
X14990714Y-17097714D01*
X15019286Y-17112000D01*
X15033571Y-17126286D01*
X15047857Y-17154857D01*
X15047857Y-17169143D01*
X15033571Y-17197714D01*
X15019286Y-17212000D01*
X14990714Y-17226286D01*
X14933571Y-17226286D01*
X14905000Y-17240572D01*
X14890714Y-17254857D01*
X14876428Y-17283429D01*
X14876428Y-17340572D01*
X14890714Y-17369143D01*
X14905000Y-17383429D01*
X14933571Y-17397714D01*
X14990714Y-17397714D01*
X15019286Y-17383429D01*
X15033571Y-17369143D01*
X15047857Y-17340572D01*
X15047857Y-17283429D01*
X15033571Y-17254857D01*
X15019286Y-17240572D01*
X14990714Y-17226286D01*
X15405000Y-17397714D02*
X15405000Y-17097714D01*
X15533571Y-17397714D02*
X15533571Y-17240572D01*
X15519286Y-17212000D01*
X15490714Y-17197714D01*
X15447857Y-17197714D01*
X15419286Y-17212000D01*
X15405000Y-17226286D01*
X15719286Y-17397714D02*
X15690714Y-17383429D01*
X15676428Y-17369143D01*
X15662143Y-17340572D01*
X15662143Y-17254857D01*
X15676428Y-17226286D01*
X15690714Y-17212000D01*
X15719286Y-17197714D01*
X15762143Y-17197714D01*
X15790714Y-17212000D01*
X15805000Y-17226286D01*
X15819286Y-17254857D01*
X15819286Y-17340572D01*
X15805000Y-17369143D01*
X15790714Y-17383429D01*
X15762143Y-17397714D01*
X15719286Y-17397714D01*
X15990714Y-17397714D02*
X15962143Y-17383429D01*
X15947857Y-17354857D01*
X15947857Y-17097714D01*
X16219286Y-17383429D02*
X16190714Y-17397714D01*
X16133571Y-17397714D01*
X16105000Y-17383429D01*
X16090714Y-17354857D01*
X16090714Y-17240572D01*
X16105000Y-17212000D01*
X16133571Y-17197714D01*
X16190714Y-17197714D01*
X16219286Y-17212000D01*
X16233571Y-17240572D01*
X16233571Y-17269143D01*
X16090714Y-17297714D01*
X16347857Y-17383429D02*
X16376428Y-17397714D01*
X16433571Y-17397714D01*
X16462143Y-17383429D01*
X16476428Y-17354857D01*
X16476428Y-17340572D01*
X16462143Y-17312000D01*
X16433571Y-17297714D01*
X16390714Y-17297714D01*
X16362143Y-17283429D01*
X16347857Y-17254857D01*
X16347857Y-17240572D01*
X16362143Y-17212000D01*
X16390714Y-17197714D01*
X16433571Y-17197714D01*
X16462143Y-17212000D01*
X16833571Y-17283429D02*
X17062143Y-17283429D01*
X16947857Y-17397714D02*
X16947857Y-17169143D01*
X17419286Y-17126286D02*
X17433571Y-17112000D01*
X17462143Y-17097714D01*
X17533571Y-17097714D01*
X17562143Y-17112000D01*
X17576428Y-17126286D01*
X17590714Y-17154857D01*
X17590714Y-17183429D01*
X17576428Y-17226286D01*
X17405000Y-17397714D01*
X17590714Y-17397714D01*
X17933571Y-17383429D02*
X17962143Y-17397714D01*
X18019286Y-17397714D01*
X18047857Y-17383429D01*
X18062143Y-17354857D01*
X18062143Y-17340572D01*
X18047857Y-17312000D01*
X18019286Y-17297714D01*
X17976428Y-17297714D01*
X17947857Y-17283429D01*
X17933571Y-17254857D01*
X17933571Y-17240572D01*
X17947857Y-17212000D01*
X17976428Y-17197714D01*
X18019286Y-17197714D01*
X18047857Y-17212000D01*
X18233571Y-17397714D02*
X18205000Y-17383429D01*
X18190714Y-17354857D01*
X18190714Y-17097714D01*
X18390714Y-17397714D02*
X18362143Y-17383429D01*
X18347857Y-17369143D01*
X18333571Y-17340572D01*
X18333571Y-17254857D01*
X18347857Y-17226286D01*
X18362143Y-17212000D01*
X18390714Y-17197714D01*
X18433571Y-17197714D01*
X18462143Y-17212000D01*
X18476428Y-17226286D01*
X18490714Y-17254857D01*
X18490714Y-17340572D01*
X18476428Y-17369143D01*
X18462143Y-17383429D01*
X18433571Y-17397714D01*
X18390714Y-17397714D01*
X18576428Y-17197714D02*
X18690714Y-17197714D01*
X18619286Y-17097714D02*
X18619286Y-17354857D01*
X18633571Y-17383429D01*
X18662143Y-17397714D01*
X18690714Y-17397714D01*
X18776428Y-17383429D02*
X18805000Y-17397714D01*
X18862143Y-17397714D01*
X18890714Y-17383429D01*
X18905000Y-17354857D01*
X18905000Y-17340572D01*
X18890714Y-17312000D01*
X18862143Y-17297714D01*
X18819286Y-17297714D01*
X18790714Y-17283429D01*
X18776428Y-17254857D01*
X18776428Y-17240572D01*
X18790714Y-17212000D01*
X18819286Y-17197714D01*
X18862143Y-17197714D01*
X18890714Y-17212000D01*
X19005000Y-17512000D02*
X19019286Y-17497714D01*
X19047857Y-17454857D01*
X19062143Y-17426286D01*
X19076428Y-17383429D01*
X19090714Y-17312000D01*
X19090714Y-17254857D01*
X19076428Y-17183429D01*
X19062143Y-17140572D01*
X19047857Y-17112000D01*
X19019286Y-17069143D01*
X19005000Y-17054857D01*
X10075356Y-17693356D02*
X10075356Y-17622644D01*
X10004644Y-17622644D01*
X10004644Y-17693356D01*
X10075356Y-17693356D01*
X10533571Y-17793714D02*
X10362143Y-17793714D01*
X10447857Y-17793714D02*
X10447857Y-17493714D01*
X10419286Y-17536572D01*
X10390714Y-17565143D01*
X10362143Y-17579429D01*
X10662143Y-17765143D02*
X10676428Y-17779429D01*
X10662143Y-17793714D01*
X10647857Y-17779429D01*
X10662143Y-17765143D01*
X10662143Y-17793714D01*
X10862143Y-17493714D02*
X10890714Y-17493714D01*
X10919286Y-17508000D01*
X10933571Y-17522286D01*
X10947857Y-17550857D01*
X10962143Y-17608000D01*
X10962143Y-17679429D01*
X10947857Y-17736572D01*
X10933571Y-17765143D01*
X10919286Y-17779429D01*
X10890714Y-17793714D01*
X10862143Y-17793714D01*
X10833571Y-17779429D01*
X10819286Y-17765143D01*
X10805000Y-17736572D01*
X10790714Y-17679429D01*
X10790714Y-17608000D01*
X10805000Y-17550857D01*
X10819286Y-17522286D01*
X10833571Y-17508000D01*
X10862143Y-17493714D01*
X11147857Y-17493714D02*
X11176428Y-17493714D01*
X11205000Y-17508000D01*
X11219286Y-17522286D01*
X11233571Y-17550857D01*
X11247857Y-17608000D01*
X11247857Y-17679429D01*
X11233571Y-17736572D01*
X11219286Y-17765143D01*
X11205000Y-17779429D01*
X11176428Y-17793714D01*
X11147857Y-17793714D01*
X11119286Y-17779429D01*
X11105000Y-17765143D01*
X11090714Y-17736572D01*
X11076428Y-17679429D01*
X11076428Y-17608000D01*
X11090714Y-17550857D01*
X11105000Y-17522286D01*
X11119286Y-17508000D01*
X11147857Y-17493714D01*
X11376428Y-17793714D02*
X11376428Y-17593714D01*
X11376428Y-17622286D02*
X11390714Y-17608000D01*
X11419286Y-17593714D01*
X11462143Y-17593714D01*
X11490714Y-17608000D01*
X11505000Y-17636572D01*
X11505000Y-17793714D01*
X11505000Y-17636572D02*
X11519286Y-17608000D01*
X11547857Y-17593714D01*
X11590714Y-17593714D01*
X11619286Y-17608000D01*
X11633571Y-17636572D01*
X11633571Y-17793714D01*
X11776428Y-17793714D02*
X11776428Y-17593714D01*
X11776428Y-17622286D02*
X11790714Y-17608000D01*
X11819286Y-17593714D01*
X11862143Y-17593714D01*
X11890714Y-17608000D01*
X11905000Y-17636572D01*
X11905000Y-17793714D01*
X11905000Y-17636572D02*
X11919286Y-17608000D01*
X11947857Y-17593714D01*
X11990714Y-17593714D01*
X12019286Y-17608000D01*
X12033571Y-17636572D01*
X12033571Y-17793714D01*
X12619286Y-17479429D02*
X12362143Y-17865143D01*
X13005000Y-17493714D02*
X13033571Y-17493714D01*
X13062143Y-17508000D01*
X13076428Y-17522286D01*
X13090714Y-17550857D01*
X13105000Y-17608000D01*
X13105000Y-17679429D01*
X13090714Y-17736572D01*
X13076428Y-17765143D01*
X13062143Y-17779429D01*
X13033571Y-17793714D01*
X13005000Y-17793714D01*
X12976428Y-17779429D01*
X12962143Y-17765143D01*
X12947857Y-17736572D01*
X12933571Y-17679429D01*
X12933571Y-17608000D01*
X12947857Y-17550857D01*
X12962143Y-17522286D01*
X12976428Y-17508000D01*
X13005000Y-17493714D01*
X13233571Y-17765143D02*
X13247857Y-17779429D01*
X13233571Y-17793714D01*
X13219286Y-17779429D01*
X13233571Y-17765143D01*
X13233571Y-17793714D01*
X13433571Y-17493714D02*
X13462143Y-17493714D01*
X13490714Y-17508000D01*
X13505000Y-17522286D01*
X13519286Y-17550857D01*
X13533571Y-17608000D01*
X13533571Y-17679429D01*
X13519286Y-17736572D01*
X13505000Y-17765143D01*
X13490714Y-17779429D01*
X13462143Y-17793714D01*
X13433571Y-17793714D01*
X13405000Y-17779429D01*
X13390714Y-17765143D01*
X13376428Y-17736572D01*
X13362143Y-17679429D01*
X13362143Y-17608000D01*
X13376428Y-17550857D01*
X13390714Y-17522286D01*
X13405000Y-17508000D01*
X13433571Y-17493714D01*
X13633571Y-17493714D02*
X13819286Y-17493714D01*
X13719286Y-17608000D01*
X13762143Y-17608000D01*
X13790714Y-17622286D01*
X13805000Y-17636572D01*
X13819286Y-17665143D01*
X13819286Y-17736572D01*
X13805000Y-17765143D01*
X13790714Y-17779429D01*
X13762143Y-17793714D01*
X13676428Y-17793714D01*
X13647857Y-17779429D01*
X13633571Y-17765143D01*
X13962143Y-17793714D02*
X14019286Y-17793714D01*
X14047857Y-17779429D01*
X14062143Y-17765143D01*
X14090714Y-17722286D01*
X14105000Y-17665143D01*
X14105000Y-17550857D01*
X14090714Y-17522286D01*
X14076428Y-17508000D01*
X14047857Y-17493714D01*
X13990714Y-17493714D01*
X13962143Y-17508000D01*
X13947857Y-17522286D01*
X13933571Y-17550857D01*
X13933571Y-17622286D01*
X13947857Y-17650857D01*
X13962143Y-17665143D01*
X13990714Y-17679429D01*
X14047857Y-17679429D01*
X14076428Y-17665143D01*
X14090714Y-17650857D01*
X14105000Y-17622286D01*
X14219286Y-17493714D02*
X14219286Y-17550857D01*
X14333571Y-17493714D02*
X14333571Y-17550857D01*
X14776428Y-17908000D02*
X14762143Y-17893714D01*
X14733571Y-17850857D01*
X14719286Y-17822286D01*
X14705000Y-17779429D01*
X14690714Y-17708000D01*
X14690714Y-17650857D01*
X14705000Y-17579429D01*
X14719286Y-17536572D01*
X14733571Y-17508000D01*
X14762143Y-17465143D01*
X14776428Y-17450857D01*
X14905000Y-17793714D02*
X14962143Y-17793714D01*
X14990714Y-17779429D01*
X15005000Y-17765143D01*
X15033571Y-17722286D01*
X15047857Y-17665143D01*
X15047857Y-17550857D01*
X15033571Y-17522286D01*
X15019286Y-17508000D01*
X14990714Y-17493714D01*
X14933571Y-17493714D01*
X14905000Y-17508000D01*
X14890714Y-17522286D01*
X14876428Y-17550857D01*
X14876428Y-17622286D01*
X14890714Y-17650857D01*
X14905000Y-17665143D01*
X14933571Y-17679429D01*
X14990714Y-17679429D01*
X15019286Y-17665143D01*
X15033571Y-17650857D01*
X15047857Y-17622286D01*
X15405000Y-17793714D02*
X15405000Y-17493714D01*
X15533571Y-17793714D02*
X15533571Y-17636572D01*
X15519286Y-17608000D01*
X15490714Y-17593714D01*
X15447857Y-17593714D01*
X15419286Y-17608000D01*
X15405000Y-17622286D01*
X15719286Y-17793714D02*
X15690714Y-17779429D01*
X15676428Y-17765143D01*
X15662143Y-17736572D01*
X15662143Y-17650857D01*
X15676428Y-17622286D01*
X15690714Y-17608000D01*
X15719286Y-17593714D01*
X15762143Y-17593714D01*
X15790714Y-17608000D01*
X15805000Y-17622286D01*
X15819286Y-17650857D01*
X15819286Y-17736572D01*
X15805000Y-17765143D01*
X15790714Y-17779429D01*
X15762143Y-17793714D01*
X15719286Y-17793714D01*
X15990714Y-17793714D02*
X15962143Y-17779429D01*
X15947857Y-17750857D01*
X15947857Y-17493714D01*
X16219286Y-17779429D02*
X16190714Y-17793714D01*
X16133571Y-17793714D01*
X16105000Y-17779429D01*
X16090714Y-17750857D01*
X16090714Y-17636572D01*
X16105000Y-17608000D01*
X16133571Y-17593714D01*
X16190714Y-17593714D01*
X16219286Y-17608000D01*
X16233571Y-17636572D01*
X16233571Y-17665143D01*
X16090714Y-17693714D01*
X16347857Y-17779429D02*
X16376428Y-17793714D01*
X16433571Y-17793714D01*
X16462143Y-17779429D01*
X16476428Y-17750857D01*
X16476428Y-17736572D01*
X16462143Y-17708000D01*
X16433571Y-17693714D01*
X16390714Y-17693714D01*
X16362143Y-17679429D01*
X16347857Y-17650857D01*
X16347857Y-17636572D01*
X16362143Y-17608000D01*
X16390714Y-17593714D01*
X16433571Y-17593714D01*
X16462143Y-17608000D01*
X16576428Y-17908000D02*
X16590714Y-17893714D01*
X16619286Y-17850857D01*
X16633571Y-17822286D01*
X16647857Y-17779429D01*
X16662143Y-17708000D01*
X16662143Y-17650857D01*
X16647857Y-17579429D01*
X16633571Y-17536572D01*
X16619286Y-17508000D01*
X16590714Y-17465143D01*
X16576428Y-17450857D01*
X10030000Y-18114000D02*
X10090000Y-18054000D01*
X10030000Y-17994000D01*
X9970000Y-18054000D01*
X10030000Y-18114000D01*
X10533571Y-18189714D02*
X10362143Y-18189714D01*
X10447857Y-18189714D02*
X10447857Y-17889714D01*
X10419286Y-17932572D01*
X10390714Y-17961143D01*
X10362143Y-17975429D01*
X10662143Y-18161143D02*
X10676428Y-18175429D01*
X10662143Y-18189714D01*
X10647857Y-18175429D01*
X10662143Y-18161143D01*
X10662143Y-18189714D01*
X10790714Y-17918286D02*
X10805000Y-17904000D01*
X10833571Y-17889714D01*
X10905000Y-17889714D01*
X10933571Y-17904000D01*
X10947857Y-17918286D01*
X10962143Y-17946857D01*
X10962143Y-17975429D01*
X10947857Y-18018286D01*
X10776428Y-18189714D01*
X10962143Y-18189714D01*
X11147857Y-17889714D02*
X11176428Y-17889714D01*
X11205000Y-17904000D01*
X11219286Y-17918286D01*
X11233571Y-17946857D01*
X11247857Y-18004000D01*
X11247857Y-18075429D01*
X11233571Y-18132572D01*
X11219286Y-18161143D01*
X11205000Y-18175429D01*
X11176428Y-18189714D01*
X11147857Y-18189714D01*
X11119286Y-18175429D01*
X11105000Y-18161143D01*
X11090714Y-18132572D01*
X11076428Y-18075429D01*
X11076428Y-18004000D01*
X11090714Y-17946857D01*
X11105000Y-17918286D01*
X11119286Y-17904000D01*
X11147857Y-17889714D01*
X11376428Y-18189714D02*
X11376428Y-17989714D01*
X11376428Y-18018286D02*
X11390714Y-18004000D01*
X11419286Y-17989714D01*
X11462143Y-17989714D01*
X11490714Y-18004000D01*
X11505000Y-18032572D01*
X11505000Y-18189714D01*
X11505000Y-18032572D02*
X11519286Y-18004000D01*
X11547857Y-17989714D01*
X11590714Y-17989714D01*
X11619286Y-18004000D01*
X11633571Y-18032572D01*
X11633571Y-18189714D01*
X11776428Y-18189714D02*
X11776428Y-17989714D01*
X11776428Y-18018286D02*
X11790714Y-18004000D01*
X11819286Y-17989714D01*
X11862143Y-17989714D01*
X11890714Y-18004000D01*
X11905000Y-18032572D01*
X11905000Y-18189714D01*
X11905000Y-18032572D02*
X11919286Y-18004000D01*
X11947857Y-17989714D01*
X11990714Y-17989714D01*
X12019286Y-18004000D01*
X12033571Y-18032572D01*
X12033571Y-18189714D01*
X12619286Y-17875429D02*
X12362143Y-18261143D01*
X13005000Y-17889714D02*
X13033571Y-17889714D01*
X13062143Y-17904000D01*
X13076428Y-17918286D01*
X13090714Y-17946857D01*
X13105000Y-18004000D01*
X13105000Y-18075429D01*
X13090714Y-18132572D01*
X13076428Y-18161143D01*
X13062143Y-18175429D01*
X13033571Y-18189714D01*
X13005000Y-18189714D01*
X12976428Y-18175429D01*
X12962143Y-18161143D01*
X12947857Y-18132572D01*
X12933571Y-18075429D01*
X12933571Y-18004000D01*
X12947857Y-17946857D01*
X12962143Y-17918286D01*
X12976428Y-17904000D01*
X13005000Y-17889714D01*
X13233571Y-18161143D02*
X13247857Y-18175429D01*
X13233571Y-18189714D01*
X13219286Y-18175429D01*
X13233571Y-18161143D01*
X13233571Y-18189714D01*
X13433571Y-17889714D02*
X13462143Y-17889714D01*
X13490714Y-17904000D01*
X13505000Y-17918286D01*
X13519286Y-17946857D01*
X13533571Y-18004000D01*
X13533571Y-18075429D01*
X13519286Y-18132572D01*
X13505000Y-18161143D01*
X13490714Y-18175429D01*
X13462143Y-18189714D01*
X13433571Y-18189714D01*
X13405000Y-18175429D01*
X13390714Y-18161143D01*
X13376428Y-18132572D01*
X13362143Y-18075429D01*
X13362143Y-18004000D01*
X13376428Y-17946857D01*
X13390714Y-17918286D01*
X13405000Y-17904000D01*
X13433571Y-17889714D01*
X13790714Y-17989714D02*
X13790714Y-18189714D01*
X13719286Y-17875429D02*
X13647857Y-18089714D01*
X13833571Y-18089714D01*
X13919286Y-17889714D02*
X14119286Y-17889714D01*
X13990714Y-18189714D01*
X14219286Y-17889714D02*
X14219286Y-17946857D01*
X14333571Y-17889714D02*
X14333571Y-17946857D01*
X14776428Y-18304000D02*
X14762143Y-18289714D01*
X14733571Y-18246857D01*
X14719286Y-18218286D01*
X14705000Y-18175429D01*
X14690714Y-18104000D01*
X14690714Y-18046857D01*
X14705000Y-17975429D01*
X14719286Y-17932572D01*
X14733571Y-17904000D01*
X14762143Y-17861143D01*
X14776428Y-17846857D01*
X14933571Y-18018286D02*
X14905000Y-18004000D01*
X14890714Y-17989714D01*
X14876428Y-17961143D01*
X14876428Y-17946857D01*
X14890714Y-17918286D01*
X14905000Y-17904000D01*
X14933571Y-17889714D01*
X14990714Y-17889714D01*
X15019286Y-17904000D01*
X15033571Y-17918286D01*
X15047857Y-17946857D01*
X15047857Y-17961143D01*
X15033571Y-17989714D01*
X15019286Y-18004000D01*
X14990714Y-18018286D01*
X14933571Y-18018286D01*
X14905000Y-18032572D01*
X14890714Y-18046857D01*
X14876428Y-18075429D01*
X14876428Y-18132572D01*
X14890714Y-18161143D01*
X14905000Y-18175429D01*
X14933571Y-18189714D01*
X14990714Y-18189714D01*
X15019286Y-18175429D01*
X15033571Y-18161143D01*
X15047857Y-18132572D01*
X15047857Y-18075429D01*
X15033571Y-18046857D01*
X15019286Y-18032572D01*
X14990714Y-18018286D01*
X15405000Y-18189714D02*
X15405000Y-17889714D01*
X15533571Y-18189714D02*
X15533571Y-18032572D01*
X15519286Y-18004000D01*
X15490714Y-17989714D01*
X15447857Y-17989714D01*
X15419286Y-18004000D01*
X15405000Y-18018286D01*
X15719286Y-18189714D02*
X15690714Y-18175429D01*
X15676428Y-18161143D01*
X15662143Y-18132572D01*
X15662143Y-18046857D01*
X15676428Y-18018286D01*
X15690714Y-18004000D01*
X15719286Y-17989714D01*
X15762143Y-17989714D01*
X15790714Y-18004000D01*
X15805000Y-18018286D01*
X15819286Y-18046857D01*
X15819286Y-18132572D01*
X15805000Y-18161143D01*
X15790714Y-18175429D01*
X15762143Y-18189714D01*
X15719286Y-18189714D01*
X15990714Y-18189714D02*
X15962143Y-18175429D01*
X15947857Y-18146857D01*
X15947857Y-17889714D01*
X16219286Y-18175429D02*
X16190714Y-18189714D01*
X16133571Y-18189714D01*
X16105000Y-18175429D01*
X16090714Y-18146857D01*
X16090714Y-18032572D01*
X16105000Y-18004000D01*
X16133571Y-17989714D01*
X16190714Y-17989714D01*
X16219286Y-18004000D01*
X16233571Y-18032572D01*
X16233571Y-18061143D01*
X16090714Y-18089714D01*
X16347857Y-18175429D02*
X16376428Y-18189714D01*
X16433571Y-18189714D01*
X16462143Y-18175429D01*
X16476428Y-18146857D01*
X16476428Y-18132572D01*
X16462143Y-18104000D01*
X16433571Y-18089714D01*
X16390714Y-18089714D01*
X16362143Y-18075429D01*
X16347857Y-18046857D01*
X16347857Y-18032572D01*
X16362143Y-18004000D01*
X16390714Y-17989714D01*
X16433571Y-17989714D01*
X16462143Y-18004000D01*
X16576428Y-18304000D02*
X16590714Y-18289714D01*
X16619286Y-18246857D01*
X16633571Y-18218286D01*
X16647857Y-18175429D01*
X16662143Y-18104000D01*
X16662143Y-18046857D01*
X16647857Y-17975429D01*
X16633571Y-17932572D01*
X16619286Y-17904000D01*
X16590714Y-17861143D01*
X16576428Y-17846857D01*
X9940000Y-18375000D02*
X10090000Y-18525000D01*
X10090000Y-18375000D02*
X9940000Y-18525000D01*
X10090000Y-18450000D02*
G75*
G03X10090000Y-18450000I-75000J0D01*
G01*
X10533571Y-18585714D02*
X10362143Y-18585714D01*
X10447857Y-18585714D02*
X10447857Y-18285714D01*
X10419286Y-18328572D01*
X10390714Y-18357143D01*
X10362143Y-18371429D01*
X10662143Y-18557143D02*
X10676428Y-18571429D01*
X10662143Y-18585714D01*
X10647857Y-18571429D01*
X10662143Y-18557143D01*
X10662143Y-18585714D01*
X10947857Y-18285714D02*
X10805000Y-18285714D01*
X10790714Y-18428572D01*
X10805000Y-18414286D01*
X10833571Y-18400000D01*
X10905000Y-18400000D01*
X10933571Y-18414286D01*
X10947857Y-18428572D01*
X10962143Y-18457143D01*
X10962143Y-18528572D01*
X10947857Y-18557143D01*
X10933571Y-18571429D01*
X10905000Y-18585714D01*
X10833571Y-18585714D01*
X10805000Y-18571429D01*
X10790714Y-18557143D01*
X11147857Y-18285714D02*
X11176428Y-18285714D01*
X11205000Y-18300000D01*
X11219286Y-18314286D01*
X11233571Y-18342857D01*
X11247857Y-18400000D01*
X11247857Y-18471429D01*
X11233571Y-18528572D01*
X11219286Y-18557143D01*
X11205000Y-18571429D01*
X11176428Y-18585714D01*
X11147857Y-18585714D01*
X11119286Y-18571429D01*
X11105000Y-18557143D01*
X11090714Y-18528572D01*
X11076428Y-18471429D01*
X11076428Y-18400000D01*
X11090714Y-18342857D01*
X11105000Y-18314286D01*
X11119286Y-18300000D01*
X11147857Y-18285714D01*
X11376428Y-18585714D02*
X11376428Y-18385714D01*
X11376428Y-18414286D02*
X11390714Y-18400000D01*
X11419286Y-18385714D01*
X11462143Y-18385714D01*
X11490714Y-18400000D01*
X11505000Y-18428572D01*
X11505000Y-18585714D01*
X11505000Y-18428572D02*
X11519286Y-18400000D01*
X11547857Y-18385714D01*
X11590714Y-18385714D01*
X11619286Y-18400000D01*
X11633571Y-18428572D01*
X11633571Y-18585714D01*
X11776428Y-18585714D02*
X11776428Y-18385714D01*
X11776428Y-18414286D02*
X11790714Y-18400000D01*
X11819286Y-18385714D01*
X11862143Y-18385714D01*
X11890714Y-18400000D01*
X11905000Y-18428572D01*
X11905000Y-18585714D01*
X11905000Y-18428572D02*
X11919286Y-18400000D01*
X11947857Y-18385714D01*
X11990714Y-18385714D01*
X12019286Y-18400000D01*
X12033571Y-18428572D01*
X12033571Y-18585714D01*
X12619286Y-18271429D02*
X12362143Y-18657143D01*
X13005000Y-18285714D02*
X13033571Y-18285714D01*
X13062143Y-18300000D01*
X13076428Y-18314286D01*
X13090714Y-18342857D01*
X13105000Y-18400000D01*
X13105000Y-18471429D01*
X13090714Y-18528572D01*
X13076428Y-18557143D01*
X13062143Y-18571429D01*
X13033571Y-18585714D01*
X13005000Y-18585714D01*
X12976428Y-18571429D01*
X12962143Y-18557143D01*
X12947857Y-18528572D01*
X12933571Y-18471429D01*
X12933571Y-18400000D01*
X12947857Y-18342857D01*
X12962143Y-18314286D01*
X12976428Y-18300000D01*
X13005000Y-18285714D01*
X13233571Y-18557143D02*
X13247857Y-18571429D01*
X13233571Y-18585714D01*
X13219286Y-18571429D01*
X13233571Y-18557143D01*
X13233571Y-18585714D01*
X13433571Y-18285714D02*
X13462143Y-18285714D01*
X13490714Y-18300000D01*
X13505000Y-18314286D01*
X13519286Y-18342857D01*
X13533571Y-18400000D01*
X13533571Y-18471429D01*
X13519286Y-18528572D01*
X13505000Y-18557143D01*
X13490714Y-18571429D01*
X13462143Y-18585714D01*
X13433571Y-18585714D01*
X13405000Y-18571429D01*
X13390714Y-18557143D01*
X13376428Y-18528572D01*
X13362143Y-18471429D01*
X13362143Y-18400000D01*
X13376428Y-18342857D01*
X13390714Y-18314286D01*
X13405000Y-18300000D01*
X13433571Y-18285714D01*
X13805000Y-18285714D02*
X13662143Y-18285714D01*
X13647857Y-18428572D01*
X13662143Y-18414286D01*
X13690714Y-18400000D01*
X13762143Y-18400000D01*
X13790714Y-18414286D01*
X13805000Y-18428572D01*
X13819286Y-18457143D01*
X13819286Y-18528572D01*
X13805000Y-18557143D01*
X13790714Y-18571429D01*
X13762143Y-18585714D01*
X13690714Y-18585714D01*
X13662143Y-18571429D01*
X13647857Y-18557143D01*
X13962143Y-18585714D02*
X14019286Y-18585714D01*
X14047857Y-18571429D01*
X14062143Y-18557143D01*
X14090714Y-18514286D01*
X14105000Y-18457143D01*
X14105000Y-18342857D01*
X14090714Y-18314286D01*
X14076428Y-18300000D01*
X14047857Y-18285714D01*
X13990714Y-18285714D01*
X13962143Y-18300000D01*
X13947857Y-18314286D01*
X13933571Y-18342857D01*
X13933571Y-18414286D01*
X13947857Y-18442857D01*
X13962143Y-18457143D01*
X13990714Y-18471429D01*
X14047857Y-18471429D01*
X14076428Y-18457143D01*
X14090714Y-18442857D01*
X14105000Y-18414286D01*
X14219286Y-18285714D02*
X14219286Y-18342857D01*
X14333571Y-18285714D02*
X14333571Y-18342857D01*
X14776428Y-18700000D02*
X14762143Y-18685714D01*
X14733571Y-18642857D01*
X14719286Y-18614286D01*
X14705000Y-18571429D01*
X14690714Y-18500000D01*
X14690714Y-18442857D01*
X14705000Y-18371429D01*
X14719286Y-18328572D01*
X14733571Y-18300000D01*
X14762143Y-18257143D01*
X14776428Y-18242857D01*
X14862143Y-18285714D02*
X15047857Y-18285714D01*
X14947857Y-18400000D01*
X14990714Y-18400000D01*
X15019286Y-18414286D01*
X15033571Y-18428572D01*
X15047857Y-18457143D01*
X15047857Y-18528572D01*
X15033571Y-18557143D01*
X15019286Y-18571429D01*
X14990714Y-18585714D01*
X14905000Y-18585714D01*
X14876428Y-18571429D01*
X14862143Y-18557143D01*
X15405000Y-18585714D02*
X15405000Y-18285714D01*
X15533571Y-18585714D02*
X15533571Y-18428572D01*
X15519286Y-18400000D01*
X15490714Y-18385714D01*
X15447857Y-18385714D01*
X15419286Y-18400000D01*
X15405000Y-18414286D01*
X15719286Y-18585714D02*
X15690714Y-18571429D01*
X15676428Y-18557143D01*
X15662143Y-18528572D01*
X15662143Y-18442857D01*
X15676428Y-18414286D01*
X15690714Y-18400000D01*
X15719286Y-18385714D01*
X15762143Y-18385714D01*
X15790714Y-18400000D01*
X15805000Y-18414286D01*
X15819286Y-18442857D01*
X15819286Y-18528572D01*
X15805000Y-18557143D01*
X15790714Y-18571429D01*
X15762143Y-18585714D01*
X15719286Y-18585714D01*
X15990714Y-18585714D02*
X15962143Y-18571429D01*
X15947857Y-18542857D01*
X15947857Y-18285714D01*
X16219286Y-18571429D02*
X16190714Y-18585714D01*
X16133571Y-18585714D01*
X16105000Y-18571429D01*
X16090714Y-18542857D01*
X16090714Y-18428572D01*
X16105000Y-18400000D01*
X16133571Y-18385714D01*
X16190714Y-18385714D01*
X16219286Y-18400000D01*
X16233571Y-18428572D01*
X16233571Y-18457143D01*
X16090714Y-18485714D01*
X16347857Y-18571429D02*
X16376428Y-18585714D01*
X16433571Y-18585714D01*
X16462143Y-18571429D01*
X16476428Y-18542857D01*
X16476428Y-18528572D01*
X16462143Y-18500000D01*
X16433571Y-18485714D01*
X16390714Y-18485714D01*
X16362143Y-18471429D01*
X16347857Y-18442857D01*
X16347857Y-18428572D01*
X16362143Y-18400000D01*
X16390714Y-18385714D01*
X16433571Y-18385714D01*
X16462143Y-18400000D01*
X16576428Y-18700000D02*
X16590714Y-18685714D01*
X16619286Y-18642857D01*
X16633571Y-18614286D01*
X16647857Y-18571429D01*
X16662143Y-18500000D01*
X16662143Y-18442857D01*
X16647857Y-18371429D01*
X16633571Y-18328572D01*
X16619286Y-18300000D01*
X16590714Y-18257143D01*
X16576428Y-18242857D01*
X9930000Y-18766000D02*
X10090000Y-18926000D01*
X10090000Y-18766000D02*
X9930000Y-18926000D01*
X10010000Y-18766000D02*
X10010000Y-18926000D01*
X9930000Y-18846000D02*
X10090000Y-18846000D01*
X10533571Y-18981714D02*
X10362143Y-18981714D01*
X10447857Y-18981714D02*
X10447857Y-18681714D01*
X10419286Y-18724572D01*
X10390714Y-18753143D01*
X10362143Y-18767429D01*
X10662143Y-18953143D02*
X10676428Y-18967429D01*
X10662143Y-18981714D01*
X10647857Y-18967429D01*
X10662143Y-18953143D01*
X10662143Y-18981714D01*
X10933571Y-18681714D02*
X10876428Y-18681714D01*
X10847857Y-18696000D01*
X10833571Y-18710286D01*
X10805000Y-18753143D01*
X10790714Y-18810286D01*
X10790714Y-18924572D01*
X10805000Y-18953143D01*
X10819286Y-18967429D01*
X10847857Y-18981714D01*
X10905000Y-18981714D01*
X10933571Y-18967429D01*
X10947857Y-18953143D01*
X10962143Y-18924572D01*
X10962143Y-18853143D01*
X10947857Y-18824572D01*
X10933571Y-18810286D01*
X10905000Y-18796000D01*
X10847857Y-18796000D01*
X10819286Y-18810286D01*
X10805000Y-18824572D01*
X10790714Y-18853143D01*
X11147857Y-18681714D02*
X11176428Y-18681714D01*
X11205000Y-18696000D01*
X11219286Y-18710286D01*
X11233571Y-18738857D01*
X11247857Y-18796000D01*
X11247857Y-18867429D01*
X11233571Y-18924572D01*
X11219286Y-18953143D01*
X11205000Y-18967429D01*
X11176428Y-18981714D01*
X11147857Y-18981714D01*
X11119286Y-18967429D01*
X11105000Y-18953143D01*
X11090714Y-18924572D01*
X11076428Y-18867429D01*
X11076428Y-18796000D01*
X11090714Y-18738857D01*
X11105000Y-18710286D01*
X11119286Y-18696000D01*
X11147857Y-18681714D01*
X11376428Y-18981714D02*
X11376428Y-18781714D01*
X11376428Y-18810286D02*
X11390714Y-18796000D01*
X11419286Y-18781714D01*
X11462143Y-18781714D01*
X11490714Y-18796000D01*
X11505000Y-18824572D01*
X11505000Y-18981714D01*
X11505000Y-18824572D02*
X11519286Y-18796000D01*
X11547857Y-18781714D01*
X11590714Y-18781714D01*
X11619286Y-18796000D01*
X11633571Y-18824572D01*
X11633571Y-18981714D01*
X11776428Y-18981714D02*
X11776428Y-18781714D01*
X11776428Y-18810286D02*
X11790714Y-18796000D01*
X11819286Y-18781714D01*
X11862143Y-18781714D01*
X11890714Y-18796000D01*
X11905000Y-18824572D01*
X11905000Y-18981714D01*
X11905000Y-18824572D02*
X11919286Y-18796000D01*
X11947857Y-18781714D01*
X11990714Y-18781714D01*
X12019286Y-18796000D01*
X12033571Y-18824572D01*
X12033571Y-18981714D01*
X12619286Y-18667429D02*
X12362143Y-19053143D01*
X13005000Y-18681714D02*
X13033571Y-18681714D01*
X13062143Y-18696000D01*
X13076428Y-18710286D01*
X13090714Y-18738857D01*
X13105000Y-18796000D01*
X13105000Y-18867429D01*
X13090714Y-18924572D01*
X13076428Y-18953143D01*
X13062143Y-18967429D01*
X13033571Y-18981714D01*
X13005000Y-18981714D01*
X12976428Y-18967429D01*
X12962143Y-18953143D01*
X12947857Y-18924572D01*
X12933571Y-18867429D01*
X12933571Y-18796000D01*
X12947857Y-18738857D01*
X12962143Y-18710286D01*
X12976428Y-18696000D01*
X13005000Y-18681714D01*
X13233571Y-18953143D02*
X13247857Y-18967429D01*
X13233571Y-18981714D01*
X13219286Y-18967429D01*
X13233571Y-18953143D01*
X13233571Y-18981714D01*
X13433571Y-18681714D02*
X13462143Y-18681714D01*
X13490714Y-18696000D01*
X13505000Y-18710286D01*
X13519286Y-18738857D01*
X13533571Y-18796000D01*
X13533571Y-18867429D01*
X13519286Y-18924572D01*
X13505000Y-18953143D01*
X13490714Y-18967429D01*
X13462143Y-18981714D01*
X13433571Y-18981714D01*
X13405000Y-18967429D01*
X13390714Y-18953143D01*
X13376428Y-18924572D01*
X13362143Y-18867429D01*
X13362143Y-18796000D01*
X13376428Y-18738857D01*
X13390714Y-18710286D01*
X13405000Y-18696000D01*
X13433571Y-18681714D01*
X13790714Y-18681714D02*
X13733571Y-18681714D01*
X13705000Y-18696000D01*
X13690714Y-18710286D01*
X13662143Y-18753143D01*
X13647857Y-18810286D01*
X13647857Y-18924572D01*
X13662143Y-18953143D01*
X13676428Y-18967429D01*
X13705000Y-18981714D01*
X13762143Y-18981714D01*
X13790714Y-18967429D01*
X13805000Y-18953143D01*
X13819286Y-18924572D01*
X13819286Y-18853143D01*
X13805000Y-18824572D01*
X13790714Y-18810286D01*
X13762143Y-18796000D01*
X13705000Y-18796000D01*
X13676428Y-18810286D01*
X13662143Y-18824572D01*
X13647857Y-18853143D01*
X13919286Y-18681714D02*
X14105000Y-18681714D01*
X14005000Y-18796000D01*
X14047857Y-18796000D01*
X14076428Y-18810286D01*
X14090714Y-18824572D01*
X14105000Y-18853143D01*
X14105000Y-18924572D01*
X14090714Y-18953143D01*
X14076428Y-18967429D01*
X14047857Y-18981714D01*
X13962143Y-18981714D01*
X13933571Y-18967429D01*
X13919286Y-18953143D01*
X14219286Y-18681714D02*
X14219286Y-18738857D01*
X14333571Y-18681714D02*
X14333571Y-18738857D01*
X14776428Y-19096000D02*
X14762143Y-19081714D01*
X14733571Y-19038857D01*
X14719286Y-19010286D01*
X14705000Y-18967429D01*
X14690714Y-18896000D01*
X14690714Y-18838857D01*
X14705000Y-18767429D01*
X14719286Y-18724572D01*
X14733571Y-18696000D01*
X14762143Y-18653143D01*
X14776428Y-18638857D01*
X15019286Y-18681714D02*
X14962143Y-18681714D01*
X14933571Y-18696000D01*
X14919286Y-18710286D01*
X14890714Y-18753143D01*
X14876428Y-18810286D01*
X14876428Y-18924572D01*
X14890714Y-18953143D01*
X14905000Y-18967429D01*
X14933571Y-18981714D01*
X14990714Y-18981714D01*
X15019286Y-18967429D01*
X15033571Y-18953143D01*
X15047857Y-18924572D01*
X15047857Y-18853143D01*
X15033571Y-18824572D01*
X15019286Y-18810286D01*
X14990714Y-18796000D01*
X14933571Y-18796000D01*
X14905000Y-18810286D01*
X14890714Y-18824572D01*
X14876428Y-18853143D01*
X15405000Y-18981714D02*
X15405000Y-18681714D01*
X15533571Y-18981714D02*
X15533571Y-18824572D01*
X15519286Y-18796000D01*
X15490714Y-18781714D01*
X15447857Y-18781714D01*
X15419286Y-18796000D01*
X15405000Y-18810286D01*
X15719286Y-18981714D02*
X15690714Y-18967429D01*
X15676428Y-18953143D01*
X15662143Y-18924572D01*
X15662143Y-18838857D01*
X15676428Y-18810286D01*
X15690714Y-18796000D01*
X15719286Y-18781714D01*
X15762143Y-18781714D01*
X15790714Y-18796000D01*
X15805000Y-18810286D01*
X15819286Y-18838857D01*
X15819286Y-18924572D01*
X15805000Y-18953143D01*
X15790714Y-18967429D01*
X15762143Y-18981714D01*
X15719286Y-18981714D01*
X15990714Y-18981714D02*
X15962143Y-18967429D01*
X15947857Y-18938857D01*
X15947857Y-18681714D01*
X16219286Y-18967429D02*
X16190714Y-18981714D01*
X16133571Y-18981714D01*
X16105000Y-18967429D01*
X16090714Y-18938857D01*
X16090714Y-18824572D01*
X16105000Y-18796000D01*
X16133571Y-18781714D01*
X16190714Y-18781714D01*
X16219286Y-18796000D01*
X16233571Y-18824572D01*
X16233571Y-18853143D01*
X16090714Y-18881714D01*
X16347857Y-18967429D02*
X16376428Y-18981714D01*
X16433571Y-18981714D01*
X16462143Y-18967429D01*
X16476428Y-18938857D01*
X16476428Y-18924572D01*
X16462143Y-18896000D01*
X16433571Y-18881714D01*
X16390714Y-18881714D01*
X16362143Y-18867429D01*
X16347857Y-18838857D01*
X16347857Y-18824572D01*
X16362143Y-18796000D01*
X16390714Y-18781714D01*
X16433571Y-18781714D01*
X16462143Y-18796000D01*
X16576428Y-19096000D02*
X16590714Y-19081714D01*
X16619286Y-19038857D01*
X16633571Y-19010286D01*
X16647857Y-18967429D01*
X16662143Y-18896000D01*
X16662143Y-18838857D01*
X16647857Y-18767429D01*
X16633571Y-18724572D01*
X16619286Y-18696000D01*
X16590714Y-18653143D01*
X16576428Y-18638857D01*
X9640000Y-19017000D02*
X10090000Y-19467000D01*
X10090000Y-19017000D02*
X9640000Y-19467000D01*
X10024101Y-19401101D02*
X10024101Y-19082900D01*
X9705899Y-19082900D01*
X9705899Y-19401101D01*
X10024101Y-19401101D01*
X10505000Y-19177714D02*
X10505000Y-19377714D01*
X10433571Y-19063429D02*
X10362143Y-19277714D01*
X10547857Y-19277714D01*
X10662143Y-19349143D02*
X10676428Y-19363429D01*
X10662143Y-19377714D01*
X10647857Y-19363429D01*
X10662143Y-19349143D01*
X10662143Y-19377714D01*
X10947857Y-19077714D02*
X10805000Y-19077714D01*
X10790714Y-19220572D01*
X10805000Y-19206286D01*
X10833571Y-19192000D01*
X10905000Y-19192000D01*
X10933571Y-19206286D01*
X10947857Y-19220572D01*
X10962143Y-19249143D01*
X10962143Y-19320572D01*
X10947857Y-19349143D01*
X10933571Y-19363429D01*
X10905000Y-19377714D01*
X10833571Y-19377714D01*
X10805000Y-19363429D01*
X10790714Y-19349143D01*
X11147857Y-19077714D02*
X11176428Y-19077714D01*
X11205000Y-19092000D01*
X11219286Y-19106286D01*
X11233571Y-19134857D01*
X11247857Y-19192000D01*
X11247857Y-19263429D01*
X11233571Y-19320572D01*
X11219286Y-19349143D01*
X11205000Y-19363429D01*
X11176428Y-19377714D01*
X11147857Y-19377714D01*
X11119286Y-19363429D01*
X11105000Y-19349143D01*
X11090714Y-19320572D01*
X11076428Y-19263429D01*
X11076428Y-19192000D01*
X11090714Y-19134857D01*
X11105000Y-19106286D01*
X11119286Y-19092000D01*
X11147857Y-19077714D01*
X11376428Y-19377714D02*
X11376428Y-19177714D01*
X11376428Y-19206286D02*
X11390714Y-19192000D01*
X11419286Y-19177714D01*
X11462143Y-19177714D01*
X11490714Y-19192000D01*
X11505000Y-19220572D01*
X11505000Y-19377714D01*
X11505000Y-19220572D02*
X11519286Y-19192000D01*
X11547857Y-19177714D01*
X11590714Y-19177714D01*
X11619286Y-19192000D01*
X11633571Y-19220572D01*
X11633571Y-19377714D01*
X11776428Y-19377714D02*
X11776428Y-19177714D01*
X11776428Y-19206286D02*
X11790714Y-19192000D01*
X11819286Y-19177714D01*
X11862143Y-19177714D01*
X11890714Y-19192000D01*
X11905000Y-19220572D01*
X11905000Y-19377714D01*
X11905000Y-19220572D02*
X11919286Y-19192000D01*
X11947857Y-19177714D01*
X11990714Y-19177714D01*
X12019286Y-19192000D01*
X12033571Y-19220572D01*
X12033571Y-19377714D01*
X12619286Y-19063429D02*
X12362143Y-19449143D01*
X13005000Y-19077714D02*
X13033571Y-19077714D01*
X13062143Y-19092000D01*
X13076428Y-19106286D01*
X13090714Y-19134857D01*
X13105000Y-19192000D01*
X13105000Y-19263429D01*
X13090714Y-19320572D01*
X13076428Y-19349143D01*
X13062143Y-19363429D01*
X13033571Y-19377714D01*
X13005000Y-19377714D01*
X12976428Y-19363429D01*
X12962143Y-19349143D01*
X12947857Y-19320572D01*
X12933571Y-19263429D01*
X12933571Y-19192000D01*
X12947857Y-19134857D01*
X12962143Y-19106286D01*
X12976428Y-19092000D01*
X13005000Y-19077714D01*
X13233571Y-19349143D02*
X13247857Y-19363429D01*
X13233571Y-19377714D01*
X13219286Y-19363429D01*
X13233571Y-19349143D01*
X13233571Y-19377714D01*
X13533571Y-19377714D02*
X13362143Y-19377714D01*
X13447857Y-19377714D02*
X13447857Y-19077714D01*
X13419286Y-19120572D01*
X13390714Y-19149143D01*
X13362143Y-19163429D01*
X13633571Y-19077714D02*
X13833571Y-19077714D01*
X13705000Y-19377714D01*
X13919286Y-19077714D02*
X14119286Y-19077714D01*
X13990714Y-19377714D01*
X14219286Y-19077714D02*
X14219286Y-19134857D01*
X14333571Y-19077714D02*
X14333571Y-19134857D01*
X14776428Y-19492000D02*
X14762143Y-19477714D01*
X14733571Y-19434857D01*
X14719286Y-19406286D01*
X14705000Y-19363429D01*
X14690714Y-19292000D01*
X14690714Y-19234857D01*
X14705000Y-19163429D01*
X14719286Y-19120572D01*
X14733571Y-19092000D01*
X14762143Y-19049143D01*
X14776428Y-19034857D01*
X14876428Y-19106286D02*
X14890714Y-19092000D01*
X14919286Y-19077714D01*
X14990714Y-19077714D01*
X15019286Y-19092000D01*
X15033571Y-19106286D01*
X15047857Y-19134857D01*
X15047857Y-19163429D01*
X15033571Y-19206286D01*
X14862143Y-19377714D01*
X15047857Y-19377714D01*
X15405000Y-19377714D02*
X15405000Y-19077714D01*
X15533571Y-19377714D02*
X15533571Y-19220572D01*
X15519286Y-19192000D01*
X15490714Y-19177714D01*
X15447857Y-19177714D01*
X15419286Y-19192000D01*
X15405000Y-19206286D01*
X15719286Y-19377714D02*
X15690714Y-19363429D01*
X15676428Y-19349143D01*
X15662143Y-19320572D01*
X15662143Y-19234857D01*
X15676428Y-19206286D01*
X15690714Y-19192000D01*
X15719286Y-19177714D01*
X15762143Y-19177714D01*
X15790714Y-19192000D01*
X15805000Y-19206286D01*
X15819286Y-19234857D01*
X15819286Y-19320572D01*
X15805000Y-19349143D01*
X15790714Y-19363429D01*
X15762143Y-19377714D01*
X15719286Y-19377714D01*
X15990714Y-19377714D02*
X15962143Y-19363429D01*
X15947857Y-19334857D01*
X15947857Y-19077714D01*
X16219286Y-19363429D02*
X16190714Y-19377714D01*
X16133571Y-19377714D01*
X16105000Y-19363429D01*
X16090714Y-19334857D01*
X16090714Y-19220572D01*
X16105000Y-19192000D01*
X16133571Y-19177714D01*
X16190714Y-19177714D01*
X16219286Y-19192000D01*
X16233571Y-19220572D01*
X16233571Y-19249143D01*
X16090714Y-19277714D01*
X16347857Y-19363429D02*
X16376428Y-19377714D01*
X16433571Y-19377714D01*
X16462143Y-19363429D01*
X16476428Y-19334857D01*
X16476428Y-19320572D01*
X16462143Y-19292000D01*
X16433571Y-19277714D01*
X16390714Y-19277714D01*
X16362143Y-19263429D01*
X16347857Y-19234857D01*
X16347857Y-19220572D01*
X16362143Y-19192000D01*
X16390714Y-19177714D01*
X16433571Y-19177714D01*
X16462143Y-19192000D01*
X16576428Y-19492000D02*
X16590714Y-19477714D01*
X16619286Y-19434857D01*
X16633571Y-19406286D01*
X16647857Y-19363429D01*
X16662143Y-19292000D01*
X16662143Y-19234857D01*
X16647857Y-19163429D01*
X16633571Y-19120572D01*
X16619286Y-19092000D01*
X16590714Y-19049143D01*
X16576428Y-19034857D01*
M02*
