G04 #@! TF.GenerationSoftware,KiCad,Pcbnew,(5.0.2)-1*
G04 #@! TF.CreationDate,2019-02-13T16:42:22+01:00*
G04 #@! TF.ProjectId,Lab1,4c616231-2e6b-4696-9361-645f70636258,rev?*
G04 #@! TF.SameCoordinates,Original*
G04 #@! TF.FileFunction,Soldermask,Bot*
G04 #@! TF.FilePolarity,Negative*
%FSLAX46Y46*%
G04 Gerber Fmt 4.6, Leading zero omitted, Abs format (unit mm)*
G04 Created by KiCad (PCBNEW (5.0.2)-1) date 2019-02-13 16:42:22*
%MOMM*%
%LPD*%
G01*
G04 APERTURE LIST*
%ADD10C,0.100000*%
G04 APERTURE END LIST*
D10*
G36*
X164676681Y-153434594D02*
X164793155Y-153482839D01*
X164897977Y-153552879D01*
X164987121Y-153642023D01*
X165057161Y-153746845D01*
X165105406Y-153863319D01*
X165130000Y-153986964D01*
X165130000Y-154113036D01*
X165105406Y-154236681D01*
X165057161Y-154353155D01*
X164987121Y-154457977D01*
X164897977Y-154547121D01*
X164793155Y-154617161D01*
X164676681Y-154665406D01*
X164553036Y-154690000D01*
X164426964Y-154690000D01*
X164303319Y-154665406D01*
X164186845Y-154617161D01*
X164082023Y-154547121D01*
X163992879Y-154457977D01*
X163922839Y-154353155D01*
X163874594Y-154236681D01*
X163850000Y-154113036D01*
X163850000Y-153986964D01*
X163874594Y-153863319D01*
X163922839Y-153746845D01*
X163992879Y-153642023D01*
X164082023Y-153552879D01*
X164186845Y-153482839D01*
X164303319Y-153434594D01*
X164426964Y-153410000D01*
X164553036Y-153410000D01*
X164676681Y-153434594D01*
X164676681Y-153434594D01*
G37*
G36*
X167216681Y-153434594D02*
X167333155Y-153482839D01*
X167437977Y-153552879D01*
X167527121Y-153642023D01*
X167597161Y-153746845D01*
X167645406Y-153863319D01*
X167670000Y-153986964D01*
X167670000Y-154113036D01*
X167645406Y-154236681D01*
X167597161Y-154353155D01*
X167527121Y-154457977D01*
X167437977Y-154547121D01*
X167333155Y-154617161D01*
X167216681Y-154665406D01*
X167093036Y-154690000D01*
X166966964Y-154690000D01*
X166843319Y-154665406D01*
X166726845Y-154617161D01*
X166622023Y-154547121D01*
X166532879Y-154457977D01*
X166462839Y-154353155D01*
X166414594Y-154236681D01*
X166390000Y-154113036D01*
X166390000Y-153986964D01*
X166414594Y-153863319D01*
X166462839Y-153746845D01*
X166532879Y-153642023D01*
X166622023Y-153552879D01*
X166726845Y-153482839D01*
X166843319Y-153434594D01*
X166966964Y-153410000D01*
X167093036Y-153410000D01*
X167216681Y-153434594D01*
X167216681Y-153434594D01*
G37*
G36*
X195156681Y-153434594D02*
X195273155Y-153482839D01*
X195377977Y-153552879D01*
X195467121Y-153642023D01*
X195537161Y-153746845D01*
X195585406Y-153863319D01*
X195610000Y-153986964D01*
X195610000Y-154113036D01*
X195585406Y-154236681D01*
X195537161Y-154353155D01*
X195467121Y-154457977D01*
X195377977Y-154547121D01*
X195273155Y-154617161D01*
X195156681Y-154665406D01*
X195033036Y-154690000D01*
X194906964Y-154690000D01*
X194783319Y-154665406D01*
X194666845Y-154617161D01*
X194562023Y-154547121D01*
X194472879Y-154457977D01*
X194402839Y-154353155D01*
X194354594Y-154236681D01*
X194330000Y-154113036D01*
X194330000Y-153986964D01*
X194354594Y-153863319D01*
X194402839Y-153746845D01*
X194472879Y-153642023D01*
X194562023Y-153552879D01*
X194666845Y-153482839D01*
X194783319Y-153434594D01*
X194906964Y-153410000D01*
X195033036Y-153410000D01*
X195156681Y-153434594D01*
X195156681Y-153434594D01*
G37*
G36*
X197696681Y-153434594D02*
X197813155Y-153482839D01*
X197917977Y-153552879D01*
X198007121Y-153642023D01*
X198077161Y-153746845D01*
X198125406Y-153863319D01*
X198150000Y-153986964D01*
X198150000Y-154113036D01*
X198125406Y-154236681D01*
X198077161Y-154353155D01*
X198007121Y-154457977D01*
X197917977Y-154547121D01*
X197813155Y-154617161D01*
X197696681Y-154665406D01*
X197573036Y-154690000D01*
X197446964Y-154690000D01*
X197323319Y-154665406D01*
X197206845Y-154617161D01*
X197102023Y-154547121D01*
X197012879Y-154457977D01*
X196942839Y-154353155D01*
X196894594Y-154236681D01*
X196870000Y-154113036D01*
X196870000Y-153986964D01*
X196894594Y-153863319D01*
X196942839Y-153746845D01*
X197012879Y-153642023D01*
X197102023Y-153552879D01*
X197206845Y-153482839D01*
X197323319Y-153434594D01*
X197446964Y-153410000D01*
X197573036Y-153410000D01*
X197696681Y-153434594D01*
X197696681Y-153434594D01*
G37*
G36*
X109173195Y-151257522D02*
X109222267Y-151267283D01*
X109360942Y-151324724D01*
X109485750Y-151408118D01*
X109591882Y-151514250D01*
X109675276Y-151639058D01*
X109732717Y-151777734D01*
X109762000Y-151924948D01*
X109762000Y-152075052D01*
X109732717Y-152222266D01*
X109675276Y-152360942D01*
X109591882Y-152485750D01*
X109485750Y-152591882D01*
X109485747Y-152591884D01*
X109360942Y-152675276D01*
X109222267Y-152732717D01*
X109173195Y-152742478D01*
X109075052Y-152762000D01*
X108924948Y-152762000D01*
X108826805Y-152742478D01*
X108777733Y-152732717D01*
X108639058Y-152675276D01*
X108514253Y-152591884D01*
X108514250Y-152591882D01*
X108408118Y-152485750D01*
X108324724Y-152360942D01*
X108267283Y-152222266D01*
X108238000Y-152075052D01*
X108238000Y-151924948D01*
X108267283Y-151777734D01*
X108324724Y-151639058D01*
X108408118Y-151514250D01*
X108514250Y-151408118D01*
X108639058Y-151324724D01*
X108777733Y-151267283D01*
X108826805Y-151257522D01*
X108924948Y-151238000D01*
X109075052Y-151238000D01*
X109173195Y-151257522D01*
X109173195Y-151257522D01*
G37*
G36*
X105423195Y-151257522D02*
X105472267Y-151267283D01*
X105610942Y-151324724D01*
X105735750Y-151408118D01*
X105841882Y-151514250D01*
X105925276Y-151639058D01*
X105982717Y-151777734D01*
X106012000Y-151924948D01*
X106012000Y-152075052D01*
X105982717Y-152222266D01*
X105925276Y-152360942D01*
X105841882Y-152485750D01*
X105735750Y-152591882D01*
X105735747Y-152591884D01*
X105610942Y-152675276D01*
X105472267Y-152732717D01*
X105423195Y-152742478D01*
X105325052Y-152762000D01*
X105174948Y-152762000D01*
X105076805Y-152742478D01*
X105027733Y-152732717D01*
X104889058Y-152675276D01*
X104764253Y-152591884D01*
X104764250Y-152591882D01*
X104658118Y-152485750D01*
X104574724Y-152360942D01*
X104517283Y-152222266D01*
X104488000Y-152075052D01*
X104488000Y-151924948D01*
X104517283Y-151777734D01*
X104574724Y-151639058D01*
X104658118Y-151514250D01*
X104764250Y-151408118D01*
X104889058Y-151324724D01*
X105027733Y-151267283D01*
X105076805Y-151257522D01*
X105174948Y-151238000D01*
X105325052Y-151238000D01*
X105423195Y-151257522D01*
X105423195Y-151257522D01*
G37*
G36*
X112923195Y-151257522D02*
X112972267Y-151267283D01*
X113110942Y-151324724D01*
X113235750Y-151408118D01*
X113341882Y-151514250D01*
X113425276Y-151639058D01*
X113482717Y-151777734D01*
X113512000Y-151924948D01*
X113512000Y-152075052D01*
X113482717Y-152222266D01*
X113425276Y-152360942D01*
X113341882Y-152485750D01*
X113235750Y-152591882D01*
X113235747Y-152591884D01*
X113110942Y-152675276D01*
X112972267Y-152732717D01*
X112923195Y-152742478D01*
X112825052Y-152762000D01*
X112674948Y-152762000D01*
X112576805Y-152742478D01*
X112527733Y-152732717D01*
X112389058Y-152675276D01*
X112264253Y-152591884D01*
X112264250Y-152591882D01*
X112158118Y-152485750D01*
X112074724Y-152360942D01*
X112017283Y-152222266D01*
X111988000Y-152075052D01*
X111988000Y-151924948D01*
X112017283Y-151777734D01*
X112074724Y-151639058D01*
X112158118Y-151514250D01*
X112264250Y-151408118D01*
X112389058Y-151324724D01*
X112527733Y-151267283D01*
X112576805Y-151257522D01*
X112674948Y-151238000D01*
X112825052Y-151238000D01*
X112923195Y-151257522D01*
X112923195Y-151257522D01*
G37*
G36*
X115550000Y-143500000D02*
X112550000Y-143500000D01*
X112550000Y-140500000D01*
X115550000Y-140500000D01*
X115550000Y-143500000D01*
X115550000Y-143500000D01*
G37*
G36*
X105450000Y-143500000D02*
X102450000Y-143500000D01*
X102450000Y-140500000D01*
X105450000Y-140500000D01*
X105450000Y-143500000D01*
X105450000Y-143500000D01*
G37*
G36*
X105423195Y-136257522D02*
X105472267Y-136267283D01*
X105610942Y-136324724D01*
X105735750Y-136408118D01*
X105841882Y-136514250D01*
X105925276Y-136639058D01*
X105982717Y-136777734D01*
X106012000Y-136924948D01*
X106012000Y-137075052D01*
X105982717Y-137222266D01*
X105925276Y-137360942D01*
X105841882Y-137485750D01*
X105735750Y-137591882D01*
X105735747Y-137591884D01*
X105610942Y-137675276D01*
X105472267Y-137732717D01*
X105423195Y-137742478D01*
X105325052Y-137762000D01*
X105174948Y-137762000D01*
X105076805Y-137742478D01*
X105027733Y-137732717D01*
X104889058Y-137675276D01*
X104764253Y-137591884D01*
X104764250Y-137591882D01*
X104658118Y-137485750D01*
X104574724Y-137360942D01*
X104517283Y-137222266D01*
X104488000Y-137075052D01*
X104488000Y-136924948D01*
X104517283Y-136777734D01*
X104574724Y-136639058D01*
X104658118Y-136514250D01*
X104764250Y-136408118D01*
X104889058Y-136324724D01*
X105027733Y-136267283D01*
X105076805Y-136257522D01*
X105174948Y-136238000D01*
X105325052Y-136238000D01*
X105423195Y-136257522D01*
X105423195Y-136257522D01*
G37*
G36*
X112923195Y-136257522D02*
X112972267Y-136267283D01*
X113110942Y-136324724D01*
X113235750Y-136408118D01*
X113341882Y-136514250D01*
X113425276Y-136639058D01*
X113482717Y-136777734D01*
X113512000Y-136924948D01*
X113512000Y-137075052D01*
X113482717Y-137222266D01*
X113425276Y-137360942D01*
X113341882Y-137485750D01*
X113235750Y-137591882D01*
X113235747Y-137591884D01*
X113110942Y-137675276D01*
X112972267Y-137732717D01*
X112923195Y-137742478D01*
X112825052Y-137762000D01*
X112674948Y-137762000D01*
X112576805Y-137742478D01*
X112527733Y-137732717D01*
X112389058Y-137675276D01*
X112264253Y-137591884D01*
X112264250Y-137591882D01*
X112158118Y-137485750D01*
X112074724Y-137360942D01*
X112017283Y-137222266D01*
X111988000Y-137075052D01*
X111988000Y-136924948D01*
X112017283Y-136777734D01*
X112074724Y-136639058D01*
X112158118Y-136514250D01*
X112264250Y-136408118D01*
X112389058Y-136324724D01*
X112527733Y-136267283D01*
X112576805Y-136257522D01*
X112674948Y-136238000D01*
X112825052Y-136238000D01*
X112923195Y-136257522D01*
X112923195Y-136257522D01*
G37*
G36*
X109173195Y-136257522D02*
X109222267Y-136267283D01*
X109360942Y-136324724D01*
X109485750Y-136408118D01*
X109591882Y-136514250D01*
X109675276Y-136639058D01*
X109732717Y-136777734D01*
X109762000Y-136924948D01*
X109762000Y-137075052D01*
X109732717Y-137222266D01*
X109675276Y-137360942D01*
X109591882Y-137485750D01*
X109485750Y-137591882D01*
X109485747Y-137591884D01*
X109360942Y-137675276D01*
X109222267Y-137732717D01*
X109173195Y-137742478D01*
X109075052Y-137762000D01*
X108924948Y-137762000D01*
X108826805Y-137742478D01*
X108777733Y-137732717D01*
X108639058Y-137675276D01*
X108514253Y-137591884D01*
X108514250Y-137591882D01*
X108408118Y-137485750D01*
X108324724Y-137360942D01*
X108267283Y-137222266D01*
X108238000Y-137075052D01*
X108238000Y-136924948D01*
X108267283Y-136777734D01*
X108324724Y-136639058D01*
X108408118Y-136514250D01*
X108514250Y-136408118D01*
X108639058Y-136324724D01*
X108777733Y-136267283D01*
X108826805Y-136257522D01*
X108924948Y-136238000D01*
X109075052Y-136238000D01*
X109173195Y-136257522D01*
X109173195Y-136257522D01*
G37*
G36*
X127802521Y-131214586D02*
X127966309Y-131282429D01*
X128113720Y-131380926D01*
X128239074Y-131506280D01*
X128337571Y-131653691D01*
X128405414Y-131817479D01*
X128440000Y-131991356D01*
X128440000Y-132168644D01*
X128405414Y-132342521D01*
X128337571Y-132506309D01*
X128239074Y-132653720D01*
X128113720Y-132779074D01*
X127966309Y-132877571D01*
X127802521Y-132945414D01*
X127628644Y-132980000D01*
X127451356Y-132980000D01*
X127277479Y-132945414D01*
X127113691Y-132877571D01*
X126966280Y-132779074D01*
X126840926Y-132653720D01*
X126742429Y-132506309D01*
X126674586Y-132342521D01*
X126640000Y-132168644D01*
X126640000Y-131991356D01*
X126674586Y-131817479D01*
X126742429Y-131653691D01*
X126840926Y-131506280D01*
X126966280Y-131380926D01*
X127113691Y-131282429D01*
X127277479Y-131214586D01*
X127451356Y-131180000D01*
X127628644Y-131180000D01*
X127802521Y-131214586D01*
X127802521Y-131214586D01*
G37*
G36*
X121802521Y-131214586D02*
X121966309Y-131282429D01*
X122113720Y-131380926D01*
X122239074Y-131506280D01*
X122337571Y-131653691D01*
X122405414Y-131817479D01*
X122440000Y-131991356D01*
X122440000Y-132168644D01*
X122405414Y-132342521D01*
X122337571Y-132506309D01*
X122239074Y-132653720D01*
X122113720Y-132779074D01*
X121966309Y-132877571D01*
X121802521Y-132945414D01*
X121628644Y-132980000D01*
X121451356Y-132980000D01*
X121277479Y-132945414D01*
X121113691Y-132877571D01*
X120966280Y-132779074D01*
X120840926Y-132653720D01*
X120742429Y-132506309D01*
X120674586Y-132342521D01*
X120640000Y-132168644D01*
X120640000Y-131991356D01*
X120674586Y-131817479D01*
X120742429Y-131653691D01*
X120840926Y-131506280D01*
X120966280Y-131380926D01*
X121113691Y-131282429D01*
X121277479Y-131214586D01*
X121451356Y-131180000D01*
X121628644Y-131180000D01*
X121802521Y-131214586D01*
X121802521Y-131214586D01*
G37*
G36*
X119900000Y-132980000D02*
X118100000Y-132980000D01*
X118100000Y-131180000D01*
X119900000Y-131180000D01*
X119900000Y-132980000D01*
X119900000Y-132980000D01*
G37*
G36*
X125900000Y-132980000D02*
X124100000Y-132980000D01*
X124100000Y-131180000D01*
X125900000Y-131180000D01*
X125900000Y-132980000D01*
X125900000Y-132980000D01*
G37*
G36*
X131900000Y-132980000D02*
X130100000Y-132980000D01*
X130100000Y-131180000D01*
X131900000Y-131180000D01*
X131900000Y-132980000D01*
X131900000Y-132980000D01*
G37*
G36*
X133802521Y-131214586D02*
X133966309Y-131282429D01*
X134113720Y-131380926D01*
X134239074Y-131506280D01*
X134337571Y-131653691D01*
X134405414Y-131817479D01*
X134440000Y-131991356D01*
X134440000Y-132168644D01*
X134405414Y-132342521D01*
X134337571Y-132506309D01*
X134239074Y-132653720D01*
X134113720Y-132779074D01*
X133966309Y-132877571D01*
X133802521Y-132945414D01*
X133628644Y-132980000D01*
X133451356Y-132980000D01*
X133277479Y-132945414D01*
X133113691Y-132877571D01*
X132966280Y-132779074D01*
X132840926Y-132653720D01*
X132742429Y-132506309D01*
X132674586Y-132342521D01*
X132640000Y-132168644D01*
X132640000Y-131991356D01*
X132674586Y-131817479D01*
X132742429Y-131653691D01*
X132840926Y-131506280D01*
X132966280Y-131380926D01*
X133113691Y-131282429D01*
X133277479Y-131214586D01*
X133451356Y-131180000D01*
X133628644Y-131180000D01*
X133802521Y-131214586D01*
X133802521Y-131214586D01*
G37*
G36*
X139802521Y-131214586D02*
X139966309Y-131282429D01*
X140113720Y-131380926D01*
X140239074Y-131506280D01*
X140337571Y-131653691D01*
X140405414Y-131817479D01*
X140440000Y-131991356D01*
X140440000Y-132168644D01*
X140405414Y-132342521D01*
X140337571Y-132506309D01*
X140239074Y-132653720D01*
X140113720Y-132779074D01*
X139966309Y-132877571D01*
X139802521Y-132945414D01*
X139628644Y-132980000D01*
X139451356Y-132980000D01*
X139277479Y-132945414D01*
X139113691Y-132877571D01*
X138966280Y-132779074D01*
X138840926Y-132653720D01*
X138742429Y-132506309D01*
X138674586Y-132342521D01*
X138640000Y-132168644D01*
X138640000Y-131991356D01*
X138674586Y-131817479D01*
X138742429Y-131653691D01*
X138840926Y-131506280D01*
X138966280Y-131380926D01*
X139113691Y-131282429D01*
X139277479Y-131214586D01*
X139451356Y-131180000D01*
X139628644Y-131180000D01*
X139802521Y-131214586D01*
X139802521Y-131214586D01*
G37*
G36*
X137900000Y-132980000D02*
X136100000Y-132980000D01*
X136100000Y-131180000D01*
X137900000Y-131180000D01*
X137900000Y-132980000D01*
X137900000Y-132980000D01*
G37*
G36*
X115550000Y-128500000D02*
X112550000Y-128500000D01*
X112550000Y-125500000D01*
X115550000Y-125500000D01*
X115550000Y-128500000D01*
X115550000Y-128500000D01*
G37*
G36*
X105450000Y-128500000D02*
X102450000Y-128500000D01*
X102450000Y-125500000D01*
X105450000Y-125500000D01*
X105450000Y-128500000D01*
X105450000Y-128500000D01*
G37*
G36*
X109173195Y-121507522D02*
X109222267Y-121517283D01*
X109360942Y-121574724D01*
X109485750Y-121658118D01*
X109591882Y-121764250D01*
X109675276Y-121889058D01*
X109732717Y-122027734D01*
X109762000Y-122174948D01*
X109762000Y-122325052D01*
X109732717Y-122472266D01*
X109675276Y-122610942D01*
X109591882Y-122735750D01*
X109485750Y-122841882D01*
X109485747Y-122841884D01*
X109360942Y-122925276D01*
X109222267Y-122982717D01*
X109173195Y-122992478D01*
X109075052Y-123012000D01*
X108924948Y-123012000D01*
X108826805Y-122992478D01*
X108777733Y-122982717D01*
X108639058Y-122925276D01*
X108514253Y-122841884D01*
X108514250Y-122841882D01*
X108408118Y-122735750D01*
X108324724Y-122610942D01*
X108267283Y-122472266D01*
X108238000Y-122325052D01*
X108238000Y-122174948D01*
X108267283Y-122027734D01*
X108324724Y-121889058D01*
X108408118Y-121764250D01*
X108514250Y-121658118D01*
X108639058Y-121574724D01*
X108777733Y-121517283D01*
X108826805Y-121507522D01*
X108924948Y-121488000D01*
X109075052Y-121488000D01*
X109173195Y-121507522D01*
X109173195Y-121507522D01*
G37*
G36*
X112923195Y-121507522D02*
X112972267Y-121517283D01*
X113110942Y-121574724D01*
X113235750Y-121658118D01*
X113341882Y-121764250D01*
X113425276Y-121889058D01*
X113482717Y-122027734D01*
X113512000Y-122174948D01*
X113512000Y-122325052D01*
X113482717Y-122472266D01*
X113425276Y-122610942D01*
X113341882Y-122735750D01*
X113235750Y-122841882D01*
X113235747Y-122841884D01*
X113110942Y-122925276D01*
X112972267Y-122982717D01*
X112923195Y-122992478D01*
X112825052Y-123012000D01*
X112674948Y-123012000D01*
X112576805Y-122992478D01*
X112527733Y-122982717D01*
X112389058Y-122925276D01*
X112264253Y-122841884D01*
X112264250Y-122841882D01*
X112158118Y-122735750D01*
X112074724Y-122610942D01*
X112017283Y-122472266D01*
X111988000Y-122325052D01*
X111988000Y-122174948D01*
X112017283Y-122027734D01*
X112074724Y-121889058D01*
X112158118Y-121764250D01*
X112264250Y-121658118D01*
X112389058Y-121574724D01*
X112527733Y-121517283D01*
X112576805Y-121507522D01*
X112674948Y-121488000D01*
X112825052Y-121488000D01*
X112923195Y-121507522D01*
X112923195Y-121507522D01*
G37*
G36*
X105423195Y-121507522D02*
X105472267Y-121517283D01*
X105610942Y-121574724D01*
X105735750Y-121658118D01*
X105841882Y-121764250D01*
X105925276Y-121889058D01*
X105982717Y-122027734D01*
X106012000Y-122174948D01*
X106012000Y-122325052D01*
X105982717Y-122472266D01*
X105925276Y-122610942D01*
X105841882Y-122735750D01*
X105735750Y-122841882D01*
X105735747Y-122841884D01*
X105610942Y-122925276D01*
X105472267Y-122982717D01*
X105423195Y-122992478D01*
X105325052Y-123012000D01*
X105174948Y-123012000D01*
X105076805Y-122992478D01*
X105027733Y-122982717D01*
X104889058Y-122925276D01*
X104764253Y-122841884D01*
X104764250Y-122841882D01*
X104658118Y-122735750D01*
X104574724Y-122610942D01*
X104517283Y-122472266D01*
X104488000Y-122325052D01*
X104488000Y-122174948D01*
X104517283Y-122027734D01*
X104574724Y-121889058D01*
X104658118Y-121764250D01*
X104764250Y-121658118D01*
X104889058Y-121574724D01*
X105027733Y-121517283D01*
X105076805Y-121507522D01*
X105174948Y-121488000D01*
X105325052Y-121488000D01*
X105423195Y-121507522D01*
X105423195Y-121507522D01*
G37*
G36*
X177376681Y-115334594D02*
X177493155Y-115382839D01*
X177597977Y-115452879D01*
X177687121Y-115542023D01*
X177757161Y-115646845D01*
X177805406Y-115763319D01*
X177830000Y-115886964D01*
X177830000Y-116013036D01*
X177805406Y-116136681D01*
X177757161Y-116253155D01*
X177687121Y-116357977D01*
X177597977Y-116447121D01*
X177493155Y-116517161D01*
X177376681Y-116565406D01*
X177253036Y-116590000D01*
X177126964Y-116590000D01*
X177003319Y-116565406D01*
X176886845Y-116517161D01*
X176782023Y-116447121D01*
X176692879Y-116357977D01*
X176622839Y-116253155D01*
X176574594Y-116136681D01*
X176550000Y-116013036D01*
X176550000Y-115886964D01*
X176574594Y-115763319D01*
X176622839Y-115646845D01*
X176692879Y-115542023D01*
X176782023Y-115452879D01*
X176886845Y-115382839D01*
X177003319Y-115334594D01*
X177126964Y-115310000D01*
X177253036Y-115310000D01*
X177376681Y-115334594D01*
X177376681Y-115334594D01*
G37*
G36*
X164676681Y-115334594D02*
X164793155Y-115382839D01*
X164897977Y-115452879D01*
X164987121Y-115542023D01*
X165057161Y-115646845D01*
X165105406Y-115763319D01*
X165130000Y-115886964D01*
X165130000Y-116013036D01*
X165105406Y-116136681D01*
X165057161Y-116253155D01*
X164987121Y-116357977D01*
X164897977Y-116447121D01*
X164793155Y-116517161D01*
X164676681Y-116565406D01*
X164553036Y-116590000D01*
X164426964Y-116590000D01*
X164303319Y-116565406D01*
X164186845Y-116517161D01*
X164082023Y-116447121D01*
X163992879Y-116357977D01*
X163922839Y-116253155D01*
X163874594Y-116136681D01*
X163850000Y-116013036D01*
X163850000Y-115886964D01*
X163874594Y-115763319D01*
X163922839Y-115646845D01*
X163992879Y-115542023D01*
X164082023Y-115452879D01*
X164186845Y-115382839D01*
X164303319Y-115334594D01*
X164426964Y-115310000D01*
X164553036Y-115310000D01*
X164676681Y-115334594D01*
X164676681Y-115334594D01*
G37*
G36*
X167216681Y-115334594D02*
X167333155Y-115382839D01*
X167437977Y-115452879D01*
X167527121Y-115542023D01*
X167597161Y-115646845D01*
X167645406Y-115763319D01*
X167670000Y-115886964D01*
X167670000Y-116013036D01*
X167645406Y-116136681D01*
X167597161Y-116253155D01*
X167527121Y-116357977D01*
X167437977Y-116447121D01*
X167333155Y-116517161D01*
X167216681Y-116565406D01*
X167093036Y-116590000D01*
X166966964Y-116590000D01*
X166843319Y-116565406D01*
X166726845Y-116517161D01*
X166622023Y-116447121D01*
X166532879Y-116357977D01*
X166462839Y-116253155D01*
X166414594Y-116136681D01*
X166390000Y-116013036D01*
X166390000Y-115886964D01*
X166414594Y-115763319D01*
X166462839Y-115646845D01*
X166532879Y-115542023D01*
X166622023Y-115452879D01*
X166726845Y-115382839D01*
X166843319Y-115334594D01*
X166966964Y-115310000D01*
X167093036Y-115310000D01*
X167216681Y-115334594D01*
X167216681Y-115334594D01*
G37*
G36*
X169756681Y-115334594D02*
X169873155Y-115382839D01*
X169977977Y-115452879D01*
X170067121Y-115542023D01*
X170137161Y-115646845D01*
X170185406Y-115763319D01*
X170210000Y-115886964D01*
X170210000Y-116013036D01*
X170185406Y-116136681D01*
X170137161Y-116253155D01*
X170067121Y-116357977D01*
X169977977Y-116447121D01*
X169873155Y-116517161D01*
X169756681Y-116565406D01*
X169633036Y-116590000D01*
X169506964Y-116590000D01*
X169383319Y-116565406D01*
X169266845Y-116517161D01*
X169162023Y-116447121D01*
X169072879Y-116357977D01*
X169002839Y-116253155D01*
X168954594Y-116136681D01*
X168930000Y-116013036D01*
X168930000Y-115886964D01*
X168954594Y-115763319D01*
X169002839Y-115646845D01*
X169072879Y-115542023D01*
X169162023Y-115452879D01*
X169266845Y-115382839D01*
X169383319Y-115334594D01*
X169506964Y-115310000D01*
X169633036Y-115310000D01*
X169756681Y-115334594D01*
X169756681Y-115334594D01*
G37*
G36*
X172296681Y-115334594D02*
X172413155Y-115382839D01*
X172517977Y-115452879D01*
X172607121Y-115542023D01*
X172677161Y-115646845D01*
X172725406Y-115763319D01*
X172750000Y-115886964D01*
X172750000Y-116013036D01*
X172725406Y-116136681D01*
X172677161Y-116253155D01*
X172607121Y-116357977D01*
X172517977Y-116447121D01*
X172413155Y-116517161D01*
X172296681Y-116565406D01*
X172173036Y-116590000D01*
X172046964Y-116590000D01*
X171923319Y-116565406D01*
X171806845Y-116517161D01*
X171702023Y-116447121D01*
X171612879Y-116357977D01*
X171542839Y-116253155D01*
X171494594Y-116136681D01*
X171470000Y-116013036D01*
X171470000Y-115886964D01*
X171494594Y-115763319D01*
X171542839Y-115646845D01*
X171612879Y-115542023D01*
X171702023Y-115452879D01*
X171806845Y-115382839D01*
X171923319Y-115334594D01*
X172046964Y-115310000D01*
X172173036Y-115310000D01*
X172296681Y-115334594D01*
X172296681Y-115334594D01*
G37*
G36*
X174836681Y-115334594D02*
X174953155Y-115382839D01*
X175057977Y-115452879D01*
X175147121Y-115542023D01*
X175217161Y-115646845D01*
X175265406Y-115763319D01*
X175290000Y-115886964D01*
X175290000Y-116013036D01*
X175265406Y-116136681D01*
X175217161Y-116253155D01*
X175147121Y-116357977D01*
X175057977Y-116447121D01*
X174953155Y-116517161D01*
X174836681Y-116565406D01*
X174713036Y-116590000D01*
X174586964Y-116590000D01*
X174463319Y-116565406D01*
X174346845Y-116517161D01*
X174242023Y-116447121D01*
X174152879Y-116357977D01*
X174082839Y-116253155D01*
X174034594Y-116136681D01*
X174010000Y-116013036D01*
X174010000Y-115886964D01*
X174034594Y-115763319D01*
X174082839Y-115646845D01*
X174152879Y-115542023D01*
X174242023Y-115452879D01*
X174346845Y-115382839D01*
X174463319Y-115334594D01*
X174586964Y-115310000D01*
X174713036Y-115310000D01*
X174836681Y-115334594D01*
X174836681Y-115334594D01*
G37*
G36*
X179916681Y-115334594D02*
X180033155Y-115382839D01*
X180137977Y-115452879D01*
X180227121Y-115542023D01*
X180297161Y-115646845D01*
X180345406Y-115763319D01*
X180370000Y-115886964D01*
X180370000Y-116013036D01*
X180345406Y-116136681D01*
X180297161Y-116253155D01*
X180227121Y-116357977D01*
X180137977Y-116447121D01*
X180033155Y-116517161D01*
X179916681Y-116565406D01*
X179793036Y-116590000D01*
X179666964Y-116590000D01*
X179543319Y-116565406D01*
X179426845Y-116517161D01*
X179322023Y-116447121D01*
X179232879Y-116357977D01*
X179162839Y-116253155D01*
X179114594Y-116136681D01*
X179090000Y-116013036D01*
X179090000Y-115886964D01*
X179114594Y-115763319D01*
X179162839Y-115646845D01*
X179232879Y-115542023D01*
X179322023Y-115452879D01*
X179426845Y-115382839D01*
X179543319Y-115334594D01*
X179666964Y-115310000D01*
X179793036Y-115310000D01*
X179916681Y-115334594D01*
X179916681Y-115334594D01*
G37*
G36*
X184996681Y-115334594D02*
X185113155Y-115382839D01*
X185217977Y-115452879D01*
X185307121Y-115542023D01*
X185377161Y-115646845D01*
X185425406Y-115763319D01*
X185450000Y-115886964D01*
X185450000Y-116013036D01*
X185425406Y-116136681D01*
X185377161Y-116253155D01*
X185307121Y-116357977D01*
X185217977Y-116447121D01*
X185113155Y-116517161D01*
X184996681Y-116565406D01*
X184873036Y-116590000D01*
X184746964Y-116590000D01*
X184623319Y-116565406D01*
X184506845Y-116517161D01*
X184402023Y-116447121D01*
X184312879Y-116357977D01*
X184242839Y-116253155D01*
X184194594Y-116136681D01*
X184170000Y-116013036D01*
X184170000Y-115886964D01*
X184194594Y-115763319D01*
X184242839Y-115646845D01*
X184312879Y-115542023D01*
X184402023Y-115452879D01*
X184506845Y-115382839D01*
X184623319Y-115334594D01*
X184746964Y-115310000D01*
X184873036Y-115310000D01*
X184996681Y-115334594D01*
X184996681Y-115334594D01*
G37*
G36*
X182456681Y-115334594D02*
X182573155Y-115382839D01*
X182677977Y-115452879D01*
X182767121Y-115542023D01*
X182837161Y-115646845D01*
X182885406Y-115763319D01*
X182910000Y-115886964D01*
X182910000Y-116013036D01*
X182885406Y-116136681D01*
X182837161Y-116253155D01*
X182767121Y-116357977D01*
X182677977Y-116447121D01*
X182573155Y-116517161D01*
X182456681Y-116565406D01*
X182333036Y-116590000D01*
X182206964Y-116590000D01*
X182083319Y-116565406D01*
X181966845Y-116517161D01*
X181862023Y-116447121D01*
X181772879Y-116357977D01*
X181702839Y-116253155D01*
X181654594Y-116136681D01*
X181630000Y-116013036D01*
X181630000Y-115886964D01*
X181654594Y-115763319D01*
X181702839Y-115646845D01*
X181772879Y-115542023D01*
X181862023Y-115452879D01*
X181966845Y-115382839D01*
X182083319Y-115334594D01*
X182206964Y-115310000D01*
X182333036Y-115310000D01*
X182456681Y-115334594D01*
X182456681Y-115334594D01*
G37*
G36*
X197696681Y-115334594D02*
X197813155Y-115382839D01*
X197917977Y-115452879D01*
X198007121Y-115542023D01*
X198077161Y-115646845D01*
X198125406Y-115763319D01*
X198150000Y-115886964D01*
X198150000Y-116013036D01*
X198125406Y-116136681D01*
X198077161Y-116253155D01*
X198007121Y-116357977D01*
X197917977Y-116447121D01*
X197813155Y-116517161D01*
X197696681Y-116565406D01*
X197573036Y-116590000D01*
X197446964Y-116590000D01*
X197323319Y-116565406D01*
X197206845Y-116517161D01*
X197102023Y-116447121D01*
X197012879Y-116357977D01*
X196942839Y-116253155D01*
X196894594Y-116136681D01*
X196870000Y-116013036D01*
X196870000Y-115886964D01*
X196894594Y-115763319D01*
X196942839Y-115646845D01*
X197012879Y-115542023D01*
X197102023Y-115452879D01*
X197206845Y-115382839D01*
X197323319Y-115334594D01*
X197446964Y-115310000D01*
X197573036Y-115310000D01*
X197696681Y-115334594D01*
X197696681Y-115334594D01*
G37*
G36*
X195156681Y-115334594D02*
X195273155Y-115382839D01*
X195377977Y-115452879D01*
X195467121Y-115542023D01*
X195537161Y-115646845D01*
X195585406Y-115763319D01*
X195610000Y-115886964D01*
X195610000Y-116013036D01*
X195585406Y-116136681D01*
X195537161Y-116253155D01*
X195467121Y-116357977D01*
X195377977Y-116447121D01*
X195273155Y-116517161D01*
X195156681Y-116565406D01*
X195033036Y-116590000D01*
X194906964Y-116590000D01*
X194783319Y-116565406D01*
X194666845Y-116517161D01*
X194562023Y-116447121D01*
X194472879Y-116357977D01*
X194402839Y-116253155D01*
X194354594Y-116136681D01*
X194330000Y-116013036D01*
X194330000Y-115886964D01*
X194354594Y-115763319D01*
X194402839Y-115646845D01*
X194472879Y-115542023D01*
X194562023Y-115452879D01*
X194666845Y-115382839D01*
X194783319Y-115334594D01*
X194906964Y-115310000D01*
X195033036Y-115310000D01*
X195156681Y-115334594D01*
X195156681Y-115334594D01*
G37*
G36*
X192616681Y-115334594D02*
X192733155Y-115382839D01*
X192837977Y-115452879D01*
X192927121Y-115542023D01*
X192997161Y-115646845D01*
X193045406Y-115763319D01*
X193070000Y-115886964D01*
X193070000Y-116013036D01*
X193045406Y-116136681D01*
X192997161Y-116253155D01*
X192927121Y-116357977D01*
X192837977Y-116447121D01*
X192733155Y-116517161D01*
X192616681Y-116565406D01*
X192493036Y-116590000D01*
X192366964Y-116590000D01*
X192243319Y-116565406D01*
X192126845Y-116517161D01*
X192022023Y-116447121D01*
X191932879Y-116357977D01*
X191862839Y-116253155D01*
X191814594Y-116136681D01*
X191790000Y-116013036D01*
X191790000Y-115886964D01*
X191814594Y-115763319D01*
X191862839Y-115646845D01*
X191932879Y-115542023D01*
X192022023Y-115452879D01*
X192126845Y-115382839D01*
X192243319Y-115334594D01*
X192366964Y-115310000D01*
X192493036Y-115310000D01*
X192616681Y-115334594D01*
X192616681Y-115334594D01*
G37*
G36*
X190076681Y-115334594D02*
X190193155Y-115382839D01*
X190297977Y-115452879D01*
X190387121Y-115542023D01*
X190457161Y-115646845D01*
X190505406Y-115763319D01*
X190530000Y-115886964D01*
X190530000Y-116013036D01*
X190505406Y-116136681D01*
X190457161Y-116253155D01*
X190387121Y-116357977D01*
X190297977Y-116447121D01*
X190193155Y-116517161D01*
X190076681Y-116565406D01*
X189953036Y-116590000D01*
X189826964Y-116590000D01*
X189703319Y-116565406D01*
X189586845Y-116517161D01*
X189482023Y-116447121D01*
X189392879Y-116357977D01*
X189322839Y-116253155D01*
X189274594Y-116136681D01*
X189250000Y-116013036D01*
X189250000Y-115886964D01*
X189274594Y-115763319D01*
X189322839Y-115646845D01*
X189392879Y-115542023D01*
X189482023Y-115452879D01*
X189586845Y-115382839D01*
X189703319Y-115334594D01*
X189826964Y-115310000D01*
X189953036Y-115310000D01*
X190076681Y-115334594D01*
X190076681Y-115334594D01*
G37*
G36*
X187536681Y-115334594D02*
X187653155Y-115382839D01*
X187757977Y-115452879D01*
X187847121Y-115542023D01*
X187917161Y-115646845D01*
X187965406Y-115763319D01*
X187990000Y-115886964D01*
X187990000Y-116013036D01*
X187965406Y-116136681D01*
X187917161Y-116253155D01*
X187847121Y-116357977D01*
X187757977Y-116447121D01*
X187653155Y-116517161D01*
X187536681Y-116565406D01*
X187413036Y-116590000D01*
X187286964Y-116590000D01*
X187163319Y-116565406D01*
X187046845Y-116517161D01*
X186942023Y-116447121D01*
X186852879Y-116357977D01*
X186782839Y-116253155D01*
X186734594Y-116136681D01*
X186710000Y-116013036D01*
X186710000Y-115886964D01*
X186734594Y-115763319D01*
X186782839Y-115646845D01*
X186852879Y-115542023D01*
X186942023Y-115452879D01*
X187046845Y-115382839D01*
X187163319Y-115334594D01*
X187286964Y-115310000D01*
X187413036Y-115310000D01*
X187536681Y-115334594D01*
X187536681Y-115334594D01*
G37*
G36*
X115550000Y-113750000D02*
X112550000Y-113750000D01*
X112550000Y-110750000D01*
X115550000Y-110750000D01*
X115550000Y-113750000D01*
X115550000Y-113750000D01*
G37*
G36*
X105450000Y-113750000D02*
X102450000Y-113750000D01*
X102450000Y-110750000D01*
X105450000Y-110750000D01*
X105450000Y-113750000D01*
X105450000Y-113750000D01*
G37*
G36*
X198666448Y-102506873D02*
X198736232Y-102513746D01*
X198825770Y-102540907D01*
X198915309Y-102568068D01*
X199080347Y-102656283D01*
X199225001Y-102774999D01*
X199343717Y-102919653D01*
X199431932Y-103084691D01*
X199486254Y-103263769D01*
X199504596Y-103450000D01*
X199486254Y-103636231D01*
X199431932Y-103815309D01*
X199343717Y-103980347D01*
X199225001Y-104125001D01*
X199080347Y-104243717D01*
X198915309Y-104331932D01*
X198825770Y-104359093D01*
X198736232Y-104386254D01*
X198596666Y-104400000D01*
X196903334Y-104400000D01*
X196763768Y-104386254D01*
X196674230Y-104359093D01*
X196584691Y-104331932D01*
X196419653Y-104243717D01*
X196274999Y-104125001D01*
X196156283Y-103980347D01*
X196068068Y-103815309D01*
X196013746Y-103636231D01*
X195995404Y-103450000D01*
X196013746Y-103263769D01*
X196068068Y-103084691D01*
X196156283Y-102919653D01*
X196274999Y-102774999D01*
X196419653Y-102656283D01*
X196584691Y-102568068D01*
X196674230Y-102540907D01*
X196763768Y-102513746D01*
X196833552Y-102506873D01*
X196903334Y-102500000D01*
X198596666Y-102500000D01*
X198666448Y-102506873D01*
X198666448Y-102506873D01*
G37*
G36*
X197839590Y-99457045D02*
X197910429Y-99471136D01*
X198010523Y-99512597D01*
X198100607Y-99572789D01*
X198177211Y-99649393D01*
X198177213Y-99649396D01*
X198237403Y-99739477D01*
X198278864Y-99839571D01*
X198300000Y-99945830D01*
X198300000Y-100054170D01*
X198278864Y-100160429D01*
X198237403Y-100260523D01*
X198177211Y-100350607D01*
X198100607Y-100427211D01*
X198100604Y-100427213D01*
X198010523Y-100487403D01*
X197910429Y-100528864D01*
X197839590Y-100542955D01*
X197804171Y-100550000D01*
X197695829Y-100550000D01*
X197660410Y-100542955D01*
X197589571Y-100528864D01*
X197489477Y-100487403D01*
X197399396Y-100427213D01*
X197399393Y-100427211D01*
X197322789Y-100350607D01*
X197262597Y-100260523D01*
X197221136Y-100160429D01*
X197200000Y-100054170D01*
X197200000Y-99945830D01*
X197221136Y-99839571D01*
X197262597Y-99739477D01*
X197322787Y-99649396D01*
X197322789Y-99649393D01*
X197399393Y-99572789D01*
X197489477Y-99512597D01*
X197589571Y-99471136D01*
X197660410Y-99457045D01*
X197695829Y-99450000D01*
X197804171Y-99450000D01*
X197839590Y-99457045D01*
X197839590Y-99457045D01*
G37*
G36*
X197839590Y-94957045D02*
X197910429Y-94971136D01*
X198010523Y-95012597D01*
X198100607Y-95072789D01*
X198177211Y-95149393D01*
X198177213Y-95149396D01*
X198237403Y-95239477D01*
X198278864Y-95339571D01*
X198300000Y-95445830D01*
X198300000Y-95554170D01*
X198278864Y-95660429D01*
X198237403Y-95760523D01*
X198177211Y-95850607D01*
X198100607Y-95927211D01*
X198100604Y-95927213D01*
X198010523Y-95987403D01*
X197910429Y-96028864D01*
X197839590Y-96042955D01*
X197804171Y-96050000D01*
X197695829Y-96050000D01*
X197660410Y-96042955D01*
X197589571Y-96028864D01*
X197489477Y-95987403D01*
X197399396Y-95927213D01*
X197399393Y-95927211D01*
X197322789Y-95850607D01*
X197262597Y-95760523D01*
X197221136Y-95660429D01*
X197200000Y-95554170D01*
X197200000Y-95445830D01*
X197221136Y-95339571D01*
X197262597Y-95239477D01*
X197322787Y-95149396D01*
X197322789Y-95149393D01*
X197399393Y-95072789D01*
X197489477Y-95012597D01*
X197589571Y-94971136D01*
X197660410Y-94957045D01*
X197695829Y-94950000D01*
X197804171Y-94950000D01*
X197839590Y-94957045D01*
X197839590Y-94957045D01*
G37*
G36*
X198736232Y-91113746D02*
X198825770Y-91140907D01*
X198915309Y-91168068D01*
X199080347Y-91256283D01*
X199225001Y-91374999D01*
X199343717Y-91519653D01*
X199431932Y-91684691D01*
X199486254Y-91863769D01*
X199504596Y-92050000D01*
X199486254Y-92236231D01*
X199431932Y-92415309D01*
X199343717Y-92580347D01*
X199225001Y-92725001D01*
X199080347Y-92843717D01*
X198915309Y-92931932D01*
X198825770Y-92959093D01*
X198736232Y-92986254D01*
X198596666Y-93000000D01*
X196903334Y-93000000D01*
X196763768Y-92986254D01*
X196674230Y-92959093D01*
X196584691Y-92931932D01*
X196419653Y-92843717D01*
X196274999Y-92725001D01*
X196156283Y-92580347D01*
X196068068Y-92415309D01*
X196013746Y-92236231D01*
X195995404Y-92050000D01*
X196013746Y-91863769D01*
X196068068Y-91684691D01*
X196156283Y-91519653D01*
X196274999Y-91374999D01*
X196419653Y-91256283D01*
X196584691Y-91168068D01*
X196674230Y-91140907D01*
X196763768Y-91113746D01*
X196903334Y-91100000D01*
X198596666Y-91100000D01*
X198736232Y-91113746D01*
X198736232Y-91113746D01*
G37*
G36*
X197720355Y-84133685D02*
X197750431Y-84142808D01*
X197778145Y-84157622D01*
X197802440Y-84177560D01*
X197822378Y-84201855D01*
X197837192Y-84229569D01*
X197846315Y-84259645D01*
X197850000Y-84297059D01*
X197850000Y-85702941D01*
X197846315Y-85740355D01*
X197837192Y-85770431D01*
X197822378Y-85798145D01*
X197802440Y-85822440D01*
X197778145Y-85842378D01*
X197750431Y-85857192D01*
X197720355Y-85866315D01*
X197682941Y-85870000D01*
X195817059Y-85870000D01*
X195779645Y-85866315D01*
X195749569Y-85857192D01*
X195721855Y-85842378D01*
X195697560Y-85822440D01*
X195677622Y-85798145D01*
X195662808Y-85770431D01*
X195653685Y-85740355D01*
X195650000Y-85702941D01*
X195650000Y-84297059D01*
X195653685Y-84259645D01*
X195662808Y-84229569D01*
X195677622Y-84201855D01*
X195697560Y-84177560D01*
X195721855Y-84157622D01*
X195749569Y-84142808D01*
X195779645Y-84133685D01*
X195817059Y-84130000D01*
X197682941Y-84130000D01*
X197720355Y-84133685D01*
X197720355Y-84133685D01*
G37*
G36*
X197150546Y-81602588D02*
X197150549Y-81602589D01*
X197150550Y-81602589D01*
X197314545Y-81652336D01*
X197314547Y-81652337D01*
X197465686Y-81733122D01*
X197598159Y-81841841D01*
X197706878Y-81974314D01*
X197787663Y-82125453D01*
X197837412Y-82289454D01*
X197854209Y-82460000D01*
X197837412Y-82630546D01*
X197787663Y-82794547D01*
X197706878Y-82945686D01*
X197598159Y-83078159D01*
X197465686Y-83186878D01*
X197314547Y-83267663D01*
X197314545Y-83267664D01*
X197150550Y-83317411D01*
X197150549Y-83317411D01*
X197150546Y-83317412D01*
X197022738Y-83330000D01*
X196477262Y-83330000D01*
X196349454Y-83317412D01*
X196349451Y-83317411D01*
X196349450Y-83317411D01*
X196185455Y-83267664D01*
X196185453Y-83267663D01*
X196034314Y-83186878D01*
X195901841Y-83078159D01*
X195793122Y-82945686D01*
X195712337Y-82794547D01*
X195662588Y-82630546D01*
X195645791Y-82460000D01*
X195662588Y-82289454D01*
X195712337Y-82125453D01*
X195793122Y-81974314D01*
X195901841Y-81841841D01*
X196034314Y-81733122D01*
X196185453Y-81652337D01*
X196185455Y-81652336D01*
X196349450Y-81602589D01*
X196349451Y-81602589D01*
X196349454Y-81602588D01*
X196477262Y-81590000D01*
X197022738Y-81590000D01*
X197150546Y-81602588D01*
X197150546Y-81602588D01*
G37*
G36*
X184159819Y-72543086D02*
X184812602Y-72672932D01*
X185631550Y-73012151D01*
X186368583Y-73504621D01*
X186995379Y-74131417D01*
X187487849Y-74868450D01*
X187827068Y-75687398D01*
X187886831Y-75987849D01*
X187993198Y-76522589D01*
X188000000Y-76556789D01*
X188000000Y-77443211D01*
X187827068Y-78312602D01*
X187487849Y-79131550D01*
X186995379Y-79868583D01*
X186368583Y-80495379D01*
X185631550Y-80987849D01*
X184812602Y-81327068D01*
X184159819Y-81456914D01*
X183943213Y-81500000D01*
X183056787Y-81500000D01*
X182840181Y-81456914D01*
X182187398Y-81327068D01*
X181368450Y-80987849D01*
X180631417Y-80495379D01*
X180004621Y-79868583D01*
X179512151Y-79131550D01*
X179172932Y-78312602D01*
X179000000Y-77443211D01*
X179000000Y-76556789D01*
X179006803Y-76522589D01*
X179113169Y-75987849D01*
X179172932Y-75687398D01*
X179512151Y-74868450D01*
X180004621Y-74131417D01*
X180631417Y-73504621D01*
X181368450Y-73012151D01*
X182187398Y-72672932D01*
X182840181Y-72543086D01*
X183056787Y-72500000D01*
X183943213Y-72500000D01*
X184159819Y-72543086D01*
X184159819Y-72543086D01*
G37*
G36*
X197150546Y-79062588D02*
X197150549Y-79062589D01*
X197150550Y-79062589D01*
X197314545Y-79112336D01*
X197314547Y-79112337D01*
X197465686Y-79193122D01*
X197598159Y-79301841D01*
X197706878Y-79434314D01*
X197787663Y-79585453D01*
X197837412Y-79749454D01*
X197854209Y-79920000D01*
X197837412Y-80090546D01*
X197787663Y-80254547D01*
X197706878Y-80405686D01*
X197598159Y-80538159D01*
X197465686Y-80646878D01*
X197314547Y-80727663D01*
X197314545Y-80727664D01*
X197150550Y-80777411D01*
X197150549Y-80777411D01*
X197150546Y-80777412D01*
X197022738Y-80790000D01*
X196477262Y-80790000D01*
X196349454Y-80777412D01*
X196349451Y-80777411D01*
X196349450Y-80777411D01*
X196185455Y-80727664D01*
X196185453Y-80727663D01*
X196034314Y-80646878D01*
X195901841Y-80538159D01*
X195793122Y-80405686D01*
X195712337Y-80254547D01*
X195662588Y-80090546D01*
X195645791Y-79920000D01*
X195662588Y-79749454D01*
X195712337Y-79585453D01*
X195793122Y-79434314D01*
X195901841Y-79301841D01*
X196034314Y-79193122D01*
X196185453Y-79112337D01*
X196185455Y-79112336D01*
X196349450Y-79062589D01*
X196349451Y-79062589D01*
X196349454Y-79062588D01*
X196477262Y-79050000D01*
X197022738Y-79050000D01*
X197150546Y-79062588D01*
X197150546Y-79062588D01*
G37*
G36*
X197150546Y-76522588D02*
X197150549Y-76522589D01*
X197150550Y-76522589D01*
X197314545Y-76572336D01*
X197314547Y-76572337D01*
X197465686Y-76653122D01*
X197598159Y-76761841D01*
X197706878Y-76894314D01*
X197787663Y-77045453D01*
X197837412Y-77209454D01*
X197854209Y-77380000D01*
X197837412Y-77550546D01*
X197787663Y-77714547D01*
X197706878Y-77865686D01*
X197598159Y-77998159D01*
X197465686Y-78106878D01*
X197314547Y-78187663D01*
X197314545Y-78187664D01*
X197150550Y-78237411D01*
X197150549Y-78237411D01*
X197150546Y-78237412D01*
X197022738Y-78250000D01*
X196477262Y-78250000D01*
X196349454Y-78237412D01*
X196349451Y-78237411D01*
X196349450Y-78237411D01*
X196185455Y-78187664D01*
X196185453Y-78187663D01*
X196034314Y-78106878D01*
X195901841Y-77998159D01*
X195793122Y-77865686D01*
X195712337Y-77714547D01*
X195662588Y-77550546D01*
X195645791Y-77380000D01*
X195662588Y-77209454D01*
X195712337Y-77045453D01*
X195793122Y-76894314D01*
X195901841Y-76761841D01*
X196034314Y-76653122D01*
X196185453Y-76572337D01*
X196185455Y-76572336D01*
X196349450Y-76522589D01*
X196349451Y-76522589D01*
X196349454Y-76522588D01*
X196477262Y-76510000D01*
X197022738Y-76510000D01*
X197150546Y-76522588D01*
X197150546Y-76522588D01*
G37*
G36*
X114159819Y-67543086D02*
X114812602Y-67672932D01*
X115631550Y-68012151D01*
X116368583Y-68504621D01*
X116995379Y-69131417D01*
X117487849Y-69868450D01*
X117827068Y-70687398D01*
X117956914Y-71340181D01*
X118000000Y-71556787D01*
X118000000Y-72443213D01*
X117994563Y-72470546D01*
X117827068Y-73312602D01*
X117487849Y-74131550D01*
X116995379Y-74868583D01*
X116368583Y-75495379D01*
X115631550Y-75987849D01*
X114812602Y-76327068D01*
X114159819Y-76456914D01*
X113943213Y-76500000D01*
X113056787Y-76500000D01*
X112840181Y-76456914D01*
X112187398Y-76327068D01*
X111368450Y-75987849D01*
X110631417Y-75495379D01*
X110004621Y-74868583D01*
X109512151Y-74131550D01*
X109172932Y-73312602D01*
X109005437Y-72470546D01*
X109000000Y-72443213D01*
X109000000Y-71556787D01*
X109043086Y-71340181D01*
X109172932Y-70687398D01*
X109512151Y-69868450D01*
X110004621Y-69131417D01*
X110631417Y-68504621D01*
X111368450Y-68012151D01*
X112187398Y-67672932D01*
X112840181Y-67543086D01*
X113056787Y-67500000D01*
X113943213Y-67500000D01*
X114159819Y-67543086D01*
X114159819Y-67543086D01*
G37*
G36*
X197150546Y-73982588D02*
X197150549Y-73982589D01*
X197150550Y-73982589D01*
X197314545Y-74032336D01*
X197314547Y-74032337D01*
X197465686Y-74113122D01*
X197598159Y-74221841D01*
X197706878Y-74354314D01*
X197787663Y-74505453D01*
X197837412Y-74669454D01*
X197854209Y-74840000D01*
X197837412Y-75010546D01*
X197787663Y-75174547D01*
X197706878Y-75325686D01*
X197598159Y-75458159D01*
X197465686Y-75566878D01*
X197314547Y-75647663D01*
X197314545Y-75647664D01*
X197150550Y-75697411D01*
X197150549Y-75697411D01*
X197150546Y-75697412D01*
X197022738Y-75710000D01*
X196477262Y-75710000D01*
X196349454Y-75697412D01*
X196349451Y-75697411D01*
X196349450Y-75697411D01*
X196185455Y-75647664D01*
X196185453Y-75647663D01*
X196034314Y-75566878D01*
X195901841Y-75458159D01*
X195793122Y-75325686D01*
X195712337Y-75174547D01*
X195662588Y-75010546D01*
X195645791Y-74840000D01*
X195662588Y-74669454D01*
X195712337Y-74505453D01*
X195793122Y-74354314D01*
X195901841Y-74221841D01*
X196034314Y-74113122D01*
X196185453Y-74032337D01*
X196185455Y-74032336D01*
X196349450Y-73982589D01*
X196349451Y-73982589D01*
X196349454Y-73982588D01*
X196477262Y-73970000D01*
X197022738Y-73970000D01*
X197150546Y-73982588D01*
X197150546Y-73982588D01*
G37*
G36*
X149525770Y-71365372D02*
X149641689Y-71388429D01*
X149823678Y-71463811D01*
X149987463Y-71573249D01*
X150126751Y-71712537D01*
X150236189Y-71876322D01*
X150311571Y-72058311D01*
X150325721Y-72129450D01*
X150350000Y-72251507D01*
X150350000Y-72448493D01*
X150339754Y-72500000D01*
X150311571Y-72641689D01*
X150236189Y-72823678D01*
X150126751Y-72987463D01*
X149987463Y-73126751D01*
X149823678Y-73236189D01*
X149641689Y-73311571D01*
X149525770Y-73334628D01*
X149448493Y-73350000D01*
X149251507Y-73350000D01*
X149174230Y-73334628D01*
X149058311Y-73311571D01*
X148876322Y-73236189D01*
X148712537Y-73126751D01*
X148573249Y-72987463D01*
X148463811Y-72823678D01*
X148388429Y-72641689D01*
X148360246Y-72500000D01*
X148350000Y-72448493D01*
X148350000Y-72251507D01*
X148374279Y-72129450D01*
X148388429Y-72058311D01*
X148463811Y-71876322D01*
X148573249Y-71712537D01*
X148712537Y-71573249D01*
X148876322Y-71463811D01*
X149058311Y-71388429D01*
X149174230Y-71365372D01*
X149251507Y-71350000D01*
X149448493Y-71350000D01*
X149525770Y-71365372D01*
X149525770Y-71365372D01*
G37*
G36*
X137825770Y-71365372D02*
X137941689Y-71388429D01*
X138123678Y-71463811D01*
X138287463Y-71573249D01*
X138426751Y-71712537D01*
X138536189Y-71876322D01*
X138611571Y-72058311D01*
X138625721Y-72129450D01*
X138650000Y-72251507D01*
X138650000Y-72448493D01*
X138639754Y-72500000D01*
X138611571Y-72641689D01*
X138536189Y-72823678D01*
X138426751Y-72987463D01*
X138287463Y-73126751D01*
X138123678Y-73236189D01*
X137941689Y-73311571D01*
X137825770Y-73334628D01*
X137748493Y-73350000D01*
X137551507Y-73350000D01*
X137474230Y-73334628D01*
X137358311Y-73311571D01*
X137176322Y-73236189D01*
X137012537Y-73126751D01*
X136873249Y-72987463D01*
X136763811Y-72823678D01*
X136688429Y-72641689D01*
X136660246Y-72500000D01*
X136650000Y-72448493D01*
X136650000Y-72251507D01*
X136674279Y-72129450D01*
X136688429Y-72058311D01*
X136763811Y-71876322D01*
X136873249Y-71712537D01*
X137012537Y-71573249D01*
X137176322Y-71463811D01*
X137358311Y-71388429D01*
X137474230Y-71365372D01*
X137551507Y-71350000D01*
X137748493Y-71350000D01*
X137825770Y-71365372D01*
X137825770Y-71365372D01*
G37*
G36*
X197150546Y-71442588D02*
X197150549Y-71442589D01*
X197150550Y-71442589D01*
X197314545Y-71492336D01*
X197314547Y-71492337D01*
X197465686Y-71573122D01*
X197598159Y-71681841D01*
X197706878Y-71814314D01*
X197787663Y-71965453D01*
X197837412Y-72129454D01*
X197854209Y-72300000D01*
X197837412Y-72470546D01*
X197837411Y-72470549D01*
X197837411Y-72470550D01*
X197828478Y-72500000D01*
X197787663Y-72634547D01*
X197706878Y-72785686D01*
X197598159Y-72918159D01*
X197465686Y-73026878D01*
X197314547Y-73107663D01*
X197314545Y-73107664D01*
X197150550Y-73157411D01*
X197150549Y-73157411D01*
X197150546Y-73157412D01*
X197022738Y-73170000D01*
X196477262Y-73170000D01*
X196349454Y-73157412D01*
X196349451Y-73157411D01*
X196349450Y-73157411D01*
X196185455Y-73107664D01*
X196185453Y-73107663D01*
X196034314Y-73026878D01*
X195901841Y-72918159D01*
X195793122Y-72785686D01*
X195712337Y-72634547D01*
X195671523Y-72500000D01*
X195662589Y-72470550D01*
X195662589Y-72470549D01*
X195662588Y-72470546D01*
X195645791Y-72300000D01*
X195662588Y-72129454D01*
X195712337Y-71965453D01*
X195793122Y-71814314D01*
X195901841Y-71681841D01*
X196034314Y-71573122D01*
X196185453Y-71492337D01*
X196185455Y-71492336D01*
X196349450Y-71442589D01*
X196349451Y-71442589D01*
X196349454Y-71442588D01*
X196477262Y-71430000D01*
X197022738Y-71430000D01*
X197150546Y-71442588D01*
X197150546Y-71442588D01*
G37*
G36*
X149525770Y-65015372D02*
X149641689Y-65038429D01*
X149823678Y-65113811D01*
X149987463Y-65223249D01*
X150126751Y-65362537D01*
X150236189Y-65526322D01*
X150311571Y-65708311D01*
X150350000Y-65901509D01*
X150350000Y-66098491D01*
X150311571Y-66291689D01*
X150236189Y-66473678D01*
X150126751Y-66637463D01*
X149987463Y-66776751D01*
X149823678Y-66886189D01*
X149641689Y-66961571D01*
X149525770Y-66984628D01*
X149448493Y-67000000D01*
X149251507Y-67000000D01*
X149174230Y-66984628D01*
X149058311Y-66961571D01*
X148876322Y-66886189D01*
X148712537Y-66776751D01*
X148573249Y-66637463D01*
X148463811Y-66473678D01*
X148388429Y-66291689D01*
X148350000Y-66098491D01*
X148350000Y-65901509D01*
X148388429Y-65708311D01*
X148463811Y-65526322D01*
X148573249Y-65362537D01*
X148712537Y-65223249D01*
X148876322Y-65113811D01*
X149058311Y-65038429D01*
X149174230Y-65015372D01*
X149251507Y-65000000D01*
X149448493Y-65000000D01*
X149525770Y-65015372D01*
X149525770Y-65015372D01*
G37*
G36*
X137825770Y-65015372D02*
X137941689Y-65038429D01*
X138123678Y-65113811D01*
X138287463Y-65223249D01*
X138426751Y-65362537D01*
X138536189Y-65526322D01*
X138611571Y-65708311D01*
X138650000Y-65901509D01*
X138650000Y-66098491D01*
X138611571Y-66291689D01*
X138536189Y-66473678D01*
X138426751Y-66637463D01*
X138287463Y-66776751D01*
X138123678Y-66886189D01*
X137941689Y-66961571D01*
X137825770Y-66984628D01*
X137748493Y-67000000D01*
X137551507Y-67000000D01*
X137474230Y-66984628D01*
X137358311Y-66961571D01*
X137176322Y-66886189D01*
X137012537Y-66776751D01*
X136873249Y-66637463D01*
X136763811Y-66473678D01*
X136688429Y-66291689D01*
X136650000Y-66098491D01*
X136650000Y-65901509D01*
X136688429Y-65708311D01*
X136763811Y-65526322D01*
X136873249Y-65362537D01*
X137012537Y-65223249D01*
X137176322Y-65113811D01*
X137358311Y-65038429D01*
X137474230Y-65015372D01*
X137551507Y-65000000D01*
X137748493Y-65000000D01*
X137825770Y-65015372D01*
X137825770Y-65015372D01*
G37*
G36*
X162262521Y-60984586D02*
X162426309Y-61052429D01*
X162573720Y-61150926D01*
X162699074Y-61276280D01*
X162797571Y-61423691D01*
X162865414Y-61587479D01*
X162900000Y-61761356D01*
X162900000Y-61938644D01*
X162865414Y-62112521D01*
X162797571Y-62276309D01*
X162699074Y-62423720D01*
X162573720Y-62549074D01*
X162426309Y-62647571D01*
X162262521Y-62715414D01*
X162088644Y-62750000D01*
X161911356Y-62750000D01*
X161737479Y-62715414D01*
X161573691Y-62647571D01*
X161426280Y-62549074D01*
X161300926Y-62423720D01*
X161202429Y-62276309D01*
X161134586Y-62112521D01*
X161100000Y-61938644D01*
X161100000Y-61761356D01*
X161134586Y-61587479D01*
X161202429Y-61423691D01*
X161300926Y-61276280D01*
X161426280Y-61150926D01*
X161573691Y-61052429D01*
X161737479Y-60984586D01*
X161911356Y-60950000D01*
X162088644Y-60950000D01*
X162262521Y-60984586D01*
X162262521Y-60984586D01*
G37*
G36*
X169900000Y-62450000D02*
X167800000Y-62450000D01*
X167800000Y-58950000D01*
X169900000Y-58950000D01*
X169900000Y-62450000D01*
X169900000Y-62450000D01*
G37*
G36*
X156200000Y-62450000D02*
X154100000Y-62450000D01*
X154100000Y-58950000D01*
X156200000Y-58950000D01*
X156200000Y-62450000D01*
X156200000Y-62450000D01*
G37*
G36*
X112145845Y-60369215D02*
X112236839Y-60406906D01*
X112266533Y-60426747D01*
X112318734Y-60461627D01*
X112388373Y-60531266D01*
X112388375Y-60531269D01*
X112442032Y-60611571D01*
X112443095Y-60613163D01*
X112480785Y-60704155D01*
X112500000Y-60800755D01*
X112500000Y-60899245D01*
X112480785Y-60995845D01*
X112443095Y-61086837D01*
X112388373Y-61168734D01*
X112318734Y-61238373D01*
X112318731Y-61238375D01*
X112236839Y-61293094D01*
X112145845Y-61330785D01*
X112049246Y-61350000D01*
X111950754Y-61350000D01*
X111854155Y-61330785D01*
X111763161Y-61293094D01*
X111681269Y-61238375D01*
X111681266Y-61238373D01*
X111611627Y-61168734D01*
X111556905Y-61086837D01*
X111519215Y-60995845D01*
X111500000Y-60899245D01*
X111500000Y-60800755D01*
X111519215Y-60704155D01*
X111556905Y-60613163D01*
X111557969Y-60611571D01*
X111611625Y-60531269D01*
X111611627Y-60531266D01*
X111681266Y-60461627D01*
X111733467Y-60426747D01*
X111763161Y-60406906D01*
X111854155Y-60369215D01*
X111950754Y-60350000D01*
X112049246Y-60350000D01*
X112145845Y-60369215D01*
X112145845Y-60369215D01*
G37*
G36*
X106145845Y-60369215D02*
X106236839Y-60406906D01*
X106266533Y-60426747D01*
X106318734Y-60461627D01*
X106388373Y-60531266D01*
X106388375Y-60531269D01*
X106442032Y-60611571D01*
X106443095Y-60613163D01*
X106480785Y-60704155D01*
X106500000Y-60800755D01*
X106500000Y-60899245D01*
X106480785Y-60995845D01*
X106443095Y-61086837D01*
X106388373Y-61168734D01*
X106318734Y-61238373D01*
X106318731Y-61238375D01*
X106236839Y-61293094D01*
X106145845Y-61330785D01*
X106049246Y-61350000D01*
X105950754Y-61350000D01*
X105854155Y-61330785D01*
X105763161Y-61293094D01*
X105681269Y-61238375D01*
X105681266Y-61238373D01*
X105611627Y-61168734D01*
X105556905Y-61086837D01*
X105519215Y-60995845D01*
X105500000Y-60899245D01*
X105500000Y-60800755D01*
X105519215Y-60704155D01*
X105556905Y-60613163D01*
X105557969Y-60611571D01*
X105611625Y-60531269D01*
X105611627Y-60531266D01*
X105681266Y-60461627D01*
X105733467Y-60426747D01*
X105763161Y-60406906D01*
X105854155Y-60369215D01*
X105950754Y-60350000D01*
X106049246Y-60350000D01*
X106145845Y-60369215D01*
X106145845Y-60369215D01*
G37*
G36*
X137775770Y-58665372D02*
X137891689Y-58688429D01*
X138073678Y-58763811D01*
X138237463Y-58873249D01*
X138376751Y-59012537D01*
X138486189Y-59176322D01*
X138561571Y-59358311D01*
X138600000Y-59551509D01*
X138600000Y-59748491D01*
X138561571Y-59941689D01*
X138486189Y-60123678D01*
X138376751Y-60287463D01*
X138237463Y-60426751D01*
X138073678Y-60536189D01*
X137891689Y-60611571D01*
X137775770Y-60634628D01*
X137698493Y-60650000D01*
X137501507Y-60650000D01*
X137424230Y-60634628D01*
X137308311Y-60611571D01*
X137126322Y-60536189D01*
X136962537Y-60426751D01*
X136823249Y-60287463D01*
X136713811Y-60123678D01*
X136638429Y-59941689D01*
X136600000Y-59748491D01*
X136600000Y-59551509D01*
X136638429Y-59358311D01*
X136713811Y-59176322D01*
X136823249Y-59012537D01*
X136962537Y-58873249D01*
X137126322Y-58763811D01*
X137308311Y-58688429D01*
X137424230Y-58665372D01*
X137501507Y-58650000D01*
X137698493Y-58650000D01*
X137775770Y-58665372D01*
X137775770Y-58665372D01*
G37*
G36*
X149575770Y-58665372D02*
X149691689Y-58688429D01*
X149873678Y-58763811D01*
X150037463Y-58873249D01*
X150176751Y-59012537D01*
X150286189Y-59176322D01*
X150361571Y-59358311D01*
X150400000Y-59551509D01*
X150400000Y-59748491D01*
X150361571Y-59941689D01*
X150286189Y-60123678D01*
X150176751Y-60287463D01*
X150037463Y-60426751D01*
X149873678Y-60536189D01*
X149691689Y-60611571D01*
X149575770Y-60634628D01*
X149498493Y-60650000D01*
X149301507Y-60650000D01*
X149224230Y-60634628D01*
X149108311Y-60611571D01*
X148926322Y-60536189D01*
X148762537Y-60426751D01*
X148623249Y-60287463D01*
X148513811Y-60123678D01*
X148438429Y-59941689D01*
X148400000Y-59748491D01*
X148400000Y-59551509D01*
X148438429Y-59358311D01*
X148513811Y-59176322D01*
X148623249Y-59012537D01*
X148762537Y-58873249D01*
X148926322Y-58763811D01*
X149108311Y-58688429D01*
X149224230Y-58665372D01*
X149301507Y-58650000D01*
X149498493Y-58650000D01*
X149575770Y-58665372D01*
X149575770Y-58665372D01*
G37*
G36*
X158512521Y-56634586D02*
X158676309Y-56702429D01*
X158823720Y-56800926D01*
X158949074Y-56926280D01*
X159047571Y-57073691D01*
X159115414Y-57237479D01*
X159150000Y-57411356D01*
X159150000Y-57588644D01*
X159115414Y-57762521D01*
X159047571Y-57926309D01*
X158949074Y-58073720D01*
X158823720Y-58199074D01*
X158676309Y-58297571D01*
X158512521Y-58365414D01*
X158338644Y-58400000D01*
X158161356Y-58400000D01*
X157987479Y-58365414D01*
X157823691Y-58297571D01*
X157676280Y-58199074D01*
X157550926Y-58073720D01*
X157452429Y-57926309D01*
X157384586Y-57762521D01*
X157350000Y-57588644D01*
X157350000Y-57411356D01*
X157384586Y-57237479D01*
X157452429Y-57073691D01*
X157550926Y-56926280D01*
X157676280Y-56800926D01*
X157823691Y-56702429D01*
X157987479Y-56634586D01*
X158161356Y-56600000D01*
X158338644Y-56600000D01*
X158512521Y-56634586D01*
X158512521Y-56634586D01*
G37*
G36*
X166012521Y-56634586D02*
X166176309Y-56702429D01*
X166323720Y-56800926D01*
X166449074Y-56926280D01*
X166547571Y-57073691D01*
X166615414Y-57237479D01*
X166650000Y-57411356D01*
X166650000Y-57588644D01*
X166615414Y-57762521D01*
X166547571Y-57926309D01*
X166449074Y-58073720D01*
X166323720Y-58199074D01*
X166176309Y-58297571D01*
X166012521Y-58365414D01*
X165838644Y-58400000D01*
X165661356Y-58400000D01*
X165487479Y-58365414D01*
X165323691Y-58297571D01*
X165176280Y-58199074D01*
X165050926Y-58073720D01*
X164952429Y-57926309D01*
X164884586Y-57762521D01*
X164850000Y-57588644D01*
X164850000Y-57411356D01*
X164884586Y-57237479D01*
X164952429Y-57073691D01*
X165050926Y-56926280D01*
X165176280Y-56800926D01*
X165323691Y-56702429D01*
X165487479Y-56634586D01*
X165661356Y-56600000D01*
X165838644Y-56600000D01*
X166012521Y-56634586D01*
X166012521Y-56634586D01*
G37*
M02*
