G04 #@! TF.GenerationSoftware,KiCad,Pcbnew,(5.0.2)-1*
G04 #@! TF.CreationDate,2019-02-15T17:13:35+01:00*
G04 #@! TF.ProjectId,Lab1,4c616231-2e6b-4696-9361-645f70636258,rev?*
G04 #@! TF.SameCoordinates,Original*
G04 #@! TF.FileFunction,Copper,L2,Bot*
G04 #@! TF.FilePolarity,Positive*
%FSLAX46Y46*%
G04 Gerber Fmt 4.6, Leading zero omitted, Abs format (unit mm)*
G04 Created by KiCad (PCBNEW (5.0.2)-1) date 2019-02-15 17:13:35*
%MOMM*%
%LPD*%
G01*
G04 APERTURE LIST*
G04 #@! TA.AperFunction,WasherPad*
%ADD10R,2.100000X3.500000*%
G04 #@! TD*
G04 #@! TA.AperFunction,ComponentPad*
%ADD11C,1.800000*%
G04 #@! TD*
G04 #@! TA.AperFunction,ComponentPad*
%ADD12C,1.524000*%
G04 #@! TD*
G04 #@! TA.AperFunction,WasherPad*
%ADD13R,3.000000X3.000000*%
G04 #@! TD*
G04 #@! TA.AperFunction,ComponentPad*
%ADD14O,3.500000X1.900000*%
G04 #@! TD*
G04 #@! TA.AperFunction,ComponentPad*
%ADD15C,2.000000*%
G04 #@! TD*
G04 #@! TA.AperFunction,ComponentPad*
%ADD16R,1.800000X1.800000*%
G04 #@! TD*
G04 #@! TA.AperFunction,ComponentPad*
%ADD17C,9.000000*%
G04 #@! TD*
G04 #@! TA.AperFunction,Conductor*
%ADD18C,0.100000*%
G04 #@! TD*
G04 #@! TA.AperFunction,ComponentPad*
%ADD19C,1.740000*%
G04 #@! TD*
G04 #@! TA.AperFunction,ComponentPad*
%ADD20O,2.200000X1.740000*%
G04 #@! TD*
G04 #@! TA.AperFunction,ComponentPad*
%ADD21C,1.280000*%
G04 #@! TD*
G04 #@! TA.AperFunction,ViaPad*
%ADD22C,0.800000*%
G04 #@! TD*
G04 #@! TA.AperFunction,Conductor*
%ADD23C,0.350000*%
G04 #@! TD*
G04 #@! TA.AperFunction,Conductor*
%ADD24C,0.500000*%
G04 #@! TD*
G04 #@! TA.AperFunction,Conductor*
%ADD25C,0.300000*%
G04 #@! TD*
G04 #@! TA.AperFunction,Conductor*
%ADD26C,0.250000*%
G04 #@! TD*
G04 #@! TA.AperFunction,Conductor*
%ADD27C,0.254000*%
G04 #@! TD*
G04 APERTURE END LIST*
D10*
G04 #@! TO.P,J3,*
G04 #@! TO.N,*
X155050000Y-63300000D03*
X168750000Y-63300000D03*
D11*
G04 #@! TO.P,J3,1*
G04 #@! TO.N,GNDA*
X161900000Y-62150000D03*
G04 #@! TO.P,J3,2*
G04 #@! TO.N,Net-(C32-Pad2)*
X165650000Y-66500000D03*
G04 #@! TO.P,J3,3*
G04 #@! TO.N,Net-(C18-Pad1)*
X158150000Y-66500000D03*
G04 #@! TD*
D12*
G04 #@! TO.P,RV2,1*
G04 #@! TO.N,Net-(R17-Pad2)*
X105250000Y-137000000D03*
G04 #@! TO.P,RV2,2*
G04 #@! TO.N,/POT2*
X109000000Y-137000000D03*
G04 #@! TO.P,RV2,3*
G04 #@! TO.N,GNDA*
X112750000Y-137000000D03*
D13*
G04 #@! TO.P,RV2,*
G04 #@! TO.N,*
X103950000Y-127000000D03*
X114050000Y-127000000D03*
G04 #@! TD*
D14*
G04 #@! TO.P,J2,6*
G04 #@! TO.N,GNDD*
X197750000Y-92050000D03*
G04 #@! TO.P,J2,5*
X197750000Y-103450000D03*
G04 #@! TD*
D15*
G04 #@! TO.P,J4,2*
G04 #@! TO.N,Net-(J4-Pad2)*
X137650000Y-66000000D03*
G04 #@! TO.P,J4,5*
X149350000Y-66000000D03*
G04 #@! TO.P,J4,3*
G04 #@! TO.N,GNDA*
X137650000Y-72350000D03*
G04 #@! TO.P,J4,6*
X149350000Y-72350000D03*
G04 #@! TO.P,J4,1*
G04 #@! TO.N,Net-(J4-Pad1)*
X137600000Y-59650000D03*
G04 #@! TO.P,J4,4*
X149400000Y-59650000D03*
G04 #@! TD*
D11*
G04 #@! TO.P,D1,2*
G04 #@! TO.N,Net-(D1-Pad2)*
X121540000Y-132080000D03*
D16*
G04 #@! TO.P,D1,1*
G04 #@! TO.N,GNDA*
X119000000Y-132080000D03*
G04 #@! TD*
G04 #@! TO.P,D2,1*
G04 #@! TO.N,GNDA*
X125000000Y-132080000D03*
D11*
G04 #@! TO.P,D2,2*
G04 #@! TO.N,Net-(D2-Pad2)*
X127540000Y-132080000D03*
G04 #@! TD*
G04 #@! TO.P,D3,2*
G04 #@! TO.N,Net-(D3-Pad2)*
X133540000Y-132080000D03*
D16*
G04 #@! TO.P,D3,1*
G04 #@! TO.N,GNDA*
X131000000Y-132080000D03*
G04 #@! TD*
G04 #@! TO.P,D4,1*
G04 #@! TO.N,GNDA*
X137000000Y-132080000D03*
D11*
G04 #@! TO.P,D4,2*
G04 #@! TO.N,Net-(D4-Pad2)*
X139540000Y-132080000D03*
G04 #@! TD*
D17*
G04 #@! TO.P,H1,1*
G04 #@! TO.N,+5V*
X113500000Y-72000000D03*
G04 #@! TD*
G04 #@! TO.P,H2,1*
G04 #@! TO.N,GNDD*
X183500000Y-77000000D03*
G04 #@! TD*
D18*
G04 #@! TO.N,/SWO*
G04 #@! TO.C,J5*
G36*
X197624505Y-84131204D02*
X197648773Y-84134804D01*
X197672572Y-84140765D01*
X197695671Y-84149030D01*
X197717850Y-84159520D01*
X197738893Y-84172132D01*
X197758599Y-84186747D01*
X197776777Y-84203223D01*
X197793253Y-84221401D01*
X197807868Y-84241107D01*
X197820480Y-84262150D01*
X197830970Y-84284329D01*
X197839235Y-84307428D01*
X197845196Y-84331227D01*
X197848796Y-84355495D01*
X197850000Y-84379999D01*
X197850000Y-85620001D01*
X197848796Y-85644505D01*
X197845196Y-85668773D01*
X197839235Y-85692572D01*
X197830970Y-85715671D01*
X197820480Y-85737850D01*
X197807868Y-85758893D01*
X197793253Y-85778599D01*
X197776777Y-85796777D01*
X197758599Y-85813253D01*
X197738893Y-85827868D01*
X197717850Y-85840480D01*
X197695671Y-85850970D01*
X197672572Y-85859235D01*
X197648773Y-85865196D01*
X197624505Y-85868796D01*
X197600001Y-85870000D01*
X195899999Y-85870000D01*
X195875495Y-85868796D01*
X195851227Y-85865196D01*
X195827428Y-85859235D01*
X195804329Y-85850970D01*
X195782150Y-85840480D01*
X195761107Y-85827868D01*
X195741401Y-85813253D01*
X195723223Y-85796777D01*
X195706747Y-85778599D01*
X195692132Y-85758893D01*
X195679520Y-85737850D01*
X195669030Y-85715671D01*
X195660765Y-85692572D01*
X195654804Y-85668773D01*
X195651204Y-85644505D01*
X195650000Y-85620001D01*
X195650000Y-84379999D01*
X195651204Y-84355495D01*
X195654804Y-84331227D01*
X195660765Y-84307428D01*
X195669030Y-84284329D01*
X195679520Y-84262150D01*
X195692132Y-84241107D01*
X195706747Y-84221401D01*
X195723223Y-84203223D01*
X195741401Y-84186747D01*
X195761107Y-84172132D01*
X195782150Y-84159520D01*
X195804329Y-84149030D01*
X195827428Y-84140765D01*
X195851227Y-84134804D01*
X195875495Y-84131204D01*
X195899999Y-84130000D01*
X197600001Y-84130000D01*
X197624505Y-84131204D01*
X197624505Y-84131204D01*
G37*
D19*
G04 #@! TD*
G04 #@! TO.P,J5,1*
G04 #@! TO.N,/SWO*
X196750000Y-85000000D03*
D20*
G04 #@! TO.P,J5,2*
G04 #@! TO.N,/NRST*
X196750000Y-82460000D03*
G04 #@! TO.P,J5,3*
G04 #@! TO.N,/SWDIO*
X196750000Y-79920000D03*
G04 #@! TO.P,J5,4*
G04 #@! TO.N,GNDD*
X196750000Y-77380000D03*
G04 #@! TO.P,J5,5*
G04 #@! TO.N,/SWCLK*
X196750000Y-74840000D03*
G04 #@! TO.P,J5,6*
G04 #@! TO.N,+3V3*
X196750000Y-72300000D03*
G04 #@! TD*
D13*
G04 #@! TO.P,RV1,*
G04 #@! TO.N,*
X114050000Y-142000000D03*
X103950000Y-142000000D03*
D12*
G04 #@! TO.P,RV1,3*
G04 #@! TO.N,GNDA*
X112750000Y-152000000D03*
G04 #@! TO.P,RV1,2*
G04 #@! TO.N,/POT3*
X109000000Y-152000000D03*
G04 #@! TO.P,RV1,1*
G04 #@! TO.N,Net-(R17-Pad2)*
X105250000Y-152000000D03*
G04 #@! TD*
D13*
G04 #@! TO.P,RV3,*
G04 #@! TO.N,*
X114050000Y-112250000D03*
X103950000Y-112250000D03*
D12*
G04 #@! TO.P,RV3,3*
G04 #@! TO.N,GNDA*
X112750000Y-122250000D03*
G04 #@! TO.P,RV3,2*
G04 #@! TO.N,/POT1*
X109000000Y-122250000D03*
G04 #@! TO.P,RV3,1*
G04 #@! TO.N,Net-(R17-Pad2)*
X105250000Y-122250000D03*
G04 #@! TD*
D21*
G04 #@! TO.P,U4,1*
G04 #@! TO.N,Net-(U4-Pad1)*
X164490000Y-154050000D03*
G04 #@! TO.P,U4,2*
G04 #@! TO.N,Net-(U4-Pad2)*
X167030000Y-154050000D03*
G04 #@! TO.P,U4,14*
G04 #@! TO.N,Net-(U4-Pad14)*
X197510000Y-154050000D03*
G04 #@! TO.P,U4,13*
G04 #@! TO.N,Net-(U4-Pad13)*
X194970000Y-154050000D03*
G04 #@! TO.P,U4,28*
G04 #@! TO.N,/LCD_CS*
X164490000Y-115950000D03*
G04 #@! TO.P,U4,27*
G04 #@! TO.N,/NRST*
X167030000Y-115950000D03*
G04 #@! TO.P,U4,26*
G04 #@! TO.N,/LCD_SPI_MISO*
X169570000Y-115950000D03*
G04 #@! TO.P,U4,25*
G04 #@! TO.N,/LCD_SPI_SCK*
X172110000Y-115950000D03*
G04 #@! TO.P,U4,24*
G04 #@! TO.N,/LCD_SPI_MOSI*
X174650000Y-115950000D03*
G04 #@! TO.P,U4,23*
G04 #@! TO.N,+3V3*
X177190000Y-115950000D03*
G04 #@! TO.P,U4,22*
X179730000Y-115950000D03*
G04 #@! TO.P,U4,21*
G04 #@! TO.N,GNDD*
X182270000Y-115950000D03*
G04 #@! TO.P,U4,20*
X184810000Y-115950000D03*
G04 #@! TO.P,U4,19*
G04 #@! TO.N,Net-(C39-Pad2)*
X187350000Y-115950000D03*
G04 #@! TO.P,U4,18*
G04 #@! TO.N,Net-(C40-Pad2)*
X189890000Y-115950000D03*
G04 #@! TO.P,U4,17*
G04 #@! TO.N,Net-(C40-Pad1)*
X192430000Y-115950000D03*
G04 #@! TO.P,U4,16*
G04 #@! TO.N,Net-(C39-Pad1)*
X194970000Y-115950000D03*
G04 #@! TO.P,U4,15*
G04 #@! TO.N,Net-(C41-Pad1)*
X197510000Y-115950000D03*
G04 #@! TD*
D18*
G04 #@! TO.N,/USART_RX*
G04 #@! TO.C,J6*
G36*
X122874505Y-106131204D02*
X122898773Y-106134804D01*
X122922572Y-106140765D01*
X122945671Y-106149030D01*
X122967850Y-106159520D01*
X122988893Y-106172132D01*
X123008599Y-106186747D01*
X123026777Y-106203223D01*
X123043253Y-106221401D01*
X123057868Y-106241107D01*
X123070480Y-106262150D01*
X123080970Y-106284329D01*
X123089235Y-106307428D01*
X123095196Y-106331227D01*
X123098796Y-106355495D01*
X123100000Y-106379999D01*
X123100000Y-107620001D01*
X123098796Y-107644505D01*
X123095196Y-107668773D01*
X123089235Y-107692572D01*
X123080970Y-107715671D01*
X123070480Y-107737850D01*
X123057868Y-107758893D01*
X123043253Y-107778599D01*
X123026777Y-107796777D01*
X123008599Y-107813253D01*
X122988893Y-107827868D01*
X122967850Y-107840480D01*
X122945671Y-107850970D01*
X122922572Y-107859235D01*
X122898773Y-107865196D01*
X122874505Y-107868796D01*
X122850001Y-107870000D01*
X121149999Y-107870000D01*
X121125495Y-107868796D01*
X121101227Y-107865196D01*
X121077428Y-107859235D01*
X121054329Y-107850970D01*
X121032150Y-107840480D01*
X121011107Y-107827868D01*
X120991401Y-107813253D01*
X120973223Y-107796777D01*
X120956747Y-107778599D01*
X120942132Y-107758893D01*
X120929520Y-107737850D01*
X120919030Y-107715671D01*
X120910765Y-107692572D01*
X120904804Y-107668773D01*
X120901204Y-107644505D01*
X120900000Y-107620001D01*
X120900000Y-106379999D01*
X120901204Y-106355495D01*
X120904804Y-106331227D01*
X120910765Y-106307428D01*
X120919030Y-106284329D01*
X120929520Y-106262150D01*
X120942132Y-106241107D01*
X120956747Y-106221401D01*
X120973223Y-106203223D01*
X120991401Y-106186747D01*
X121011107Y-106172132D01*
X121032150Y-106159520D01*
X121054329Y-106149030D01*
X121077428Y-106140765D01*
X121101227Y-106134804D01*
X121125495Y-106131204D01*
X121149999Y-106130000D01*
X122850001Y-106130000D01*
X122874505Y-106131204D01*
X122874505Y-106131204D01*
G37*
D19*
G04 #@! TD*
G04 #@! TO.P,J6,1*
G04 #@! TO.N,/USART_RX*
X122000000Y-107000000D03*
D20*
G04 #@! TO.P,J6,2*
G04 #@! TO.N,/USART_TX*
X122000000Y-104460000D03*
G04 #@! TD*
D22*
G04 #@! TO.N,GNDD*
X149250000Y-81500000D03*
X147250000Y-91500000D03*
X157800000Y-84000000D03*
G04 #@! TO.N,+3V3*
X153750000Y-152250000D03*
X164500000Y-109750000D03*
X164500000Y-101750000D03*
X164000000Y-91750000D03*
X160500000Y-84250000D03*
X148250000Y-126000000D03*
X146700000Y-116400000D03*
X148451231Y-119400000D03*
G04 #@! TO.N,GNDA*
X144089998Y-110250000D03*
X140056682Y-114265021D03*
G04 #@! TO.N,+5V*
X167250000Y-109500000D03*
X140750000Y-88500000D03*
X177827732Y-94444784D03*
X149750000Y-79500000D03*
X192200000Y-92800000D03*
G04 #@! TO.N,Net-(C10-Pad1)*
X153250000Y-113500000D03*
X144575001Y-113874999D03*
G04 #@! TO.N,/OUTR*
X164250000Y-81500000D03*
X162101941Y-92219247D03*
G04 #@! TO.N,/OUTL*
X156500000Y-81300009D03*
X160920000Y-91780000D03*
G04 #@! TO.N,/INR*
X146750000Y-85750000D03*
X123500000Y-72000000D03*
G04 #@! TO.N,/INL*
X146250000Y-81250000D03*
X123250000Y-62750000D03*
G04 #@! TO.N,/Button4*
X175000000Y-69250000D03*
X174250000Y-83000000D03*
G04 #@! TO.N,/Button1*
X122750000Y-138750000D03*
X146750000Y-109000000D03*
G04 #@! TO.N,/Button2*
X134500000Y-138750000D03*
X142799994Y-109400000D03*
G04 #@! TO.N,/Button3*
X144750000Y-138500000D03*
X146500000Y-110000000D03*
G04 #@! TO.N,/NRST*
X147500000Y-83750000D03*
X135750000Y-92000000D03*
X155575001Y-116000000D03*
X146750000Y-107999997D03*
X138550000Y-105150000D03*
G04 #@! TO.N,/SWDIO*
X182999996Y-89250000D03*
G04 #@! TO.N,Net-(R2-Pad1)*
X152287553Y-98332006D03*
X148200002Y-96371973D03*
G04 #@! TO.N,/CODEC_SPI_SCK*
X152036020Y-82980956D03*
X149734261Y-106207295D03*
X152650000Y-97400000D03*
X149452397Y-113067637D03*
G04 #@! TO.N,/CODEC_SPI_MISO*
X155391208Y-92992022D03*
X155110445Y-96289578D03*
G04 #@! TO.N,/LED1*
X151525000Y-116000000D03*
X120250000Y-123750000D03*
G04 #@! TO.N,/LED2*
X126500000Y-123750000D03*
X152792890Y-117957109D03*
G04 #@! TO.N,/LED3*
X153500000Y-117250003D03*
X132500000Y-123750000D03*
G04 #@! TO.N,/LED4*
X153500000Y-116250000D03*
X138500000Y-124000000D03*
G04 #@! TO.N,/I2S_SDOUT*
X162500000Y-111000000D03*
X158600000Y-86400000D03*
G04 #@! TO.N,/POT3*
X116750000Y-120500000D03*
G04 #@! TO.N,/CODEC_CS*
X153032085Y-83069607D03*
X148800000Y-111800004D03*
G04 #@! TO.N,/CODEC_SPI_MOSI*
X153984670Y-82765330D03*
X151500000Y-113000000D03*
G04 #@! TO.N,/I2S_LRCK*
X157468247Y-93000001D03*
X158338008Y-113641992D03*
G04 #@! TO.N,/I2S_SCLK*
X157500000Y-89775000D03*
X159250000Y-112250000D03*
G04 #@! TO.N,/I2S_SDIN*
X156500000Y-92750000D03*
X155600000Y-109999996D03*
G04 #@! TO.N,/I2S_MCLK*
X157250000Y-90750000D03*
X158650000Y-109880000D03*
G04 #@! TO.N,/LCD_CS*
X154838862Y-104753313D03*
G04 #@! TO.N,/LCD_SPI_SCK*
X153840506Y-104695795D03*
G04 #@! TO.N,/LCD_SPI_MISO*
X169250000Y-118250000D03*
X153019984Y-105267429D03*
G04 #@! TO.N,/LCD_SPI_MOSI*
X175500000Y-112000000D03*
X151860000Y-105280000D03*
G04 #@! TO.N,/USART_RX*
X150950000Y-99750000D03*
G04 #@! TO.N,/USART_TX*
X152150000Y-99400000D03*
G04 #@! TD*
D23*
G04 #@! TO.N,GNDD*
X196370000Y-77000000D02*
X196750000Y-77380000D01*
X183500000Y-77000000D02*
X196370000Y-77000000D01*
X148850001Y-81899999D02*
X149250000Y-81500000D01*
X148299990Y-82450010D02*
X148850001Y-81899999D01*
X148299990Y-90450010D02*
X148299990Y-82450010D01*
X147250000Y-91500000D02*
X148299990Y-90450010D01*
X157324999Y-80524999D02*
X157800000Y-81000000D01*
X149250000Y-81500000D02*
X150225001Y-80524999D01*
X150225001Y-80524999D02*
X157324999Y-80524999D01*
X157800000Y-83434315D02*
X157800000Y-84000000D01*
X157800000Y-81000000D02*
X157800000Y-83434315D01*
D24*
G04 #@! TO.N,+3V3*
X177190000Y-115950000D02*
X179730000Y-115950000D01*
X166140000Y-127000000D02*
X177190000Y-115950000D01*
X166140000Y-127110000D02*
X166140000Y-127000000D01*
X153750000Y-152250000D02*
X153750000Y-139500000D01*
X164500000Y-101750000D02*
X164500000Y-92250000D01*
X164500000Y-92250000D02*
X164000000Y-91750000D01*
X196980000Y-72300000D02*
X196750000Y-72300000D01*
X199850010Y-75170010D02*
X196980000Y-72300000D01*
D25*
X199850010Y-95829990D02*
X199850010Y-75170010D01*
D24*
X179730000Y-115950000D02*
X199850010Y-95829990D01*
X164000000Y-91750000D02*
X164000000Y-87750000D01*
X164000000Y-87750000D02*
X160500000Y-84250000D01*
X166000000Y-127250000D02*
X166140000Y-127110000D01*
X153750000Y-139500000D02*
X166000000Y-127250000D01*
X166000000Y-127250000D02*
X164750000Y-126000000D01*
X164750000Y-126000000D02*
X148815685Y-126000000D01*
X148815685Y-126000000D02*
X148250000Y-126000000D01*
X164600000Y-101850000D02*
X164500000Y-101750000D01*
X164500000Y-109750000D02*
X164600000Y-109650000D01*
X164600000Y-109650000D02*
X164600000Y-101850000D01*
D25*
X148451231Y-118151231D02*
X148451231Y-119400000D01*
X146700000Y-116400000D02*
X148451231Y-118151231D01*
D23*
G04 #@! TO.N,GNDA*
X144089998Y-110250000D02*
X140074977Y-114265021D01*
X140074977Y-114265021D02*
X140056682Y-114265021D01*
D24*
G04 #@! TO.N,+5V*
X130000000Y-88500000D02*
X113500000Y-72000000D01*
X140750000Y-88500000D02*
X130000000Y-88500000D01*
X167250000Y-105022516D02*
X177427733Y-94844783D01*
X177427733Y-94844783D02*
X177827732Y-94444784D01*
X167250000Y-109500000D02*
X167250000Y-105022516D01*
X151010093Y-78239907D02*
X149750000Y-79500000D01*
X162188540Y-78239907D02*
X151010093Y-78239907D01*
X177827732Y-94444784D02*
X177827732Y-93879099D01*
X149750000Y-79500000D02*
X149750000Y-79500000D01*
X190555216Y-94444784D02*
X191800001Y-93199999D01*
X191800001Y-93199999D02*
X192200000Y-92800000D01*
X177827732Y-94444784D02*
X190555216Y-94444784D01*
X164839907Y-78239907D02*
X162188540Y-78239907D01*
X177827732Y-93879099D02*
X177827732Y-91227732D01*
X177827732Y-91227732D02*
X164839907Y-78239907D01*
D23*
G04 #@! TO.N,Net-(C10-Pad1)*
X144675003Y-113975001D02*
X144575001Y-113874999D01*
X152774999Y-113975001D02*
X144675003Y-113975001D01*
X153250000Y-113500000D02*
X152774999Y-113975001D01*
G04 #@! TO.N,/OUTR*
X162101941Y-91574939D02*
X162101941Y-91653562D01*
X164250000Y-81500000D02*
X161826998Y-81500000D01*
X161826998Y-81500000D02*
X157824999Y-85501999D01*
X162101941Y-91653562D02*
X162101941Y-92219247D01*
X157824999Y-87297997D02*
X162101941Y-91574939D01*
X157824999Y-85501999D02*
X157824999Y-87297997D01*
G04 #@! TO.N,/OUTL*
X156500000Y-81300009D02*
X156500000Y-87360000D01*
X160520001Y-91380001D02*
X160920000Y-91780000D01*
X156500000Y-87360000D02*
X160520001Y-91380001D01*
G04 #@! TO.N,/INR*
X146750000Y-85750000D02*
X137250000Y-85750000D01*
X137250000Y-85750000D02*
X123899999Y-72399999D01*
X123899999Y-72399999D02*
X123500000Y-72000000D01*
G04 #@! TO.N,/INL*
X134175001Y-73675001D02*
X123250000Y-62750000D01*
X146250000Y-81250000D02*
X141750000Y-81250000D01*
X141750000Y-81250000D02*
X134175001Y-73675001D01*
G04 #@! TO.N,/Button4*
X174250000Y-82434315D02*
X174250000Y-83000000D01*
X174250000Y-70000000D02*
X174250000Y-82434315D01*
X175000000Y-69250000D02*
X174250000Y-70000000D01*
G04 #@! TO.N,/Button1*
X122184315Y-138750000D02*
X122750000Y-138750000D01*
X146184315Y-109000000D02*
X145784315Y-108600000D01*
X146750000Y-109000000D02*
X146184315Y-109000000D01*
X145784315Y-108600000D02*
X131200000Y-108600000D01*
X131200000Y-108600000D02*
X116200000Y-123600000D01*
X116200000Y-123600000D02*
X116200000Y-135600000D01*
X119350000Y-138750000D02*
X122184315Y-138750000D01*
X116200000Y-135600000D02*
X119350000Y-138750000D01*
G04 #@! TO.N,/Button2*
X142234309Y-109400000D02*
X142799994Y-109400000D01*
X134500000Y-138750000D02*
X132350000Y-136600000D01*
X132350000Y-136600000D02*
X119000000Y-136600000D01*
X131600000Y-109400000D02*
X142234309Y-109400000D01*
X116800000Y-134400000D02*
X116800000Y-124200000D01*
X116800000Y-124200000D02*
X131600000Y-109400000D01*
X119000000Y-136600000D02*
X116800000Y-134400000D01*
G04 #@! TO.N,/Button3*
X140884315Y-135200000D02*
X138200000Y-135200000D01*
X144750000Y-138500000D02*
X144184315Y-138500000D01*
X144184315Y-138500000D02*
X140884315Y-135200000D01*
X138200000Y-135200000D02*
X136800000Y-135200000D01*
X137094317Y-135200000D02*
X136800000Y-135200000D01*
X136800000Y-135200000D02*
X119000000Y-135200000D01*
X145934315Y-110000000D02*
X146500000Y-110000000D01*
X117400000Y-133600000D02*
X117400000Y-124600000D01*
X140894292Y-115040023D02*
X145934315Y-110000000D01*
X126959977Y-115040023D02*
X140894292Y-115040023D01*
X119000000Y-135200000D02*
X117400000Y-133600000D01*
X117400000Y-124600000D02*
X126959977Y-115040023D01*
G04 #@! TO.N,/NRST*
X171705001Y-111274999D02*
X167669999Y-115310001D01*
X195348001Y-89401999D02*
X195348001Y-93524999D01*
X198175010Y-86574990D02*
X195348001Y-89401999D01*
D26*
X198175010Y-82535010D02*
X198175010Y-86574990D01*
D23*
X198100000Y-82460000D02*
X198175010Y-82535010D01*
X167669999Y-115310001D02*
X167030000Y-115950000D01*
X196750000Y-82460000D02*
X198100000Y-82460000D01*
X140500000Y-97000000D02*
X147500000Y-90000000D01*
D26*
X147500000Y-90000000D02*
X147500000Y-83750000D01*
D23*
X140500000Y-97000000D02*
X140500000Y-96750000D01*
X140500000Y-96750000D02*
X135750000Y-92000000D01*
X146822999Y-107999997D02*
X146750000Y-107999997D01*
D26*
X147475001Y-108651999D02*
X146822999Y-107999997D01*
X145773002Y-111800000D02*
X147475001Y-110098001D01*
X147475001Y-110098001D02*
X147475001Y-108651999D01*
D23*
X172980000Y-110000000D02*
X171705001Y-111274999D01*
X178800000Y-110000000D02*
X172980000Y-110000000D01*
X193400000Y-95400000D02*
X178800000Y-110000000D01*
X195275001Y-93524999D02*
X193400000Y-95400000D01*
X195348001Y-93524999D02*
X195275001Y-93524999D01*
X145000000Y-111800000D02*
X145773002Y-111800000D01*
X143600000Y-113200000D02*
X145000000Y-111800000D01*
X154800000Y-116000000D02*
X153787501Y-114987500D01*
X155575001Y-116000000D02*
X154800000Y-116000000D01*
X153787501Y-114987500D02*
X153775001Y-115000000D01*
X153775001Y-115000000D02*
X144200000Y-115000000D01*
X144200000Y-115000000D02*
X143600000Y-114400000D01*
X143600000Y-114400000D02*
X143600000Y-113200000D01*
X138550000Y-104584315D02*
X138550000Y-105150000D01*
X138550000Y-98950000D02*
X138550000Y-104584315D01*
X140500000Y-97000000D02*
X138550000Y-98950000D01*
G04 #@! TO.N,/SWDIO*
X192329996Y-79920000D02*
X183399995Y-88850001D01*
X196750000Y-79920000D02*
X192329996Y-79920000D01*
X183399995Y-88850001D02*
X182999996Y-89250000D01*
D25*
G04 #@! TO.N,Net-(R2-Pad1)*
X150327520Y-96371973D02*
X148765687Y-96371973D01*
X148765687Y-96371973D02*
X148200002Y-96371973D01*
X152287553Y-98332006D02*
X150327520Y-96371973D01*
D23*
G04 #@! TO.N,/CODEC_SPI_SCK*
X151500000Y-83516976D02*
X152036020Y-82980956D01*
X151500000Y-83500000D02*
X151500000Y-96250000D01*
X152250001Y-97000001D02*
X152650000Y-97400000D01*
X151500000Y-96250000D02*
X152250001Y-97000001D01*
X150134260Y-106607294D02*
X150134260Y-112385774D01*
X150134260Y-112385774D02*
X149852396Y-112667638D01*
X149852396Y-112667638D02*
X149452397Y-113067637D01*
X149734261Y-106207295D02*
X150134260Y-106607294D01*
G04 #@! TO.N,/CODEC_SPI_MISO*
X155391208Y-92992022D02*
X155391208Y-96008815D01*
X155391208Y-96008815D02*
X155110445Y-96289578D01*
G04 #@! TO.N,/LED1*
X120250000Y-123750000D02*
X121750000Y-122250000D01*
X151525000Y-118725000D02*
X151525000Y-116000000D01*
X149600000Y-120650000D02*
X151525000Y-118725000D01*
X121750000Y-122250000D02*
X123350000Y-120650000D01*
X123350000Y-120650000D02*
X149600000Y-120650000D01*
G04 #@! TO.N,/LED2*
X152792890Y-117957109D02*
X152552891Y-117957109D01*
X127425011Y-122824989D02*
X126500000Y-123750000D01*
X152792890Y-117957109D02*
X152792890Y-118093521D01*
X128330000Y-121920000D02*
X127425011Y-122824989D01*
X149280000Y-121920000D02*
X128330000Y-121920000D01*
X152792890Y-118093521D02*
X152792890Y-118407110D01*
X152792890Y-118407110D02*
X149280000Y-121920000D01*
G04 #@! TO.N,/LED3*
X132899999Y-123350001D02*
X132500000Y-123750000D01*
X133650000Y-122600000D02*
X132899999Y-123350001D01*
X149600000Y-122600000D02*
X133650000Y-122600000D01*
X153750000Y-118450000D02*
X149600000Y-122600000D01*
X153500000Y-117250003D02*
X153750000Y-117500003D01*
X153750000Y-117500003D02*
X153750000Y-118450000D01*
G04 #@! TO.N,/LED4*
X138500000Y-124000000D02*
X149500000Y-124000000D01*
X154065685Y-116250000D02*
X153500000Y-116250000D01*
X154225001Y-116409316D02*
X154065685Y-116250000D01*
X149500000Y-124000000D02*
X154225001Y-119274999D01*
X155000000Y-117184315D02*
X154225001Y-116409316D01*
X154225001Y-119274999D02*
X155000000Y-118500000D01*
X155000000Y-118500000D02*
X155000000Y-117184315D01*
G04 #@! TO.N,/I2S_SDOUT*
X162899999Y-110600001D02*
X162899999Y-90699999D01*
X158999999Y-86799999D02*
X158600000Y-86400000D01*
X162899999Y-90699999D02*
X158999999Y-86799999D01*
X162500000Y-111000000D02*
X162899999Y-110600001D01*
G04 #@! TO.N,/POT3*
X116750000Y-120500000D02*
X111250000Y-126000000D01*
X111250000Y-126000000D02*
X111250000Y-149750000D01*
X111250000Y-149750000D02*
X109000000Y-152000000D01*
G04 #@! TO.N,/CODEC_CS*
X153032085Y-96085081D02*
X154025002Y-97077998D01*
X154025002Y-97077998D02*
X154025002Y-99820161D01*
X154025002Y-99820161D02*
X148800000Y-105045163D01*
X148800000Y-105045163D02*
X148800000Y-111234319D01*
X148800000Y-111234319D02*
X148800000Y-111800004D01*
X153032085Y-83069607D02*
X153032085Y-96085081D01*
G04 #@! TO.N,/CODEC_SPI_MOSI*
X154575013Y-100047983D02*
X150770000Y-103852996D01*
X153984670Y-82765330D02*
X153984670Y-96259833D01*
X153984670Y-96259833D02*
X154575013Y-96850176D01*
X154575013Y-96850176D02*
X154575013Y-100047983D01*
X150770000Y-103852996D02*
X150770000Y-112270000D01*
X151100001Y-112600001D02*
X151500000Y-113000000D01*
X150770000Y-112270000D02*
X151100001Y-112600001D01*
G04 #@! TO.N,/I2S_LRCK*
X156910000Y-112213984D02*
X158338008Y-113641992D01*
X157468247Y-93000001D02*
X156910000Y-93558248D01*
X156910000Y-93558248D02*
X156910000Y-112213984D01*
G04 #@! TO.N,/I2S_SCLK*
X159805002Y-111694998D02*
X159649999Y-111850001D01*
X159805002Y-92080002D02*
X159805002Y-111694998D01*
X157500000Y-89775000D02*
X159805002Y-92080002D01*
X159649999Y-111850001D02*
X159250000Y-112250000D01*
G04 #@! TO.N,/I2S_SDIN*
X155999999Y-109599997D02*
X155600000Y-109999996D01*
X156160000Y-109439996D02*
X155999999Y-109599997D01*
X156160000Y-93090000D02*
X156160000Y-109439996D01*
X156500000Y-92750000D02*
X156160000Y-93090000D01*
G04 #@! TO.N,/I2S_MCLK*
X157250000Y-90750000D02*
X158650000Y-92150000D01*
X158650000Y-92150000D02*
X158650000Y-109314315D01*
X158650000Y-109314315D02*
X158650000Y-109880000D01*
G04 #@! TO.N,/LCD_CS*
X154823766Y-105334094D02*
X154838862Y-105318998D01*
X159550000Y-115950000D02*
X154823766Y-111223766D01*
X164490000Y-115950000D02*
X159550000Y-115950000D01*
X154823766Y-111223766D02*
X154823766Y-105334094D01*
X154838862Y-105318998D02*
X154838862Y-104753313D01*
G04 #@! TO.N,/LCD_SPI_SCK*
X160200000Y-117400000D02*
X153840506Y-111040506D01*
X170660000Y-117400000D02*
X160200000Y-117400000D01*
X153840506Y-105261480D02*
X153840506Y-104695795D01*
X153840506Y-111040506D02*
X153840506Y-105261480D01*
X172110000Y-115950000D02*
X170660000Y-117400000D01*
G04 #@! TO.N,/LCD_SPI_MISO*
X160250000Y-118250000D02*
X153019984Y-111019984D01*
X169250000Y-118250000D02*
X160250000Y-118250000D01*
X153019984Y-111019984D02*
X153019984Y-105833114D01*
X153019984Y-105833114D02*
X153019984Y-105267429D01*
G04 #@! TO.N,/LCD_SPI_MOSI*
X175500000Y-115100000D02*
X174650000Y-115950000D01*
X175500000Y-112000000D02*
X175500000Y-115100000D01*
X151860000Y-105845685D02*
X151860000Y-105280000D01*
X151860000Y-110844033D02*
X151860000Y-105845685D01*
X160815967Y-119800000D02*
X151860000Y-110844033D01*
X170800000Y-119800000D02*
X160815967Y-119800000D01*
X174650000Y-115950000D02*
X170800000Y-119800000D01*
D25*
G04 #@! TO.N,/USART_TX*
X122000000Y-104460000D02*
X122230000Y-104460000D01*
G04 #@! TO.N,/USART_RX*
X150550001Y-100149999D02*
X150950000Y-99750000D01*
X142949999Y-107750001D02*
X150550001Y-100149999D01*
X122000000Y-107000000D02*
X122750001Y-107750001D01*
X122750001Y-107750001D02*
X142949999Y-107750001D01*
G04 #@! TO.N,/USART_TX*
X151750001Y-99000001D02*
X152150000Y-99400000D01*
X150639998Y-98899998D02*
X151649998Y-98899998D01*
X124770000Y-104460000D02*
X126210001Y-105900001D01*
X122000000Y-104460000D02*
X124770000Y-104460000D01*
X126210001Y-105900001D02*
X138910001Y-105900001D01*
X151649998Y-98899998D02*
X151750001Y-99000001D01*
X138910001Y-105900001D02*
X145410002Y-99400000D01*
X145410002Y-99400000D02*
X150139996Y-99400000D01*
X150139996Y-99400000D02*
X150639998Y-98899998D01*
G04 #@! TD*
D27*
G04 #@! TO.N,GNDA*
G36*
X200265001Y-74333422D02*
X198467547Y-72535969D01*
X198514484Y-72300000D01*
X198397678Y-71712778D01*
X198065044Y-71214956D01*
X197567222Y-70882322D01*
X197128226Y-70795000D01*
X196371774Y-70795000D01*
X195932778Y-70882322D01*
X195434956Y-71214956D01*
X195102322Y-71712778D01*
X194985516Y-72300000D01*
X195102322Y-72887222D01*
X195434956Y-73385044D01*
X195711762Y-73570000D01*
X195434956Y-73754956D01*
X195102322Y-74252778D01*
X194985516Y-74840000D01*
X195102322Y-75427222D01*
X195434956Y-75925044D01*
X195711762Y-76110000D01*
X195592034Y-76190000D01*
X188635000Y-76190000D01*
X188635000Y-75978585D01*
X187853243Y-74091256D01*
X186408744Y-72646757D01*
X184521415Y-71865000D01*
X182478585Y-71865000D01*
X180591256Y-72646757D01*
X179146757Y-74091256D01*
X178365000Y-75978585D01*
X178365000Y-78021415D01*
X179146757Y-79908744D01*
X180591256Y-81353243D01*
X182478585Y-82135000D01*
X184521415Y-82135000D01*
X186408744Y-81353243D01*
X187853243Y-79908744D01*
X188635000Y-78021415D01*
X188635000Y-77810000D01*
X195071049Y-77810000D01*
X195102322Y-77967222D01*
X195434956Y-78465044D01*
X195711762Y-78650000D01*
X195434956Y-78834956D01*
X195251177Y-79110000D01*
X192409770Y-79110000D01*
X192329996Y-79094132D01*
X192025548Y-79154690D01*
X192013950Y-79156997D01*
X191746019Y-79336023D01*
X191700830Y-79403653D01*
X182889484Y-88215000D01*
X182794122Y-88215000D01*
X182413716Y-88372569D01*
X182122565Y-88663720D01*
X181964996Y-89044126D01*
X181964996Y-89455874D01*
X182122565Y-89836280D01*
X182413716Y-90127431D01*
X182794122Y-90285000D01*
X183205870Y-90285000D01*
X183586276Y-90127431D01*
X183877427Y-89836280D01*
X184034996Y-89455874D01*
X184034996Y-89360512D01*
X192665509Y-80730000D01*
X195251177Y-80730000D01*
X195434956Y-81005044D01*
X195711762Y-81190000D01*
X195434956Y-81374956D01*
X195102322Y-81872778D01*
X194985516Y-82460000D01*
X195102322Y-83047222D01*
X195434956Y-83545044D01*
X195500122Y-83588587D01*
X195265414Y-83745414D01*
X195070873Y-84036564D01*
X195002560Y-84379999D01*
X195002560Y-85620001D01*
X195070873Y-85963436D01*
X195265414Y-86254586D01*
X195556564Y-86449127D01*
X195899999Y-86517440D01*
X197087047Y-86517440D01*
X194831657Y-88772831D01*
X194764024Y-88818022D01*
X194584998Y-89085954D01*
X194554954Y-89236998D01*
X194522133Y-89401999D01*
X194538001Y-89481772D01*
X194538002Y-93116485D01*
X192883655Y-94770833D01*
X192883652Y-94770835D01*
X178464488Y-109190000D01*
X173059773Y-109190000D01*
X172980000Y-109174132D01*
X172900227Y-109190000D01*
X172900226Y-109190000D01*
X172663954Y-109236997D01*
X172396023Y-109416023D01*
X172350834Y-109483653D01*
X171188656Y-110645832D01*
X171188653Y-110645834D01*
X167159488Y-114675000D01*
X166776387Y-114675000D01*
X166307770Y-114869107D01*
X165949107Y-115227770D01*
X165760000Y-115684316D01*
X165570893Y-115227770D01*
X165212230Y-114869107D01*
X164743613Y-114675000D01*
X164236387Y-114675000D01*
X163767770Y-114869107D01*
X163496877Y-115140000D01*
X159885513Y-115140000D01*
X159094612Y-114349099D01*
X159215439Y-114228272D01*
X159373008Y-113847866D01*
X159373008Y-113436118D01*
X159310413Y-113285000D01*
X159455874Y-113285000D01*
X159836280Y-113127431D01*
X160127431Y-112836280D01*
X160285000Y-112455874D01*
X160285000Y-112360512D01*
X160321346Y-112324166D01*
X160388979Y-112278975D01*
X160568005Y-112011044D01*
X160615002Y-111774772D01*
X160615002Y-111774768D01*
X160630869Y-111694999D01*
X160615002Y-111615229D01*
X160615002Y-92773942D01*
X160714126Y-92815000D01*
X161125874Y-92815000D01*
X161213414Y-92778740D01*
X161224510Y-92805527D01*
X161515661Y-93096678D01*
X161896067Y-93254247D01*
X162090000Y-93254247D01*
X162089999Y-110049552D01*
X161913720Y-110122569D01*
X161622569Y-110413720D01*
X161465000Y-110794126D01*
X161465000Y-111205874D01*
X161622569Y-111586280D01*
X161913720Y-111877431D01*
X162294126Y-112035000D01*
X162705874Y-112035000D01*
X163086280Y-111877431D01*
X163377431Y-111586280D01*
X163535000Y-111205874D01*
X163535000Y-111107615D01*
X163663002Y-110916047D01*
X163709999Y-110679775D01*
X163709999Y-110679774D01*
X163725867Y-110600002D01*
X163709999Y-110520229D01*
X163709999Y-110423710D01*
X163913720Y-110627431D01*
X164294126Y-110785000D01*
X164705874Y-110785000D01*
X165086280Y-110627431D01*
X165377431Y-110336280D01*
X165535000Y-109955874D01*
X165535000Y-109544126D01*
X165485000Y-109423415D01*
X165485000Y-102076585D01*
X165535000Y-101955874D01*
X165535000Y-101544126D01*
X165385000Y-101181993D01*
X165385000Y-92337161D01*
X165402337Y-92250000D01*
X165385000Y-92162839D01*
X165385000Y-92162835D01*
X165333652Y-91904690D01*
X165138049Y-91611951D01*
X165064153Y-91562575D01*
X165027431Y-91525853D01*
X164885000Y-91181993D01*
X164885000Y-87837159D01*
X164902337Y-87749999D01*
X164885000Y-87662839D01*
X164885000Y-87662835D01*
X164833652Y-87404690D01*
X164638049Y-87111951D01*
X164564156Y-87062577D01*
X161527431Y-84025853D01*
X161377431Y-83663720D01*
X161093111Y-83379400D01*
X162162511Y-82310000D01*
X163596289Y-82310000D01*
X163663720Y-82377431D01*
X164044126Y-82535000D01*
X164455874Y-82535000D01*
X164836280Y-82377431D01*
X165127431Y-82086280D01*
X165285000Y-81705874D01*
X165285000Y-81294126D01*
X165127431Y-80913720D01*
X164836280Y-80622569D01*
X164455874Y-80465000D01*
X164044126Y-80465000D01*
X163663720Y-80622569D01*
X163596289Y-80690000D01*
X161906770Y-80690000D01*
X161826997Y-80674132D01*
X161747224Y-80690000D01*
X161510952Y-80736997D01*
X161243021Y-80916023D01*
X161197832Y-80983653D01*
X158703889Y-83477596D01*
X158677431Y-83413720D01*
X158610000Y-83346289D01*
X158610000Y-81079773D01*
X158625868Y-81000000D01*
X158608706Y-80913720D01*
X158563003Y-80683954D01*
X158383977Y-80416023D01*
X158316345Y-80370833D01*
X157954167Y-80008655D01*
X157908976Y-79941022D01*
X157641045Y-79761996D01*
X157404773Y-79714999D01*
X157404772Y-79714999D01*
X157324999Y-79699131D01*
X157245226Y-79714999D01*
X150786579Y-79714999D01*
X151376672Y-79124907D01*
X164473329Y-79124907D01*
X176942733Y-91594312D01*
X176942732Y-93791934D01*
X176942732Y-93876777D01*
X176800302Y-94220635D01*
X166685845Y-104335093D01*
X166611952Y-104384467D01*
X166562578Y-104458360D01*
X166562576Y-104458362D01*
X166416348Y-104677207D01*
X166347663Y-105022516D01*
X166365001Y-105109681D01*
X166365000Y-108931993D01*
X166215000Y-109294126D01*
X166215000Y-109705874D01*
X166372569Y-110086280D01*
X166663720Y-110377431D01*
X167044126Y-110535000D01*
X167455874Y-110535000D01*
X167836280Y-110377431D01*
X168127431Y-110086280D01*
X168285000Y-109705874D01*
X168285000Y-109294126D01*
X168135000Y-108931993D01*
X168135000Y-105389094D01*
X178051881Y-95472214D01*
X178395739Y-95329784D01*
X190468055Y-95329784D01*
X190555216Y-95347121D01*
X190642377Y-95329784D01*
X190642381Y-95329784D01*
X190900526Y-95278436D01*
X191193265Y-95082833D01*
X191242641Y-95008937D01*
X192424148Y-93827430D01*
X192786280Y-93677431D01*
X193077431Y-93386280D01*
X193235000Y-93005874D01*
X193235000Y-92594126D01*
X193077431Y-92213720D01*
X192786280Y-91922569D01*
X192405874Y-91765000D01*
X191994126Y-91765000D01*
X191613720Y-91922569D01*
X191322569Y-92213720D01*
X191172570Y-92575852D01*
X190188638Y-93559784D01*
X178712732Y-93559784D01*
X178712732Y-91314891D01*
X178730069Y-91227731D01*
X178712732Y-91140571D01*
X178712732Y-91140567D01*
X178661384Y-90882422D01*
X178465781Y-90589683D01*
X178391888Y-90540309D01*
X170645705Y-82794126D01*
X173215000Y-82794126D01*
X173215000Y-83205874D01*
X173372569Y-83586280D01*
X173663720Y-83877431D01*
X174044126Y-84035000D01*
X174455874Y-84035000D01*
X174836280Y-83877431D01*
X175127431Y-83586280D01*
X175285000Y-83205874D01*
X175285000Y-82794126D01*
X175127431Y-82413720D01*
X175060000Y-82346289D01*
X175060000Y-70335512D01*
X175110512Y-70285000D01*
X175205874Y-70285000D01*
X175586280Y-70127431D01*
X175877431Y-69836280D01*
X176035000Y-69455874D01*
X176035000Y-69044126D01*
X175877431Y-68663720D01*
X175586280Y-68372569D01*
X175205874Y-68215000D01*
X174794126Y-68215000D01*
X174413720Y-68372569D01*
X174122569Y-68663720D01*
X173965000Y-69044126D01*
X173965000Y-69139488D01*
X173733656Y-69370832D01*
X173666023Y-69416023D01*
X173486997Y-69683955D01*
X173456698Y-69836280D01*
X173424132Y-70000000D01*
X173440000Y-70079773D01*
X173440001Y-82346288D01*
X173372569Y-82413720D01*
X173215000Y-82794126D01*
X170645705Y-82794126D01*
X165527332Y-77675754D01*
X165477956Y-77601858D01*
X165185217Y-77406255D01*
X164927072Y-77354907D01*
X164927068Y-77354907D01*
X164839907Y-77337570D01*
X164752746Y-77354907D01*
X151097254Y-77354907D01*
X151010093Y-77337570D01*
X150922932Y-77354907D01*
X150922928Y-77354907D01*
X150664783Y-77406255D01*
X150445938Y-77552483D01*
X150445937Y-77552484D01*
X150372044Y-77601858D01*
X150322670Y-77675751D01*
X149525853Y-78472569D01*
X149163720Y-78622569D01*
X148872569Y-78913720D01*
X148715000Y-79294126D01*
X148715000Y-79705874D01*
X148872569Y-80086280D01*
X149163720Y-80377431D01*
X149208506Y-80395982D01*
X149139488Y-80465000D01*
X149044126Y-80465000D01*
X148663720Y-80622569D01*
X148372569Y-80913720D01*
X148215000Y-81294126D01*
X148215000Y-81389487D01*
X147783643Y-81820844D01*
X147716014Y-81866033D01*
X147670825Y-81933663D01*
X147536988Y-82133964D01*
X147474122Y-82450010D01*
X147489991Y-82529788D01*
X147489991Y-82715000D01*
X147294126Y-82715000D01*
X146913720Y-82872569D01*
X146622569Y-83163720D01*
X146465000Y-83544126D01*
X146465000Y-83955874D01*
X146622569Y-84336280D01*
X146740001Y-84453712D01*
X146740001Y-84715000D01*
X146544126Y-84715000D01*
X146163720Y-84872569D01*
X146096289Y-84940000D01*
X137585513Y-84940000D01*
X124535000Y-71889488D01*
X124535000Y-71794126D01*
X124377431Y-71413720D01*
X124086280Y-71122569D01*
X123705874Y-70965000D01*
X123294126Y-70965000D01*
X122913720Y-71122569D01*
X122622569Y-71413720D01*
X122465000Y-71794126D01*
X122465000Y-72205874D01*
X122622569Y-72586280D01*
X122913720Y-72877431D01*
X123294126Y-73035000D01*
X123389488Y-73035000D01*
X136620834Y-86266347D01*
X136666023Y-86333977D01*
X136933954Y-86513003D01*
X137170226Y-86560000D01*
X137170230Y-86560000D01*
X137249999Y-86575867D01*
X137329768Y-86560000D01*
X146096289Y-86560000D01*
X146163720Y-86627431D01*
X146544126Y-86785000D01*
X146740001Y-86785000D01*
X146740000Y-89614487D01*
X140625000Y-95729487D01*
X136785000Y-91889488D01*
X136785000Y-91794126D01*
X136627431Y-91413720D01*
X136336280Y-91122569D01*
X135955874Y-90965000D01*
X135544126Y-90965000D01*
X135163720Y-91122569D01*
X134872569Y-91413720D01*
X134715000Y-91794126D01*
X134715000Y-92205874D01*
X134872569Y-92586280D01*
X135163720Y-92877431D01*
X135544126Y-93035000D01*
X135639488Y-93035000D01*
X139479487Y-96875000D01*
X138033656Y-98320832D01*
X137966023Y-98366023D01*
X137786997Y-98633955D01*
X137755908Y-98790251D01*
X137724132Y-98950000D01*
X137740000Y-99029773D01*
X137740001Y-104496288D01*
X137672569Y-104563720D01*
X137515000Y-104944126D01*
X137515000Y-105115001D01*
X126535159Y-105115001D01*
X125379749Y-103959592D01*
X125335953Y-103894047D01*
X125076292Y-103720546D01*
X124847316Y-103675000D01*
X124847312Y-103675000D01*
X124770000Y-103659622D01*
X124692688Y-103675000D01*
X123515527Y-103675000D01*
X123315044Y-103374956D01*
X122817222Y-103042322D01*
X122378226Y-102955000D01*
X121621774Y-102955000D01*
X121182778Y-103042322D01*
X120684956Y-103374956D01*
X120352322Y-103872778D01*
X120235516Y-104460000D01*
X120352322Y-105047222D01*
X120684956Y-105545044D01*
X120750122Y-105588587D01*
X120515414Y-105745414D01*
X120320873Y-106036564D01*
X120252560Y-106379999D01*
X120252560Y-107620001D01*
X120320873Y-107963436D01*
X120515414Y-108254586D01*
X120806564Y-108449127D01*
X121149999Y-108517440D01*
X122584400Y-108517440D01*
X122672685Y-108535001D01*
X122672689Y-108535001D01*
X122750001Y-108550379D01*
X122827313Y-108535001D01*
X130119486Y-108535001D01*
X117669308Y-120985180D01*
X117785000Y-120705874D01*
X117785000Y-120294126D01*
X117627431Y-119913720D01*
X117336280Y-119622569D01*
X116955874Y-119465000D01*
X116544126Y-119465000D01*
X116163720Y-119622569D01*
X115872569Y-119913720D01*
X115715000Y-120294126D01*
X115715000Y-120389487D01*
X114134722Y-121969765D01*
X114131362Y-121902632D01*
X113972397Y-121518857D01*
X113730213Y-121449392D01*
X112929605Y-122250000D01*
X112943748Y-122264143D01*
X112764143Y-122443748D01*
X112750000Y-122429605D01*
X111949392Y-123230213D01*
X112018857Y-123472397D01*
X112470839Y-123633649D01*
X110733656Y-125370832D01*
X110666023Y-125416023D01*
X110486997Y-125683955D01*
X110465083Y-125794126D01*
X110424132Y-126000000D01*
X110440000Y-126079773D01*
X110440001Y-149414486D01*
X109251488Y-150603000D01*
X108722119Y-150603000D01*
X108208663Y-150815680D01*
X107815680Y-151208663D01*
X107603000Y-151722119D01*
X107603000Y-152277881D01*
X107815680Y-152791337D01*
X108208663Y-153184320D01*
X108722119Y-153397000D01*
X109277881Y-153397000D01*
X109791337Y-153184320D01*
X109995444Y-152980213D01*
X111949392Y-152980213D01*
X112018857Y-153222397D01*
X112542302Y-153409144D01*
X113097368Y-153381362D01*
X113481143Y-153222397D01*
X113550608Y-152980213D01*
X112750000Y-152179605D01*
X111949392Y-152980213D01*
X109995444Y-152980213D01*
X110184320Y-152791337D01*
X110397000Y-152277881D01*
X110397000Y-151792302D01*
X111340856Y-151792302D01*
X111368638Y-152347368D01*
X111527603Y-152731143D01*
X111769787Y-152800608D01*
X112570395Y-152000000D01*
X112929605Y-152000000D01*
X113730213Y-152800608D01*
X113972397Y-152731143D01*
X114159144Y-152207698D01*
X114131362Y-151652632D01*
X113972397Y-151268857D01*
X113730213Y-151199392D01*
X112929605Y-152000000D01*
X112570395Y-152000000D01*
X111769787Y-151199392D01*
X111527603Y-151268857D01*
X111340856Y-151792302D01*
X110397000Y-151792302D01*
X110397000Y-151748512D01*
X111125725Y-151019787D01*
X111949392Y-151019787D01*
X112750000Y-151820395D01*
X113550608Y-151019787D01*
X113481143Y-150777603D01*
X112957698Y-150590856D01*
X112402632Y-150618638D01*
X112018857Y-150777603D01*
X111949392Y-151019787D01*
X111125725Y-151019787D01*
X111766347Y-150379166D01*
X111833977Y-150333977D01*
X112013003Y-150066046D01*
X112060000Y-149829774D01*
X112075868Y-149750000D01*
X112060000Y-149670226D01*
X112060000Y-143909632D01*
X112092191Y-143957809D01*
X112302235Y-144098157D01*
X112550000Y-144147440D01*
X115550000Y-144147440D01*
X115797765Y-144098157D01*
X116007809Y-143957809D01*
X116148157Y-143747765D01*
X116197440Y-143500000D01*
X116197440Y-140500000D01*
X116148157Y-140252235D01*
X116007809Y-140042191D01*
X115797765Y-139901843D01*
X115550000Y-139852560D01*
X112550000Y-139852560D01*
X112302235Y-139901843D01*
X112092191Y-140042191D01*
X112060000Y-140090368D01*
X112060000Y-138237075D01*
X112542302Y-138409144D01*
X113097368Y-138381362D01*
X113481143Y-138222397D01*
X113550608Y-137980213D01*
X112750000Y-137179605D01*
X112735858Y-137193748D01*
X112556253Y-137014143D01*
X112570395Y-137000000D01*
X112929605Y-137000000D01*
X113730213Y-137800608D01*
X113972397Y-137731143D01*
X114159144Y-137207698D01*
X114131362Y-136652632D01*
X113972397Y-136268857D01*
X113730213Y-136199392D01*
X112929605Y-137000000D01*
X112570395Y-137000000D01*
X112556253Y-136985858D01*
X112735858Y-136806253D01*
X112750000Y-136820395D01*
X113550608Y-136019787D01*
X113481143Y-135777603D01*
X112957698Y-135590856D01*
X112402632Y-135618638D01*
X112060000Y-135760561D01*
X112060000Y-128909632D01*
X112092191Y-128957809D01*
X112302235Y-129098157D01*
X112550000Y-129147440D01*
X115390000Y-129147440D01*
X115390001Y-135520222D01*
X115374132Y-135600000D01*
X115436998Y-135916046D01*
X115616024Y-136183977D01*
X115683654Y-136229166D01*
X118720834Y-139266347D01*
X118766023Y-139333977D01*
X118833652Y-139379165D01*
X119033953Y-139513003D01*
X119350000Y-139575868D01*
X119429774Y-139560000D01*
X122096289Y-139560000D01*
X122163720Y-139627431D01*
X122544126Y-139785000D01*
X122955874Y-139785000D01*
X123336280Y-139627431D01*
X123627431Y-139336280D01*
X123785000Y-138955874D01*
X123785000Y-138544126D01*
X123627431Y-138163720D01*
X123336280Y-137872569D01*
X122955874Y-137715000D01*
X122544126Y-137715000D01*
X122163720Y-137872569D01*
X122096289Y-137940000D01*
X119685513Y-137940000D01*
X119155513Y-137410000D01*
X132014488Y-137410000D01*
X133465000Y-138860513D01*
X133465000Y-138955874D01*
X133622569Y-139336280D01*
X133913720Y-139627431D01*
X134294126Y-139785000D01*
X134705874Y-139785000D01*
X135086280Y-139627431D01*
X135377431Y-139336280D01*
X135535000Y-138955874D01*
X135535000Y-138544126D01*
X135377431Y-138163720D01*
X135086280Y-137872569D01*
X134705874Y-137715000D01*
X134610513Y-137715000D01*
X132979168Y-136083656D01*
X132933977Y-136016023D01*
X132924963Y-136010000D01*
X140548803Y-136010000D01*
X143555149Y-139016347D01*
X143600338Y-139083977D01*
X143706169Y-139154691D01*
X143868268Y-139263003D01*
X144094240Y-139307951D01*
X144163720Y-139377431D01*
X144544126Y-139535000D01*
X144955874Y-139535000D01*
X145336280Y-139377431D01*
X145627431Y-139086280D01*
X145785000Y-138705874D01*
X145785000Y-138294126D01*
X145627431Y-137913720D01*
X145336280Y-137622569D01*
X144955874Y-137465000D01*
X144544126Y-137465000D01*
X144367845Y-137538018D01*
X141513483Y-134683656D01*
X141468292Y-134616023D01*
X141200361Y-134436997D01*
X140964089Y-134390000D01*
X140964088Y-134390000D01*
X140884315Y-134374132D01*
X140804542Y-134390000D01*
X119335513Y-134390000D01*
X118560512Y-133615000D01*
X118714250Y-133615000D01*
X118873000Y-133456250D01*
X118873000Y-132207000D01*
X118853000Y-132207000D01*
X118853000Y-131953000D01*
X118873000Y-131953000D01*
X118873000Y-130703750D01*
X119127000Y-130703750D01*
X119127000Y-131953000D01*
X119147000Y-131953000D01*
X119147000Y-132207000D01*
X119127000Y-132207000D01*
X119127000Y-133456250D01*
X119285750Y-133615000D01*
X120026309Y-133615000D01*
X120259698Y-133518327D01*
X120438327Y-133339699D01*
X120494139Y-133204956D01*
X120670493Y-133381310D01*
X121234670Y-133615000D01*
X121845330Y-133615000D01*
X122409507Y-133381310D01*
X122841310Y-132949507D01*
X123075000Y-132385330D01*
X123075000Y-132365750D01*
X123465000Y-132365750D01*
X123465000Y-133106310D01*
X123561673Y-133339699D01*
X123740302Y-133518327D01*
X123973691Y-133615000D01*
X124714250Y-133615000D01*
X124873000Y-133456250D01*
X124873000Y-132207000D01*
X123623750Y-132207000D01*
X123465000Y-132365750D01*
X123075000Y-132365750D01*
X123075000Y-131774670D01*
X122841310Y-131210493D01*
X122684507Y-131053690D01*
X123465000Y-131053690D01*
X123465000Y-131794250D01*
X123623750Y-131953000D01*
X124873000Y-131953000D01*
X124873000Y-130703750D01*
X125127000Y-130703750D01*
X125127000Y-131953000D01*
X125147000Y-131953000D01*
X125147000Y-132207000D01*
X125127000Y-132207000D01*
X125127000Y-133456250D01*
X125285750Y-133615000D01*
X126026309Y-133615000D01*
X126259698Y-133518327D01*
X126438327Y-133339699D01*
X126494139Y-133204956D01*
X126670493Y-133381310D01*
X127234670Y-133615000D01*
X127845330Y-133615000D01*
X128409507Y-133381310D01*
X128841310Y-132949507D01*
X129075000Y-132385330D01*
X129075000Y-132365750D01*
X129465000Y-132365750D01*
X129465000Y-133106310D01*
X129561673Y-133339699D01*
X129740302Y-133518327D01*
X129973691Y-133615000D01*
X130714250Y-133615000D01*
X130873000Y-133456250D01*
X130873000Y-132207000D01*
X129623750Y-132207000D01*
X129465000Y-132365750D01*
X129075000Y-132365750D01*
X129075000Y-131774670D01*
X128841310Y-131210493D01*
X128684507Y-131053690D01*
X129465000Y-131053690D01*
X129465000Y-131794250D01*
X129623750Y-131953000D01*
X130873000Y-131953000D01*
X130873000Y-130703750D01*
X131127000Y-130703750D01*
X131127000Y-131953000D01*
X131147000Y-131953000D01*
X131147000Y-132207000D01*
X131127000Y-132207000D01*
X131127000Y-133456250D01*
X131285750Y-133615000D01*
X132026309Y-133615000D01*
X132259698Y-133518327D01*
X132438327Y-133339699D01*
X132494139Y-133204956D01*
X132670493Y-133381310D01*
X133234670Y-133615000D01*
X133845330Y-133615000D01*
X134409507Y-133381310D01*
X134841310Y-132949507D01*
X135075000Y-132385330D01*
X135075000Y-132365750D01*
X135465000Y-132365750D01*
X135465000Y-133106310D01*
X135561673Y-133339699D01*
X135740302Y-133518327D01*
X135973691Y-133615000D01*
X136714250Y-133615000D01*
X136873000Y-133456250D01*
X136873000Y-132207000D01*
X135623750Y-132207000D01*
X135465000Y-132365750D01*
X135075000Y-132365750D01*
X135075000Y-131774670D01*
X134841310Y-131210493D01*
X134684507Y-131053690D01*
X135465000Y-131053690D01*
X135465000Y-131794250D01*
X135623750Y-131953000D01*
X136873000Y-131953000D01*
X136873000Y-130703750D01*
X137127000Y-130703750D01*
X137127000Y-131953000D01*
X137147000Y-131953000D01*
X137147000Y-132207000D01*
X137127000Y-132207000D01*
X137127000Y-133456250D01*
X137285750Y-133615000D01*
X138026309Y-133615000D01*
X138259698Y-133518327D01*
X138438327Y-133339699D01*
X138494139Y-133204956D01*
X138670493Y-133381310D01*
X139234670Y-133615000D01*
X139845330Y-133615000D01*
X140409507Y-133381310D01*
X140841310Y-132949507D01*
X141075000Y-132385330D01*
X141075000Y-131774670D01*
X140841310Y-131210493D01*
X140409507Y-130778690D01*
X139845330Y-130545000D01*
X139234670Y-130545000D01*
X138670493Y-130778690D01*
X138494139Y-130955044D01*
X138438327Y-130820301D01*
X138259698Y-130641673D01*
X138026309Y-130545000D01*
X137285750Y-130545000D01*
X137127000Y-130703750D01*
X136873000Y-130703750D01*
X136714250Y-130545000D01*
X135973691Y-130545000D01*
X135740302Y-130641673D01*
X135561673Y-130820301D01*
X135465000Y-131053690D01*
X134684507Y-131053690D01*
X134409507Y-130778690D01*
X133845330Y-130545000D01*
X133234670Y-130545000D01*
X132670493Y-130778690D01*
X132494139Y-130955044D01*
X132438327Y-130820301D01*
X132259698Y-130641673D01*
X132026309Y-130545000D01*
X131285750Y-130545000D01*
X131127000Y-130703750D01*
X130873000Y-130703750D01*
X130714250Y-130545000D01*
X129973691Y-130545000D01*
X129740302Y-130641673D01*
X129561673Y-130820301D01*
X129465000Y-131053690D01*
X128684507Y-131053690D01*
X128409507Y-130778690D01*
X127845330Y-130545000D01*
X127234670Y-130545000D01*
X126670493Y-130778690D01*
X126494139Y-130955044D01*
X126438327Y-130820301D01*
X126259698Y-130641673D01*
X126026309Y-130545000D01*
X125285750Y-130545000D01*
X125127000Y-130703750D01*
X124873000Y-130703750D01*
X124714250Y-130545000D01*
X123973691Y-130545000D01*
X123740302Y-130641673D01*
X123561673Y-130820301D01*
X123465000Y-131053690D01*
X122684507Y-131053690D01*
X122409507Y-130778690D01*
X121845330Y-130545000D01*
X121234670Y-130545000D01*
X120670493Y-130778690D01*
X120494139Y-130955044D01*
X120438327Y-130820301D01*
X120259698Y-130641673D01*
X120026309Y-130545000D01*
X119285750Y-130545000D01*
X119127000Y-130703750D01*
X118873000Y-130703750D01*
X118714250Y-130545000D01*
X118210000Y-130545000D01*
X118210000Y-124935512D01*
X119215000Y-123930512D01*
X119215000Y-123955874D01*
X119372569Y-124336280D01*
X119663720Y-124627431D01*
X120044126Y-124785000D01*
X120455874Y-124785000D01*
X120836280Y-124627431D01*
X121127431Y-124336280D01*
X121285000Y-123955874D01*
X121285000Y-123860512D01*
X122379164Y-122766348D01*
X123685513Y-121460000D01*
X127644487Y-121460000D01*
X126908666Y-122195822D01*
X126908663Y-122195824D01*
X126389488Y-122715000D01*
X126294126Y-122715000D01*
X125913720Y-122872569D01*
X125622569Y-123163720D01*
X125465000Y-123544126D01*
X125465000Y-123955874D01*
X125622569Y-124336280D01*
X125913720Y-124627431D01*
X126294126Y-124785000D01*
X126705874Y-124785000D01*
X127086280Y-124627431D01*
X127377431Y-124336280D01*
X127535000Y-123955874D01*
X127535000Y-123860512D01*
X128054176Y-123341337D01*
X128054178Y-123341334D01*
X128665513Y-122730000D01*
X132257913Y-122730000D01*
X131913720Y-122872569D01*
X131622569Y-123163720D01*
X131465000Y-123544126D01*
X131465000Y-123955874D01*
X131622569Y-124336280D01*
X131913720Y-124627431D01*
X132294126Y-124785000D01*
X132705874Y-124785000D01*
X133086280Y-124627431D01*
X133377431Y-124336280D01*
X133535000Y-123955874D01*
X133535000Y-123860512D01*
X133985513Y-123410000D01*
X137626289Y-123410000D01*
X137622569Y-123413720D01*
X137465000Y-123794126D01*
X137465000Y-124205874D01*
X137622569Y-124586280D01*
X137913720Y-124877431D01*
X138294126Y-125035000D01*
X138705874Y-125035000D01*
X139086280Y-124877431D01*
X139153711Y-124810000D01*
X149420227Y-124810000D01*
X149500000Y-124825868D01*
X149579773Y-124810000D01*
X149579774Y-124810000D01*
X149816046Y-124763003D01*
X150083977Y-124583977D01*
X150129168Y-124516344D01*
X154854165Y-119791348D01*
X154854167Y-119791345D01*
X155516347Y-119129166D01*
X155583977Y-119083977D01*
X155763003Y-118816046D01*
X155810000Y-118579774D01*
X155810000Y-118579773D01*
X155825868Y-118500001D01*
X155810000Y-118420228D01*
X155810000Y-117264087D01*
X155825868Y-117184314D01*
X155796860Y-117038481D01*
X155795003Y-117029148D01*
X156161281Y-116877431D01*
X156452432Y-116586280D01*
X156453692Y-116583238D01*
X160186801Y-120316347D01*
X160231990Y-120383977D01*
X160499921Y-120563003D01*
X160736193Y-120610000D01*
X160736194Y-120610000D01*
X160815967Y-120625868D01*
X160895740Y-120610000D01*
X170720227Y-120610000D01*
X170800000Y-120625868D01*
X170879773Y-120610000D01*
X170879774Y-120610000D01*
X171116046Y-120563003D01*
X171383977Y-120383977D01*
X171429168Y-120316344D01*
X174520513Y-117225000D01*
X174663421Y-117225000D01*
X165945000Y-125943422D01*
X165437425Y-125435847D01*
X165388049Y-125361951D01*
X165095310Y-125166348D01*
X164837165Y-125115000D01*
X164837161Y-125115000D01*
X164750000Y-125097663D01*
X164662839Y-125115000D01*
X148818007Y-125115000D01*
X148455874Y-124965000D01*
X148044126Y-124965000D01*
X147663720Y-125122569D01*
X147372569Y-125413720D01*
X147215000Y-125794126D01*
X147215000Y-126205874D01*
X147372569Y-126586280D01*
X147663720Y-126877431D01*
X148044126Y-127035000D01*
X148455874Y-127035000D01*
X148818007Y-126885000D01*
X164383422Y-126885000D01*
X164748421Y-127250000D01*
X153185845Y-138812577D01*
X153111952Y-138861951D01*
X153062578Y-138935844D01*
X153062576Y-138935846D01*
X152916348Y-139154691D01*
X152847663Y-139500000D01*
X152865001Y-139587166D01*
X152865000Y-151681993D01*
X152715000Y-152044126D01*
X152715000Y-152455874D01*
X152872569Y-152836280D01*
X153163720Y-153127431D01*
X153544126Y-153285000D01*
X153955874Y-153285000D01*
X154336280Y-153127431D01*
X154627431Y-152836280D01*
X154785000Y-152455874D01*
X154785000Y-152044126D01*
X154635000Y-151681993D01*
X154635000Y-139866578D01*
X166564157Y-127937422D01*
X166638049Y-127888049D01*
X166687422Y-127814157D01*
X166687424Y-127814155D01*
X166687426Y-127814152D01*
X166704154Y-127797424D01*
X166778049Y-127748049D01*
X166973652Y-127455310D01*
X166982934Y-127408644D01*
X177166579Y-117225000D01*
X177443613Y-117225000D01*
X177912230Y-117030893D01*
X178108123Y-116835000D01*
X178811877Y-116835000D01*
X179007770Y-117030893D01*
X179476387Y-117225000D01*
X179983613Y-117225000D01*
X180452230Y-117030893D01*
X180810893Y-116672230D01*
X181000000Y-116215684D01*
X181189107Y-116672230D01*
X181547770Y-117030893D01*
X182016387Y-117225000D01*
X182523613Y-117225000D01*
X182992230Y-117030893D01*
X183350893Y-116672230D01*
X183540000Y-116215684D01*
X183729107Y-116672230D01*
X184087770Y-117030893D01*
X184556387Y-117225000D01*
X185063613Y-117225000D01*
X185532230Y-117030893D01*
X185890893Y-116672230D01*
X186080000Y-116215684D01*
X186269107Y-116672230D01*
X186627770Y-117030893D01*
X187096387Y-117225000D01*
X187603613Y-117225000D01*
X188072230Y-117030893D01*
X188430893Y-116672230D01*
X188620000Y-116215684D01*
X188809107Y-116672230D01*
X189167770Y-117030893D01*
X189636387Y-117225000D01*
X190143613Y-117225000D01*
X190612230Y-117030893D01*
X190970893Y-116672230D01*
X191160000Y-116215684D01*
X191349107Y-116672230D01*
X191707770Y-117030893D01*
X192176387Y-117225000D01*
X192683613Y-117225000D01*
X193152230Y-117030893D01*
X193510893Y-116672230D01*
X193700000Y-116215684D01*
X193889107Y-116672230D01*
X194247770Y-117030893D01*
X194716387Y-117225000D01*
X195223613Y-117225000D01*
X195692230Y-117030893D01*
X196050893Y-116672230D01*
X196240000Y-116215684D01*
X196429107Y-116672230D01*
X196787770Y-117030893D01*
X197256387Y-117225000D01*
X197763613Y-117225000D01*
X198232230Y-117030893D01*
X198590893Y-116672230D01*
X198785000Y-116203613D01*
X198785000Y-115696387D01*
X198590893Y-115227770D01*
X198232230Y-114869107D01*
X197763613Y-114675000D01*
X197256387Y-114675000D01*
X196787770Y-114869107D01*
X196429107Y-115227770D01*
X196240000Y-115684316D01*
X196050893Y-115227770D01*
X195692230Y-114869107D01*
X195223613Y-114675000D01*
X194716387Y-114675000D01*
X194247770Y-114869107D01*
X193889107Y-115227770D01*
X193700000Y-115684316D01*
X193510893Y-115227770D01*
X193152230Y-114869107D01*
X192683613Y-114675000D01*
X192176387Y-114675000D01*
X191707770Y-114869107D01*
X191349107Y-115227770D01*
X191160000Y-115684316D01*
X190970893Y-115227770D01*
X190612230Y-114869107D01*
X190143613Y-114675000D01*
X189636387Y-114675000D01*
X189167770Y-114869107D01*
X188809107Y-115227770D01*
X188620000Y-115684316D01*
X188430893Y-115227770D01*
X188072230Y-114869107D01*
X187603613Y-114675000D01*
X187096387Y-114675000D01*
X186627770Y-114869107D01*
X186269107Y-115227770D01*
X186080000Y-115684316D01*
X185890893Y-115227770D01*
X185532230Y-114869107D01*
X185063613Y-114675000D01*
X184556387Y-114675000D01*
X184087770Y-114869107D01*
X183729107Y-115227770D01*
X183540000Y-115684316D01*
X183350893Y-115227770D01*
X182992230Y-114869107D01*
X182523613Y-114675000D01*
X182256578Y-114675000D01*
X193481578Y-103450000D01*
X195333949Y-103450000D01*
X195456964Y-104068436D01*
X195807279Y-104592721D01*
X196331564Y-104943036D01*
X196793897Y-105035000D01*
X198706103Y-105035000D01*
X199168436Y-104943036D01*
X199692721Y-104592721D01*
X200043036Y-104068436D01*
X200166051Y-103450000D01*
X200043036Y-102831564D01*
X199692721Y-102307279D01*
X199168436Y-101956964D01*
X198706103Y-101865000D01*
X196793897Y-101865000D01*
X196331564Y-101956964D01*
X195807279Y-102307279D01*
X195456964Y-102831564D01*
X195333949Y-103450000D01*
X193481578Y-103450000D01*
X196603330Y-100328249D01*
X196745405Y-100671249D01*
X197078751Y-101004595D01*
X197514289Y-101185000D01*
X197985711Y-101185000D01*
X198421249Y-101004595D01*
X198754595Y-100671249D01*
X198935000Y-100235711D01*
X198935000Y-99764289D01*
X198754595Y-99328751D01*
X198421249Y-98995405D01*
X198078249Y-98853330D01*
X200265001Y-96666578D01*
X200265000Y-154265000D01*
X198785000Y-154265000D01*
X198785000Y-153796387D01*
X198590893Y-153327770D01*
X198232230Y-152969107D01*
X197763613Y-152775000D01*
X197256387Y-152775000D01*
X196787770Y-152969107D01*
X196429107Y-153327770D01*
X196240000Y-153784316D01*
X196050893Y-153327770D01*
X195692230Y-152969107D01*
X195223613Y-152775000D01*
X194716387Y-152775000D01*
X194247770Y-152969107D01*
X193889107Y-153327770D01*
X193695000Y-153796387D01*
X193695000Y-154265000D01*
X168305000Y-154265000D01*
X168305000Y-153796387D01*
X168110893Y-153327770D01*
X167752230Y-152969107D01*
X167283613Y-152775000D01*
X166776387Y-152775000D01*
X166307770Y-152969107D01*
X165949107Y-153327770D01*
X165760000Y-153784316D01*
X165570893Y-153327770D01*
X165212230Y-152969107D01*
X164743613Y-152775000D01*
X164236387Y-152775000D01*
X163767770Y-152969107D01*
X163409107Y-153327770D01*
X163215000Y-153796387D01*
X163215000Y-154265000D01*
X101735000Y-154265000D01*
X101735000Y-151722119D01*
X103853000Y-151722119D01*
X103853000Y-152277881D01*
X104065680Y-152791337D01*
X104458663Y-153184320D01*
X104972119Y-153397000D01*
X105527881Y-153397000D01*
X106041337Y-153184320D01*
X106434320Y-152791337D01*
X106647000Y-152277881D01*
X106647000Y-151722119D01*
X106434320Y-151208663D01*
X106041337Y-150815680D01*
X105527881Y-150603000D01*
X104972119Y-150603000D01*
X104458663Y-150815680D01*
X104065680Y-151208663D01*
X103853000Y-151722119D01*
X101735000Y-151722119D01*
X101735000Y-140500000D01*
X101802560Y-140500000D01*
X101802560Y-143500000D01*
X101851843Y-143747765D01*
X101992191Y-143957809D01*
X102202235Y-144098157D01*
X102450000Y-144147440D01*
X105450000Y-144147440D01*
X105697765Y-144098157D01*
X105907809Y-143957809D01*
X106048157Y-143747765D01*
X106097440Y-143500000D01*
X106097440Y-140500000D01*
X106048157Y-140252235D01*
X105907809Y-140042191D01*
X105697765Y-139901843D01*
X105450000Y-139852560D01*
X102450000Y-139852560D01*
X102202235Y-139901843D01*
X101992191Y-140042191D01*
X101851843Y-140252235D01*
X101802560Y-140500000D01*
X101735000Y-140500000D01*
X101735000Y-136722119D01*
X103853000Y-136722119D01*
X103853000Y-137277881D01*
X104065680Y-137791337D01*
X104458663Y-138184320D01*
X104972119Y-138397000D01*
X105527881Y-138397000D01*
X106041337Y-138184320D01*
X106434320Y-137791337D01*
X106647000Y-137277881D01*
X106647000Y-136722119D01*
X107603000Y-136722119D01*
X107603000Y-137277881D01*
X107815680Y-137791337D01*
X108208663Y-138184320D01*
X108722119Y-138397000D01*
X109277881Y-138397000D01*
X109791337Y-138184320D01*
X110184320Y-137791337D01*
X110397000Y-137277881D01*
X110397000Y-136722119D01*
X110184320Y-136208663D01*
X109791337Y-135815680D01*
X109277881Y-135603000D01*
X108722119Y-135603000D01*
X108208663Y-135815680D01*
X107815680Y-136208663D01*
X107603000Y-136722119D01*
X106647000Y-136722119D01*
X106434320Y-136208663D01*
X106041337Y-135815680D01*
X105527881Y-135603000D01*
X104972119Y-135603000D01*
X104458663Y-135815680D01*
X104065680Y-136208663D01*
X103853000Y-136722119D01*
X101735000Y-136722119D01*
X101735000Y-125500000D01*
X101802560Y-125500000D01*
X101802560Y-128500000D01*
X101851843Y-128747765D01*
X101992191Y-128957809D01*
X102202235Y-129098157D01*
X102450000Y-129147440D01*
X105450000Y-129147440D01*
X105697765Y-129098157D01*
X105907809Y-128957809D01*
X106048157Y-128747765D01*
X106097440Y-128500000D01*
X106097440Y-125500000D01*
X106048157Y-125252235D01*
X105907809Y-125042191D01*
X105697765Y-124901843D01*
X105450000Y-124852560D01*
X102450000Y-124852560D01*
X102202235Y-124901843D01*
X101992191Y-125042191D01*
X101851843Y-125252235D01*
X101802560Y-125500000D01*
X101735000Y-125500000D01*
X101735000Y-121972119D01*
X103853000Y-121972119D01*
X103853000Y-122527881D01*
X104065680Y-123041337D01*
X104458663Y-123434320D01*
X104972119Y-123647000D01*
X105527881Y-123647000D01*
X106041337Y-123434320D01*
X106434320Y-123041337D01*
X106647000Y-122527881D01*
X106647000Y-121972119D01*
X107603000Y-121972119D01*
X107603000Y-122527881D01*
X107815680Y-123041337D01*
X108208663Y-123434320D01*
X108722119Y-123647000D01*
X109277881Y-123647000D01*
X109791337Y-123434320D01*
X110184320Y-123041337D01*
X110397000Y-122527881D01*
X110397000Y-122042302D01*
X111340856Y-122042302D01*
X111368638Y-122597368D01*
X111527603Y-122981143D01*
X111769787Y-123050608D01*
X112570395Y-122250000D01*
X111769787Y-121449392D01*
X111527603Y-121518857D01*
X111340856Y-122042302D01*
X110397000Y-122042302D01*
X110397000Y-121972119D01*
X110184320Y-121458663D01*
X109995444Y-121269787D01*
X111949392Y-121269787D01*
X112750000Y-122070395D01*
X113550608Y-121269787D01*
X113481143Y-121027603D01*
X112957698Y-120840856D01*
X112402632Y-120868638D01*
X112018857Y-121027603D01*
X111949392Y-121269787D01*
X109995444Y-121269787D01*
X109791337Y-121065680D01*
X109277881Y-120853000D01*
X108722119Y-120853000D01*
X108208663Y-121065680D01*
X107815680Y-121458663D01*
X107603000Y-121972119D01*
X106647000Y-121972119D01*
X106434320Y-121458663D01*
X106041337Y-121065680D01*
X105527881Y-120853000D01*
X104972119Y-120853000D01*
X104458663Y-121065680D01*
X104065680Y-121458663D01*
X103853000Y-121972119D01*
X101735000Y-121972119D01*
X101735000Y-110750000D01*
X101802560Y-110750000D01*
X101802560Y-113750000D01*
X101851843Y-113997765D01*
X101992191Y-114207809D01*
X102202235Y-114348157D01*
X102450000Y-114397440D01*
X105450000Y-114397440D01*
X105697765Y-114348157D01*
X105907809Y-114207809D01*
X106048157Y-113997765D01*
X106097440Y-113750000D01*
X106097440Y-110750000D01*
X111902560Y-110750000D01*
X111902560Y-113750000D01*
X111951843Y-113997765D01*
X112092191Y-114207809D01*
X112302235Y-114348157D01*
X112550000Y-114397440D01*
X115550000Y-114397440D01*
X115797765Y-114348157D01*
X116007809Y-114207809D01*
X116148157Y-113997765D01*
X116197440Y-113750000D01*
X116197440Y-110750000D01*
X116148157Y-110502235D01*
X116007809Y-110292191D01*
X115797765Y-110151843D01*
X115550000Y-110102560D01*
X112550000Y-110102560D01*
X112302235Y-110151843D01*
X112092191Y-110292191D01*
X111951843Y-110502235D01*
X111902560Y-110750000D01*
X106097440Y-110750000D01*
X106048157Y-110502235D01*
X105907809Y-110292191D01*
X105697765Y-110151843D01*
X105450000Y-110102560D01*
X102450000Y-110102560D01*
X102202235Y-110151843D01*
X101992191Y-110292191D01*
X101851843Y-110502235D01*
X101802560Y-110750000D01*
X101735000Y-110750000D01*
X101735000Y-70978585D01*
X108365000Y-70978585D01*
X108365000Y-73021415D01*
X109146757Y-74908744D01*
X110591256Y-76353243D01*
X112478585Y-77135000D01*
X114521415Y-77135000D01*
X116408744Y-76353243D01*
X116505204Y-76256783D01*
X129312577Y-89064156D01*
X129361951Y-89138049D01*
X129435844Y-89187423D01*
X129435845Y-89187424D01*
X129637588Y-89322225D01*
X129654690Y-89333652D01*
X129912835Y-89385000D01*
X129912839Y-89385000D01*
X130000000Y-89402337D01*
X130087161Y-89385000D01*
X140181993Y-89385000D01*
X140544126Y-89535000D01*
X140955874Y-89535000D01*
X141336280Y-89377431D01*
X141627431Y-89086280D01*
X141785000Y-88705874D01*
X141785000Y-88294126D01*
X141627431Y-87913720D01*
X141336280Y-87622569D01*
X140955874Y-87465000D01*
X140544126Y-87465000D01*
X140181993Y-87615000D01*
X130366579Y-87615000D01*
X117756783Y-75005204D01*
X117853243Y-74908744D01*
X118635000Y-73021415D01*
X118635000Y-70978585D01*
X117853243Y-69091256D01*
X116408744Y-67646757D01*
X114521415Y-66865000D01*
X112478585Y-66865000D01*
X110591256Y-67646757D01*
X109146757Y-69091256D01*
X108365000Y-70978585D01*
X101735000Y-70978585D01*
X101735000Y-62544126D01*
X122215000Y-62544126D01*
X122215000Y-62955874D01*
X122372569Y-63336280D01*
X122663720Y-63627431D01*
X123044126Y-63785000D01*
X123139488Y-63785000D01*
X133658653Y-74304166D01*
X133658656Y-74304168D01*
X141120834Y-81766347D01*
X141166023Y-81833977D01*
X141433954Y-82013003D01*
X141670226Y-82060000D01*
X141670230Y-82060000D01*
X141749999Y-82075867D01*
X141829769Y-82060000D01*
X145596289Y-82060000D01*
X145663720Y-82127431D01*
X146044126Y-82285000D01*
X146455874Y-82285000D01*
X146836280Y-82127431D01*
X147127431Y-81836280D01*
X147285000Y-81455874D01*
X147285000Y-81044126D01*
X147127431Y-80663720D01*
X146836280Y-80372569D01*
X146455874Y-80215000D01*
X146044126Y-80215000D01*
X145663720Y-80372569D01*
X145596289Y-80440000D01*
X142085513Y-80440000D01*
X135148045Y-73502532D01*
X136677073Y-73502532D01*
X136775736Y-73769387D01*
X137385461Y-73995908D01*
X138035460Y-73971856D01*
X138524264Y-73769387D01*
X138622927Y-73502532D01*
X148377073Y-73502532D01*
X148475736Y-73769387D01*
X149085461Y-73995908D01*
X149735460Y-73971856D01*
X150224264Y-73769387D01*
X150322927Y-73502532D01*
X149350000Y-72529605D01*
X148377073Y-73502532D01*
X138622927Y-73502532D01*
X137650000Y-72529605D01*
X136677073Y-73502532D01*
X135148045Y-73502532D01*
X134804168Y-73158656D01*
X134804166Y-73158653D01*
X133730974Y-72085461D01*
X136004092Y-72085461D01*
X136028144Y-72735460D01*
X136230613Y-73224264D01*
X136497468Y-73322927D01*
X137470395Y-72350000D01*
X137829605Y-72350000D01*
X138802532Y-73322927D01*
X139069387Y-73224264D01*
X139295908Y-72614539D01*
X139276331Y-72085461D01*
X147704092Y-72085461D01*
X147728144Y-72735460D01*
X147930613Y-73224264D01*
X148197468Y-73322927D01*
X149170395Y-72350000D01*
X149529605Y-72350000D01*
X150502532Y-73322927D01*
X150769387Y-73224264D01*
X150995908Y-72614539D01*
X150971856Y-71964540D01*
X150769387Y-71475736D01*
X150502532Y-71377073D01*
X149529605Y-72350000D01*
X149170395Y-72350000D01*
X148197468Y-71377073D01*
X147930613Y-71475736D01*
X147704092Y-72085461D01*
X139276331Y-72085461D01*
X139271856Y-71964540D01*
X139069387Y-71475736D01*
X138802532Y-71377073D01*
X137829605Y-72350000D01*
X137470395Y-72350000D01*
X136497468Y-71377073D01*
X136230613Y-71475736D01*
X136004092Y-72085461D01*
X133730974Y-72085461D01*
X132842981Y-71197468D01*
X136677073Y-71197468D01*
X137650000Y-72170395D01*
X138622927Y-71197468D01*
X148377073Y-71197468D01*
X149350000Y-72170395D01*
X150322927Y-71197468D01*
X150224264Y-70930613D01*
X149614539Y-70704092D01*
X148964540Y-70728144D01*
X148475736Y-70930613D01*
X148377073Y-71197468D01*
X138622927Y-71197468D01*
X138524264Y-70930613D01*
X137914539Y-70704092D01*
X137264540Y-70728144D01*
X136775736Y-70930613D01*
X136677073Y-71197468D01*
X132842981Y-71197468D01*
X127320291Y-65674778D01*
X136015000Y-65674778D01*
X136015000Y-66325222D01*
X136263914Y-66926153D01*
X136723847Y-67386086D01*
X137324778Y-67635000D01*
X137975222Y-67635000D01*
X138576153Y-67386086D01*
X139036086Y-66926153D01*
X139285000Y-66325222D01*
X139285000Y-65674778D01*
X147715000Y-65674778D01*
X147715000Y-66325222D01*
X147963914Y-66926153D01*
X148423847Y-67386086D01*
X149024778Y-67635000D01*
X149675222Y-67635000D01*
X150276153Y-67386086D01*
X150736086Y-66926153D01*
X150985000Y-66325222D01*
X150985000Y-66194670D01*
X156615000Y-66194670D01*
X156615000Y-66805330D01*
X156848690Y-67369507D01*
X157280493Y-67801310D01*
X157844670Y-68035000D01*
X158455330Y-68035000D01*
X159019507Y-67801310D01*
X159451310Y-67369507D01*
X159685000Y-66805330D01*
X159685000Y-66194670D01*
X164115000Y-66194670D01*
X164115000Y-66805330D01*
X164348690Y-67369507D01*
X164780493Y-67801310D01*
X165344670Y-68035000D01*
X165955330Y-68035000D01*
X166519507Y-67801310D01*
X166951310Y-67369507D01*
X167185000Y-66805330D01*
X167185000Y-66194670D01*
X166951310Y-65630493D01*
X166519507Y-65198690D01*
X165955330Y-64965000D01*
X165344670Y-64965000D01*
X164780493Y-65198690D01*
X164348690Y-65630493D01*
X164115000Y-66194670D01*
X159685000Y-66194670D01*
X159451310Y-65630493D01*
X159019507Y-65198690D01*
X158455330Y-64965000D01*
X157844670Y-64965000D01*
X157280493Y-65198690D01*
X156848690Y-65630493D01*
X156615000Y-66194670D01*
X150985000Y-66194670D01*
X150985000Y-65674778D01*
X150736086Y-65073847D01*
X150276153Y-64613914D01*
X149675222Y-64365000D01*
X149024778Y-64365000D01*
X148423847Y-64613914D01*
X147963914Y-65073847D01*
X147715000Y-65674778D01*
X139285000Y-65674778D01*
X139036086Y-65073847D01*
X138576153Y-64613914D01*
X137975222Y-64365000D01*
X137324778Y-64365000D01*
X136723847Y-64613914D01*
X136263914Y-65073847D01*
X136015000Y-65674778D01*
X127320291Y-65674778D01*
X124285000Y-62639488D01*
X124285000Y-62544126D01*
X124127431Y-62163720D01*
X123836280Y-61872569D01*
X123455874Y-61715000D01*
X123044126Y-61715000D01*
X122663720Y-61872569D01*
X122372569Y-62163720D01*
X122215000Y-62544126D01*
X101735000Y-62544126D01*
X101735000Y-60624234D01*
X104865000Y-60624234D01*
X104865000Y-61075766D01*
X105037793Y-61492926D01*
X105357074Y-61812207D01*
X105774234Y-61985000D01*
X106225766Y-61985000D01*
X106642926Y-61812207D01*
X106962207Y-61492926D01*
X107135000Y-61075766D01*
X107135000Y-60624234D01*
X110865000Y-60624234D01*
X110865000Y-61075766D01*
X111037793Y-61492926D01*
X111357074Y-61812207D01*
X111774234Y-61985000D01*
X112225766Y-61985000D01*
X112642926Y-61812207D01*
X112905133Y-61550000D01*
X153352560Y-61550000D01*
X153352560Y-65050000D01*
X153401843Y-65297765D01*
X153542191Y-65507809D01*
X153752235Y-65648157D01*
X154000000Y-65697440D01*
X156100000Y-65697440D01*
X156347765Y-65648157D01*
X156557809Y-65507809D01*
X156698157Y-65297765D01*
X156747440Y-65050000D01*
X156747440Y-63230159D01*
X160999446Y-63230159D01*
X161085852Y-63486643D01*
X161659336Y-63696458D01*
X162269460Y-63670839D01*
X162714148Y-63486643D01*
X162800554Y-63230159D01*
X161900000Y-62329605D01*
X160999446Y-63230159D01*
X156747440Y-63230159D01*
X156747440Y-61909336D01*
X160353542Y-61909336D01*
X160379161Y-62519460D01*
X160563357Y-62964148D01*
X160819841Y-63050554D01*
X161720395Y-62150000D01*
X162079605Y-62150000D01*
X162980159Y-63050554D01*
X163236643Y-62964148D01*
X163446458Y-62390664D01*
X163420839Y-61780540D01*
X163325347Y-61550000D01*
X167052560Y-61550000D01*
X167052560Y-65050000D01*
X167101843Y-65297765D01*
X167242191Y-65507809D01*
X167452235Y-65648157D01*
X167700000Y-65697440D01*
X169800000Y-65697440D01*
X170047765Y-65648157D01*
X170257809Y-65507809D01*
X170398157Y-65297765D01*
X170447440Y-65050000D01*
X170447440Y-61550000D01*
X170398157Y-61302235D01*
X170257809Y-61092191D01*
X170047765Y-60951843D01*
X169800000Y-60902560D01*
X167700000Y-60902560D01*
X167452235Y-60951843D01*
X167242191Y-61092191D01*
X167101843Y-61302235D01*
X167052560Y-61550000D01*
X163325347Y-61550000D01*
X163236643Y-61335852D01*
X162980159Y-61249446D01*
X162079605Y-62150000D01*
X161720395Y-62150000D01*
X160819841Y-61249446D01*
X160563357Y-61335852D01*
X160353542Y-61909336D01*
X156747440Y-61909336D01*
X156747440Y-61550000D01*
X156698157Y-61302235D01*
X156557809Y-61092191D01*
X156524361Y-61069841D01*
X160999446Y-61069841D01*
X161900000Y-61970395D01*
X162800554Y-61069841D01*
X162714148Y-60813357D01*
X162140664Y-60603542D01*
X161530540Y-60629161D01*
X161085852Y-60813357D01*
X160999446Y-61069841D01*
X156524361Y-61069841D01*
X156347765Y-60951843D01*
X156100000Y-60902560D01*
X154000000Y-60902560D01*
X153752235Y-60951843D01*
X153542191Y-61092191D01*
X153401843Y-61302235D01*
X153352560Y-61550000D01*
X112905133Y-61550000D01*
X112962207Y-61492926D01*
X113135000Y-61075766D01*
X113135000Y-60624234D01*
X112962207Y-60207074D01*
X112642926Y-59887793D01*
X112225766Y-59715000D01*
X111774234Y-59715000D01*
X111357074Y-59887793D01*
X111037793Y-60207074D01*
X110865000Y-60624234D01*
X107135000Y-60624234D01*
X106962207Y-60207074D01*
X106642926Y-59887793D01*
X106225766Y-59715000D01*
X105774234Y-59715000D01*
X105357074Y-59887793D01*
X105037793Y-60207074D01*
X104865000Y-60624234D01*
X101735000Y-60624234D01*
X101735000Y-59324778D01*
X135965000Y-59324778D01*
X135965000Y-59975222D01*
X136213914Y-60576153D01*
X136673847Y-61036086D01*
X137274778Y-61285000D01*
X137925222Y-61285000D01*
X138526153Y-61036086D01*
X138986086Y-60576153D01*
X139235000Y-59975222D01*
X139235000Y-59324778D01*
X147765000Y-59324778D01*
X147765000Y-59975222D01*
X148013914Y-60576153D01*
X148473847Y-61036086D01*
X149074778Y-61285000D01*
X149725222Y-61285000D01*
X150326153Y-61036086D01*
X150786086Y-60576153D01*
X151035000Y-59975222D01*
X151035000Y-59324778D01*
X150786086Y-58723847D01*
X150326153Y-58263914D01*
X149725222Y-58015000D01*
X149074778Y-58015000D01*
X148473847Y-58263914D01*
X148013914Y-58723847D01*
X147765000Y-59324778D01*
X139235000Y-59324778D01*
X138986086Y-58723847D01*
X138526153Y-58263914D01*
X137925222Y-58015000D01*
X137274778Y-58015000D01*
X136673847Y-58263914D01*
X136213914Y-58723847D01*
X135965000Y-59324778D01*
X101735000Y-59324778D01*
X101735000Y-55735000D01*
X200265001Y-55735000D01*
X200265001Y-74333422D01*
X200265001Y-74333422D01*
G37*
X200265001Y-74333422D02*
X198467547Y-72535969D01*
X198514484Y-72300000D01*
X198397678Y-71712778D01*
X198065044Y-71214956D01*
X197567222Y-70882322D01*
X197128226Y-70795000D01*
X196371774Y-70795000D01*
X195932778Y-70882322D01*
X195434956Y-71214956D01*
X195102322Y-71712778D01*
X194985516Y-72300000D01*
X195102322Y-72887222D01*
X195434956Y-73385044D01*
X195711762Y-73570000D01*
X195434956Y-73754956D01*
X195102322Y-74252778D01*
X194985516Y-74840000D01*
X195102322Y-75427222D01*
X195434956Y-75925044D01*
X195711762Y-76110000D01*
X195592034Y-76190000D01*
X188635000Y-76190000D01*
X188635000Y-75978585D01*
X187853243Y-74091256D01*
X186408744Y-72646757D01*
X184521415Y-71865000D01*
X182478585Y-71865000D01*
X180591256Y-72646757D01*
X179146757Y-74091256D01*
X178365000Y-75978585D01*
X178365000Y-78021415D01*
X179146757Y-79908744D01*
X180591256Y-81353243D01*
X182478585Y-82135000D01*
X184521415Y-82135000D01*
X186408744Y-81353243D01*
X187853243Y-79908744D01*
X188635000Y-78021415D01*
X188635000Y-77810000D01*
X195071049Y-77810000D01*
X195102322Y-77967222D01*
X195434956Y-78465044D01*
X195711762Y-78650000D01*
X195434956Y-78834956D01*
X195251177Y-79110000D01*
X192409770Y-79110000D01*
X192329996Y-79094132D01*
X192025548Y-79154690D01*
X192013950Y-79156997D01*
X191746019Y-79336023D01*
X191700830Y-79403653D01*
X182889484Y-88215000D01*
X182794122Y-88215000D01*
X182413716Y-88372569D01*
X182122565Y-88663720D01*
X181964996Y-89044126D01*
X181964996Y-89455874D01*
X182122565Y-89836280D01*
X182413716Y-90127431D01*
X182794122Y-90285000D01*
X183205870Y-90285000D01*
X183586276Y-90127431D01*
X183877427Y-89836280D01*
X184034996Y-89455874D01*
X184034996Y-89360512D01*
X192665509Y-80730000D01*
X195251177Y-80730000D01*
X195434956Y-81005044D01*
X195711762Y-81190000D01*
X195434956Y-81374956D01*
X195102322Y-81872778D01*
X194985516Y-82460000D01*
X195102322Y-83047222D01*
X195434956Y-83545044D01*
X195500122Y-83588587D01*
X195265414Y-83745414D01*
X195070873Y-84036564D01*
X195002560Y-84379999D01*
X195002560Y-85620001D01*
X195070873Y-85963436D01*
X195265414Y-86254586D01*
X195556564Y-86449127D01*
X195899999Y-86517440D01*
X197087047Y-86517440D01*
X194831657Y-88772831D01*
X194764024Y-88818022D01*
X194584998Y-89085954D01*
X194554954Y-89236998D01*
X194522133Y-89401999D01*
X194538001Y-89481772D01*
X194538002Y-93116485D01*
X192883655Y-94770833D01*
X192883652Y-94770835D01*
X178464488Y-109190000D01*
X173059773Y-109190000D01*
X172980000Y-109174132D01*
X172900227Y-109190000D01*
X172900226Y-109190000D01*
X172663954Y-109236997D01*
X172396023Y-109416023D01*
X172350834Y-109483653D01*
X171188656Y-110645832D01*
X171188653Y-110645834D01*
X167159488Y-114675000D01*
X166776387Y-114675000D01*
X166307770Y-114869107D01*
X165949107Y-115227770D01*
X165760000Y-115684316D01*
X165570893Y-115227770D01*
X165212230Y-114869107D01*
X164743613Y-114675000D01*
X164236387Y-114675000D01*
X163767770Y-114869107D01*
X163496877Y-115140000D01*
X159885513Y-115140000D01*
X159094612Y-114349099D01*
X159215439Y-114228272D01*
X159373008Y-113847866D01*
X159373008Y-113436118D01*
X159310413Y-113285000D01*
X159455874Y-113285000D01*
X159836280Y-113127431D01*
X160127431Y-112836280D01*
X160285000Y-112455874D01*
X160285000Y-112360512D01*
X160321346Y-112324166D01*
X160388979Y-112278975D01*
X160568005Y-112011044D01*
X160615002Y-111774772D01*
X160615002Y-111774768D01*
X160630869Y-111694999D01*
X160615002Y-111615229D01*
X160615002Y-92773942D01*
X160714126Y-92815000D01*
X161125874Y-92815000D01*
X161213414Y-92778740D01*
X161224510Y-92805527D01*
X161515661Y-93096678D01*
X161896067Y-93254247D01*
X162090000Y-93254247D01*
X162089999Y-110049552D01*
X161913720Y-110122569D01*
X161622569Y-110413720D01*
X161465000Y-110794126D01*
X161465000Y-111205874D01*
X161622569Y-111586280D01*
X161913720Y-111877431D01*
X162294126Y-112035000D01*
X162705874Y-112035000D01*
X163086280Y-111877431D01*
X163377431Y-111586280D01*
X163535000Y-111205874D01*
X163535000Y-111107615D01*
X163663002Y-110916047D01*
X163709999Y-110679775D01*
X163709999Y-110679774D01*
X163725867Y-110600002D01*
X163709999Y-110520229D01*
X163709999Y-110423710D01*
X163913720Y-110627431D01*
X164294126Y-110785000D01*
X164705874Y-110785000D01*
X165086280Y-110627431D01*
X165377431Y-110336280D01*
X165535000Y-109955874D01*
X165535000Y-109544126D01*
X165485000Y-109423415D01*
X165485000Y-102076585D01*
X165535000Y-101955874D01*
X165535000Y-101544126D01*
X165385000Y-101181993D01*
X165385000Y-92337161D01*
X165402337Y-92250000D01*
X165385000Y-92162839D01*
X165385000Y-92162835D01*
X165333652Y-91904690D01*
X165138049Y-91611951D01*
X165064153Y-91562575D01*
X165027431Y-91525853D01*
X164885000Y-91181993D01*
X164885000Y-87837159D01*
X164902337Y-87749999D01*
X164885000Y-87662839D01*
X164885000Y-87662835D01*
X164833652Y-87404690D01*
X164638049Y-87111951D01*
X164564156Y-87062577D01*
X161527431Y-84025853D01*
X161377431Y-83663720D01*
X161093111Y-83379400D01*
X162162511Y-82310000D01*
X163596289Y-82310000D01*
X163663720Y-82377431D01*
X164044126Y-82535000D01*
X164455874Y-82535000D01*
X164836280Y-82377431D01*
X165127431Y-82086280D01*
X165285000Y-81705874D01*
X165285000Y-81294126D01*
X165127431Y-80913720D01*
X164836280Y-80622569D01*
X164455874Y-80465000D01*
X164044126Y-80465000D01*
X163663720Y-80622569D01*
X163596289Y-80690000D01*
X161906770Y-80690000D01*
X161826997Y-80674132D01*
X161747224Y-80690000D01*
X161510952Y-80736997D01*
X161243021Y-80916023D01*
X161197832Y-80983653D01*
X158703889Y-83477596D01*
X158677431Y-83413720D01*
X158610000Y-83346289D01*
X158610000Y-81079773D01*
X158625868Y-81000000D01*
X158608706Y-80913720D01*
X158563003Y-80683954D01*
X158383977Y-80416023D01*
X158316345Y-80370833D01*
X157954167Y-80008655D01*
X157908976Y-79941022D01*
X157641045Y-79761996D01*
X157404773Y-79714999D01*
X157404772Y-79714999D01*
X157324999Y-79699131D01*
X157245226Y-79714999D01*
X150786579Y-79714999D01*
X151376672Y-79124907D01*
X164473329Y-79124907D01*
X176942733Y-91594312D01*
X176942732Y-93791934D01*
X176942732Y-93876777D01*
X176800302Y-94220635D01*
X166685845Y-104335093D01*
X166611952Y-104384467D01*
X166562578Y-104458360D01*
X166562576Y-104458362D01*
X166416348Y-104677207D01*
X166347663Y-105022516D01*
X166365001Y-105109681D01*
X166365000Y-108931993D01*
X166215000Y-109294126D01*
X166215000Y-109705874D01*
X166372569Y-110086280D01*
X166663720Y-110377431D01*
X167044126Y-110535000D01*
X167455874Y-110535000D01*
X167836280Y-110377431D01*
X168127431Y-110086280D01*
X168285000Y-109705874D01*
X168285000Y-109294126D01*
X168135000Y-108931993D01*
X168135000Y-105389094D01*
X178051881Y-95472214D01*
X178395739Y-95329784D01*
X190468055Y-95329784D01*
X190555216Y-95347121D01*
X190642377Y-95329784D01*
X190642381Y-95329784D01*
X190900526Y-95278436D01*
X191193265Y-95082833D01*
X191242641Y-95008937D01*
X192424148Y-93827430D01*
X192786280Y-93677431D01*
X193077431Y-93386280D01*
X193235000Y-93005874D01*
X193235000Y-92594126D01*
X193077431Y-92213720D01*
X192786280Y-91922569D01*
X192405874Y-91765000D01*
X191994126Y-91765000D01*
X191613720Y-91922569D01*
X191322569Y-92213720D01*
X191172570Y-92575852D01*
X190188638Y-93559784D01*
X178712732Y-93559784D01*
X178712732Y-91314891D01*
X178730069Y-91227731D01*
X178712732Y-91140571D01*
X178712732Y-91140567D01*
X178661384Y-90882422D01*
X178465781Y-90589683D01*
X178391888Y-90540309D01*
X170645705Y-82794126D01*
X173215000Y-82794126D01*
X173215000Y-83205874D01*
X173372569Y-83586280D01*
X173663720Y-83877431D01*
X174044126Y-84035000D01*
X174455874Y-84035000D01*
X174836280Y-83877431D01*
X175127431Y-83586280D01*
X175285000Y-83205874D01*
X175285000Y-82794126D01*
X175127431Y-82413720D01*
X175060000Y-82346289D01*
X175060000Y-70335512D01*
X175110512Y-70285000D01*
X175205874Y-70285000D01*
X175586280Y-70127431D01*
X175877431Y-69836280D01*
X176035000Y-69455874D01*
X176035000Y-69044126D01*
X175877431Y-68663720D01*
X175586280Y-68372569D01*
X175205874Y-68215000D01*
X174794126Y-68215000D01*
X174413720Y-68372569D01*
X174122569Y-68663720D01*
X173965000Y-69044126D01*
X173965000Y-69139488D01*
X173733656Y-69370832D01*
X173666023Y-69416023D01*
X173486997Y-69683955D01*
X173456698Y-69836280D01*
X173424132Y-70000000D01*
X173440000Y-70079773D01*
X173440001Y-82346288D01*
X173372569Y-82413720D01*
X173215000Y-82794126D01*
X170645705Y-82794126D01*
X165527332Y-77675754D01*
X165477956Y-77601858D01*
X165185217Y-77406255D01*
X164927072Y-77354907D01*
X164927068Y-77354907D01*
X164839907Y-77337570D01*
X164752746Y-77354907D01*
X151097254Y-77354907D01*
X151010093Y-77337570D01*
X150922932Y-77354907D01*
X150922928Y-77354907D01*
X150664783Y-77406255D01*
X150445938Y-77552483D01*
X150445937Y-77552484D01*
X150372044Y-77601858D01*
X150322670Y-77675751D01*
X149525853Y-78472569D01*
X149163720Y-78622569D01*
X148872569Y-78913720D01*
X148715000Y-79294126D01*
X148715000Y-79705874D01*
X148872569Y-80086280D01*
X149163720Y-80377431D01*
X149208506Y-80395982D01*
X149139488Y-80465000D01*
X149044126Y-80465000D01*
X148663720Y-80622569D01*
X148372569Y-80913720D01*
X148215000Y-81294126D01*
X148215000Y-81389487D01*
X147783643Y-81820844D01*
X147716014Y-81866033D01*
X147670825Y-81933663D01*
X147536988Y-82133964D01*
X147474122Y-82450010D01*
X147489991Y-82529788D01*
X147489991Y-82715000D01*
X147294126Y-82715000D01*
X146913720Y-82872569D01*
X146622569Y-83163720D01*
X146465000Y-83544126D01*
X146465000Y-83955874D01*
X146622569Y-84336280D01*
X146740001Y-84453712D01*
X146740001Y-84715000D01*
X146544126Y-84715000D01*
X146163720Y-84872569D01*
X146096289Y-84940000D01*
X137585513Y-84940000D01*
X124535000Y-71889488D01*
X124535000Y-71794126D01*
X124377431Y-71413720D01*
X124086280Y-71122569D01*
X123705874Y-70965000D01*
X123294126Y-70965000D01*
X122913720Y-71122569D01*
X122622569Y-71413720D01*
X122465000Y-71794126D01*
X122465000Y-72205874D01*
X122622569Y-72586280D01*
X122913720Y-72877431D01*
X123294126Y-73035000D01*
X123389488Y-73035000D01*
X136620834Y-86266347D01*
X136666023Y-86333977D01*
X136933954Y-86513003D01*
X137170226Y-86560000D01*
X137170230Y-86560000D01*
X137249999Y-86575867D01*
X137329768Y-86560000D01*
X146096289Y-86560000D01*
X146163720Y-86627431D01*
X146544126Y-86785000D01*
X146740001Y-86785000D01*
X146740000Y-89614487D01*
X140625000Y-95729487D01*
X136785000Y-91889488D01*
X136785000Y-91794126D01*
X136627431Y-91413720D01*
X136336280Y-91122569D01*
X135955874Y-90965000D01*
X135544126Y-90965000D01*
X135163720Y-91122569D01*
X134872569Y-91413720D01*
X134715000Y-91794126D01*
X134715000Y-92205874D01*
X134872569Y-92586280D01*
X135163720Y-92877431D01*
X135544126Y-93035000D01*
X135639488Y-93035000D01*
X139479487Y-96875000D01*
X138033656Y-98320832D01*
X137966023Y-98366023D01*
X137786997Y-98633955D01*
X137755908Y-98790251D01*
X137724132Y-98950000D01*
X137740000Y-99029773D01*
X137740001Y-104496288D01*
X137672569Y-104563720D01*
X137515000Y-104944126D01*
X137515000Y-105115001D01*
X126535159Y-105115001D01*
X125379749Y-103959592D01*
X125335953Y-103894047D01*
X125076292Y-103720546D01*
X124847316Y-103675000D01*
X124847312Y-103675000D01*
X124770000Y-103659622D01*
X124692688Y-103675000D01*
X123515527Y-103675000D01*
X123315044Y-103374956D01*
X122817222Y-103042322D01*
X122378226Y-102955000D01*
X121621774Y-102955000D01*
X121182778Y-103042322D01*
X120684956Y-103374956D01*
X120352322Y-103872778D01*
X120235516Y-104460000D01*
X120352322Y-105047222D01*
X120684956Y-105545044D01*
X120750122Y-105588587D01*
X120515414Y-105745414D01*
X120320873Y-106036564D01*
X120252560Y-106379999D01*
X120252560Y-107620001D01*
X120320873Y-107963436D01*
X120515414Y-108254586D01*
X120806564Y-108449127D01*
X121149999Y-108517440D01*
X122584400Y-108517440D01*
X122672685Y-108535001D01*
X122672689Y-108535001D01*
X122750001Y-108550379D01*
X122827313Y-108535001D01*
X130119486Y-108535001D01*
X117669308Y-120985180D01*
X117785000Y-120705874D01*
X117785000Y-120294126D01*
X117627431Y-119913720D01*
X117336280Y-119622569D01*
X116955874Y-119465000D01*
X116544126Y-119465000D01*
X116163720Y-119622569D01*
X115872569Y-119913720D01*
X115715000Y-120294126D01*
X115715000Y-120389487D01*
X114134722Y-121969765D01*
X114131362Y-121902632D01*
X113972397Y-121518857D01*
X113730213Y-121449392D01*
X112929605Y-122250000D01*
X112943748Y-122264143D01*
X112764143Y-122443748D01*
X112750000Y-122429605D01*
X111949392Y-123230213D01*
X112018857Y-123472397D01*
X112470839Y-123633649D01*
X110733656Y-125370832D01*
X110666023Y-125416023D01*
X110486997Y-125683955D01*
X110465083Y-125794126D01*
X110424132Y-126000000D01*
X110440000Y-126079773D01*
X110440001Y-149414486D01*
X109251488Y-150603000D01*
X108722119Y-150603000D01*
X108208663Y-150815680D01*
X107815680Y-151208663D01*
X107603000Y-151722119D01*
X107603000Y-152277881D01*
X107815680Y-152791337D01*
X108208663Y-153184320D01*
X108722119Y-153397000D01*
X109277881Y-153397000D01*
X109791337Y-153184320D01*
X109995444Y-152980213D01*
X111949392Y-152980213D01*
X112018857Y-153222397D01*
X112542302Y-153409144D01*
X113097368Y-153381362D01*
X113481143Y-153222397D01*
X113550608Y-152980213D01*
X112750000Y-152179605D01*
X111949392Y-152980213D01*
X109995444Y-152980213D01*
X110184320Y-152791337D01*
X110397000Y-152277881D01*
X110397000Y-151792302D01*
X111340856Y-151792302D01*
X111368638Y-152347368D01*
X111527603Y-152731143D01*
X111769787Y-152800608D01*
X112570395Y-152000000D01*
X112929605Y-152000000D01*
X113730213Y-152800608D01*
X113972397Y-152731143D01*
X114159144Y-152207698D01*
X114131362Y-151652632D01*
X113972397Y-151268857D01*
X113730213Y-151199392D01*
X112929605Y-152000000D01*
X112570395Y-152000000D01*
X111769787Y-151199392D01*
X111527603Y-151268857D01*
X111340856Y-151792302D01*
X110397000Y-151792302D01*
X110397000Y-151748512D01*
X111125725Y-151019787D01*
X111949392Y-151019787D01*
X112750000Y-151820395D01*
X113550608Y-151019787D01*
X113481143Y-150777603D01*
X112957698Y-150590856D01*
X112402632Y-150618638D01*
X112018857Y-150777603D01*
X111949392Y-151019787D01*
X111125725Y-151019787D01*
X111766347Y-150379166D01*
X111833977Y-150333977D01*
X112013003Y-150066046D01*
X112060000Y-149829774D01*
X112075868Y-149750000D01*
X112060000Y-149670226D01*
X112060000Y-143909632D01*
X112092191Y-143957809D01*
X112302235Y-144098157D01*
X112550000Y-144147440D01*
X115550000Y-144147440D01*
X115797765Y-144098157D01*
X116007809Y-143957809D01*
X116148157Y-143747765D01*
X116197440Y-143500000D01*
X116197440Y-140500000D01*
X116148157Y-140252235D01*
X116007809Y-140042191D01*
X115797765Y-139901843D01*
X115550000Y-139852560D01*
X112550000Y-139852560D01*
X112302235Y-139901843D01*
X112092191Y-140042191D01*
X112060000Y-140090368D01*
X112060000Y-138237075D01*
X112542302Y-138409144D01*
X113097368Y-138381362D01*
X113481143Y-138222397D01*
X113550608Y-137980213D01*
X112750000Y-137179605D01*
X112735858Y-137193748D01*
X112556253Y-137014143D01*
X112570395Y-137000000D01*
X112929605Y-137000000D01*
X113730213Y-137800608D01*
X113972397Y-137731143D01*
X114159144Y-137207698D01*
X114131362Y-136652632D01*
X113972397Y-136268857D01*
X113730213Y-136199392D01*
X112929605Y-137000000D01*
X112570395Y-137000000D01*
X112556253Y-136985858D01*
X112735858Y-136806253D01*
X112750000Y-136820395D01*
X113550608Y-136019787D01*
X113481143Y-135777603D01*
X112957698Y-135590856D01*
X112402632Y-135618638D01*
X112060000Y-135760561D01*
X112060000Y-128909632D01*
X112092191Y-128957809D01*
X112302235Y-129098157D01*
X112550000Y-129147440D01*
X115390000Y-129147440D01*
X115390001Y-135520222D01*
X115374132Y-135600000D01*
X115436998Y-135916046D01*
X115616024Y-136183977D01*
X115683654Y-136229166D01*
X118720834Y-139266347D01*
X118766023Y-139333977D01*
X118833652Y-139379165D01*
X119033953Y-139513003D01*
X119350000Y-139575868D01*
X119429774Y-139560000D01*
X122096289Y-139560000D01*
X122163720Y-139627431D01*
X122544126Y-139785000D01*
X122955874Y-139785000D01*
X123336280Y-139627431D01*
X123627431Y-139336280D01*
X123785000Y-138955874D01*
X123785000Y-138544126D01*
X123627431Y-138163720D01*
X123336280Y-137872569D01*
X122955874Y-137715000D01*
X122544126Y-137715000D01*
X122163720Y-137872569D01*
X122096289Y-137940000D01*
X119685513Y-137940000D01*
X119155513Y-137410000D01*
X132014488Y-137410000D01*
X133465000Y-138860513D01*
X133465000Y-138955874D01*
X133622569Y-139336280D01*
X133913720Y-139627431D01*
X134294126Y-139785000D01*
X134705874Y-139785000D01*
X135086280Y-139627431D01*
X135377431Y-139336280D01*
X135535000Y-138955874D01*
X135535000Y-138544126D01*
X135377431Y-138163720D01*
X135086280Y-137872569D01*
X134705874Y-137715000D01*
X134610513Y-137715000D01*
X132979168Y-136083656D01*
X132933977Y-136016023D01*
X132924963Y-136010000D01*
X140548803Y-136010000D01*
X143555149Y-139016347D01*
X143600338Y-139083977D01*
X143706169Y-139154691D01*
X143868268Y-139263003D01*
X144094240Y-139307951D01*
X144163720Y-139377431D01*
X144544126Y-139535000D01*
X144955874Y-139535000D01*
X145336280Y-139377431D01*
X145627431Y-139086280D01*
X145785000Y-138705874D01*
X145785000Y-138294126D01*
X145627431Y-137913720D01*
X145336280Y-137622569D01*
X144955874Y-137465000D01*
X144544126Y-137465000D01*
X144367845Y-137538018D01*
X141513483Y-134683656D01*
X141468292Y-134616023D01*
X141200361Y-134436997D01*
X140964089Y-134390000D01*
X140964088Y-134390000D01*
X140884315Y-134374132D01*
X140804542Y-134390000D01*
X119335513Y-134390000D01*
X118560512Y-133615000D01*
X118714250Y-133615000D01*
X118873000Y-133456250D01*
X118873000Y-132207000D01*
X118853000Y-132207000D01*
X118853000Y-131953000D01*
X118873000Y-131953000D01*
X118873000Y-130703750D01*
X119127000Y-130703750D01*
X119127000Y-131953000D01*
X119147000Y-131953000D01*
X119147000Y-132207000D01*
X119127000Y-132207000D01*
X119127000Y-133456250D01*
X119285750Y-133615000D01*
X120026309Y-133615000D01*
X120259698Y-133518327D01*
X120438327Y-133339699D01*
X120494139Y-133204956D01*
X120670493Y-133381310D01*
X121234670Y-133615000D01*
X121845330Y-133615000D01*
X122409507Y-133381310D01*
X122841310Y-132949507D01*
X123075000Y-132385330D01*
X123075000Y-132365750D01*
X123465000Y-132365750D01*
X123465000Y-133106310D01*
X123561673Y-133339699D01*
X123740302Y-133518327D01*
X123973691Y-133615000D01*
X124714250Y-133615000D01*
X124873000Y-133456250D01*
X124873000Y-132207000D01*
X123623750Y-132207000D01*
X123465000Y-132365750D01*
X123075000Y-132365750D01*
X123075000Y-131774670D01*
X122841310Y-131210493D01*
X122684507Y-131053690D01*
X123465000Y-131053690D01*
X123465000Y-131794250D01*
X123623750Y-131953000D01*
X124873000Y-131953000D01*
X124873000Y-130703750D01*
X125127000Y-130703750D01*
X125127000Y-131953000D01*
X125147000Y-131953000D01*
X125147000Y-132207000D01*
X125127000Y-132207000D01*
X125127000Y-133456250D01*
X125285750Y-133615000D01*
X126026309Y-133615000D01*
X126259698Y-133518327D01*
X126438327Y-133339699D01*
X126494139Y-133204956D01*
X126670493Y-133381310D01*
X127234670Y-133615000D01*
X127845330Y-133615000D01*
X128409507Y-133381310D01*
X128841310Y-132949507D01*
X129075000Y-132385330D01*
X129075000Y-132365750D01*
X129465000Y-132365750D01*
X129465000Y-133106310D01*
X129561673Y-133339699D01*
X129740302Y-133518327D01*
X129973691Y-133615000D01*
X130714250Y-133615000D01*
X130873000Y-133456250D01*
X130873000Y-132207000D01*
X129623750Y-132207000D01*
X129465000Y-132365750D01*
X129075000Y-132365750D01*
X129075000Y-131774670D01*
X128841310Y-131210493D01*
X128684507Y-131053690D01*
X129465000Y-131053690D01*
X129465000Y-131794250D01*
X129623750Y-131953000D01*
X130873000Y-131953000D01*
X130873000Y-130703750D01*
X131127000Y-130703750D01*
X131127000Y-131953000D01*
X131147000Y-131953000D01*
X131147000Y-132207000D01*
X131127000Y-132207000D01*
X131127000Y-133456250D01*
X131285750Y-133615000D01*
X132026309Y-133615000D01*
X132259698Y-133518327D01*
X132438327Y-133339699D01*
X132494139Y-133204956D01*
X132670493Y-133381310D01*
X133234670Y-133615000D01*
X133845330Y-133615000D01*
X134409507Y-133381310D01*
X134841310Y-132949507D01*
X135075000Y-132385330D01*
X135075000Y-132365750D01*
X135465000Y-132365750D01*
X135465000Y-133106310D01*
X135561673Y-133339699D01*
X135740302Y-133518327D01*
X135973691Y-133615000D01*
X136714250Y-133615000D01*
X136873000Y-133456250D01*
X136873000Y-132207000D01*
X135623750Y-132207000D01*
X135465000Y-132365750D01*
X135075000Y-132365750D01*
X135075000Y-131774670D01*
X134841310Y-131210493D01*
X134684507Y-131053690D01*
X135465000Y-131053690D01*
X135465000Y-131794250D01*
X135623750Y-131953000D01*
X136873000Y-131953000D01*
X136873000Y-130703750D01*
X137127000Y-130703750D01*
X137127000Y-131953000D01*
X137147000Y-131953000D01*
X137147000Y-132207000D01*
X137127000Y-132207000D01*
X137127000Y-133456250D01*
X137285750Y-133615000D01*
X138026309Y-133615000D01*
X138259698Y-133518327D01*
X138438327Y-133339699D01*
X138494139Y-133204956D01*
X138670493Y-133381310D01*
X139234670Y-133615000D01*
X139845330Y-133615000D01*
X140409507Y-133381310D01*
X140841310Y-132949507D01*
X141075000Y-132385330D01*
X141075000Y-131774670D01*
X140841310Y-131210493D01*
X140409507Y-130778690D01*
X139845330Y-130545000D01*
X139234670Y-130545000D01*
X138670493Y-130778690D01*
X138494139Y-130955044D01*
X138438327Y-130820301D01*
X138259698Y-130641673D01*
X138026309Y-130545000D01*
X137285750Y-130545000D01*
X137127000Y-130703750D01*
X136873000Y-130703750D01*
X136714250Y-130545000D01*
X135973691Y-130545000D01*
X135740302Y-130641673D01*
X135561673Y-130820301D01*
X135465000Y-131053690D01*
X134684507Y-131053690D01*
X134409507Y-130778690D01*
X133845330Y-130545000D01*
X133234670Y-130545000D01*
X132670493Y-130778690D01*
X132494139Y-130955044D01*
X132438327Y-130820301D01*
X132259698Y-130641673D01*
X132026309Y-130545000D01*
X131285750Y-130545000D01*
X131127000Y-130703750D01*
X130873000Y-130703750D01*
X130714250Y-130545000D01*
X129973691Y-130545000D01*
X129740302Y-130641673D01*
X129561673Y-130820301D01*
X129465000Y-131053690D01*
X128684507Y-131053690D01*
X128409507Y-130778690D01*
X127845330Y-130545000D01*
X127234670Y-130545000D01*
X126670493Y-130778690D01*
X126494139Y-130955044D01*
X126438327Y-130820301D01*
X126259698Y-130641673D01*
X126026309Y-130545000D01*
X125285750Y-130545000D01*
X125127000Y-130703750D01*
X124873000Y-130703750D01*
X124714250Y-130545000D01*
X123973691Y-130545000D01*
X123740302Y-130641673D01*
X123561673Y-130820301D01*
X123465000Y-131053690D01*
X122684507Y-131053690D01*
X122409507Y-130778690D01*
X121845330Y-130545000D01*
X121234670Y-130545000D01*
X120670493Y-130778690D01*
X120494139Y-130955044D01*
X120438327Y-130820301D01*
X120259698Y-130641673D01*
X120026309Y-130545000D01*
X119285750Y-130545000D01*
X119127000Y-130703750D01*
X118873000Y-130703750D01*
X118714250Y-130545000D01*
X118210000Y-130545000D01*
X118210000Y-124935512D01*
X119215000Y-123930512D01*
X119215000Y-123955874D01*
X119372569Y-124336280D01*
X119663720Y-124627431D01*
X120044126Y-124785000D01*
X120455874Y-124785000D01*
X120836280Y-124627431D01*
X121127431Y-124336280D01*
X121285000Y-123955874D01*
X121285000Y-123860512D01*
X122379164Y-122766348D01*
X123685513Y-121460000D01*
X127644487Y-121460000D01*
X126908666Y-122195822D01*
X126908663Y-122195824D01*
X126389488Y-122715000D01*
X126294126Y-122715000D01*
X125913720Y-122872569D01*
X125622569Y-123163720D01*
X125465000Y-123544126D01*
X125465000Y-123955874D01*
X125622569Y-124336280D01*
X125913720Y-124627431D01*
X126294126Y-124785000D01*
X126705874Y-124785000D01*
X127086280Y-124627431D01*
X127377431Y-124336280D01*
X127535000Y-123955874D01*
X127535000Y-123860512D01*
X128054176Y-123341337D01*
X128054178Y-123341334D01*
X128665513Y-122730000D01*
X132257913Y-122730000D01*
X131913720Y-122872569D01*
X131622569Y-123163720D01*
X131465000Y-123544126D01*
X131465000Y-123955874D01*
X131622569Y-124336280D01*
X131913720Y-124627431D01*
X132294126Y-124785000D01*
X132705874Y-124785000D01*
X133086280Y-124627431D01*
X133377431Y-124336280D01*
X133535000Y-123955874D01*
X133535000Y-123860512D01*
X133985513Y-123410000D01*
X137626289Y-123410000D01*
X137622569Y-123413720D01*
X137465000Y-123794126D01*
X137465000Y-124205874D01*
X137622569Y-124586280D01*
X137913720Y-124877431D01*
X138294126Y-125035000D01*
X138705874Y-125035000D01*
X139086280Y-124877431D01*
X139153711Y-124810000D01*
X149420227Y-124810000D01*
X149500000Y-124825868D01*
X149579773Y-124810000D01*
X149579774Y-124810000D01*
X149816046Y-124763003D01*
X150083977Y-124583977D01*
X150129168Y-124516344D01*
X154854165Y-119791348D01*
X154854167Y-119791345D01*
X155516347Y-119129166D01*
X155583977Y-119083977D01*
X155763003Y-118816046D01*
X155810000Y-118579774D01*
X155810000Y-118579773D01*
X155825868Y-118500001D01*
X155810000Y-118420228D01*
X155810000Y-117264087D01*
X155825868Y-117184314D01*
X155796860Y-117038481D01*
X155795003Y-117029148D01*
X156161281Y-116877431D01*
X156452432Y-116586280D01*
X156453692Y-116583238D01*
X160186801Y-120316347D01*
X160231990Y-120383977D01*
X160499921Y-120563003D01*
X160736193Y-120610000D01*
X160736194Y-120610000D01*
X160815967Y-120625868D01*
X160895740Y-120610000D01*
X170720227Y-120610000D01*
X170800000Y-120625868D01*
X170879773Y-120610000D01*
X170879774Y-120610000D01*
X171116046Y-120563003D01*
X171383977Y-120383977D01*
X171429168Y-120316344D01*
X174520513Y-117225000D01*
X174663421Y-117225000D01*
X165945000Y-125943422D01*
X165437425Y-125435847D01*
X165388049Y-125361951D01*
X165095310Y-125166348D01*
X164837165Y-125115000D01*
X164837161Y-125115000D01*
X164750000Y-125097663D01*
X164662839Y-125115000D01*
X148818007Y-125115000D01*
X148455874Y-124965000D01*
X148044126Y-124965000D01*
X147663720Y-125122569D01*
X147372569Y-125413720D01*
X147215000Y-125794126D01*
X147215000Y-126205874D01*
X147372569Y-126586280D01*
X147663720Y-126877431D01*
X148044126Y-127035000D01*
X148455874Y-127035000D01*
X148818007Y-126885000D01*
X164383422Y-126885000D01*
X164748421Y-127250000D01*
X153185845Y-138812577D01*
X153111952Y-138861951D01*
X153062578Y-138935844D01*
X153062576Y-138935846D01*
X152916348Y-139154691D01*
X152847663Y-139500000D01*
X152865001Y-139587166D01*
X152865000Y-151681993D01*
X152715000Y-152044126D01*
X152715000Y-152455874D01*
X152872569Y-152836280D01*
X153163720Y-153127431D01*
X153544126Y-153285000D01*
X153955874Y-153285000D01*
X154336280Y-153127431D01*
X154627431Y-152836280D01*
X154785000Y-152455874D01*
X154785000Y-152044126D01*
X154635000Y-151681993D01*
X154635000Y-139866578D01*
X166564157Y-127937422D01*
X166638049Y-127888049D01*
X166687422Y-127814157D01*
X166687424Y-127814155D01*
X166687426Y-127814152D01*
X166704154Y-127797424D01*
X166778049Y-127748049D01*
X166973652Y-127455310D01*
X166982934Y-127408644D01*
X177166579Y-117225000D01*
X177443613Y-117225000D01*
X177912230Y-117030893D01*
X178108123Y-116835000D01*
X178811877Y-116835000D01*
X179007770Y-117030893D01*
X179476387Y-117225000D01*
X179983613Y-117225000D01*
X180452230Y-117030893D01*
X180810893Y-116672230D01*
X181000000Y-116215684D01*
X181189107Y-116672230D01*
X181547770Y-117030893D01*
X182016387Y-117225000D01*
X182523613Y-117225000D01*
X182992230Y-117030893D01*
X183350893Y-116672230D01*
X183540000Y-116215684D01*
X183729107Y-116672230D01*
X184087770Y-117030893D01*
X184556387Y-117225000D01*
X185063613Y-117225000D01*
X185532230Y-117030893D01*
X185890893Y-116672230D01*
X186080000Y-116215684D01*
X186269107Y-116672230D01*
X186627770Y-117030893D01*
X187096387Y-117225000D01*
X187603613Y-117225000D01*
X188072230Y-117030893D01*
X188430893Y-116672230D01*
X188620000Y-116215684D01*
X188809107Y-116672230D01*
X189167770Y-117030893D01*
X189636387Y-117225000D01*
X190143613Y-117225000D01*
X190612230Y-117030893D01*
X190970893Y-116672230D01*
X191160000Y-116215684D01*
X191349107Y-116672230D01*
X191707770Y-117030893D01*
X192176387Y-117225000D01*
X192683613Y-117225000D01*
X193152230Y-117030893D01*
X193510893Y-116672230D01*
X193700000Y-116215684D01*
X193889107Y-116672230D01*
X194247770Y-117030893D01*
X194716387Y-117225000D01*
X195223613Y-117225000D01*
X195692230Y-117030893D01*
X196050893Y-116672230D01*
X196240000Y-116215684D01*
X196429107Y-116672230D01*
X196787770Y-117030893D01*
X197256387Y-117225000D01*
X197763613Y-117225000D01*
X198232230Y-117030893D01*
X198590893Y-116672230D01*
X198785000Y-116203613D01*
X198785000Y-115696387D01*
X198590893Y-115227770D01*
X198232230Y-114869107D01*
X197763613Y-114675000D01*
X197256387Y-114675000D01*
X196787770Y-114869107D01*
X196429107Y-115227770D01*
X196240000Y-115684316D01*
X196050893Y-115227770D01*
X195692230Y-114869107D01*
X195223613Y-114675000D01*
X194716387Y-114675000D01*
X194247770Y-114869107D01*
X193889107Y-115227770D01*
X193700000Y-115684316D01*
X193510893Y-115227770D01*
X193152230Y-114869107D01*
X192683613Y-114675000D01*
X192176387Y-114675000D01*
X191707770Y-114869107D01*
X191349107Y-115227770D01*
X191160000Y-115684316D01*
X190970893Y-115227770D01*
X190612230Y-114869107D01*
X190143613Y-114675000D01*
X189636387Y-114675000D01*
X189167770Y-114869107D01*
X188809107Y-115227770D01*
X188620000Y-115684316D01*
X188430893Y-115227770D01*
X188072230Y-114869107D01*
X187603613Y-114675000D01*
X187096387Y-114675000D01*
X186627770Y-114869107D01*
X186269107Y-115227770D01*
X186080000Y-115684316D01*
X185890893Y-115227770D01*
X185532230Y-114869107D01*
X185063613Y-114675000D01*
X184556387Y-114675000D01*
X184087770Y-114869107D01*
X183729107Y-115227770D01*
X183540000Y-115684316D01*
X183350893Y-115227770D01*
X182992230Y-114869107D01*
X182523613Y-114675000D01*
X182256578Y-114675000D01*
X193481578Y-103450000D01*
X195333949Y-103450000D01*
X195456964Y-104068436D01*
X195807279Y-104592721D01*
X196331564Y-104943036D01*
X196793897Y-105035000D01*
X198706103Y-105035000D01*
X199168436Y-104943036D01*
X199692721Y-104592721D01*
X200043036Y-104068436D01*
X200166051Y-103450000D01*
X200043036Y-102831564D01*
X199692721Y-102307279D01*
X199168436Y-101956964D01*
X198706103Y-101865000D01*
X196793897Y-101865000D01*
X196331564Y-101956964D01*
X195807279Y-102307279D01*
X195456964Y-102831564D01*
X195333949Y-103450000D01*
X193481578Y-103450000D01*
X196603330Y-100328249D01*
X196745405Y-100671249D01*
X197078751Y-101004595D01*
X197514289Y-101185000D01*
X197985711Y-101185000D01*
X198421249Y-101004595D01*
X198754595Y-100671249D01*
X198935000Y-100235711D01*
X198935000Y-99764289D01*
X198754595Y-99328751D01*
X198421249Y-98995405D01*
X198078249Y-98853330D01*
X200265001Y-96666578D01*
X200265000Y-154265000D01*
X198785000Y-154265000D01*
X198785000Y-153796387D01*
X198590893Y-153327770D01*
X198232230Y-152969107D01*
X197763613Y-152775000D01*
X197256387Y-152775000D01*
X196787770Y-152969107D01*
X196429107Y-153327770D01*
X196240000Y-153784316D01*
X196050893Y-153327770D01*
X195692230Y-152969107D01*
X195223613Y-152775000D01*
X194716387Y-152775000D01*
X194247770Y-152969107D01*
X193889107Y-153327770D01*
X193695000Y-153796387D01*
X193695000Y-154265000D01*
X168305000Y-154265000D01*
X168305000Y-153796387D01*
X168110893Y-153327770D01*
X167752230Y-152969107D01*
X167283613Y-152775000D01*
X166776387Y-152775000D01*
X166307770Y-152969107D01*
X165949107Y-153327770D01*
X165760000Y-153784316D01*
X165570893Y-153327770D01*
X165212230Y-152969107D01*
X164743613Y-152775000D01*
X164236387Y-152775000D01*
X163767770Y-152969107D01*
X163409107Y-153327770D01*
X163215000Y-153796387D01*
X163215000Y-154265000D01*
X101735000Y-154265000D01*
X101735000Y-151722119D01*
X103853000Y-151722119D01*
X103853000Y-152277881D01*
X104065680Y-152791337D01*
X104458663Y-153184320D01*
X104972119Y-153397000D01*
X105527881Y-153397000D01*
X106041337Y-153184320D01*
X106434320Y-152791337D01*
X106647000Y-152277881D01*
X106647000Y-151722119D01*
X106434320Y-151208663D01*
X106041337Y-150815680D01*
X105527881Y-150603000D01*
X104972119Y-150603000D01*
X104458663Y-150815680D01*
X104065680Y-151208663D01*
X103853000Y-151722119D01*
X101735000Y-151722119D01*
X101735000Y-140500000D01*
X101802560Y-140500000D01*
X101802560Y-143500000D01*
X101851843Y-143747765D01*
X101992191Y-143957809D01*
X102202235Y-144098157D01*
X102450000Y-144147440D01*
X105450000Y-144147440D01*
X105697765Y-144098157D01*
X105907809Y-143957809D01*
X106048157Y-143747765D01*
X106097440Y-143500000D01*
X106097440Y-140500000D01*
X106048157Y-140252235D01*
X105907809Y-140042191D01*
X105697765Y-139901843D01*
X105450000Y-139852560D01*
X102450000Y-139852560D01*
X102202235Y-139901843D01*
X101992191Y-140042191D01*
X101851843Y-140252235D01*
X101802560Y-140500000D01*
X101735000Y-140500000D01*
X101735000Y-136722119D01*
X103853000Y-136722119D01*
X103853000Y-137277881D01*
X104065680Y-137791337D01*
X104458663Y-138184320D01*
X104972119Y-138397000D01*
X105527881Y-138397000D01*
X106041337Y-138184320D01*
X106434320Y-137791337D01*
X106647000Y-137277881D01*
X106647000Y-136722119D01*
X107603000Y-136722119D01*
X107603000Y-137277881D01*
X107815680Y-137791337D01*
X108208663Y-138184320D01*
X108722119Y-138397000D01*
X109277881Y-138397000D01*
X109791337Y-138184320D01*
X110184320Y-137791337D01*
X110397000Y-137277881D01*
X110397000Y-136722119D01*
X110184320Y-136208663D01*
X109791337Y-135815680D01*
X109277881Y-135603000D01*
X108722119Y-135603000D01*
X108208663Y-135815680D01*
X107815680Y-136208663D01*
X107603000Y-136722119D01*
X106647000Y-136722119D01*
X106434320Y-136208663D01*
X106041337Y-135815680D01*
X105527881Y-135603000D01*
X104972119Y-135603000D01*
X104458663Y-135815680D01*
X104065680Y-136208663D01*
X103853000Y-136722119D01*
X101735000Y-136722119D01*
X101735000Y-125500000D01*
X101802560Y-125500000D01*
X101802560Y-128500000D01*
X101851843Y-128747765D01*
X101992191Y-128957809D01*
X102202235Y-129098157D01*
X102450000Y-129147440D01*
X105450000Y-129147440D01*
X105697765Y-129098157D01*
X105907809Y-128957809D01*
X106048157Y-128747765D01*
X106097440Y-128500000D01*
X106097440Y-125500000D01*
X106048157Y-125252235D01*
X105907809Y-125042191D01*
X105697765Y-124901843D01*
X105450000Y-124852560D01*
X102450000Y-124852560D01*
X102202235Y-124901843D01*
X101992191Y-125042191D01*
X101851843Y-125252235D01*
X101802560Y-125500000D01*
X101735000Y-125500000D01*
X101735000Y-121972119D01*
X103853000Y-121972119D01*
X103853000Y-122527881D01*
X104065680Y-123041337D01*
X104458663Y-123434320D01*
X104972119Y-123647000D01*
X105527881Y-123647000D01*
X106041337Y-123434320D01*
X106434320Y-123041337D01*
X106647000Y-122527881D01*
X106647000Y-121972119D01*
X107603000Y-121972119D01*
X107603000Y-122527881D01*
X107815680Y-123041337D01*
X108208663Y-123434320D01*
X108722119Y-123647000D01*
X109277881Y-123647000D01*
X109791337Y-123434320D01*
X110184320Y-123041337D01*
X110397000Y-122527881D01*
X110397000Y-122042302D01*
X111340856Y-122042302D01*
X111368638Y-122597368D01*
X111527603Y-122981143D01*
X111769787Y-123050608D01*
X112570395Y-122250000D01*
X111769787Y-121449392D01*
X111527603Y-121518857D01*
X111340856Y-122042302D01*
X110397000Y-122042302D01*
X110397000Y-121972119D01*
X110184320Y-121458663D01*
X109995444Y-121269787D01*
X111949392Y-121269787D01*
X112750000Y-122070395D01*
X113550608Y-121269787D01*
X113481143Y-121027603D01*
X112957698Y-120840856D01*
X112402632Y-120868638D01*
X112018857Y-121027603D01*
X111949392Y-121269787D01*
X109995444Y-121269787D01*
X109791337Y-121065680D01*
X109277881Y-120853000D01*
X108722119Y-120853000D01*
X108208663Y-121065680D01*
X107815680Y-121458663D01*
X107603000Y-121972119D01*
X106647000Y-121972119D01*
X106434320Y-121458663D01*
X106041337Y-121065680D01*
X105527881Y-120853000D01*
X104972119Y-120853000D01*
X104458663Y-121065680D01*
X104065680Y-121458663D01*
X103853000Y-121972119D01*
X101735000Y-121972119D01*
X101735000Y-110750000D01*
X101802560Y-110750000D01*
X101802560Y-113750000D01*
X101851843Y-113997765D01*
X101992191Y-114207809D01*
X102202235Y-114348157D01*
X102450000Y-114397440D01*
X105450000Y-114397440D01*
X105697765Y-114348157D01*
X105907809Y-114207809D01*
X106048157Y-113997765D01*
X106097440Y-113750000D01*
X106097440Y-110750000D01*
X111902560Y-110750000D01*
X111902560Y-113750000D01*
X111951843Y-113997765D01*
X112092191Y-114207809D01*
X112302235Y-114348157D01*
X112550000Y-114397440D01*
X115550000Y-114397440D01*
X115797765Y-114348157D01*
X116007809Y-114207809D01*
X116148157Y-113997765D01*
X116197440Y-113750000D01*
X116197440Y-110750000D01*
X116148157Y-110502235D01*
X116007809Y-110292191D01*
X115797765Y-110151843D01*
X115550000Y-110102560D01*
X112550000Y-110102560D01*
X112302235Y-110151843D01*
X112092191Y-110292191D01*
X111951843Y-110502235D01*
X111902560Y-110750000D01*
X106097440Y-110750000D01*
X106048157Y-110502235D01*
X105907809Y-110292191D01*
X105697765Y-110151843D01*
X105450000Y-110102560D01*
X102450000Y-110102560D01*
X102202235Y-110151843D01*
X101992191Y-110292191D01*
X101851843Y-110502235D01*
X101802560Y-110750000D01*
X101735000Y-110750000D01*
X101735000Y-70978585D01*
X108365000Y-70978585D01*
X108365000Y-73021415D01*
X109146757Y-74908744D01*
X110591256Y-76353243D01*
X112478585Y-77135000D01*
X114521415Y-77135000D01*
X116408744Y-76353243D01*
X116505204Y-76256783D01*
X129312577Y-89064156D01*
X129361951Y-89138049D01*
X129435844Y-89187423D01*
X129435845Y-89187424D01*
X129637588Y-89322225D01*
X129654690Y-89333652D01*
X129912835Y-89385000D01*
X129912839Y-89385000D01*
X130000000Y-89402337D01*
X130087161Y-89385000D01*
X140181993Y-89385000D01*
X140544126Y-89535000D01*
X140955874Y-89535000D01*
X141336280Y-89377431D01*
X141627431Y-89086280D01*
X141785000Y-88705874D01*
X141785000Y-88294126D01*
X141627431Y-87913720D01*
X141336280Y-87622569D01*
X140955874Y-87465000D01*
X140544126Y-87465000D01*
X140181993Y-87615000D01*
X130366579Y-87615000D01*
X117756783Y-75005204D01*
X117853243Y-74908744D01*
X118635000Y-73021415D01*
X118635000Y-70978585D01*
X117853243Y-69091256D01*
X116408744Y-67646757D01*
X114521415Y-66865000D01*
X112478585Y-66865000D01*
X110591256Y-67646757D01*
X109146757Y-69091256D01*
X108365000Y-70978585D01*
X101735000Y-70978585D01*
X101735000Y-62544126D01*
X122215000Y-62544126D01*
X122215000Y-62955874D01*
X122372569Y-63336280D01*
X122663720Y-63627431D01*
X123044126Y-63785000D01*
X123139488Y-63785000D01*
X133658653Y-74304166D01*
X133658656Y-74304168D01*
X141120834Y-81766347D01*
X141166023Y-81833977D01*
X141433954Y-82013003D01*
X141670226Y-82060000D01*
X141670230Y-82060000D01*
X141749999Y-82075867D01*
X141829769Y-82060000D01*
X145596289Y-82060000D01*
X145663720Y-82127431D01*
X146044126Y-82285000D01*
X146455874Y-82285000D01*
X146836280Y-82127431D01*
X147127431Y-81836280D01*
X147285000Y-81455874D01*
X147285000Y-81044126D01*
X147127431Y-80663720D01*
X146836280Y-80372569D01*
X146455874Y-80215000D01*
X146044126Y-80215000D01*
X145663720Y-80372569D01*
X145596289Y-80440000D01*
X142085513Y-80440000D01*
X135148045Y-73502532D01*
X136677073Y-73502532D01*
X136775736Y-73769387D01*
X137385461Y-73995908D01*
X138035460Y-73971856D01*
X138524264Y-73769387D01*
X138622927Y-73502532D01*
X148377073Y-73502532D01*
X148475736Y-73769387D01*
X149085461Y-73995908D01*
X149735460Y-73971856D01*
X150224264Y-73769387D01*
X150322927Y-73502532D01*
X149350000Y-72529605D01*
X148377073Y-73502532D01*
X138622927Y-73502532D01*
X137650000Y-72529605D01*
X136677073Y-73502532D01*
X135148045Y-73502532D01*
X134804168Y-73158656D01*
X134804166Y-73158653D01*
X133730974Y-72085461D01*
X136004092Y-72085461D01*
X136028144Y-72735460D01*
X136230613Y-73224264D01*
X136497468Y-73322927D01*
X137470395Y-72350000D01*
X137829605Y-72350000D01*
X138802532Y-73322927D01*
X139069387Y-73224264D01*
X139295908Y-72614539D01*
X139276331Y-72085461D01*
X147704092Y-72085461D01*
X147728144Y-72735460D01*
X147930613Y-73224264D01*
X148197468Y-73322927D01*
X149170395Y-72350000D01*
X149529605Y-72350000D01*
X150502532Y-73322927D01*
X150769387Y-73224264D01*
X150995908Y-72614539D01*
X150971856Y-71964540D01*
X150769387Y-71475736D01*
X150502532Y-71377073D01*
X149529605Y-72350000D01*
X149170395Y-72350000D01*
X148197468Y-71377073D01*
X147930613Y-71475736D01*
X147704092Y-72085461D01*
X139276331Y-72085461D01*
X139271856Y-71964540D01*
X139069387Y-71475736D01*
X138802532Y-71377073D01*
X137829605Y-72350000D01*
X137470395Y-72350000D01*
X136497468Y-71377073D01*
X136230613Y-71475736D01*
X136004092Y-72085461D01*
X133730974Y-72085461D01*
X132842981Y-71197468D01*
X136677073Y-71197468D01*
X137650000Y-72170395D01*
X138622927Y-71197468D01*
X148377073Y-71197468D01*
X149350000Y-72170395D01*
X150322927Y-71197468D01*
X150224264Y-70930613D01*
X149614539Y-70704092D01*
X148964540Y-70728144D01*
X148475736Y-70930613D01*
X148377073Y-71197468D01*
X138622927Y-71197468D01*
X138524264Y-70930613D01*
X137914539Y-70704092D01*
X137264540Y-70728144D01*
X136775736Y-70930613D01*
X136677073Y-71197468D01*
X132842981Y-71197468D01*
X127320291Y-65674778D01*
X136015000Y-65674778D01*
X136015000Y-66325222D01*
X136263914Y-66926153D01*
X136723847Y-67386086D01*
X137324778Y-67635000D01*
X137975222Y-67635000D01*
X138576153Y-67386086D01*
X139036086Y-66926153D01*
X139285000Y-66325222D01*
X139285000Y-65674778D01*
X147715000Y-65674778D01*
X147715000Y-66325222D01*
X147963914Y-66926153D01*
X148423847Y-67386086D01*
X149024778Y-67635000D01*
X149675222Y-67635000D01*
X150276153Y-67386086D01*
X150736086Y-66926153D01*
X150985000Y-66325222D01*
X150985000Y-66194670D01*
X156615000Y-66194670D01*
X156615000Y-66805330D01*
X156848690Y-67369507D01*
X157280493Y-67801310D01*
X157844670Y-68035000D01*
X158455330Y-68035000D01*
X159019507Y-67801310D01*
X159451310Y-67369507D01*
X159685000Y-66805330D01*
X159685000Y-66194670D01*
X164115000Y-66194670D01*
X164115000Y-66805330D01*
X164348690Y-67369507D01*
X164780493Y-67801310D01*
X165344670Y-68035000D01*
X165955330Y-68035000D01*
X166519507Y-67801310D01*
X166951310Y-67369507D01*
X167185000Y-66805330D01*
X167185000Y-66194670D01*
X166951310Y-65630493D01*
X166519507Y-65198690D01*
X165955330Y-64965000D01*
X165344670Y-64965000D01*
X164780493Y-65198690D01*
X164348690Y-65630493D01*
X164115000Y-66194670D01*
X159685000Y-66194670D01*
X159451310Y-65630493D01*
X159019507Y-65198690D01*
X158455330Y-64965000D01*
X157844670Y-64965000D01*
X157280493Y-65198690D01*
X156848690Y-65630493D01*
X156615000Y-66194670D01*
X150985000Y-66194670D01*
X150985000Y-65674778D01*
X150736086Y-65073847D01*
X150276153Y-64613914D01*
X149675222Y-64365000D01*
X149024778Y-64365000D01*
X148423847Y-64613914D01*
X147963914Y-65073847D01*
X147715000Y-65674778D01*
X139285000Y-65674778D01*
X139036086Y-65073847D01*
X138576153Y-64613914D01*
X137975222Y-64365000D01*
X137324778Y-64365000D01*
X136723847Y-64613914D01*
X136263914Y-65073847D01*
X136015000Y-65674778D01*
X127320291Y-65674778D01*
X124285000Y-62639488D01*
X124285000Y-62544126D01*
X124127431Y-62163720D01*
X123836280Y-61872569D01*
X123455874Y-61715000D01*
X123044126Y-61715000D01*
X122663720Y-61872569D01*
X122372569Y-62163720D01*
X122215000Y-62544126D01*
X101735000Y-62544126D01*
X101735000Y-60624234D01*
X104865000Y-60624234D01*
X104865000Y-61075766D01*
X105037793Y-61492926D01*
X105357074Y-61812207D01*
X105774234Y-61985000D01*
X106225766Y-61985000D01*
X106642926Y-61812207D01*
X106962207Y-61492926D01*
X107135000Y-61075766D01*
X107135000Y-60624234D01*
X110865000Y-60624234D01*
X110865000Y-61075766D01*
X111037793Y-61492926D01*
X111357074Y-61812207D01*
X111774234Y-61985000D01*
X112225766Y-61985000D01*
X112642926Y-61812207D01*
X112905133Y-61550000D01*
X153352560Y-61550000D01*
X153352560Y-65050000D01*
X153401843Y-65297765D01*
X153542191Y-65507809D01*
X153752235Y-65648157D01*
X154000000Y-65697440D01*
X156100000Y-65697440D01*
X156347765Y-65648157D01*
X156557809Y-65507809D01*
X156698157Y-65297765D01*
X156747440Y-65050000D01*
X156747440Y-63230159D01*
X160999446Y-63230159D01*
X161085852Y-63486643D01*
X161659336Y-63696458D01*
X162269460Y-63670839D01*
X162714148Y-63486643D01*
X162800554Y-63230159D01*
X161900000Y-62329605D01*
X160999446Y-63230159D01*
X156747440Y-63230159D01*
X156747440Y-61909336D01*
X160353542Y-61909336D01*
X160379161Y-62519460D01*
X160563357Y-62964148D01*
X160819841Y-63050554D01*
X161720395Y-62150000D01*
X162079605Y-62150000D01*
X162980159Y-63050554D01*
X163236643Y-62964148D01*
X163446458Y-62390664D01*
X163420839Y-61780540D01*
X163325347Y-61550000D01*
X167052560Y-61550000D01*
X167052560Y-65050000D01*
X167101843Y-65297765D01*
X167242191Y-65507809D01*
X167452235Y-65648157D01*
X167700000Y-65697440D01*
X169800000Y-65697440D01*
X170047765Y-65648157D01*
X170257809Y-65507809D01*
X170398157Y-65297765D01*
X170447440Y-65050000D01*
X170447440Y-61550000D01*
X170398157Y-61302235D01*
X170257809Y-61092191D01*
X170047765Y-60951843D01*
X169800000Y-60902560D01*
X167700000Y-60902560D01*
X167452235Y-60951843D01*
X167242191Y-61092191D01*
X167101843Y-61302235D01*
X167052560Y-61550000D01*
X163325347Y-61550000D01*
X163236643Y-61335852D01*
X162980159Y-61249446D01*
X162079605Y-62150000D01*
X161720395Y-62150000D01*
X160819841Y-61249446D01*
X160563357Y-61335852D01*
X160353542Y-61909336D01*
X156747440Y-61909336D01*
X156747440Y-61550000D01*
X156698157Y-61302235D01*
X156557809Y-61092191D01*
X156524361Y-61069841D01*
X160999446Y-61069841D01*
X161900000Y-61970395D01*
X162800554Y-61069841D01*
X162714148Y-60813357D01*
X162140664Y-60603542D01*
X161530540Y-60629161D01*
X161085852Y-60813357D01*
X160999446Y-61069841D01*
X156524361Y-61069841D01*
X156347765Y-60951843D01*
X156100000Y-60902560D01*
X154000000Y-60902560D01*
X153752235Y-60951843D01*
X153542191Y-61092191D01*
X153401843Y-61302235D01*
X153352560Y-61550000D01*
X112905133Y-61550000D01*
X112962207Y-61492926D01*
X113135000Y-61075766D01*
X113135000Y-60624234D01*
X112962207Y-60207074D01*
X112642926Y-59887793D01*
X112225766Y-59715000D01*
X111774234Y-59715000D01*
X111357074Y-59887793D01*
X111037793Y-60207074D01*
X110865000Y-60624234D01*
X107135000Y-60624234D01*
X106962207Y-60207074D01*
X106642926Y-59887793D01*
X106225766Y-59715000D01*
X105774234Y-59715000D01*
X105357074Y-59887793D01*
X105037793Y-60207074D01*
X104865000Y-60624234D01*
X101735000Y-60624234D01*
X101735000Y-59324778D01*
X135965000Y-59324778D01*
X135965000Y-59975222D01*
X136213914Y-60576153D01*
X136673847Y-61036086D01*
X137274778Y-61285000D01*
X137925222Y-61285000D01*
X138526153Y-61036086D01*
X138986086Y-60576153D01*
X139235000Y-59975222D01*
X139235000Y-59324778D01*
X147765000Y-59324778D01*
X147765000Y-59975222D01*
X148013914Y-60576153D01*
X148473847Y-61036086D01*
X149074778Y-61285000D01*
X149725222Y-61285000D01*
X150326153Y-61036086D01*
X150786086Y-60576153D01*
X151035000Y-59975222D01*
X151035000Y-59324778D01*
X150786086Y-58723847D01*
X150326153Y-58263914D01*
X149725222Y-58015000D01*
X149074778Y-58015000D01*
X148473847Y-58263914D01*
X148013914Y-58723847D01*
X147765000Y-59324778D01*
X139235000Y-59324778D01*
X138986086Y-58723847D01*
X138526153Y-58263914D01*
X137925222Y-58015000D01*
X137274778Y-58015000D01*
X136673847Y-58263914D01*
X136213914Y-58723847D01*
X135965000Y-59324778D01*
X101735000Y-59324778D01*
X101735000Y-55735000D01*
X200265001Y-55735000D01*
X200265001Y-74333422D01*
G36*
X145350338Y-109416023D02*
X145305149Y-109483653D01*
X140558780Y-114230023D01*
X127915490Y-114230023D01*
X131935513Y-110210000D01*
X142146283Y-110210000D01*
X142213714Y-110277431D01*
X142594120Y-110435000D01*
X143005868Y-110435000D01*
X143386274Y-110277431D01*
X143677425Y-109986280D01*
X143834994Y-109605874D01*
X143834994Y-109410000D01*
X145359352Y-109410000D01*
X145350338Y-109416023D01*
X145350338Y-109416023D01*
G37*
X145350338Y-109416023D02*
X145305149Y-109483653D01*
X140558780Y-114230023D01*
X127915490Y-114230023D01*
X131935513Y-110210000D01*
X142146283Y-110210000D01*
X142213714Y-110277431D01*
X142594120Y-110435000D01*
X143005868Y-110435000D01*
X143386274Y-110277431D01*
X143677425Y-109986280D01*
X143834994Y-109605874D01*
X143834994Y-109410000D01*
X145359352Y-109410000D01*
X145350338Y-109416023D01*
G04 #@! TD*
M02*
