G04 #@! TF.GenerationSoftware,KiCad,Pcbnew,(5.0.2)-1*
G04 #@! TF.CreationDate,2019-02-13T16:42:22+01:00*
G04 #@! TF.ProjectId,Lab1,4c616231-2e6b-4696-9361-645f70636258,rev?*
G04 #@! TF.SameCoordinates,Original*
G04 #@! TF.FileFunction,Copper,L2,Bot*
G04 #@! TF.FilePolarity,Positive*
%FSLAX46Y46*%
G04 Gerber Fmt 4.6, Leading zero omitted, Abs format (unit mm)*
G04 Created by KiCad (PCBNEW (5.0.2)-1) date 2019-02-13 16:42:22*
%MOMM*%
%LPD*%
G01*
G04 APERTURE LIST*
G04 #@! TA.AperFunction,ComponentPad*
%ADD10C,1.524000*%
G04 #@! TD*
G04 #@! TA.AperFunction,WasherPad*
%ADD11R,3.000000X3.000000*%
G04 #@! TD*
G04 #@! TA.AperFunction,ComponentPad*
%ADD12O,3.500000X1.900000*%
G04 #@! TD*
G04 #@! TA.AperFunction,ComponentPad*
%ADD13C,2.000000*%
G04 #@! TD*
G04 #@! TA.AperFunction,ComponentPad*
%ADD14C,1.800000*%
G04 #@! TD*
G04 #@! TA.AperFunction,ComponentPad*
%ADD15R,1.800000X1.800000*%
G04 #@! TD*
G04 #@! TA.AperFunction,ComponentPad*
%ADD16C,9.000000*%
G04 #@! TD*
G04 #@! TA.AperFunction,WasherPad*
%ADD17R,2.100000X3.500000*%
G04 #@! TD*
G04 #@! TA.AperFunction,Conductor*
%ADD18C,0.100000*%
G04 #@! TD*
G04 #@! TA.AperFunction,ComponentPad*
%ADD19C,1.740000*%
G04 #@! TD*
G04 #@! TA.AperFunction,ComponentPad*
%ADD20O,2.200000X1.740000*%
G04 #@! TD*
G04 #@! TA.AperFunction,ComponentPad*
%ADD21C,1.280000*%
G04 #@! TD*
G04 #@! TA.AperFunction,ViaPad*
%ADD22C,0.800000*%
G04 #@! TD*
G04 #@! TA.AperFunction,Conductor*
%ADD23C,0.250000*%
G04 #@! TD*
G04 #@! TA.AperFunction,Conductor*
%ADD24C,0.300000*%
G04 #@! TD*
G04 #@! TA.AperFunction,Conductor*
%ADD25C,0.254000*%
G04 #@! TD*
G04 APERTURE END LIST*
D10*
G04 #@! TO.P,RV2,1*
G04 #@! TO.N,Net-(R17-Pad2)*
X105250000Y-137000000D03*
G04 #@! TO.P,RV2,2*
G04 #@! TO.N,/POT2*
X109000000Y-137000000D03*
G04 #@! TO.P,RV2,3*
G04 #@! TO.N,GNDA*
X112750000Y-137000000D03*
D11*
G04 #@! TO.P,RV2,*
G04 #@! TO.N,*
X103950000Y-127000000D03*
X114050000Y-127000000D03*
G04 #@! TD*
D12*
G04 #@! TO.P,J2,6*
G04 #@! TO.N,GNDD*
X197750000Y-92050000D03*
G04 #@! TO.P,J2,5*
X197750000Y-103450000D03*
G04 #@! TD*
D13*
G04 #@! TO.P,J4,2*
G04 #@! TO.N,Net-(J4-Pad2)*
X137650000Y-66000000D03*
G04 #@! TO.P,J4,5*
X149350000Y-66000000D03*
G04 #@! TO.P,J4,3*
G04 #@! TO.N,GNDA*
X137650000Y-72350000D03*
G04 #@! TO.P,J4,6*
X149350000Y-72350000D03*
G04 #@! TO.P,J4,1*
G04 #@! TO.N,Net-(J4-Pad1)*
X137600000Y-59650000D03*
G04 #@! TO.P,J4,4*
X149400000Y-59650000D03*
G04 #@! TD*
D14*
G04 #@! TO.P,D1,2*
G04 #@! TO.N,Net-(D1-Pad2)*
X121540000Y-132080000D03*
D15*
G04 #@! TO.P,D1,1*
G04 #@! TO.N,GNDA*
X119000000Y-132080000D03*
G04 #@! TD*
G04 #@! TO.P,D2,1*
G04 #@! TO.N,GNDA*
X125000000Y-132080000D03*
D14*
G04 #@! TO.P,D2,2*
G04 #@! TO.N,Net-(D2-Pad2)*
X127540000Y-132080000D03*
G04 #@! TD*
G04 #@! TO.P,D3,2*
G04 #@! TO.N,Net-(D3-Pad2)*
X133540000Y-132080000D03*
D15*
G04 #@! TO.P,D3,1*
G04 #@! TO.N,GNDA*
X131000000Y-132080000D03*
G04 #@! TD*
G04 #@! TO.P,D4,1*
G04 #@! TO.N,GNDA*
X137000000Y-132080000D03*
D14*
G04 #@! TO.P,D4,2*
G04 #@! TO.N,Net-(D4-Pad2)*
X139540000Y-132080000D03*
G04 #@! TD*
D16*
G04 #@! TO.P,H1,1*
G04 #@! TO.N,+5V*
X113500000Y-72000000D03*
G04 #@! TD*
G04 #@! TO.P,H2,1*
G04 #@! TO.N,GNDD*
X183500000Y-77000000D03*
G04 #@! TD*
D14*
G04 #@! TO.P,J3,3*
G04 #@! TO.N,Net-(C18-Pad1)*
X165750000Y-57500000D03*
G04 #@! TO.P,J3,2*
G04 #@! TO.N,Net-(C32-Pad2)*
X158250000Y-57500000D03*
G04 #@! TO.P,J3,1*
G04 #@! TO.N,GNDA*
X162000000Y-61850000D03*
D17*
G04 #@! TO.P,J3,*
G04 #@! TO.N,*
X155150000Y-60700000D03*
X168850000Y-60700000D03*
G04 #@! TD*
D18*
G04 #@! TO.N,/SWO*
G04 #@! TO.C,J5*
G36*
X197624505Y-84131204D02*
X197648773Y-84134804D01*
X197672572Y-84140765D01*
X197695671Y-84149030D01*
X197717850Y-84159520D01*
X197738893Y-84172132D01*
X197758599Y-84186747D01*
X197776777Y-84203223D01*
X197793253Y-84221401D01*
X197807868Y-84241107D01*
X197820480Y-84262150D01*
X197830970Y-84284329D01*
X197839235Y-84307428D01*
X197845196Y-84331227D01*
X197848796Y-84355495D01*
X197850000Y-84379999D01*
X197850000Y-85620001D01*
X197848796Y-85644505D01*
X197845196Y-85668773D01*
X197839235Y-85692572D01*
X197830970Y-85715671D01*
X197820480Y-85737850D01*
X197807868Y-85758893D01*
X197793253Y-85778599D01*
X197776777Y-85796777D01*
X197758599Y-85813253D01*
X197738893Y-85827868D01*
X197717850Y-85840480D01*
X197695671Y-85850970D01*
X197672572Y-85859235D01*
X197648773Y-85865196D01*
X197624505Y-85868796D01*
X197600001Y-85870000D01*
X195899999Y-85870000D01*
X195875495Y-85868796D01*
X195851227Y-85865196D01*
X195827428Y-85859235D01*
X195804329Y-85850970D01*
X195782150Y-85840480D01*
X195761107Y-85827868D01*
X195741401Y-85813253D01*
X195723223Y-85796777D01*
X195706747Y-85778599D01*
X195692132Y-85758893D01*
X195679520Y-85737850D01*
X195669030Y-85715671D01*
X195660765Y-85692572D01*
X195654804Y-85668773D01*
X195651204Y-85644505D01*
X195650000Y-85620001D01*
X195650000Y-84379999D01*
X195651204Y-84355495D01*
X195654804Y-84331227D01*
X195660765Y-84307428D01*
X195669030Y-84284329D01*
X195679520Y-84262150D01*
X195692132Y-84241107D01*
X195706747Y-84221401D01*
X195723223Y-84203223D01*
X195741401Y-84186747D01*
X195761107Y-84172132D01*
X195782150Y-84159520D01*
X195804329Y-84149030D01*
X195827428Y-84140765D01*
X195851227Y-84134804D01*
X195875495Y-84131204D01*
X195899999Y-84130000D01*
X197600001Y-84130000D01*
X197624505Y-84131204D01*
X197624505Y-84131204D01*
G37*
D19*
G04 #@! TD*
G04 #@! TO.P,J5,1*
G04 #@! TO.N,/SWO*
X196750000Y-85000000D03*
D20*
G04 #@! TO.P,J5,2*
G04 #@! TO.N,/NRST*
X196750000Y-82460000D03*
G04 #@! TO.P,J5,3*
G04 #@! TO.N,/SWDIO*
X196750000Y-79920000D03*
G04 #@! TO.P,J5,4*
G04 #@! TO.N,GNDD*
X196750000Y-77380000D03*
G04 #@! TO.P,J5,5*
G04 #@! TO.N,/SWCLK*
X196750000Y-74840000D03*
G04 #@! TO.P,J5,6*
G04 #@! TO.N,+3V3*
X196750000Y-72300000D03*
G04 #@! TD*
D11*
G04 #@! TO.P,RV1,*
G04 #@! TO.N,*
X114050000Y-142000000D03*
X103950000Y-142000000D03*
D10*
G04 #@! TO.P,RV1,3*
G04 #@! TO.N,GNDA*
X112750000Y-152000000D03*
G04 #@! TO.P,RV1,2*
G04 #@! TO.N,/POT3*
X109000000Y-152000000D03*
G04 #@! TO.P,RV1,1*
G04 #@! TO.N,Net-(R17-Pad2)*
X105250000Y-152000000D03*
G04 #@! TD*
D11*
G04 #@! TO.P,RV3,*
G04 #@! TO.N,*
X114050000Y-112250000D03*
X103950000Y-112250000D03*
D10*
G04 #@! TO.P,RV3,3*
G04 #@! TO.N,GNDA*
X112750000Y-122250000D03*
G04 #@! TO.P,RV3,2*
G04 #@! TO.N,/POT1*
X109000000Y-122250000D03*
G04 #@! TO.P,RV3,1*
G04 #@! TO.N,Net-(R17-Pad2)*
X105250000Y-122250000D03*
G04 #@! TD*
D21*
G04 #@! TO.P,U4,1*
G04 #@! TO.N,Net-(U4-Pad1)*
X164490000Y-154050000D03*
G04 #@! TO.P,U4,2*
G04 #@! TO.N,Net-(U4-Pad2)*
X167030000Y-154050000D03*
G04 #@! TO.P,U4,14*
G04 #@! TO.N,Net-(U4-Pad14)*
X197510000Y-154050000D03*
G04 #@! TO.P,U4,13*
G04 #@! TO.N,Net-(U4-Pad13)*
X194970000Y-154050000D03*
G04 #@! TO.P,U4,28*
G04 #@! TO.N,/LCD_CS*
X164490000Y-115950000D03*
G04 #@! TO.P,U4,27*
G04 #@! TO.N,/NRST*
X167030000Y-115950000D03*
G04 #@! TO.P,U4,26*
G04 #@! TO.N,/LCD_SPI_MISO*
X169570000Y-115950000D03*
G04 #@! TO.P,U4,25*
G04 #@! TO.N,/LCD_SPI_SCK*
X172110000Y-115950000D03*
G04 #@! TO.P,U4,24*
G04 #@! TO.N,/LCD_SPI_MOSI*
X174650000Y-115950000D03*
G04 #@! TO.P,U4,23*
G04 #@! TO.N,+3V3*
X177190000Y-115950000D03*
G04 #@! TO.P,U4,22*
X179730000Y-115950000D03*
G04 #@! TO.P,U4,21*
G04 #@! TO.N,GNDD*
X182270000Y-115950000D03*
G04 #@! TO.P,U4,20*
X184810000Y-115950000D03*
G04 #@! TO.P,U4,19*
G04 #@! TO.N,Net-(C39-Pad2)*
X187350000Y-115950000D03*
G04 #@! TO.P,U4,18*
G04 #@! TO.N,Net-(C40-Pad2)*
X189890000Y-115950000D03*
G04 #@! TO.P,U4,17*
G04 #@! TO.N,Net-(C40-Pad1)*
X192430000Y-115950000D03*
G04 #@! TO.P,U4,16*
G04 #@! TO.N,Net-(C39-Pad1)*
X194970000Y-115950000D03*
G04 #@! TO.P,U4,15*
G04 #@! TO.N,Net-(C41-Pad1)*
X197510000Y-115950000D03*
G04 #@! TD*
D22*
G04 #@! TO.N,GNDD*
X149250000Y-81500000D03*
X158000000Y-84250000D03*
X147250000Y-91500000D03*
G04 #@! TO.N,+3V3*
X153750000Y-152250000D03*
X164500000Y-109750000D03*
X164500000Y-101750000D03*
X164000000Y-91750000D03*
X160500000Y-84250000D03*
X148250000Y-126000000D03*
G04 #@! TO.N,GNDA*
X139500000Y-113500000D03*
X144089998Y-110250000D03*
G04 #@! TO.N,+5V*
X167250000Y-109500000D03*
X195000000Y-94250000D03*
X140750000Y-88500000D03*
X177827732Y-94444784D03*
X149750000Y-79500000D03*
G04 #@! TO.N,Net-(C10-Pad1)*
X153250000Y-113500000D03*
X144575001Y-113874999D03*
G04 #@! TO.N,/OUTR*
X161332052Y-92304701D03*
X164250000Y-81500000D03*
G04 #@! TO.N,/OUTL*
X160000000Y-92000000D03*
X156500000Y-81250000D03*
G04 #@! TO.N,/INR*
X146750000Y-85750000D03*
X123500000Y-72000000D03*
G04 #@! TO.N,/INL*
X146250000Y-81250000D03*
X123250000Y-62750000D03*
G04 #@! TO.N,/Button4*
X175000000Y-69250000D03*
X174250000Y-83000000D03*
G04 #@! TO.N,/Button1*
X122750000Y-138750000D03*
X146750000Y-109000000D03*
G04 #@! TO.N,/Button2*
X134500000Y-138750000D03*
X143807652Y-108942348D03*
G04 #@! TO.N,/Button3*
X144750000Y-138500000D03*
X146500000Y-110000000D03*
G04 #@! TO.N,/NRST*
X140500000Y-107250000D03*
X147500000Y-83750000D03*
X135750000Y-92000000D03*
X155575001Y-116000000D03*
X146750000Y-107999997D03*
G04 #@! TO.N,/SWDIO*
X182999996Y-89250000D03*
G04 #@! TO.N,/CODEC_SPI_SCK*
X152036020Y-82980956D03*
X150549999Y-104802563D03*
X149450558Y-113060585D03*
X151500008Y-99500000D03*
G04 #@! TO.N,/CODEC_SPI_MISO*
X155500000Y-93000000D03*
X155426998Y-95500000D03*
G04 #@! TO.N,/LED1*
X151525000Y-116000000D03*
X120250000Y-123750000D03*
G04 #@! TO.N,/LED2*
X126500000Y-123750000D03*
X152792890Y-117957109D03*
G04 #@! TO.N,/LED3*
X153500000Y-117250003D03*
X132500000Y-123750000D03*
G04 #@! TO.N,/LED4*
X153500000Y-116250000D03*
X138500000Y-124000000D03*
G04 #@! TO.N,/I2S_SDOUT*
X157750000Y-86750000D03*
X162500000Y-111000000D03*
G04 #@! TO.N,/POT3*
X116750000Y-120500000D03*
G04 #@! TO.N,/CODEC_CS*
X153032085Y-83069607D03*
X148500000Y-112499976D03*
G04 #@! TO.N,/CODEC_SPI_MOSI*
X153984670Y-82765330D03*
X151500000Y-113000000D03*
G04 #@! TO.N,/I2S_LRCK*
X157237347Y-91762653D03*
X158750000Y-113250000D03*
G04 #@! TO.N,/I2S_SCLK*
X157500000Y-89775000D03*
X159250000Y-112250000D03*
G04 #@! TO.N,/I2S_SDIN*
X156500000Y-92750000D03*
X155691199Y-111693000D03*
G04 #@! TO.N,/I2S_MCLK*
X157250000Y-90750000D03*
X158525000Y-110525000D03*
G04 #@! TO.N,/LCD_CS*
X154750000Y-104750000D03*
G04 #@! TO.N,/LCD_SPI_SCK*
X153737346Y-104762651D03*
G04 #@! TO.N,/LCD_SPI_MISO*
X152865067Y-105251660D03*
X169250000Y-118250000D03*
G04 #@! TO.N,/LCD_SPI_MOSI*
X152000000Y-104750000D03*
X175500000Y-112000000D03*
G04 #@! TD*
D23*
G04 #@! TO.N,GNDD*
X196370000Y-77000000D02*
X196750000Y-77380000D01*
X183500000Y-77000000D02*
X196370000Y-77000000D01*
X158000000Y-81676998D02*
X158000000Y-84250000D01*
X156848001Y-80524999D02*
X158000000Y-81676998D01*
X149250000Y-81500000D02*
X150225001Y-80524999D01*
X150225001Y-80524999D02*
X156848001Y-80524999D01*
X148850001Y-81899999D02*
X149250000Y-81500000D01*
X148299990Y-82450010D02*
X148850001Y-81899999D01*
X148299990Y-90450010D02*
X148299990Y-82450010D01*
X147250000Y-91500000D02*
X148299990Y-90450010D01*
D24*
G04 #@! TO.N,+3V3*
X177190000Y-115950000D02*
X179730000Y-115950000D01*
X166140000Y-127000000D02*
X177190000Y-115950000D01*
X166140000Y-127110000D02*
X166140000Y-127000000D01*
X153750000Y-152250000D02*
X153750000Y-139500000D01*
X163499999Y-102750001D02*
X164500000Y-101750000D01*
X164500000Y-109750000D02*
X163499999Y-108749999D01*
X163499999Y-108749999D02*
X163499999Y-102750001D01*
X164500000Y-101750000D02*
X164500000Y-92250000D01*
X164500000Y-92250000D02*
X164000000Y-91750000D01*
X196980000Y-72300000D02*
X196750000Y-72300000D01*
X199850010Y-75170010D02*
X196980000Y-72300000D01*
X199850010Y-95829990D02*
X199850010Y-75170010D01*
X179730000Y-115950000D02*
X199850010Y-95829990D01*
X164000000Y-91750000D02*
X164000000Y-87750000D01*
X164000000Y-87750000D02*
X160500000Y-84250000D01*
X166000000Y-127250000D02*
X166140000Y-127110000D01*
X153750000Y-139500000D02*
X166000000Y-127250000D01*
X166000000Y-127250000D02*
X164750000Y-126000000D01*
X164750000Y-126000000D02*
X148815685Y-126000000D01*
X148815685Y-126000000D02*
X148250000Y-126000000D01*
D23*
G04 #@! TO.N,GNDA*
X142750000Y-110250000D02*
X144089998Y-110250000D01*
X139500000Y-113500000D02*
X142750000Y-110250000D01*
D24*
G04 #@! TO.N,+5V*
X130000000Y-88500000D02*
X113500000Y-72000000D01*
X140750000Y-88500000D02*
X130000000Y-88500000D01*
X167250000Y-105022516D02*
X177427733Y-94844783D01*
X178022516Y-94250000D02*
X177827732Y-94444784D01*
X177427733Y-94844783D02*
X177827732Y-94444784D01*
X167250000Y-109500000D02*
X167250000Y-105022516D01*
X195000000Y-94250000D02*
X178022516Y-94250000D01*
X151010093Y-78239907D02*
X149750000Y-79500000D01*
X162188540Y-78239907D02*
X151010093Y-78239907D01*
X177827732Y-94444784D02*
X177827732Y-93879099D01*
X177827732Y-93879099D02*
X162188540Y-78239907D01*
X149750000Y-79500000D02*
X149750000Y-79500000D01*
D23*
G04 #@! TO.N,Net-(C10-Pad1)*
X144675003Y-113975001D02*
X144575001Y-113874999D01*
X152774999Y-113975001D02*
X144675003Y-113975001D01*
X153250000Y-113500000D02*
X152774999Y-113975001D01*
G04 #@! TO.N,/OUTR*
X161926998Y-81500000D02*
X164250000Y-81500000D01*
X157024999Y-86401999D02*
X161926998Y-81500000D01*
X157024999Y-87098001D02*
X157024999Y-86401999D01*
X161332052Y-92304701D02*
X161332052Y-91405054D01*
X161332052Y-91405054D02*
X157024999Y-87098001D01*
G04 #@! TO.N,/OUTL*
X160000000Y-91201998D02*
X156048002Y-87250000D01*
X160000000Y-92000000D02*
X160000000Y-91201998D01*
X156048002Y-87250000D02*
X156048002Y-81701998D01*
X156048002Y-81701998D02*
X156500000Y-81250000D01*
G04 #@! TO.N,/INR*
X146750000Y-85750000D02*
X137250000Y-85750000D01*
X137250000Y-85750000D02*
X123899999Y-72399999D01*
X123899999Y-72399999D02*
X123500000Y-72000000D01*
G04 #@! TO.N,/INL*
X134175001Y-73675001D02*
X123250000Y-62750000D01*
X146250000Y-81250000D02*
X141750000Y-81250000D01*
X141750000Y-81250000D02*
X134175001Y-73675001D01*
G04 #@! TO.N,/Button4*
X174250000Y-82434315D02*
X174250000Y-83000000D01*
X174250000Y-70000000D02*
X174250000Y-82434315D01*
X175000000Y-69250000D02*
X174250000Y-70000000D01*
G04 #@! TO.N,/Button1*
X122184315Y-138750000D02*
X122750000Y-138750000D01*
X122012178Y-138750000D02*
X122184315Y-138750000D01*
X116874979Y-124488611D02*
X116874980Y-133612802D01*
X133146243Y-108217347D02*
X116874979Y-124488611D01*
X116874980Y-133612802D02*
X122012178Y-138750000D01*
X145401662Y-108217347D02*
X133146243Y-108217347D01*
X146184315Y-109000000D02*
X145401662Y-108217347D01*
X146750000Y-109000000D02*
X146184315Y-109000000D01*
G04 #@! TO.N,/Button2*
X128600001Y-138350001D02*
X124250000Y-134000000D01*
X134500000Y-138750000D02*
X134100001Y-138350001D01*
X134100001Y-138350001D02*
X128600001Y-138350001D01*
X117324989Y-133426401D02*
X117324989Y-124675011D01*
X124250000Y-134000000D02*
X117898588Y-134000000D01*
X117898588Y-134000000D02*
X117324989Y-133426401D01*
X133057652Y-108942348D02*
X143807652Y-108942348D01*
X117324989Y-124675011D02*
X133057652Y-108942348D01*
G04 #@! TO.N,/Button3*
X117774999Y-125151999D02*
X128426998Y-114500000D01*
X117774999Y-133240001D02*
X117774999Y-125151999D01*
X117839999Y-133305001D02*
X117774999Y-133240001D01*
X138989316Y-133305001D02*
X117839999Y-133305001D01*
X144750000Y-138500000D02*
X144184315Y-138500000D01*
X144184315Y-138500000D02*
X138989316Y-133305001D01*
X128426998Y-114500000D02*
X136750000Y-114500000D01*
X136750000Y-114500000D02*
X142000000Y-114500000D01*
X142000000Y-114500000D02*
X146500000Y-110000000D01*
G04 #@! TO.N,/NRST*
X179048003Y-111274999D02*
X171705001Y-111274999D01*
X195725001Y-94598001D02*
X179048003Y-111274999D01*
X195725001Y-93901999D02*
X195725001Y-94598001D01*
X171705001Y-111274999D02*
X167669999Y-115310001D01*
X195348001Y-93524999D02*
X195725001Y-93901999D01*
X195348001Y-89401999D02*
X195348001Y-93524999D01*
X198175010Y-86574990D02*
X195348001Y-89401999D01*
X198175010Y-82535010D02*
X198175010Y-86574990D01*
X198100000Y-82460000D02*
X198175010Y-82535010D01*
X167669999Y-115310001D02*
X167030000Y-115950000D01*
X196750000Y-82460000D02*
X198100000Y-82460000D01*
X140500000Y-107250000D02*
X140500000Y-97000000D01*
X140500000Y-97000000D02*
X147500000Y-90000000D01*
X147500000Y-90000000D02*
X147500000Y-83750000D01*
X140500000Y-97000000D02*
X140500000Y-96750000D01*
X140500000Y-96750000D02*
X135750000Y-92000000D01*
X143850000Y-114223000D02*
X143850000Y-113400000D01*
X144227000Y-114600000D02*
X143850000Y-114223000D01*
X155575001Y-116000000D02*
X154175001Y-114600000D01*
X154175001Y-114600000D02*
X144227000Y-114600000D01*
X146524999Y-110725001D02*
X146848001Y-110725001D01*
X143850000Y-113400000D02*
X146524999Y-110725001D01*
X146848001Y-110725001D02*
X147475001Y-110098001D01*
X147475001Y-110098001D02*
X147475001Y-108651999D01*
X147475001Y-108651999D02*
X146822999Y-107999997D01*
X146822999Y-107999997D02*
X146750000Y-107999997D01*
G04 #@! TO.N,/SWDIO*
X192329996Y-79920000D02*
X183399995Y-88850001D01*
X196750000Y-79920000D02*
X192329996Y-79920000D01*
X183399995Y-88850001D02*
X182999996Y-89250000D01*
G04 #@! TO.N,/CODEC_SPI_SCK*
X151500000Y-83516976D02*
X152036020Y-82980956D01*
X149450558Y-105902004D02*
X149450558Y-112494900D01*
X150549999Y-104802563D02*
X149450558Y-105902004D01*
X149450558Y-112494900D02*
X149450558Y-113060585D01*
X151500008Y-83500008D02*
X151500008Y-98934315D01*
X151500008Y-98934315D02*
X151500008Y-99500000D01*
X151500000Y-83500000D02*
X151500008Y-83500008D01*
G04 #@! TO.N,/CODEC_SPI_MISO*
X155426998Y-93073002D02*
X155500000Y-93000000D01*
X155426998Y-95500000D02*
X155426998Y-93073002D01*
G04 #@! TO.N,/LED1*
X151525000Y-118725000D02*
X151525000Y-116000000D01*
X120250000Y-123750000D02*
X121750000Y-122250000D01*
X148000000Y-122250000D02*
X151525000Y-118725000D01*
X121750000Y-122250000D02*
X148000000Y-122250000D01*
G04 #@! TO.N,/LED2*
X148061422Y-122824989D02*
X127425011Y-122824989D01*
X127425011Y-122824989D02*
X126899999Y-123350001D01*
X152392891Y-118493520D02*
X148061422Y-122824989D01*
X152792890Y-117957109D02*
X152392891Y-118357108D01*
X152392891Y-118357108D02*
X152392891Y-118493520D01*
X126899999Y-123350001D02*
X126500000Y-123750000D01*
G04 #@! TO.N,/LED3*
X132899999Y-123350001D02*
X132500000Y-123750000D01*
X132975001Y-123274999D02*
X132899999Y-123350001D01*
X148548002Y-123274999D02*
X132975001Y-123274999D01*
X153750000Y-118073001D02*
X148548002Y-123274999D01*
X153750000Y-117500003D02*
X153750000Y-118073001D01*
X153500000Y-117250003D02*
X153750000Y-117500003D01*
G04 #@! TO.N,/LED4*
X138500000Y-124000000D02*
X149500000Y-124000000D01*
X154065685Y-116250000D02*
X153500000Y-116250000D01*
X154225001Y-116409316D02*
X154065685Y-116250000D01*
X154225001Y-119274999D02*
X154225001Y-116409316D01*
X149500000Y-124000000D02*
X154225001Y-119274999D01*
G04 #@! TO.N,/I2S_SDOUT*
X163000000Y-110500000D02*
X162500000Y-111000000D01*
X157750000Y-86750000D02*
X163000000Y-92000000D01*
X163000000Y-92000000D02*
X163000000Y-110500000D01*
G04 #@! TO.N,/POT3*
X116750000Y-120500000D02*
X111250000Y-126000000D01*
X111250000Y-126000000D02*
X111250000Y-149750000D01*
X111250000Y-149750000D02*
X109000000Y-152000000D01*
G04 #@! TO.N,/CODEC_CS*
X148899999Y-112099977D02*
X148500000Y-112499976D01*
X153032085Y-82503922D02*
X152778163Y-82250000D01*
X152778163Y-82250000D02*
X151500000Y-82250000D01*
X151500000Y-82250000D02*
X148899999Y-84850001D01*
X148899999Y-84850001D02*
X148899999Y-112099977D01*
X153032085Y-83069607D02*
X153032085Y-82503922D01*
G04 #@! TO.N,/CODEC_SPI_MOSI*
X151274999Y-112774999D02*
X151500000Y-113000000D01*
X151274999Y-104401999D02*
X151274999Y-112774999D01*
X153984670Y-82765330D02*
X153984670Y-101692328D01*
X153984670Y-101692328D02*
X151274999Y-104401999D01*
G04 #@! TO.N,/I2S_LRCK*
X157799999Y-92325305D02*
X157237347Y-91762653D01*
X158350001Y-112850001D02*
X158350001Y-112100001D01*
X158750000Y-113250000D02*
X158350001Y-112850001D01*
X158350001Y-112100001D02*
X158000000Y-111750000D01*
X158000000Y-111750000D02*
X158000000Y-111250000D01*
X158000000Y-111250000D02*
X157799999Y-111049999D01*
X157799999Y-111049999D02*
X157799999Y-92325305D01*
G04 #@! TO.N,/I2S_SCLK*
X157500000Y-89775000D02*
X159250000Y-91525000D01*
X159250000Y-91525000D02*
X159250000Y-112250000D01*
G04 #@! TO.N,/I2S_SDIN*
X156500000Y-110884199D02*
X156500000Y-92750000D01*
X155691199Y-111693000D02*
X156500000Y-110884199D01*
G04 #@! TO.N,/I2S_MCLK*
X158725008Y-110324992D02*
X158525000Y-110525000D01*
X157250000Y-90750000D02*
X158725008Y-92225008D01*
X158725008Y-92225008D02*
X158725008Y-110324992D01*
G04 #@! TO.N,/LCD_CS*
X163584904Y-115950000D02*
X164490000Y-115950000D01*
X158875197Y-115950000D02*
X163584904Y-115950000D01*
X154750000Y-111824803D02*
X158875197Y-115950000D01*
X154750000Y-104750000D02*
X154750000Y-111824803D01*
G04 #@! TO.N,/LCD_SPI_SCK*
X153737346Y-104762651D02*
X153737346Y-105328336D01*
X153737346Y-105328336D02*
X154250000Y-105840990D01*
X171470001Y-116589999D02*
X172110000Y-115950000D01*
X171144999Y-116915001D02*
X171470001Y-116589999D01*
X159203788Y-116915001D02*
X171144999Y-116915001D01*
X154250000Y-111961213D02*
X159203788Y-116915001D01*
X154250000Y-105840990D02*
X154250000Y-111961213D01*
G04 #@! TO.N,/LCD_SPI_MISO*
X159902377Y-118250000D02*
X169250000Y-118250000D01*
X152865067Y-105251660D02*
X152865067Y-111212690D01*
X152865067Y-111212690D02*
X159902377Y-118250000D01*
G04 #@! TO.N,/LCD_SPI_MOSI*
X174010001Y-116589999D02*
X174650000Y-115950000D01*
X171624999Y-118975001D02*
X174010001Y-116589999D01*
X159990968Y-118975001D02*
X171624999Y-118975001D01*
X152000000Y-110984033D02*
X159990968Y-118975001D01*
X152000000Y-104750000D02*
X152000000Y-110984033D01*
X175500000Y-115100000D02*
X174650000Y-115950000D01*
X175500000Y-112000000D02*
X175500000Y-115100000D01*
G04 #@! TD*
D25*
G04 #@! TO.N,GNDA*
G36*
X200265001Y-74474843D02*
X198444084Y-72653926D01*
X198514484Y-72300000D01*
X198397678Y-71712778D01*
X198065044Y-71214956D01*
X197567222Y-70882322D01*
X197128226Y-70795000D01*
X196371774Y-70795000D01*
X195932778Y-70882322D01*
X195434956Y-71214956D01*
X195102322Y-71712778D01*
X194985516Y-72300000D01*
X195102322Y-72887222D01*
X195434956Y-73385044D01*
X195711762Y-73570000D01*
X195434956Y-73754956D01*
X195102322Y-74252778D01*
X194985516Y-74840000D01*
X195102322Y-75427222D01*
X195434956Y-75925044D01*
X195711762Y-76110000D01*
X195517203Y-76240000D01*
X188635000Y-76240000D01*
X188635000Y-75978585D01*
X187853243Y-74091256D01*
X186408744Y-72646757D01*
X184521415Y-71865000D01*
X182478585Y-71865000D01*
X180591256Y-72646757D01*
X179146757Y-74091256D01*
X178365000Y-75978585D01*
X178365000Y-78021415D01*
X179146757Y-79908744D01*
X180591256Y-81353243D01*
X182478585Y-82135000D01*
X184521415Y-82135000D01*
X186408744Y-81353243D01*
X187853243Y-79908744D01*
X188635000Y-78021415D01*
X188635000Y-77760000D01*
X195061103Y-77760000D01*
X195102322Y-77967222D01*
X195434956Y-78465044D01*
X195711762Y-78650000D01*
X195434956Y-78834956D01*
X195217769Y-79160000D01*
X192404844Y-79160000D01*
X192329996Y-79145112D01*
X192255148Y-79160000D01*
X192255144Y-79160000D01*
X192033459Y-79204096D01*
X191782067Y-79372071D01*
X191739667Y-79435527D01*
X182960195Y-88215000D01*
X182794122Y-88215000D01*
X182413716Y-88372569D01*
X182122565Y-88663720D01*
X181964996Y-89044126D01*
X181964996Y-89455874D01*
X182122565Y-89836280D01*
X182413716Y-90127431D01*
X182794122Y-90285000D01*
X183205870Y-90285000D01*
X183586276Y-90127431D01*
X183877427Y-89836280D01*
X184034996Y-89455874D01*
X184034996Y-89289801D01*
X192644798Y-80680000D01*
X195217769Y-80680000D01*
X195434956Y-81005044D01*
X195711762Y-81190000D01*
X195434956Y-81374956D01*
X195102322Y-81872778D01*
X194985516Y-82460000D01*
X195102322Y-83047222D01*
X195434956Y-83545044D01*
X195500122Y-83588587D01*
X195265414Y-83745414D01*
X195070873Y-84036564D01*
X195002560Y-84379999D01*
X195002560Y-85620001D01*
X195070873Y-85963436D01*
X195265414Y-86254586D01*
X195556564Y-86449127D01*
X195899999Y-86517440D01*
X197157757Y-86517440D01*
X194863531Y-88811668D01*
X194800072Y-88854070D01*
X194632097Y-89105463D01*
X194588001Y-89327148D01*
X194588001Y-89327152D01*
X194573113Y-89401999D01*
X194588001Y-89476846D01*
X194588002Y-93300379D01*
X194413720Y-93372569D01*
X194321289Y-93465000D01*
X178495151Y-93465000D01*
X178458257Y-93409784D01*
X178437481Y-93378690D01*
X178437479Y-93378688D01*
X178393685Y-93313146D01*
X178328143Y-93269352D01*
X167852917Y-82794126D01*
X173215000Y-82794126D01*
X173215000Y-83205874D01*
X173372569Y-83586280D01*
X173663720Y-83877431D01*
X174044126Y-84035000D01*
X174455874Y-84035000D01*
X174836280Y-83877431D01*
X175127431Y-83586280D01*
X175285000Y-83205874D01*
X175285000Y-82794126D01*
X175127431Y-82413720D01*
X175010000Y-82296289D01*
X175010000Y-70314801D01*
X175039801Y-70285000D01*
X175205874Y-70285000D01*
X175586280Y-70127431D01*
X175877431Y-69836280D01*
X176035000Y-69455874D01*
X176035000Y-69044126D01*
X175877431Y-68663720D01*
X175586280Y-68372569D01*
X175205874Y-68215000D01*
X174794126Y-68215000D01*
X174413720Y-68372569D01*
X174122569Y-68663720D01*
X173965000Y-69044126D01*
X173965000Y-69210199D01*
X173765530Y-69409669D01*
X173702071Y-69452071D01*
X173534096Y-69703464D01*
X173490000Y-69925149D01*
X173490000Y-69925153D01*
X173475112Y-70000000D01*
X173490000Y-70074847D01*
X173490001Y-82296288D01*
X173372569Y-82413720D01*
X173215000Y-82794126D01*
X167852917Y-82794126D01*
X162798289Y-77739499D01*
X162754493Y-77673954D01*
X162494832Y-77500453D01*
X162265856Y-77454907D01*
X162265852Y-77454907D01*
X162188540Y-77439529D01*
X162111228Y-77454907D01*
X151087405Y-77454907D01*
X151010093Y-77439529D01*
X150932781Y-77454907D01*
X150932777Y-77454907D01*
X150703801Y-77500453D01*
X150444140Y-77673954D01*
X150400344Y-77739499D01*
X149674843Y-78465000D01*
X149544126Y-78465000D01*
X149163720Y-78622569D01*
X148872569Y-78913720D01*
X148715000Y-79294126D01*
X148715000Y-79705874D01*
X148872569Y-80086280D01*
X149163720Y-80377431D01*
X149258506Y-80416693D01*
X149210198Y-80465000D01*
X149044126Y-80465000D01*
X148663720Y-80622569D01*
X148372569Y-80913720D01*
X148215000Y-81294126D01*
X148215000Y-81460198D01*
X147815518Y-81859681D01*
X147752062Y-81902081D01*
X147709662Y-81965537D01*
X147709661Y-81965538D01*
X147584087Y-82153473D01*
X147525102Y-82450010D01*
X147539991Y-82524862D01*
X147539991Y-82715000D01*
X147294126Y-82715000D01*
X146913720Y-82872569D01*
X146622569Y-83163720D01*
X146465000Y-83544126D01*
X146465000Y-83955874D01*
X146622569Y-84336280D01*
X146740001Y-84453712D01*
X146740001Y-84715000D01*
X146544126Y-84715000D01*
X146163720Y-84872569D01*
X146046289Y-84990000D01*
X137564803Y-84990000D01*
X124535000Y-71960199D01*
X124535000Y-71794126D01*
X124377431Y-71413720D01*
X124086280Y-71122569D01*
X123705874Y-70965000D01*
X123294126Y-70965000D01*
X122913720Y-71122569D01*
X122622569Y-71413720D01*
X122465000Y-71794126D01*
X122465000Y-72205874D01*
X122622569Y-72586280D01*
X122913720Y-72877431D01*
X123294126Y-73035000D01*
X123460199Y-73035000D01*
X136659673Y-86234476D01*
X136702071Y-86297929D01*
X136765524Y-86340327D01*
X136765526Y-86340329D01*
X136890902Y-86424102D01*
X136953463Y-86465904D01*
X137175148Y-86510000D01*
X137175152Y-86510000D01*
X137249999Y-86524888D01*
X137324846Y-86510000D01*
X146046289Y-86510000D01*
X146163720Y-86627431D01*
X146544126Y-86785000D01*
X146740001Y-86785000D01*
X146740000Y-89685198D01*
X140625001Y-95800198D01*
X136785000Y-91960199D01*
X136785000Y-91794126D01*
X136627431Y-91413720D01*
X136336280Y-91122569D01*
X135955874Y-90965000D01*
X135544126Y-90965000D01*
X135163720Y-91122569D01*
X134872569Y-91413720D01*
X134715000Y-91794126D01*
X134715000Y-92205874D01*
X134872569Y-92586280D01*
X135163720Y-92877431D01*
X135544126Y-93035000D01*
X135710199Y-93035000D01*
X139737506Y-97062309D01*
X139740000Y-97074847D01*
X139740000Y-97074851D01*
X139740001Y-97074856D01*
X139740000Y-106546289D01*
X139622569Y-106663720D01*
X139465000Y-107044126D01*
X139465000Y-107455874D01*
X139465610Y-107457347D01*
X133221089Y-107457347D01*
X133146242Y-107442459D01*
X133071395Y-107457347D01*
X133071391Y-107457347D01*
X132849706Y-107501443D01*
X132598314Y-107669418D01*
X132555914Y-107732874D01*
X116390506Y-123898283D01*
X116327050Y-123940683D01*
X116159075Y-124192075D01*
X116114979Y-124413760D01*
X116114979Y-124413764D01*
X116100091Y-124488611D01*
X116114979Y-124563458D01*
X116114979Y-125202581D01*
X116007809Y-125042191D01*
X115797765Y-124901843D01*
X115550000Y-124852560D01*
X113472241Y-124852560D01*
X116789802Y-121535000D01*
X116955874Y-121535000D01*
X117336280Y-121377431D01*
X117627431Y-121086280D01*
X117785000Y-120705874D01*
X117785000Y-120294126D01*
X117627431Y-119913720D01*
X117336280Y-119622569D01*
X116955874Y-119465000D01*
X116544126Y-119465000D01*
X116163720Y-119622569D01*
X115872569Y-119913720D01*
X115715000Y-120294126D01*
X115715000Y-120460198D01*
X114138093Y-122037106D01*
X114131362Y-121902632D01*
X113972397Y-121518857D01*
X113730213Y-121449392D01*
X112929605Y-122250000D01*
X112943748Y-122264143D01*
X112764143Y-122443748D01*
X112750000Y-122429605D01*
X111949392Y-123230213D01*
X112018857Y-123472397D01*
X112522956Y-123652242D01*
X110765530Y-125409669D01*
X110702071Y-125452071D01*
X110534096Y-125703464D01*
X110490000Y-125925149D01*
X110490000Y-125925153D01*
X110475112Y-126000000D01*
X110490000Y-126074847D01*
X110490001Y-149435197D01*
X109309218Y-150615980D01*
X109277881Y-150603000D01*
X108722119Y-150603000D01*
X108208663Y-150815680D01*
X107815680Y-151208663D01*
X107603000Y-151722119D01*
X107603000Y-152277881D01*
X107815680Y-152791337D01*
X108208663Y-153184320D01*
X108722119Y-153397000D01*
X109277881Y-153397000D01*
X109791337Y-153184320D01*
X109995444Y-152980213D01*
X111949392Y-152980213D01*
X112018857Y-153222397D01*
X112542302Y-153409144D01*
X113097368Y-153381362D01*
X113481143Y-153222397D01*
X113550608Y-152980213D01*
X112750000Y-152179605D01*
X111949392Y-152980213D01*
X109995444Y-152980213D01*
X110184320Y-152791337D01*
X110397000Y-152277881D01*
X110397000Y-151792302D01*
X111340856Y-151792302D01*
X111368638Y-152347368D01*
X111527603Y-152731143D01*
X111769787Y-152800608D01*
X112570395Y-152000000D01*
X112929605Y-152000000D01*
X113730213Y-152800608D01*
X113972397Y-152731143D01*
X114159144Y-152207698D01*
X114131362Y-151652632D01*
X113972397Y-151268857D01*
X113730213Y-151199392D01*
X112929605Y-152000000D01*
X112570395Y-152000000D01*
X111769787Y-151199392D01*
X111527603Y-151268857D01*
X111340856Y-151792302D01*
X110397000Y-151792302D01*
X110397000Y-151722119D01*
X110384020Y-151690782D01*
X111055015Y-151019787D01*
X111949392Y-151019787D01*
X112750000Y-151820395D01*
X113550608Y-151019787D01*
X113481143Y-150777603D01*
X112957698Y-150590856D01*
X112402632Y-150618638D01*
X112018857Y-150777603D01*
X111949392Y-151019787D01*
X111055015Y-151019787D01*
X111734473Y-150340329D01*
X111797929Y-150297929D01*
X111965904Y-150046537D01*
X112010000Y-149824852D01*
X112010000Y-149824848D01*
X112024888Y-149750000D01*
X112010000Y-149675152D01*
X112010000Y-143834802D01*
X112092191Y-143957809D01*
X112302235Y-144098157D01*
X112550000Y-144147440D01*
X115550000Y-144147440D01*
X115797765Y-144098157D01*
X116007809Y-143957809D01*
X116148157Y-143747765D01*
X116197440Y-143500000D01*
X116197440Y-140500000D01*
X116148157Y-140252235D01*
X116007809Y-140042191D01*
X115797765Y-139901843D01*
X115550000Y-139852560D01*
X112550000Y-139852560D01*
X112302235Y-139901843D01*
X112092191Y-140042191D01*
X112010000Y-140165198D01*
X112010000Y-138191518D01*
X112018857Y-138222397D01*
X112542302Y-138409144D01*
X113097368Y-138381362D01*
X113481143Y-138222397D01*
X113550608Y-137980213D01*
X112750000Y-137179605D01*
X112735858Y-137193748D01*
X112556253Y-137014143D01*
X112570395Y-137000000D01*
X112929605Y-137000000D01*
X113730213Y-137800608D01*
X113972397Y-137731143D01*
X114159144Y-137207698D01*
X114131362Y-136652632D01*
X113972397Y-136268857D01*
X113730213Y-136199392D01*
X112929605Y-137000000D01*
X112570395Y-137000000D01*
X112556253Y-136985858D01*
X112735858Y-136806253D01*
X112750000Y-136820395D01*
X113550608Y-136019787D01*
X113481143Y-135777603D01*
X112957698Y-135590856D01*
X112402632Y-135618638D01*
X112018857Y-135777603D01*
X112010000Y-135808482D01*
X112010000Y-128834802D01*
X112092191Y-128957809D01*
X112302235Y-129098157D01*
X112550000Y-129147440D01*
X115550000Y-129147440D01*
X115797765Y-129098157D01*
X116007809Y-128957809D01*
X116114980Y-128797418D01*
X116114981Y-133537950D01*
X116100092Y-133612802D01*
X116114981Y-133687653D01*
X116114981Y-133687654D01*
X116159077Y-133909339D01*
X116327052Y-134160731D01*
X116390508Y-134203131D01*
X121421849Y-139234473D01*
X121464249Y-139297929D01*
X121715641Y-139465904D01*
X121937326Y-139510000D01*
X121937330Y-139510000D01*
X122012177Y-139524888D01*
X122053047Y-139516758D01*
X122163720Y-139627431D01*
X122544126Y-139785000D01*
X122955874Y-139785000D01*
X123336280Y-139627431D01*
X123627431Y-139336280D01*
X123785000Y-138955874D01*
X123785000Y-138544126D01*
X123627431Y-138163720D01*
X123336280Y-137872569D01*
X122955874Y-137715000D01*
X122544126Y-137715000D01*
X122196126Y-137859146D01*
X119096979Y-134760000D01*
X123935199Y-134760000D01*
X128009674Y-138834477D01*
X128052072Y-138897930D01*
X128115525Y-138940328D01*
X128115527Y-138940330D01*
X128240903Y-139024103D01*
X128303464Y-139065905D01*
X128525149Y-139110001D01*
X128525153Y-139110001D01*
X128600000Y-139124889D01*
X128674847Y-139110001D01*
X133528841Y-139110001D01*
X133622569Y-139336280D01*
X133913720Y-139627431D01*
X134294126Y-139785000D01*
X134705874Y-139785000D01*
X135086280Y-139627431D01*
X135377431Y-139336280D01*
X135535000Y-138955874D01*
X135535000Y-138544126D01*
X135377431Y-138163720D01*
X135086280Y-137872569D01*
X134705874Y-137715000D01*
X134517618Y-137715000D01*
X134396538Y-137634097D01*
X134174853Y-137590001D01*
X134174848Y-137590001D01*
X134100001Y-137575113D01*
X134025154Y-137590001D01*
X128914804Y-137590001D01*
X125389802Y-134065001D01*
X138674515Y-134065001D01*
X143593986Y-138984473D01*
X143636386Y-139047929D01*
X143887778Y-139215904D01*
X144030603Y-139244314D01*
X144163720Y-139377431D01*
X144544126Y-139535000D01*
X144955874Y-139535000D01*
X145336280Y-139377431D01*
X145627431Y-139086280D01*
X145785000Y-138705874D01*
X145785000Y-138294126D01*
X145627431Y-137913720D01*
X145336280Y-137622569D01*
X144955874Y-137465000D01*
X144544126Y-137465000D01*
X144317845Y-137558728D01*
X140219238Y-133460122D01*
X140409507Y-133381310D01*
X140841310Y-132949507D01*
X141075000Y-132385330D01*
X141075000Y-131774670D01*
X140841310Y-131210493D01*
X140409507Y-130778690D01*
X139845330Y-130545000D01*
X139234670Y-130545000D01*
X138670493Y-130778690D01*
X138494139Y-130955044D01*
X138438327Y-130820301D01*
X138259698Y-130641673D01*
X138026309Y-130545000D01*
X137285750Y-130545000D01*
X137127000Y-130703750D01*
X137127000Y-131953000D01*
X137147000Y-131953000D01*
X137147000Y-132207000D01*
X137127000Y-132207000D01*
X137127000Y-132227000D01*
X136873000Y-132227000D01*
X136873000Y-132207000D01*
X135623750Y-132207000D01*
X135465000Y-132365750D01*
X135465000Y-132545001D01*
X135008862Y-132545001D01*
X135075000Y-132385330D01*
X135075000Y-131774670D01*
X134841310Y-131210493D01*
X134684507Y-131053690D01*
X135465000Y-131053690D01*
X135465000Y-131794250D01*
X135623750Y-131953000D01*
X136873000Y-131953000D01*
X136873000Y-130703750D01*
X136714250Y-130545000D01*
X135973691Y-130545000D01*
X135740302Y-130641673D01*
X135561673Y-130820301D01*
X135465000Y-131053690D01*
X134684507Y-131053690D01*
X134409507Y-130778690D01*
X133845330Y-130545000D01*
X133234670Y-130545000D01*
X132670493Y-130778690D01*
X132494139Y-130955044D01*
X132438327Y-130820301D01*
X132259698Y-130641673D01*
X132026309Y-130545000D01*
X131285750Y-130545000D01*
X131127000Y-130703750D01*
X131127000Y-131953000D01*
X131147000Y-131953000D01*
X131147000Y-132207000D01*
X131127000Y-132207000D01*
X131127000Y-132227000D01*
X130873000Y-132227000D01*
X130873000Y-132207000D01*
X129623750Y-132207000D01*
X129465000Y-132365750D01*
X129465000Y-132545001D01*
X129008862Y-132545001D01*
X129075000Y-132385330D01*
X129075000Y-131774670D01*
X128841310Y-131210493D01*
X128684507Y-131053690D01*
X129465000Y-131053690D01*
X129465000Y-131794250D01*
X129623750Y-131953000D01*
X130873000Y-131953000D01*
X130873000Y-130703750D01*
X130714250Y-130545000D01*
X129973691Y-130545000D01*
X129740302Y-130641673D01*
X129561673Y-130820301D01*
X129465000Y-131053690D01*
X128684507Y-131053690D01*
X128409507Y-130778690D01*
X127845330Y-130545000D01*
X127234670Y-130545000D01*
X126670493Y-130778690D01*
X126494139Y-130955044D01*
X126438327Y-130820301D01*
X126259698Y-130641673D01*
X126026309Y-130545000D01*
X125285750Y-130545000D01*
X125127000Y-130703750D01*
X125127000Y-131953000D01*
X125147000Y-131953000D01*
X125147000Y-132207000D01*
X125127000Y-132207000D01*
X125127000Y-132227000D01*
X124873000Y-132227000D01*
X124873000Y-132207000D01*
X123623750Y-132207000D01*
X123465000Y-132365750D01*
X123465000Y-132545001D01*
X123008862Y-132545001D01*
X123075000Y-132385330D01*
X123075000Y-131774670D01*
X122841310Y-131210493D01*
X122684507Y-131053690D01*
X123465000Y-131053690D01*
X123465000Y-131794250D01*
X123623750Y-131953000D01*
X124873000Y-131953000D01*
X124873000Y-130703750D01*
X124714250Y-130545000D01*
X123973691Y-130545000D01*
X123740302Y-130641673D01*
X123561673Y-130820301D01*
X123465000Y-131053690D01*
X122684507Y-131053690D01*
X122409507Y-130778690D01*
X121845330Y-130545000D01*
X121234670Y-130545000D01*
X120670493Y-130778690D01*
X120494139Y-130955044D01*
X120438327Y-130820301D01*
X120259698Y-130641673D01*
X120026309Y-130545000D01*
X119285750Y-130545000D01*
X119127000Y-130703750D01*
X119127000Y-131953000D01*
X119147000Y-131953000D01*
X119147000Y-132207000D01*
X119127000Y-132207000D01*
X119127000Y-132227000D01*
X118873000Y-132227000D01*
X118873000Y-132207000D01*
X118853000Y-132207000D01*
X118853000Y-131953000D01*
X118873000Y-131953000D01*
X118873000Y-130703750D01*
X118714250Y-130545000D01*
X118534999Y-130545000D01*
X118534999Y-125466800D01*
X119519044Y-124482755D01*
X119663720Y-124627431D01*
X120044126Y-124785000D01*
X120455874Y-124785000D01*
X120836280Y-124627431D01*
X121127431Y-124336280D01*
X121285000Y-123955874D01*
X121285000Y-123789802D01*
X122064803Y-123010000D01*
X125776289Y-123010000D01*
X125622569Y-123163720D01*
X125465000Y-123544126D01*
X125465000Y-123955874D01*
X125622569Y-124336280D01*
X125913720Y-124627431D01*
X126294126Y-124785000D01*
X126705874Y-124785000D01*
X127086280Y-124627431D01*
X127377431Y-124336280D01*
X127535000Y-123955874D01*
X127535000Y-123789801D01*
X127739813Y-123584989D01*
X131465000Y-123584989D01*
X131465000Y-123955874D01*
X131622569Y-124336280D01*
X131913720Y-124627431D01*
X132294126Y-124785000D01*
X132705874Y-124785000D01*
X133086280Y-124627431D01*
X133377431Y-124336280D01*
X133502225Y-124034999D01*
X137465000Y-124034999D01*
X137465000Y-124205874D01*
X137622569Y-124586280D01*
X137913720Y-124877431D01*
X138294126Y-125035000D01*
X138705874Y-125035000D01*
X139086280Y-124877431D01*
X139203711Y-124760000D01*
X149425153Y-124760000D01*
X149500000Y-124774888D01*
X149574847Y-124760000D01*
X149574852Y-124760000D01*
X149796537Y-124715904D01*
X150047929Y-124547929D01*
X150090331Y-124484470D01*
X154709477Y-119865326D01*
X154772930Y-119822928D01*
X154815328Y-119759475D01*
X154815330Y-119759473D01*
X154940904Y-119571537D01*
X154940905Y-119571536D01*
X154985001Y-119349851D01*
X154985001Y-119349847D01*
X154999889Y-119275000D01*
X154985001Y-119200153D01*
X154985001Y-116873711D01*
X154988721Y-116877431D01*
X155369127Y-117035000D01*
X155780875Y-117035000D01*
X156161281Y-116877431D01*
X156452432Y-116586280D01*
X156474403Y-116533238D01*
X159400641Y-119459477D01*
X159443039Y-119522930D01*
X159506492Y-119565328D01*
X159506494Y-119565330D01*
X159592159Y-119622569D01*
X159694431Y-119690905D01*
X159916116Y-119735001D01*
X159916120Y-119735001D01*
X159990967Y-119749889D01*
X160065814Y-119735001D01*
X171550152Y-119735001D01*
X171624999Y-119749889D01*
X171699846Y-119735001D01*
X171699851Y-119735001D01*
X171921536Y-119690905D01*
X172172928Y-119522930D01*
X172215330Y-119459471D01*
X174449802Y-117225000D01*
X174804842Y-117225000D01*
X165945000Y-126084843D01*
X165359749Y-125499592D01*
X165315953Y-125434047D01*
X165056292Y-125260546D01*
X164827316Y-125215000D01*
X164827312Y-125215000D01*
X164750000Y-125199622D01*
X164672688Y-125215000D01*
X148928711Y-125215000D01*
X148836280Y-125122569D01*
X148455874Y-124965000D01*
X148044126Y-124965000D01*
X147663720Y-125122569D01*
X147372569Y-125413720D01*
X147215000Y-125794126D01*
X147215000Y-126205874D01*
X147372569Y-126586280D01*
X147663720Y-126877431D01*
X148044126Y-127035000D01*
X148455874Y-127035000D01*
X148836280Y-126877431D01*
X148928711Y-126785000D01*
X164424843Y-126785000D01*
X164889842Y-127250000D01*
X153249590Y-138890253D01*
X153184048Y-138934047D01*
X153140254Y-138999589D01*
X153140251Y-138999592D01*
X153010546Y-139193709D01*
X152949622Y-139500000D01*
X152965001Y-139577317D01*
X152965000Y-151571289D01*
X152872569Y-151663720D01*
X152715000Y-152044126D01*
X152715000Y-152455874D01*
X152872569Y-152836280D01*
X153163720Y-153127431D01*
X153544126Y-153285000D01*
X153955874Y-153285000D01*
X154336280Y-153127431D01*
X154627431Y-152836280D01*
X154785000Y-152455874D01*
X154785000Y-152044126D01*
X154627431Y-151663720D01*
X154535000Y-151571289D01*
X154535000Y-139825157D01*
X166500411Y-127859747D01*
X166565953Y-127815953D01*
X166609747Y-127750411D01*
X166609749Y-127750409D01*
X166609751Y-127750406D01*
X166640408Y-127719749D01*
X166705953Y-127675953D01*
X166879454Y-127416292D01*
X166890774Y-127359383D01*
X177025158Y-117225000D01*
X177443613Y-117225000D01*
X177912230Y-117030893D01*
X178208123Y-116735000D01*
X178711877Y-116735000D01*
X179007770Y-117030893D01*
X179476387Y-117225000D01*
X179983613Y-117225000D01*
X180452230Y-117030893D01*
X180810893Y-116672230D01*
X181000000Y-116215684D01*
X181189107Y-116672230D01*
X181547770Y-117030893D01*
X182016387Y-117225000D01*
X182523613Y-117225000D01*
X182992230Y-117030893D01*
X183350893Y-116672230D01*
X183540000Y-116215684D01*
X183729107Y-116672230D01*
X184087770Y-117030893D01*
X184556387Y-117225000D01*
X185063613Y-117225000D01*
X185532230Y-117030893D01*
X185890893Y-116672230D01*
X186080000Y-116215684D01*
X186269107Y-116672230D01*
X186627770Y-117030893D01*
X187096387Y-117225000D01*
X187603613Y-117225000D01*
X188072230Y-117030893D01*
X188430893Y-116672230D01*
X188620000Y-116215684D01*
X188809107Y-116672230D01*
X189167770Y-117030893D01*
X189636387Y-117225000D01*
X190143613Y-117225000D01*
X190612230Y-117030893D01*
X190970893Y-116672230D01*
X191160000Y-116215684D01*
X191349107Y-116672230D01*
X191707770Y-117030893D01*
X192176387Y-117225000D01*
X192683613Y-117225000D01*
X193152230Y-117030893D01*
X193510893Y-116672230D01*
X193700000Y-116215684D01*
X193889107Y-116672230D01*
X194247770Y-117030893D01*
X194716387Y-117225000D01*
X195223613Y-117225000D01*
X195692230Y-117030893D01*
X196050893Y-116672230D01*
X196240000Y-116215684D01*
X196429107Y-116672230D01*
X196787770Y-117030893D01*
X197256387Y-117225000D01*
X197763613Y-117225000D01*
X198232230Y-117030893D01*
X198590893Y-116672230D01*
X198785000Y-116203613D01*
X198785000Y-115696387D01*
X198590893Y-115227770D01*
X198232230Y-114869107D01*
X197763613Y-114675000D01*
X197256387Y-114675000D01*
X196787770Y-114869107D01*
X196429107Y-115227770D01*
X196240000Y-115684316D01*
X196050893Y-115227770D01*
X195692230Y-114869107D01*
X195223613Y-114675000D01*
X194716387Y-114675000D01*
X194247770Y-114869107D01*
X193889107Y-115227770D01*
X193700000Y-115684316D01*
X193510893Y-115227770D01*
X193152230Y-114869107D01*
X192683613Y-114675000D01*
X192176387Y-114675000D01*
X191707770Y-114869107D01*
X191349107Y-115227770D01*
X191160000Y-115684316D01*
X190970893Y-115227770D01*
X190612230Y-114869107D01*
X190143613Y-114675000D01*
X189636387Y-114675000D01*
X189167770Y-114869107D01*
X188809107Y-115227770D01*
X188620000Y-115684316D01*
X188430893Y-115227770D01*
X188072230Y-114869107D01*
X187603613Y-114675000D01*
X187096387Y-114675000D01*
X186627770Y-114869107D01*
X186269107Y-115227770D01*
X186080000Y-115684316D01*
X185890893Y-115227770D01*
X185532230Y-114869107D01*
X185063613Y-114675000D01*
X184556387Y-114675000D01*
X184087770Y-114869107D01*
X183729107Y-115227770D01*
X183540000Y-115684316D01*
X183350893Y-115227770D01*
X182992230Y-114869107D01*
X182523613Y-114675000D01*
X182115157Y-114675000D01*
X193340157Y-103450000D01*
X195333949Y-103450000D01*
X195456964Y-104068436D01*
X195807279Y-104592721D01*
X196331564Y-104943036D01*
X196793897Y-105035000D01*
X198706103Y-105035000D01*
X199168436Y-104943036D01*
X199692721Y-104592721D01*
X200043036Y-104068436D01*
X200166051Y-103450000D01*
X200043036Y-102831564D01*
X199692721Y-102307279D01*
X199168436Y-101956964D01*
X198706103Y-101865000D01*
X196793897Y-101865000D01*
X196331564Y-101956964D01*
X195807279Y-102307279D01*
X195456964Y-102831564D01*
X195333949Y-103450000D01*
X193340157Y-103450000D01*
X196565000Y-100225158D01*
X196565000Y-100235711D01*
X196745405Y-100671249D01*
X197078751Y-101004595D01*
X197514289Y-101185000D01*
X197985711Y-101185000D01*
X198421249Y-101004595D01*
X198754595Y-100671249D01*
X198935000Y-100235711D01*
X198935000Y-99764289D01*
X198754595Y-99328751D01*
X198421249Y-98995405D01*
X197985711Y-98815000D01*
X197975158Y-98815000D01*
X200265001Y-96525157D01*
X200265000Y-154265000D01*
X198785000Y-154265000D01*
X198785000Y-153796387D01*
X198590893Y-153327770D01*
X198232230Y-152969107D01*
X197763613Y-152775000D01*
X197256387Y-152775000D01*
X196787770Y-152969107D01*
X196429107Y-153327770D01*
X196240000Y-153784316D01*
X196050893Y-153327770D01*
X195692230Y-152969107D01*
X195223613Y-152775000D01*
X194716387Y-152775000D01*
X194247770Y-152969107D01*
X193889107Y-153327770D01*
X193695000Y-153796387D01*
X193695000Y-154265000D01*
X168305000Y-154265000D01*
X168305000Y-153796387D01*
X168110893Y-153327770D01*
X167752230Y-152969107D01*
X167283613Y-152775000D01*
X166776387Y-152775000D01*
X166307770Y-152969107D01*
X165949107Y-153327770D01*
X165760000Y-153784316D01*
X165570893Y-153327770D01*
X165212230Y-152969107D01*
X164743613Y-152775000D01*
X164236387Y-152775000D01*
X163767770Y-152969107D01*
X163409107Y-153327770D01*
X163215000Y-153796387D01*
X163215000Y-154265000D01*
X101735000Y-154265000D01*
X101735000Y-151722119D01*
X103853000Y-151722119D01*
X103853000Y-152277881D01*
X104065680Y-152791337D01*
X104458663Y-153184320D01*
X104972119Y-153397000D01*
X105527881Y-153397000D01*
X106041337Y-153184320D01*
X106434320Y-152791337D01*
X106647000Y-152277881D01*
X106647000Y-151722119D01*
X106434320Y-151208663D01*
X106041337Y-150815680D01*
X105527881Y-150603000D01*
X104972119Y-150603000D01*
X104458663Y-150815680D01*
X104065680Y-151208663D01*
X103853000Y-151722119D01*
X101735000Y-151722119D01*
X101735000Y-140500000D01*
X101802560Y-140500000D01*
X101802560Y-143500000D01*
X101851843Y-143747765D01*
X101992191Y-143957809D01*
X102202235Y-144098157D01*
X102450000Y-144147440D01*
X105450000Y-144147440D01*
X105697765Y-144098157D01*
X105907809Y-143957809D01*
X106048157Y-143747765D01*
X106097440Y-143500000D01*
X106097440Y-140500000D01*
X106048157Y-140252235D01*
X105907809Y-140042191D01*
X105697765Y-139901843D01*
X105450000Y-139852560D01*
X102450000Y-139852560D01*
X102202235Y-139901843D01*
X101992191Y-140042191D01*
X101851843Y-140252235D01*
X101802560Y-140500000D01*
X101735000Y-140500000D01*
X101735000Y-136722119D01*
X103853000Y-136722119D01*
X103853000Y-137277881D01*
X104065680Y-137791337D01*
X104458663Y-138184320D01*
X104972119Y-138397000D01*
X105527881Y-138397000D01*
X106041337Y-138184320D01*
X106434320Y-137791337D01*
X106647000Y-137277881D01*
X106647000Y-136722119D01*
X107603000Y-136722119D01*
X107603000Y-137277881D01*
X107815680Y-137791337D01*
X108208663Y-138184320D01*
X108722119Y-138397000D01*
X109277881Y-138397000D01*
X109791337Y-138184320D01*
X110184320Y-137791337D01*
X110397000Y-137277881D01*
X110397000Y-136722119D01*
X110184320Y-136208663D01*
X109791337Y-135815680D01*
X109277881Y-135603000D01*
X108722119Y-135603000D01*
X108208663Y-135815680D01*
X107815680Y-136208663D01*
X107603000Y-136722119D01*
X106647000Y-136722119D01*
X106434320Y-136208663D01*
X106041337Y-135815680D01*
X105527881Y-135603000D01*
X104972119Y-135603000D01*
X104458663Y-135815680D01*
X104065680Y-136208663D01*
X103853000Y-136722119D01*
X101735000Y-136722119D01*
X101735000Y-125500000D01*
X101802560Y-125500000D01*
X101802560Y-128500000D01*
X101851843Y-128747765D01*
X101992191Y-128957809D01*
X102202235Y-129098157D01*
X102450000Y-129147440D01*
X105450000Y-129147440D01*
X105697765Y-129098157D01*
X105907809Y-128957809D01*
X106048157Y-128747765D01*
X106097440Y-128500000D01*
X106097440Y-125500000D01*
X106048157Y-125252235D01*
X105907809Y-125042191D01*
X105697765Y-124901843D01*
X105450000Y-124852560D01*
X102450000Y-124852560D01*
X102202235Y-124901843D01*
X101992191Y-125042191D01*
X101851843Y-125252235D01*
X101802560Y-125500000D01*
X101735000Y-125500000D01*
X101735000Y-121972119D01*
X103853000Y-121972119D01*
X103853000Y-122527881D01*
X104065680Y-123041337D01*
X104458663Y-123434320D01*
X104972119Y-123647000D01*
X105527881Y-123647000D01*
X106041337Y-123434320D01*
X106434320Y-123041337D01*
X106647000Y-122527881D01*
X106647000Y-121972119D01*
X107603000Y-121972119D01*
X107603000Y-122527881D01*
X107815680Y-123041337D01*
X108208663Y-123434320D01*
X108722119Y-123647000D01*
X109277881Y-123647000D01*
X109791337Y-123434320D01*
X110184320Y-123041337D01*
X110397000Y-122527881D01*
X110397000Y-122042302D01*
X111340856Y-122042302D01*
X111368638Y-122597368D01*
X111527603Y-122981143D01*
X111769787Y-123050608D01*
X112570395Y-122250000D01*
X111769787Y-121449392D01*
X111527603Y-121518857D01*
X111340856Y-122042302D01*
X110397000Y-122042302D01*
X110397000Y-121972119D01*
X110184320Y-121458663D01*
X109995444Y-121269787D01*
X111949392Y-121269787D01*
X112750000Y-122070395D01*
X113550608Y-121269787D01*
X113481143Y-121027603D01*
X112957698Y-120840856D01*
X112402632Y-120868638D01*
X112018857Y-121027603D01*
X111949392Y-121269787D01*
X109995444Y-121269787D01*
X109791337Y-121065680D01*
X109277881Y-120853000D01*
X108722119Y-120853000D01*
X108208663Y-121065680D01*
X107815680Y-121458663D01*
X107603000Y-121972119D01*
X106647000Y-121972119D01*
X106434320Y-121458663D01*
X106041337Y-121065680D01*
X105527881Y-120853000D01*
X104972119Y-120853000D01*
X104458663Y-121065680D01*
X104065680Y-121458663D01*
X103853000Y-121972119D01*
X101735000Y-121972119D01*
X101735000Y-110750000D01*
X101802560Y-110750000D01*
X101802560Y-113750000D01*
X101851843Y-113997765D01*
X101992191Y-114207809D01*
X102202235Y-114348157D01*
X102450000Y-114397440D01*
X105450000Y-114397440D01*
X105697765Y-114348157D01*
X105907809Y-114207809D01*
X106048157Y-113997765D01*
X106097440Y-113750000D01*
X106097440Y-110750000D01*
X111902560Y-110750000D01*
X111902560Y-113750000D01*
X111951843Y-113997765D01*
X112092191Y-114207809D01*
X112302235Y-114348157D01*
X112550000Y-114397440D01*
X115550000Y-114397440D01*
X115797765Y-114348157D01*
X116007809Y-114207809D01*
X116148157Y-113997765D01*
X116197440Y-113750000D01*
X116197440Y-110750000D01*
X116148157Y-110502235D01*
X116007809Y-110292191D01*
X115797765Y-110151843D01*
X115550000Y-110102560D01*
X112550000Y-110102560D01*
X112302235Y-110151843D01*
X112092191Y-110292191D01*
X111951843Y-110502235D01*
X111902560Y-110750000D01*
X106097440Y-110750000D01*
X106048157Y-110502235D01*
X105907809Y-110292191D01*
X105697765Y-110151843D01*
X105450000Y-110102560D01*
X102450000Y-110102560D01*
X102202235Y-110151843D01*
X101992191Y-110292191D01*
X101851843Y-110502235D01*
X101802560Y-110750000D01*
X101735000Y-110750000D01*
X101735000Y-70978585D01*
X108365000Y-70978585D01*
X108365000Y-73021415D01*
X109146757Y-74908744D01*
X110591256Y-76353243D01*
X112478585Y-77135000D01*
X114521415Y-77135000D01*
X116408744Y-76353243D01*
X116575915Y-76186072D01*
X129390251Y-89000408D01*
X129434047Y-89065953D01*
X129693708Y-89239454D01*
X129922684Y-89285000D01*
X129922688Y-89285000D01*
X130000000Y-89300378D01*
X130077312Y-89285000D01*
X140071289Y-89285000D01*
X140163720Y-89377431D01*
X140544126Y-89535000D01*
X140955874Y-89535000D01*
X141336280Y-89377431D01*
X141627431Y-89086280D01*
X141785000Y-88705874D01*
X141785000Y-88294126D01*
X141627431Y-87913720D01*
X141336280Y-87622569D01*
X140955874Y-87465000D01*
X140544126Y-87465000D01*
X140163720Y-87622569D01*
X140071289Y-87715000D01*
X130325157Y-87715000D01*
X117686072Y-75075915D01*
X117853243Y-74908744D01*
X118635000Y-73021415D01*
X118635000Y-70978585D01*
X117853243Y-69091256D01*
X116408744Y-67646757D01*
X114521415Y-66865000D01*
X112478585Y-66865000D01*
X110591256Y-67646757D01*
X109146757Y-69091256D01*
X108365000Y-70978585D01*
X101735000Y-70978585D01*
X101735000Y-62544126D01*
X122215000Y-62544126D01*
X122215000Y-62955874D01*
X122372569Y-63336280D01*
X122663720Y-63627431D01*
X123044126Y-63785000D01*
X123210199Y-63785000D01*
X133690528Y-74265330D01*
X133690531Y-74265332D01*
X141159673Y-81734476D01*
X141202071Y-81797929D01*
X141265524Y-81840327D01*
X141265526Y-81840329D01*
X141309440Y-81869671D01*
X141453463Y-81965904D01*
X141675148Y-82010000D01*
X141675152Y-82010000D01*
X141749999Y-82024888D01*
X141824846Y-82010000D01*
X145546289Y-82010000D01*
X145663720Y-82127431D01*
X146044126Y-82285000D01*
X146455874Y-82285000D01*
X146836280Y-82127431D01*
X147127431Y-81836280D01*
X147285000Y-81455874D01*
X147285000Y-81044126D01*
X147127431Y-80663720D01*
X146836280Y-80372569D01*
X146455874Y-80215000D01*
X146044126Y-80215000D01*
X145663720Y-80372569D01*
X145546289Y-80490000D01*
X142064803Y-80490000D01*
X135077334Y-73502532D01*
X136677073Y-73502532D01*
X136775736Y-73769387D01*
X137385461Y-73995908D01*
X138035460Y-73971856D01*
X138524264Y-73769387D01*
X138622927Y-73502532D01*
X148377073Y-73502532D01*
X148475736Y-73769387D01*
X149085461Y-73995908D01*
X149735460Y-73971856D01*
X150224264Y-73769387D01*
X150322927Y-73502532D01*
X149350000Y-72529605D01*
X148377073Y-73502532D01*
X138622927Y-73502532D01*
X137650000Y-72529605D01*
X136677073Y-73502532D01*
X135077334Y-73502532D01*
X134765332Y-73190531D01*
X134765330Y-73190528D01*
X133660263Y-72085461D01*
X136004092Y-72085461D01*
X136028144Y-72735460D01*
X136230613Y-73224264D01*
X136497468Y-73322927D01*
X137470395Y-72350000D01*
X137829605Y-72350000D01*
X138802532Y-73322927D01*
X139069387Y-73224264D01*
X139295908Y-72614539D01*
X139276331Y-72085461D01*
X147704092Y-72085461D01*
X147728144Y-72735460D01*
X147930613Y-73224264D01*
X148197468Y-73322927D01*
X149170395Y-72350000D01*
X149529605Y-72350000D01*
X150502532Y-73322927D01*
X150769387Y-73224264D01*
X150995908Y-72614539D01*
X150971856Y-71964540D01*
X150769387Y-71475736D01*
X150502532Y-71377073D01*
X149529605Y-72350000D01*
X149170395Y-72350000D01*
X148197468Y-71377073D01*
X147930613Y-71475736D01*
X147704092Y-72085461D01*
X139276331Y-72085461D01*
X139271856Y-71964540D01*
X139069387Y-71475736D01*
X138802532Y-71377073D01*
X137829605Y-72350000D01*
X137470395Y-72350000D01*
X136497468Y-71377073D01*
X136230613Y-71475736D01*
X136004092Y-72085461D01*
X133660263Y-72085461D01*
X132772270Y-71197468D01*
X136677073Y-71197468D01*
X137650000Y-72170395D01*
X138622927Y-71197468D01*
X148377073Y-71197468D01*
X149350000Y-72170395D01*
X150322927Y-71197468D01*
X150224264Y-70930613D01*
X149614539Y-70704092D01*
X148964540Y-70728144D01*
X148475736Y-70930613D01*
X148377073Y-71197468D01*
X138622927Y-71197468D01*
X138524264Y-70930613D01*
X137914539Y-70704092D01*
X137264540Y-70728144D01*
X136775736Y-70930613D01*
X136677073Y-71197468D01*
X132772270Y-71197468D01*
X127249580Y-65674778D01*
X136015000Y-65674778D01*
X136015000Y-66325222D01*
X136263914Y-66926153D01*
X136723847Y-67386086D01*
X137324778Y-67635000D01*
X137975222Y-67635000D01*
X138576153Y-67386086D01*
X139036086Y-66926153D01*
X139285000Y-66325222D01*
X139285000Y-65674778D01*
X147715000Y-65674778D01*
X147715000Y-66325222D01*
X147963914Y-66926153D01*
X148423847Y-67386086D01*
X149024778Y-67635000D01*
X149675222Y-67635000D01*
X150276153Y-67386086D01*
X150736086Y-66926153D01*
X150985000Y-66325222D01*
X150985000Y-65674778D01*
X150736086Y-65073847D01*
X150276153Y-64613914D01*
X149675222Y-64365000D01*
X149024778Y-64365000D01*
X148423847Y-64613914D01*
X147963914Y-65073847D01*
X147715000Y-65674778D01*
X139285000Y-65674778D01*
X139036086Y-65073847D01*
X138576153Y-64613914D01*
X137975222Y-64365000D01*
X137324778Y-64365000D01*
X136723847Y-64613914D01*
X136263914Y-65073847D01*
X136015000Y-65674778D01*
X127249580Y-65674778D01*
X124285000Y-62710199D01*
X124285000Y-62544126D01*
X124127431Y-62163720D01*
X123836280Y-61872569D01*
X123455874Y-61715000D01*
X123044126Y-61715000D01*
X122663720Y-61872569D01*
X122372569Y-62163720D01*
X122215000Y-62544126D01*
X101735000Y-62544126D01*
X101735000Y-60624234D01*
X104865000Y-60624234D01*
X104865000Y-61075766D01*
X105037793Y-61492926D01*
X105357074Y-61812207D01*
X105774234Y-61985000D01*
X106225766Y-61985000D01*
X106642926Y-61812207D01*
X106962207Y-61492926D01*
X107135000Y-61075766D01*
X107135000Y-60624234D01*
X110865000Y-60624234D01*
X110865000Y-61075766D01*
X111037793Y-61492926D01*
X111357074Y-61812207D01*
X111774234Y-61985000D01*
X112225766Y-61985000D01*
X112642926Y-61812207D01*
X112962207Y-61492926D01*
X113135000Y-61075766D01*
X113135000Y-60624234D01*
X112962207Y-60207074D01*
X112642926Y-59887793D01*
X112225766Y-59715000D01*
X111774234Y-59715000D01*
X111357074Y-59887793D01*
X111037793Y-60207074D01*
X110865000Y-60624234D01*
X107135000Y-60624234D01*
X106962207Y-60207074D01*
X106642926Y-59887793D01*
X106225766Y-59715000D01*
X105774234Y-59715000D01*
X105357074Y-59887793D01*
X105037793Y-60207074D01*
X104865000Y-60624234D01*
X101735000Y-60624234D01*
X101735000Y-59324778D01*
X135965000Y-59324778D01*
X135965000Y-59975222D01*
X136213914Y-60576153D01*
X136673847Y-61036086D01*
X137274778Y-61285000D01*
X137925222Y-61285000D01*
X138526153Y-61036086D01*
X138986086Y-60576153D01*
X139235000Y-59975222D01*
X139235000Y-59324778D01*
X147765000Y-59324778D01*
X147765000Y-59975222D01*
X148013914Y-60576153D01*
X148473847Y-61036086D01*
X149074778Y-61285000D01*
X149725222Y-61285000D01*
X150326153Y-61036086D01*
X150786086Y-60576153D01*
X151035000Y-59975222D01*
X151035000Y-59324778D01*
X150879762Y-58950000D01*
X153452560Y-58950000D01*
X153452560Y-62450000D01*
X153501843Y-62697765D01*
X153642191Y-62907809D01*
X153852235Y-63048157D01*
X154100000Y-63097440D01*
X156200000Y-63097440D01*
X156447765Y-63048157D01*
X156624360Y-62930159D01*
X161099446Y-62930159D01*
X161185852Y-63186643D01*
X161759336Y-63396458D01*
X162369460Y-63370839D01*
X162814148Y-63186643D01*
X162900554Y-62930159D01*
X162000000Y-62029605D01*
X161099446Y-62930159D01*
X156624360Y-62930159D01*
X156657809Y-62907809D01*
X156798157Y-62697765D01*
X156847440Y-62450000D01*
X156847440Y-61609336D01*
X160453542Y-61609336D01*
X160479161Y-62219460D01*
X160663357Y-62664148D01*
X160919841Y-62750554D01*
X161820395Y-61850000D01*
X162179605Y-61850000D01*
X163080159Y-62750554D01*
X163336643Y-62664148D01*
X163546458Y-62090664D01*
X163520839Y-61480540D01*
X163336643Y-61035852D01*
X163080159Y-60949446D01*
X162179605Y-61850000D01*
X161820395Y-61850000D01*
X160919841Y-60949446D01*
X160663357Y-61035852D01*
X160453542Y-61609336D01*
X156847440Y-61609336D01*
X156847440Y-60769841D01*
X161099446Y-60769841D01*
X162000000Y-61670395D01*
X162900554Y-60769841D01*
X162814148Y-60513357D01*
X162240664Y-60303542D01*
X161630540Y-60329161D01*
X161185852Y-60513357D01*
X161099446Y-60769841D01*
X156847440Y-60769841D01*
X156847440Y-58950000D01*
X156798157Y-58702235D01*
X156657809Y-58492191D01*
X156447765Y-58351843D01*
X156200000Y-58302560D01*
X154100000Y-58302560D01*
X153852235Y-58351843D01*
X153642191Y-58492191D01*
X153501843Y-58702235D01*
X153452560Y-58950000D01*
X150879762Y-58950000D01*
X150786086Y-58723847D01*
X150326153Y-58263914D01*
X149725222Y-58015000D01*
X149074778Y-58015000D01*
X148473847Y-58263914D01*
X148013914Y-58723847D01*
X147765000Y-59324778D01*
X139235000Y-59324778D01*
X138986086Y-58723847D01*
X138526153Y-58263914D01*
X137925222Y-58015000D01*
X137274778Y-58015000D01*
X136673847Y-58263914D01*
X136213914Y-58723847D01*
X135965000Y-59324778D01*
X101735000Y-59324778D01*
X101735000Y-57194670D01*
X156715000Y-57194670D01*
X156715000Y-57805330D01*
X156948690Y-58369507D01*
X157380493Y-58801310D01*
X157944670Y-59035000D01*
X158555330Y-59035000D01*
X159119507Y-58801310D01*
X159551310Y-58369507D01*
X159785000Y-57805330D01*
X159785000Y-57194670D01*
X164215000Y-57194670D01*
X164215000Y-57805330D01*
X164448690Y-58369507D01*
X164880493Y-58801310D01*
X165444670Y-59035000D01*
X166055330Y-59035000D01*
X166260537Y-58950000D01*
X167152560Y-58950000D01*
X167152560Y-62450000D01*
X167201843Y-62697765D01*
X167342191Y-62907809D01*
X167552235Y-63048157D01*
X167800000Y-63097440D01*
X169900000Y-63097440D01*
X170147765Y-63048157D01*
X170357809Y-62907809D01*
X170498157Y-62697765D01*
X170547440Y-62450000D01*
X170547440Y-58950000D01*
X170498157Y-58702235D01*
X170357809Y-58492191D01*
X170147765Y-58351843D01*
X169900000Y-58302560D01*
X167800000Y-58302560D01*
X167552235Y-58351843D01*
X167342191Y-58492191D01*
X167201843Y-58702235D01*
X167152560Y-58950000D01*
X166260537Y-58950000D01*
X166619507Y-58801310D01*
X167051310Y-58369507D01*
X167285000Y-57805330D01*
X167285000Y-57194670D01*
X167051310Y-56630493D01*
X166619507Y-56198690D01*
X166055330Y-55965000D01*
X165444670Y-55965000D01*
X164880493Y-56198690D01*
X164448690Y-56630493D01*
X164215000Y-57194670D01*
X159785000Y-57194670D01*
X159551310Y-56630493D01*
X159119507Y-56198690D01*
X158555330Y-55965000D01*
X157944670Y-55965000D01*
X157380493Y-56198690D01*
X156948690Y-56630493D01*
X156715000Y-57194670D01*
X101735000Y-57194670D01*
X101735000Y-55735000D01*
X200265001Y-55735000D01*
X200265001Y-74474843D01*
X200265001Y-74474843D01*
G37*
X200265001Y-74474843D02*
X198444084Y-72653926D01*
X198514484Y-72300000D01*
X198397678Y-71712778D01*
X198065044Y-71214956D01*
X197567222Y-70882322D01*
X197128226Y-70795000D01*
X196371774Y-70795000D01*
X195932778Y-70882322D01*
X195434956Y-71214956D01*
X195102322Y-71712778D01*
X194985516Y-72300000D01*
X195102322Y-72887222D01*
X195434956Y-73385044D01*
X195711762Y-73570000D01*
X195434956Y-73754956D01*
X195102322Y-74252778D01*
X194985516Y-74840000D01*
X195102322Y-75427222D01*
X195434956Y-75925044D01*
X195711762Y-76110000D01*
X195517203Y-76240000D01*
X188635000Y-76240000D01*
X188635000Y-75978585D01*
X187853243Y-74091256D01*
X186408744Y-72646757D01*
X184521415Y-71865000D01*
X182478585Y-71865000D01*
X180591256Y-72646757D01*
X179146757Y-74091256D01*
X178365000Y-75978585D01*
X178365000Y-78021415D01*
X179146757Y-79908744D01*
X180591256Y-81353243D01*
X182478585Y-82135000D01*
X184521415Y-82135000D01*
X186408744Y-81353243D01*
X187853243Y-79908744D01*
X188635000Y-78021415D01*
X188635000Y-77760000D01*
X195061103Y-77760000D01*
X195102322Y-77967222D01*
X195434956Y-78465044D01*
X195711762Y-78650000D01*
X195434956Y-78834956D01*
X195217769Y-79160000D01*
X192404844Y-79160000D01*
X192329996Y-79145112D01*
X192255148Y-79160000D01*
X192255144Y-79160000D01*
X192033459Y-79204096D01*
X191782067Y-79372071D01*
X191739667Y-79435527D01*
X182960195Y-88215000D01*
X182794122Y-88215000D01*
X182413716Y-88372569D01*
X182122565Y-88663720D01*
X181964996Y-89044126D01*
X181964996Y-89455874D01*
X182122565Y-89836280D01*
X182413716Y-90127431D01*
X182794122Y-90285000D01*
X183205870Y-90285000D01*
X183586276Y-90127431D01*
X183877427Y-89836280D01*
X184034996Y-89455874D01*
X184034996Y-89289801D01*
X192644798Y-80680000D01*
X195217769Y-80680000D01*
X195434956Y-81005044D01*
X195711762Y-81190000D01*
X195434956Y-81374956D01*
X195102322Y-81872778D01*
X194985516Y-82460000D01*
X195102322Y-83047222D01*
X195434956Y-83545044D01*
X195500122Y-83588587D01*
X195265414Y-83745414D01*
X195070873Y-84036564D01*
X195002560Y-84379999D01*
X195002560Y-85620001D01*
X195070873Y-85963436D01*
X195265414Y-86254586D01*
X195556564Y-86449127D01*
X195899999Y-86517440D01*
X197157757Y-86517440D01*
X194863531Y-88811668D01*
X194800072Y-88854070D01*
X194632097Y-89105463D01*
X194588001Y-89327148D01*
X194588001Y-89327152D01*
X194573113Y-89401999D01*
X194588001Y-89476846D01*
X194588002Y-93300379D01*
X194413720Y-93372569D01*
X194321289Y-93465000D01*
X178495151Y-93465000D01*
X178458257Y-93409784D01*
X178437481Y-93378690D01*
X178437479Y-93378688D01*
X178393685Y-93313146D01*
X178328143Y-93269352D01*
X167852917Y-82794126D01*
X173215000Y-82794126D01*
X173215000Y-83205874D01*
X173372569Y-83586280D01*
X173663720Y-83877431D01*
X174044126Y-84035000D01*
X174455874Y-84035000D01*
X174836280Y-83877431D01*
X175127431Y-83586280D01*
X175285000Y-83205874D01*
X175285000Y-82794126D01*
X175127431Y-82413720D01*
X175010000Y-82296289D01*
X175010000Y-70314801D01*
X175039801Y-70285000D01*
X175205874Y-70285000D01*
X175586280Y-70127431D01*
X175877431Y-69836280D01*
X176035000Y-69455874D01*
X176035000Y-69044126D01*
X175877431Y-68663720D01*
X175586280Y-68372569D01*
X175205874Y-68215000D01*
X174794126Y-68215000D01*
X174413720Y-68372569D01*
X174122569Y-68663720D01*
X173965000Y-69044126D01*
X173965000Y-69210199D01*
X173765530Y-69409669D01*
X173702071Y-69452071D01*
X173534096Y-69703464D01*
X173490000Y-69925149D01*
X173490000Y-69925153D01*
X173475112Y-70000000D01*
X173490000Y-70074847D01*
X173490001Y-82296288D01*
X173372569Y-82413720D01*
X173215000Y-82794126D01*
X167852917Y-82794126D01*
X162798289Y-77739499D01*
X162754493Y-77673954D01*
X162494832Y-77500453D01*
X162265856Y-77454907D01*
X162265852Y-77454907D01*
X162188540Y-77439529D01*
X162111228Y-77454907D01*
X151087405Y-77454907D01*
X151010093Y-77439529D01*
X150932781Y-77454907D01*
X150932777Y-77454907D01*
X150703801Y-77500453D01*
X150444140Y-77673954D01*
X150400344Y-77739499D01*
X149674843Y-78465000D01*
X149544126Y-78465000D01*
X149163720Y-78622569D01*
X148872569Y-78913720D01*
X148715000Y-79294126D01*
X148715000Y-79705874D01*
X148872569Y-80086280D01*
X149163720Y-80377431D01*
X149258506Y-80416693D01*
X149210198Y-80465000D01*
X149044126Y-80465000D01*
X148663720Y-80622569D01*
X148372569Y-80913720D01*
X148215000Y-81294126D01*
X148215000Y-81460198D01*
X147815518Y-81859681D01*
X147752062Y-81902081D01*
X147709662Y-81965537D01*
X147709661Y-81965538D01*
X147584087Y-82153473D01*
X147525102Y-82450010D01*
X147539991Y-82524862D01*
X147539991Y-82715000D01*
X147294126Y-82715000D01*
X146913720Y-82872569D01*
X146622569Y-83163720D01*
X146465000Y-83544126D01*
X146465000Y-83955874D01*
X146622569Y-84336280D01*
X146740001Y-84453712D01*
X146740001Y-84715000D01*
X146544126Y-84715000D01*
X146163720Y-84872569D01*
X146046289Y-84990000D01*
X137564803Y-84990000D01*
X124535000Y-71960199D01*
X124535000Y-71794126D01*
X124377431Y-71413720D01*
X124086280Y-71122569D01*
X123705874Y-70965000D01*
X123294126Y-70965000D01*
X122913720Y-71122569D01*
X122622569Y-71413720D01*
X122465000Y-71794126D01*
X122465000Y-72205874D01*
X122622569Y-72586280D01*
X122913720Y-72877431D01*
X123294126Y-73035000D01*
X123460199Y-73035000D01*
X136659673Y-86234476D01*
X136702071Y-86297929D01*
X136765524Y-86340327D01*
X136765526Y-86340329D01*
X136890902Y-86424102D01*
X136953463Y-86465904D01*
X137175148Y-86510000D01*
X137175152Y-86510000D01*
X137249999Y-86524888D01*
X137324846Y-86510000D01*
X146046289Y-86510000D01*
X146163720Y-86627431D01*
X146544126Y-86785000D01*
X146740001Y-86785000D01*
X146740000Y-89685198D01*
X140625001Y-95800198D01*
X136785000Y-91960199D01*
X136785000Y-91794126D01*
X136627431Y-91413720D01*
X136336280Y-91122569D01*
X135955874Y-90965000D01*
X135544126Y-90965000D01*
X135163720Y-91122569D01*
X134872569Y-91413720D01*
X134715000Y-91794126D01*
X134715000Y-92205874D01*
X134872569Y-92586280D01*
X135163720Y-92877431D01*
X135544126Y-93035000D01*
X135710199Y-93035000D01*
X139737506Y-97062309D01*
X139740000Y-97074847D01*
X139740000Y-97074851D01*
X139740001Y-97074856D01*
X139740000Y-106546289D01*
X139622569Y-106663720D01*
X139465000Y-107044126D01*
X139465000Y-107455874D01*
X139465610Y-107457347D01*
X133221089Y-107457347D01*
X133146242Y-107442459D01*
X133071395Y-107457347D01*
X133071391Y-107457347D01*
X132849706Y-107501443D01*
X132598314Y-107669418D01*
X132555914Y-107732874D01*
X116390506Y-123898283D01*
X116327050Y-123940683D01*
X116159075Y-124192075D01*
X116114979Y-124413760D01*
X116114979Y-124413764D01*
X116100091Y-124488611D01*
X116114979Y-124563458D01*
X116114979Y-125202581D01*
X116007809Y-125042191D01*
X115797765Y-124901843D01*
X115550000Y-124852560D01*
X113472241Y-124852560D01*
X116789802Y-121535000D01*
X116955874Y-121535000D01*
X117336280Y-121377431D01*
X117627431Y-121086280D01*
X117785000Y-120705874D01*
X117785000Y-120294126D01*
X117627431Y-119913720D01*
X117336280Y-119622569D01*
X116955874Y-119465000D01*
X116544126Y-119465000D01*
X116163720Y-119622569D01*
X115872569Y-119913720D01*
X115715000Y-120294126D01*
X115715000Y-120460198D01*
X114138093Y-122037106D01*
X114131362Y-121902632D01*
X113972397Y-121518857D01*
X113730213Y-121449392D01*
X112929605Y-122250000D01*
X112943748Y-122264143D01*
X112764143Y-122443748D01*
X112750000Y-122429605D01*
X111949392Y-123230213D01*
X112018857Y-123472397D01*
X112522956Y-123652242D01*
X110765530Y-125409669D01*
X110702071Y-125452071D01*
X110534096Y-125703464D01*
X110490000Y-125925149D01*
X110490000Y-125925153D01*
X110475112Y-126000000D01*
X110490000Y-126074847D01*
X110490001Y-149435197D01*
X109309218Y-150615980D01*
X109277881Y-150603000D01*
X108722119Y-150603000D01*
X108208663Y-150815680D01*
X107815680Y-151208663D01*
X107603000Y-151722119D01*
X107603000Y-152277881D01*
X107815680Y-152791337D01*
X108208663Y-153184320D01*
X108722119Y-153397000D01*
X109277881Y-153397000D01*
X109791337Y-153184320D01*
X109995444Y-152980213D01*
X111949392Y-152980213D01*
X112018857Y-153222397D01*
X112542302Y-153409144D01*
X113097368Y-153381362D01*
X113481143Y-153222397D01*
X113550608Y-152980213D01*
X112750000Y-152179605D01*
X111949392Y-152980213D01*
X109995444Y-152980213D01*
X110184320Y-152791337D01*
X110397000Y-152277881D01*
X110397000Y-151792302D01*
X111340856Y-151792302D01*
X111368638Y-152347368D01*
X111527603Y-152731143D01*
X111769787Y-152800608D01*
X112570395Y-152000000D01*
X112929605Y-152000000D01*
X113730213Y-152800608D01*
X113972397Y-152731143D01*
X114159144Y-152207698D01*
X114131362Y-151652632D01*
X113972397Y-151268857D01*
X113730213Y-151199392D01*
X112929605Y-152000000D01*
X112570395Y-152000000D01*
X111769787Y-151199392D01*
X111527603Y-151268857D01*
X111340856Y-151792302D01*
X110397000Y-151792302D01*
X110397000Y-151722119D01*
X110384020Y-151690782D01*
X111055015Y-151019787D01*
X111949392Y-151019787D01*
X112750000Y-151820395D01*
X113550608Y-151019787D01*
X113481143Y-150777603D01*
X112957698Y-150590856D01*
X112402632Y-150618638D01*
X112018857Y-150777603D01*
X111949392Y-151019787D01*
X111055015Y-151019787D01*
X111734473Y-150340329D01*
X111797929Y-150297929D01*
X111965904Y-150046537D01*
X112010000Y-149824852D01*
X112010000Y-149824848D01*
X112024888Y-149750000D01*
X112010000Y-149675152D01*
X112010000Y-143834802D01*
X112092191Y-143957809D01*
X112302235Y-144098157D01*
X112550000Y-144147440D01*
X115550000Y-144147440D01*
X115797765Y-144098157D01*
X116007809Y-143957809D01*
X116148157Y-143747765D01*
X116197440Y-143500000D01*
X116197440Y-140500000D01*
X116148157Y-140252235D01*
X116007809Y-140042191D01*
X115797765Y-139901843D01*
X115550000Y-139852560D01*
X112550000Y-139852560D01*
X112302235Y-139901843D01*
X112092191Y-140042191D01*
X112010000Y-140165198D01*
X112010000Y-138191518D01*
X112018857Y-138222397D01*
X112542302Y-138409144D01*
X113097368Y-138381362D01*
X113481143Y-138222397D01*
X113550608Y-137980213D01*
X112750000Y-137179605D01*
X112735858Y-137193748D01*
X112556253Y-137014143D01*
X112570395Y-137000000D01*
X112929605Y-137000000D01*
X113730213Y-137800608D01*
X113972397Y-137731143D01*
X114159144Y-137207698D01*
X114131362Y-136652632D01*
X113972397Y-136268857D01*
X113730213Y-136199392D01*
X112929605Y-137000000D01*
X112570395Y-137000000D01*
X112556253Y-136985858D01*
X112735858Y-136806253D01*
X112750000Y-136820395D01*
X113550608Y-136019787D01*
X113481143Y-135777603D01*
X112957698Y-135590856D01*
X112402632Y-135618638D01*
X112018857Y-135777603D01*
X112010000Y-135808482D01*
X112010000Y-128834802D01*
X112092191Y-128957809D01*
X112302235Y-129098157D01*
X112550000Y-129147440D01*
X115550000Y-129147440D01*
X115797765Y-129098157D01*
X116007809Y-128957809D01*
X116114980Y-128797418D01*
X116114981Y-133537950D01*
X116100092Y-133612802D01*
X116114981Y-133687653D01*
X116114981Y-133687654D01*
X116159077Y-133909339D01*
X116327052Y-134160731D01*
X116390508Y-134203131D01*
X121421849Y-139234473D01*
X121464249Y-139297929D01*
X121715641Y-139465904D01*
X121937326Y-139510000D01*
X121937330Y-139510000D01*
X122012177Y-139524888D01*
X122053047Y-139516758D01*
X122163720Y-139627431D01*
X122544126Y-139785000D01*
X122955874Y-139785000D01*
X123336280Y-139627431D01*
X123627431Y-139336280D01*
X123785000Y-138955874D01*
X123785000Y-138544126D01*
X123627431Y-138163720D01*
X123336280Y-137872569D01*
X122955874Y-137715000D01*
X122544126Y-137715000D01*
X122196126Y-137859146D01*
X119096979Y-134760000D01*
X123935199Y-134760000D01*
X128009674Y-138834477D01*
X128052072Y-138897930D01*
X128115525Y-138940328D01*
X128115527Y-138940330D01*
X128240903Y-139024103D01*
X128303464Y-139065905D01*
X128525149Y-139110001D01*
X128525153Y-139110001D01*
X128600000Y-139124889D01*
X128674847Y-139110001D01*
X133528841Y-139110001D01*
X133622569Y-139336280D01*
X133913720Y-139627431D01*
X134294126Y-139785000D01*
X134705874Y-139785000D01*
X135086280Y-139627431D01*
X135377431Y-139336280D01*
X135535000Y-138955874D01*
X135535000Y-138544126D01*
X135377431Y-138163720D01*
X135086280Y-137872569D01*
X134705874Y-137715000D01*
X134517618Y-137715000D01*
X134396538Y-137634097D01*
X134174853Y-137590001D01*
X134174848Y-137590001D01*
X134100001Y-137575113D01*
X134025154Y-137590001D01*
X128914804Y-137590001D01*
X125389802Y-134065001D01*
X138674515Y-134065001D01*
X143593986Y-138984473D01*
X143636386Y-139047929D01*
X143887778Y-139215904D01*
X144030603Y-139244314D01*
X144163720Y-139377431D01*
X144544126Y-139535000D01*
X144955874Y-139535000D01*
X145336280Y-139377431D01*
X145627431Y-139086280D01*
X145785000Y-138705874D01*
X145785000Y-138294126D01*
X145627431Y-137913720D01*
X145336280Y-137622569D01*
X144955874Y-137465000D01*
X144544126Y-137465000D01*
X144317845Y-137558728D01*
X140219238Y-133460122D01*
X140409507Y-133381310D01*
X140841310Y-132949507D01*
X141075000Y-132385330D01*
X141075000Y-131774670D01*
X140841310Y-131210493D01*
X140409507Y-130778690D01*
X139845330Y-130545000D01*
X139234670Y-130545000D01*
X138670493Y-130778690D01*
X138494139Y-130955044D01*
X138438327Y-130820301D01*
X138259698Y-130641673D01*
X138026309Y-130545000D01*
X137285750Y-130545000D01*
X137127000Y-130703750D01*
X137127000Y-131953000D01*
X137147000Y-131953000D01*
X137147000Y-132207000D01*
X137127000Y-132207000D01*
X137127000Y-132227000D01*
X136873000Y-132227000D01*
X136873000Y-132207000D01*
X135623750Y-132207000D01*
X135465000Y-132365750D01*
X135465000Y-132545001D01*
X135008862Y-132545001D01*
X135075000Y-132385330D01*
X135075000Y-131774670D01*
X134841310Y-131210493D01*
X134684507Y-131053690D01*
X135465000Y-131053690D01*
X135465000Y-131794250D01*
X135623750Y-131953000D01*
X136873000Y-131953000D01*
X136873000Y-130703750D01*
X136714250Y-130545000D01*
X135973691Y-130545000D01*
X135740302Y-130641673D01*
X135561673Y-130820301D01*
X135465000Y-131053690D01*
X134684507Y-131053690D01*
X134409507Y-130778690D01*
X133845330Y-130545000D01*
X133234670Y-130545000D01*
X132670493Y-130778690D01*
X132494139Y-130955044D01*
X132438327Y-130820301D01*
X132259698Y-130641673D01*
X132026309Y-130545000D01*
X131285750Y-130545000D01*
X131127000Y-130703750D01*
X131127000Y-131953000D01*
X131147000Y-131953000D01*
X131147000Y-132207000D01*
X131127000Y-132207000D01*
X131127000Y-132227000D01*
X130873000Y-132227000D01*
X130873000Y-132207000D01*
X129623750Y-132207000D01*
X129465000Y-132365750D01*
X129465000Y-132545001D01*
X129008862Y-132545001D01*
X129075000Y-132385330D01*
X129075000Y-131774670D01*
X128841310Y-131210493D01*
X128684507Y-131053690D01*
X129465000Y-131053690D01*
X129465000Y-131794250D01*
X129623750Y-131953000D01*
X130873000Y-131953000D01*
X130873000Y-130703750D01*
X130714250Y-130545000D01*
X129973691Y-130545000D01*
X129740302Y-130641673D01*
X129561673Y-130820301D01*
X129465000Y-131053690D01*
X128684507Y-131053690D01*
X128409507Y-130778690D01*
X127845330Y-130545000D01*
X127234670Y-130545000D01*
X126670493Y-130778690D01*
X126494139Y-130955044D01*
X126438327Y-130820301D01*
X126259698Y-130641673D01*
X126026309Y-130545000D01*
X125285750Y-130545000D01*
X125127000Y-130703750D01*
X125127000Y-131953000D01*
X125147000Y-131953000D01*
X125147000Y-132207000D01*
X125127000Y-132207000D01*
X125127000Y-132227000D01*
X124873000Y-132227000D01*
X124873000Y-132207000D01*
X123623750Y-132207000D01*
X123465000Y-132365750D01*
X123465000Y-132545001D01*
X123008862Y-132545001D01*
X123075000Y-132385330D01*
X123075000Y-131774670D01*
X122841310Y-131210493D01*
X122684507Y-131053690D01*
X123465000Y-131053690D01*
X123465000Y-131794250D01*
X123623750Y-131953000D01*
X124873000Y-131953000D01*
X124873000Y-130703750D01*
X124714250Y-130545000D01*
X123973691Y-130545000D01*
X123740302Y-130641673D01*
X123561673Y-130820301D01*
X123465000Y-131053690D01*
X122684507Y-131053690D01*
X122409507Y-130778690D01*
X121845330Y-130545000D01*
X121234670Y-130545000D01*
X120670493Y-130778690D01*
X120494139Y-130955044D01*
X120438327Y-130820301D01*
X120259698Y-130641673D01*
X120026309Y-130545000D01*
X119285750Y-130545000D01*
X119127000Y-130703750D01*
X119127000Y-131953000D01*
X119147000Y-131953000D01*
X119147000Y-132207000D01*
X119127000Y-132207000D01*
X119127000Y-132227000D01*
X118873000Y-132227000D01*
X118873000Y-132207000D01*
X118853000Y-132207000D01*
X118853000Y-131953000D01*
X118873000Y-131953000D01*
X118873000Y-130703750D01*
X118714250Y-130545000D01*
X118534999Y-130545000D01*
X118534999Y-125466800D01*
X119519044Y-124482755D01*
X119663720Y-124627431D01*
X120044126Y-124785000D01*
X120455874Y-124785000D01*
X120836280Y-124627431D01*
X121127431Y-124336280D01*
X121285000Y-123955874D01*
X121285000Y-123789802D01*
X122064803Y-123010000D01*
X125776289Y-123010000D01*
X125622569Y-123163720D01*
X125465000Y-123544126D01*
X125465000Y-123955874D01*
X125622569Y-124336280D01*
X125913720Y-124627431D01*
X126294126Y-124785000D01*
X126705874Y-124785000D01*
X127086280Y-124627431D01*
X127377431Y-124336280D01*
X127535000Y-123955874D01*
X127535000Y-123789801D01*
X127739813Y-123584989D01*
X131465000Y-123584989D01*
X131465000Y-123955874D01*
X131622569Y-124336280D01*
X131913720Y-124627431D01*
X132294126Y-124785000D01*
X132705874Y-124785000D01*
X133086280Y-124627431D01*
X133377431Y-124336280D01*
X133502225Y-124034999D01*
X137465000Y-124034999D01*
X137465000Y-124205874D01*
X137622569Y-124586280D01*
X137913720Y-124877431D01*
X138294126Y-125035000D01*
X138705874Y-125035000D01*
X139086280Y-124877431D01*
X139203711Y-124760000D01*
X149425153Y-124760000D01*
X149500000Y-124774888D01*
X149574847Y-124760000D01*
X149574852Y-124760000D01*
X149796537Y-124715904D01*
X150047929Y-124547929D01*
X150090331Y-124484470D01*
X154709477Y-119865326D01*
X154772930Y-119822928D01*
X154815328Y-119759475D01*
X154815330Y-119759473D01*
X154940904Y-119571537D01*
X154940905Y-119571536D01*
X154985001Y-119349851D01*
X154985001Y-119349847D01*
X154999889Y-119275000D01*
X154985001Y-119200153D01*
X154985001Y-116873711D01*
X154988721Y-116877431D01*
X155369127Y-117035000D01*
X155780875Y-117035000D01*
X156161281Y-116877431D01*
X156452432Y-116586280D01*
X156474403Y-116533238D01*
X159400641Y-119459477D01*
X159443039Y-119522930D01*
X159506492Y-119565328D01*
X159506494Y-119565330D01*
X159592159Y-119622569D01*
X159694431Y-119690905D01*
X159916116Y-119735001D01*
X159916120Y-119735001D01*
X159990967Y-119749889D01*
X160065814Y-119735001D01*
X171550152Y-119735001D01*
X171624999Y-119749889D01*
X171699846Y-119735001D01*
X171699851Y-119735001D01*
X171921536Y-119690905D01*
X172172928Y-119522930D01*
X172215330Y-119459471D01*
X174449802Y-117225000D01*
X174804842Y-117225000D01*
X165945000Y-126084843D01*
X165359749Y-125499592D01*
X165315953Y-125434047D01*
X165056292Y-125260546D01*
X164827316Y-125215000D01*
X164827312Y-125215000D01*
X164750000Y-125199622D01*
X164672688Y-125215000D01*
X148928711Y-125215000D01*
X148836280Y-125122569D01*
X148455874Y-124965000D01*
X148044126Y-124965000D01*
X147663720Y-125122569D01*
X147372569Y-125413720D01*
X147215000Y-125794126D01*
X147215000Y-126205874D01*
X147372569Y-126586280D01*
X147663720Y-126877431D01*
X148044126Y-127035000D01*
X148455874Y-127035000D01*
X148836280Y-126877431D01*
X148928711Y-126785000D01*
X164424843Y-126785000D01*
X164889842Y-127250000D01*
X153249590Y-138890253D01*
X153184048Y-138934047D01*
X153140254Y-138999589D01*
X153140251Y-138999592D01*
X153010546Y-139193709D01*
X152949622Y-139500000D01*
X152965001Y-139577317D01*
X152965000Y-151571289D01*
X152872569Y-151663720D01*
X152715000Y-152044126D01*
X152715000Y-152455874D01*
X152872569Y-152836280D01*
X153163720Y-153127431D01*
X153544126Y-153285000D01*
X153955874Y-153285000D01*
X154336280Y-153127431D01*
X154627431Y-152836280D01*
X154785000Y-152455874D01*
X154785000Y-152044126D01*
X154627431Y-151663720D01*
X154535000Y-151571289D01*
X154535000Y-139825157D01*
X166500411Y-127859747D01*
X166565953Y-127815953D01*
X166609747Y-127750411D01*
X166609749Y-127750409D01*
X166609751Y-127750406D01*
X166640408Y-127719749D01*
X166705953Y-127675953D01*
X166879454Y-127416292D01*
X166890774Y-127359383D01*
X177025158Y-117225000D01*
X177443613Y-117225000D01*
X177912230Y-117030893D01*
X178208123Y-116735000D01*
X178711877Y-116735000D01*
X179007770Y-117030893D01*
X179476387Y-117225000D01*
X179983613Y-117225000D01*
X180452230Y-117030893D01*
X180810893Y-116672230D01*
X181000000Y-116215684D01*
X181189107Y-116672230D01*
X181547770Y-117030893D01*
X182016387Y-117225000D01*
X182523613Y-117225000D01*
X182992230Y-117030893D01*
X183350893Y-116672230D01*
X183540000Y-116215684D01*
X183729107Y-116672230D01*
X184087770Y-117030893D01*
X184556387Y-117225000D01*
X185063613Y-117225000D01*
X185532230Y-117030893D01*
X185890893Y-116672230D01*
X186080000Y-116215684D01*
X186269107Y-116672230D01*
X186627770Y-117030893D01*
X187096387Y-117225000D01*
X187603613Y-117225000D01*
X188072230Y-117030893D01*
X188430893Y-116672230D01*
X188620000Y-116215684D01*
X188809107Y-116672230D01*
X189167770Y-117030893D01*
X189636387Y-117225000D01*
X190143613Y-117225000D01*
X190612230Y-117030893D01*
X190970893Y-116672230D01*
X191160000Y-116215684D01*
X191349107Y-116672230D01*
X191707770Y-117030893D01*
X192176387Y-117225000D01*
X192683613Y-117225000D01*
X193152230Y-117030893D01*
X193510893Y-116672230D01*
X193700000Y-116215684D01*
X193889107Y-116672230D01*
X194247770Y-117030893D01*
X194716387Y-117225000D01*
X195223613Y-117225000D01*
X195692230Y-117030893D01*
X196050893Y-116672230D01*
X196240000Y-116215684D01*
X196429107Y-116672230D01*
X196787770Y-117030893D01*
X197256387Y-117225000D01*
X197763613Y-117225000D01*
X198232230Y-117030893D01*
X198590893Y-116672230D01*
X198785000Y-116203613D01*
X198785000Y-115696387D01*
X198590893Y-115227770D01*
X198232230Y-114869107D01*
X197763613Y-114675000D01*
X197256387Y-114675000D01*
X196787770Y-114869107D01*
X196429107Y-115227770D01*
X196240000Y-115684316D01*
X196050893Y-115227770D01*
X195692230Y-114869107D01*
X195223613Y-114675000D01*
X194716387Y-114675000D01*
X194247770Y-114869107D01*
X193889107Y-115227770D01*
X193700000Y-115684316D01*
X193510893Y-115227770D01*
X193152230Y-114869107D01*
X192683613Y-114675000D01*
X192176387Y-114675000D01*
X191707770Y-114869107D01*
X191349107Y-115227770D01*
X191160000Y-115684316D01*
X190970893Y-115227770D01*
X190612230Y-114869107D01*
X190143613Y-114675000D01*
X189636387Y-114675000D01*
X189167770Y-114869107D01*
X188809107Y-115227770D01*
X188620000Y-115684316D01*
X188430893Y-115227770D01*
X188072230Y-114869107D01*
X187603613Y-114675000D01*
X187096387Y-114675000D01*
X186627770Y-114869107D01*
X186269107Y-115227770D01*
X186080000Y-115684316D01*
X185890893Y-115227770D01*
X185532230Y-114869107D01*
X185063613Y-114675000D01*
X184556387Y-114675000D01*
X184087770Y-114869107D01*
X183729107Y-115227770D01*
X183540000Y-115684316D01*
X183350893Y-115227770D01*
X182992230Y-114869107D01*
X182523613Y-114675000D01*
X182115157Y-114675000D01*
X193340157Y-103450000D01*
X195333949Y-103450000D01*
X195456964Y-104068436D01*
X195807279Y-104592721D01*
X196331564Y-104943036D01*
X196793897Y-105035000D01*
X198706103Y-105035000D01*
X199168436Y-104943036D01*
X199692721Y-104592721D01*
X200043036Y-104068436D01*
X200166051Y-103450000D01*
X200043036Y-102831564D01*
X199692721Y-102307279D01*
X199168436Y-101956964D01*
X198706103Y-101865000D01*
X196793897Y-101865000D01*
X196331564Y-101956964D01*
X195807279Y-102307279D01*
X195456964Y-102831564D01*
X195333949Y-103450000D01*
X193340157Y-103450000D01*
X196565000Y-100225158D01*
X196565000Y-100235711D01*
X196745405Y-100671249D01*
X197078751Y-101004595D01*
X197514289Y-101185000D01*
X197985711Y-101185000D01*
X198421249Y-101004595D01*
X198754595Y-100671249D01*
X198935000Y-100235711D01*
X198935000Y-99764289D01*
X198754595Y-99328751D01*
X198421249Y-98995405D01*
X197985711Y-98815000D01*
X197975158Y-98815000D01*
X200265001Y-96525157D01*
X200265000Y-154265000D01*
X198785000Y-154265000D01*
X198785000Y-153796387D01*
X198590893Y-153327770D01*
X198232230Y-152969107D01*
X197763613Y-152775000D01*
X197256387Y-152775000D01*
X196787770Y-152969107D01*
X196429107Y-153327770D01*
X196240000Y-153784316D01*
X196050893Y-153327770D01*
X195692230Y-152969107D01*
X195223613Y-152775000D01*
X194716387Y-152775000D01*
X194247770Y-152969107D01*
X193889107Y-153327770D01*
X193695000Y-153796387D01*
X193695000Y-154265000D01*
X168305000Y-154265000D01*
X168305000Y-153796387D01*
X168110893Y-153327770D01*
X167752230Y-152969107D01*
X167283613Y-152775000D01*
X166776387Y-152775000D01*
X166307770Y-152969107D01*
X165949107Y-153327770D01*
X165760000Y-153784316D01*
X165570893Y-153327770D01*
X165212230Y-152969107D01*
X164743613Y-152775000D01*
X164236387Y-152775000D01*
X163767770Y-152969107D01*
X163409107Y-153327770D01*
X163215000Y-153796387D01*
X163215000Y-154265000D01*
X101735000Y-154265000D01*
X101735000Y-151722119D01*
X103853000Y-151722119D01*
X103853000Y-152277881D01*
X104065680Y-152791337D01*
X104458663Y-153184320D01*
X104972119Y-153397000D01*
X105527881Y-153397000D01*
X106041337Y-153184320D01*
X106434320Y-152791337D01*
X106647000Y-152277881D01*
X106647000Y-151722119D01*
X106434320Y-151208663D01*
X106041337Y-150815680D01*
X105527881Y-150603000D01*
X104972119Y-150603000D01*
X104458663Y-150815680D01*
X104065680Y-151208663D01*
X103853000Y-151722119D01*
X101735000Y-151722119D01*
X101735000Y-140500000D01*
X101802560Y-140500000D01*
X101802560Y-143500000D01*
X101851843Y-143747765D01*
X101992191Y-143957809D01*
X102202235Y-144098157D01*
X102450000Y-144147440D01*
X105450000Y-144147440D01*
X105697765Y-144098157D01*
X105907809Y-143957809D01*
X106048157Y-143747765D01*
X106097440Y-143500000D01*
X106097440Y-140500000D01*
X106048157Y-140252235D01*
X105907809Y-140042191D01*
X105697765Y-139901843D01*
X105450000Y-139852560D01*
X102450000Y-139852560D01*
X102202235Y-139901843D01*
X101992191Y-140042191D01*
X101851843Y-140252235D01*
X101802560Y-140500000D01*
X101735000Y-140500000D01*
X101735000Y-136722119D01*
X103853000Y-136722119D01*
X103853000Y-137277881D01*
X104065680Y-137791337D01*
X104458663Y-138184320D01*
X104972119Y-138397000D01*
X105527881Y-138397000D01*
X106041337Y-138184320D01*
X106434320Y-137791337D01*
X106647000Y-137277881D01*
X106647000Y-136722119D01*
X107603000Y-136722119D01*
X107603000Y-137277881D01*
X107815680Y-137791337D01*
X108208663Y-138184320D01*
X108722119Y-138397000D01*
X109277881Y-138397000D01*
X109791337Y-138184320D01*
X110184320Y-137791337D01*
X110397000Y-137277881D01*
X110397000Y-136722119D01*
X110184320Y-136208663D01*
X109791337Y-135815680D01*
X109277881Y-135603000D01*
X108722119Y-135603000D01*
X108208663Y-135815680D01*
X107815680Y-136208663D01*
X107603000Y-136722119D01*
X106647000Y-136722119D01*
X106434320Y-136208663D01*
X106041337Y-135815680D01*
X105527881Y-135603000D01*
X104972119Y-135603000D01*
X104458663Y-135815680D01*
X104065680Y-136208663D01*
X103853000Y-136722119D01*
X101735000Y-136722119D01*
X101735000Y-125500000D01*
X101802560Y-125500000D01*
X101802560Y-128500000D01*
X101851843Y-128747765D01*
X101992191Y-128957809D01*
X102202235Y-129098157D01*
X102450000Y-129147440D01*
X105450000Y-129147440D01*
X105697765Y-129098157D01*
X105907809Y-128957809D01*
X106048157Y-128747765D01*
X106097440Y-128500000D01*
X106097440Y-125500000D01*
X106048157Y-125252235D01*
X105907809Y-125042191D01*
X105697765Y-124901843D01*
X105450000Y-124852560D01*
X102450000Y-124852560D01*
X102202235Y-124901843D01*
X101992191Y-125042191D01*
X101851843Y-125252235D01*
X101802560Y-125500000D01*
X101735000Y-125500000D01*
X101735000Y-121972119D01*
X103853000Y-121972119D01*
X103853000Y-122527881D01*
X104065680Y-123041337D01*
X104458663Y-123434320D01*
X104972119Y-123647000D01*
X105527881Y-123647000D01*
X106041337Y-123434320D01*
X106434320Y-123041337D01*
X106647000Y-122527881D01*
X106647000Y-121972119D01*
X107603000Y-121972119D01*
X107603000Y-122527881D01*
X107815680Y-123041337D01*
X108208663Y-123434320D01*
X108722119Y-123647000D01*
X109277881Y-123647000D01*
X109791337Y-123434320D01*
X110184320Y-123041337D01*
X110397000Y-122527881D01*
X110397000Y-122042302D01*
X111340856Y-122042302D01*
X111368638Y-122597368D01*
X111527603Y-122981143D01*
X111769787Y-123050608D01*
X112570395Y-122250000D01*
X111769787Y-121449392D01*
X111527603Y-121518857D01*
X111340856Y-122042302D01*
X110397000Y-122042302D01*
X110397000Y-121972119D01*
X110184320Y-121458663D01*
X109995444Y-121269787D01*
X111949392Y-121269787D01*
X112750000Y-122070395D01*
X113550608Y-121269787D01*
X113481143Y-121027603D01*
X112957698Y-120840856D01*
X112402632Y-120868638D01*
X112018857Y-121027603D01*
X111949392Y-121269787D01*
X109995444Y-121269787D01*
X109791337Y-121065680D01*
X109277881Y-120853000D01*
X108722119Y-120853000D01*
X108208663Y-121065680D01*
X107815680Y-121458663D01*
X107603000Y-121972119D01*
X106647000Y-121972119D01*
X106434320Y-121458663D01*
X106041337Y-121065680D01*
X105527881Y-120853000D01*
X104972119Y-120853000D01*
X104458663Y-121065680D01*
X104065680Y-121458663D01*
X103853000Y-121972119D01*
X101735000Y-121972119D01*
X101735000Y-110750000D01*
X101802560Y-110750000D01*
X101802560Y-113750000D01*
X101851843Y-113997765D01*
X101992191Y-114207809D01*
X102202235Y-114348157D01*
X102450000Y-114397440D01*
X105450000Y-114397440D01*
X105697765Y-114348157D01*
X105907809Y-114207809D01*
X106048157Y-113997765D01*
X106097440Y-113750000D01*
X106097440Y-110750000D01*
X111902560Y-110750000D01*
X111902560Y-113750000D01*
X111951843Y-113997765D01*
X112092191Y-114207809D01*
X112302235Y-114348157D01*
X112550000Y-114397440D01*
X115550000Y-114397440D01*
X115797765Y-114348157D01*
X116007809Y-114207809D01*
X116148157Y-113997765D01*
X116197440Y-113750000D01*
X116197440Y-110750000D01*
X116148157Y-110502235D01*
X116007809Y-110292191D01*
X115797765Y-110151843D01*
X115550000Y-110102560D01*
X112550000Y-110102560D01*
X112302235Y-110151843D01*
X112092191Y-110292191D01*
X111951843Y-110502235D01*
X111902560Y-110750000D01*
X106097440Y-110750000D01*
X106048157Y-110502235D01*
X105907809Y-110292191D01*
X105697765Y-110151843D01*
X105450000Y-110102560D01*
X102450000Y-110102560D01*
X102202235Y-110151843D01*
X101992191Y-110292191D01*
X101851843Y-110502235D01*
X101802560Y-110750000D01*
X101735000Y-110750000D01*
X101735000Y-70978585D01*
X108365000Y-70978585D01*
X108365000Y-73021415D01*
X109146757Y-74908744D01*
X110591256Y-76353243D01*
X112478585Y-77135000D01*
X114521415Y-77135000D01*
X116408744Y-76353243D01*
X116575915Y-76186072D01*
X129390251Y-89000408D01*
X129434047Y-89065953D01*
X129693708Y-89239454D01*
X129922684Y-89285000D01*
X129922688Y-89285000D01*
X130000000Y-89300378D01*
X130077312Y-89285000D01*
X140071289Y-89285000D01*
X140163720Y-89377431D01*
X140544126Y-89535000D01*
X140955874Y-89535000D01*
X141336280Y-89377431D01*
X141627431Y-89086280D01*
X141785000Y-88705874D01*
X141785000Y-88294126D01*
X141627431Y-87913720D01*
X141336280Y-87622569D01*
X140955874Y-87465000D01*
X140544126Y-87465000D01*
X140163720Y-87622569D01*
X140071289Y-87715000D01*
X130325157Y-87715000D01*
X117686072Y-75075915D01*
X117853243Y-74908744D01*
X118635000Y-73021415D01*
X118635000Y-70978585D01*
X117853243Y-69091256D01*
X116408744Y-67646757D01*
X114521415Y-66865000D01*
X112478585Y-66865000D01*
X110591256Y-67646757D01*
X109146757Y-69091256D01*
X108365000Y-70978585D01*
X101735000Y-70978585D01*
X101735000Y-62544126D01*
X122215000Y-62544126D01*
X122215000Y-62955874D01*
X122372569Y-63336280D01*
X122663720Y-63627431D01*
X123044126Y-63785000D01*
X123210199Y-63785000D01*
X133690528Y-74265330D01*
X133690531Y-74265332D01*
X141159673Y-81734476D01*
X141202071Y-81797929D01*
X141265524Y-81840327D01*
X141265526Y-81840329D01*
X141309440Y-81869671D01*
X141453463Y-81965904D01*
X141675148Y-82010000D01*
X141675152Y-82010000D01*
X141749999Y-82024888D01*
X141824846Y-82010000D01*
X145546289Y-82010000D01*
X145663720Y-82127431D01*
X146044126Y-82285000D01*
X146455874Y-82285000D01*
X146836280Y-82127431D01*
X147127431Y-81836280D01*
X147285000Y-81455874D01*
X147285000Y-81044126D01*
X147127431Y-80663720D01*
X146836280Y-80372569D01*
X146455874Y-80215000D01*
X146044126Y-80215000D01*
X145663720Y-80372569D01*
X145546289Y-80490000D01*
X142064803Y-80490000D01*
X135077334Y-73502532D01*
X136677073Y-73502532D01*
X136775736Y-73769387D01*
X137385461Y-73995908D01*
X138035460Y-73971856D01*
X138524264Y-73769387D01*
X138622927Y-73502532D01*
X148377073Y-73502532D01*
X148475736Y-73769387D01*
X149085461Y-73995908D01*
X149735460Y-73971856D01*
X150224264Y-73769387D01*
X150322927Y-73502532D01*
X149350000Y-72529605D01*
X148377073Y-73502532D01*
X138622927Y-73502532D01*
X137650000Y-72529605D01*
X136677073Y-73502532D01*
X135077334Y-73502532D01*
X134765332Y-73190531D01*
X134765330Y-73190528D01*
X133660263Y-72085461D01*
X136004092Y-72085461D01*
X136028144Y-72735460D01*
X136230613Y-73224264D01*
X136497468Y-73322927D01*
X137470395Y-72350000D01*
X137829605Y-72350000D01*
X138802532Y-73322927D01*
X139069387Y-73224264D01*
X139295908Y-72614539D01*
X139276331Y-72085461D01*
X147704092Y-72085461D01*
X147728144Y-72735460D01*
X147930613Y-73224264D01*
X148197468Y-73322927D01*
X149170395Y-72350000D01*
X149529605Y-72350000D01*
X150502532Y-73322927D01*
X150769387Y-73224264D01*
X150995908Y-72614539D01*
X150971856Y-71964540D01*
X150769387Y-71475736D01*
X150502532Y-71377073D01*
X149529605Y-72350000D01*
X149170395Y-72350000D01*
X148197468Y-71377073D01*
X147930613Y-71475736D01*
X147704092Y-72085461D01*
X139276331Y-72085461D01*
X139271856Y-71964540D01*
X139069387Y-71475736D01*
X138802532Y-71377073D01*
X137829605Y-72350000D01*
X137470395Y-72350000D01*
X136497468Y-71377073D01*
X136230613Y-71475736D01*
X136004092Y-72085461D01*
X133660263Y-72085461D01*
X132772270Y-71197468D01*
X136677073Y-71197468D01*
X137650000Y-72170395D01*
X138622927Y-71197468D01*
X148377073Y-71197468D01*
X149350000Y-72170395D01*
X150322927Y-71197468D01*
X150224264Y-70930613D01*
X149614539Y-70704092D01*
X148964540Y-70728144D01*
X148475736Y-70930613D01*
X148377073Y-71197468D01*
X138622927Y-71197468D01*
X138524264Y-70930613D01*
X137914539Y-70704092D01*
X137264540Y-70728144D01*
X136775736Y-70930613D01*
X136677073Y-71197468D01*
X132772270Y-71197468D01*
X127249580Y-65674778D01*
X136015000Y-65674778D01*
X136015000Y-66325222D01*
X136263914Y-66926153D01*
X136723847Y-67386086D01*
X137324778Y-67635000D01*
X137975222Y-67635000D01*
X138576153Y-67386086D01*
X139036086Y-66926153D01*
X139285000Y-66325222D01*
X139285000Y-65674778D01*
X147715000Y-65674778D01*
X147715000Y-66325222D01*
X147963914Y-66926153D01*
X148423847Y-67386086D01*
X149024778Y-67635000D01*
X149675222Y-67635000D01*
X150276153Y-67386086D01*
X150736086Y-66926153D01*
X150985000Y-66325222D01*
X150985000Y-65674778D01*
X150736086Y-65073847D01*
X150276153Y-64613914D01*
X149675222Y-64365000D01*
X149024778Y-64365000D01*
X148423847Y-64613914D01*
X147963914Y-65073847D01*
X147715000Y-65674778D01*
X139285000Y-65674778D01*
X139036086Y-65073847D01*
X138576153Y-64613914D01*
X137975222Y-64365000D01*
X137324778Y-64365000D01*
X136723847Y-64613914D01*
X136263914Y-65073847D01*
X136015000Y-65674778D01*
X127249580Y-65674778D01*
X124285000Y-62710199D01*
X124285000Y-62544126D01*
X124127431Y-62163720D01*
X123836280Y-61872569D01*
X123455874Y-61715000D01*
X123044126Y-61715000D01*
X122663720Y-61872569D01*
X122372569Y-62163720D01*
X122215000Y-62544126D01*
X101735000Y-62544126D01*
X101735000Y-60624234D01*
X104865000Y-60624234D01*
X104865000Y-61075766D01*
X105037793Y-61492926D01*
X105357074Y-61812207D01*
X105774234Y-61985000D01*
X106225766Y-61985000D01*
X106642926Y-61812207D01*
X106962207Y-61492926D01*
X107135000Y-61075766D01*
X107135000Y-60624234D01*
X110865000Y-60624234D01*
X110865000Y-61075766D01*
X111037793Y-61492926D01*
X111357074Y-61812207D01*
X111774234Y-61985000D01*
X112225766Y-61985000D01*
X112642926Y-61812207D01*
X112962207Y-61492926D01*
X113135000Y-61075766D01*
X113135000Y-60624234D01*
X112962207Y-60207074D01*
X112642926Y-59887793D01*
X112225766Y-59715000D01*
X111774234Y-59715000D01*
X111357074Y-59887793D01*
X111037793Y-60207074D01*
X110865000Y-60624234D01*
X107135000Y-60624234D01*
X106962207Y-60207074D01*
X106642926Y-59887793D01*
X106225766Y-59715000D01*
X105774234Y-59715000D01*
X105357074Y-59887793D01*
X105037793Y-60207074D01*
X104865000Y-60624234D01*
X101735000Y-60624234D01*
X101735000Y-59324778D01*
X135965000Y-59324778D01*
X135965000Y-59975222D01*
X136213914Y-60576153D01*
X136673847Y-61036086D01*
X137274778Y-61285000D01*
X137925222Y-61285000D01*
X138526153Y-61036086D01*
X138986086Y-60576153D01*
X139235000Y-59975222D01*
X139235000Y-59324778D01*
X147765000Y-59324778D01*
X147765000Y-59975222D01*
X148013914Y-60576153D01*
X148473847Y-61036086D01*
X149074778Y-61285000D01*
X149725222Y-61285000D01*
X150326153Y-61036086D01*
X150786086Y-60576153D01*
X151035000Y-59975222D01*
X151035000Y-59324778D01*
X150879762Y-58950000D01*
X153452560Y-58950000D01*
X153452560Y-62450000D01*
X153501843Y-62697765D01*
X153642191Y-62907809D01*
X153852235Y-63048157D01*
X154100000Y-63097440D01*
X156200000Y-63097440D01*
X156447765Y-63048157D01*
X156624360Y-62930159D01*
X161099446Y-62930159D01*
X161185852Y-63186643D01*
X161759336Y-63396458D01*
X162369460Y-63370839D01*
X162814148Y-63186643D01*
X162900554Y-62930159D01*
X162000000Y-62029605D01*
X161099446Y-62930159D01*
X156624360Y-62930159D01*
X156657809Y-62907809D01*
X156798157Y-62697765D01*
X156847440Y-62450000D01*
X156847440Y-61609336D01*
X160453542Y-61609336D01*
X160479161Y-62219460D01*
X160663357Y-62664148D01*
X160919841Y-62750554D01*
X161820395Y-61850000D01*
X162179605Y-61850000D01*
X163080159Y-62750554D01*
X163336643Y-62664148D01*
X163546458Y-62090664D01*
X163520839Y-61480540D01*
X163336643Y-61035852D01*
X163080159Y-60949446D01*
X162179605Y-61850000D01*
X161820395Y-61850000D01*
X160919841Y-60949446D01*
X160663357Y-61035852D01*
X160453542Y-61609336D01*
X156847440Y-61609336D01*
X156847440Y-60769841D01*
X161099446Y-60769841D01*
X162000000Y-61670395D01*
X162900554Y-60769841D01*
X162814148Y-60513357D01*
X162240664Y-60303542D01*
X161630540Y-60329161D01*
X161185852Y-60513357D01*
X161099446Y-60769841D01*
X156847440Y-60769841D01*
X156847440Y-58950000D01*
X156798157Y-58702235D01*
X156657809Y-58492191D01*
X156447765Y-58351843D01*
X156200000Y-58302560D01*
X154100000Y-58302560D01*
X153852235Y-58351843D01*
X153642191Y-58492191D01*
X153501843Y-58702235D01*
X153452560Y-58950000D01*
X150879762Y-58950000D01*
X150786086Y-58723847D01*
X150326153Y-58263914D01*
X149725222Y-58015000D01*
X149074778Y-58015000D01*
X148473847Y-58263914D01*
X148013914Y-58723847D01*
X147765000Y-59324778D01*
X139235000Y-59324778D01*
X138986086Y-58723847D01*
X138526153Y-58263914D01*
X137925222Y-58015000D01*
X137274778Y-58015000D01*
X136673847Y-58263914D01*
X136213914Y-58723847D01*
X135965000Y-59324778D01*
X101735000Y-59324778D01*
X101735000Y-57194670D01*
X156715000Y-57194670D01*
X156715000Y-57805330D01*
X156948690Y-58369507D01*
X157380493Y-58801310D01*
X157944670Y-59035000D01*
X158555330Y-59035000D01*
X159119507Y-58801310D01*
X159551310Y-58369507D01*
X159785000Y-57805330D01*
X159785000Y-57194670D01*
X164215000Y-57194670D01*
X164215000Y-57805330D01*
X164448690Y-58369507D01*
X164880493Y-58801310D01*
X165444670Y-59035000D01*
X166055330Y-59035000D01*
X166260537Y-58950000D01*
X167152560Y-58950000D01*
X167152560Y-62450000D01*
X167201843Y-62697765D01*
X167342191Y-62907809D01*
X167552235Y-63048157D01*
X167800000Y-63097440D01*
X169900000Y-63097440D01*
X170147765Y-63048157D01*
X170357809Y-62907809D01*
X170498157Y-62697765D01*
X170547440Y-62450000D01*
X170547440Y-58950000D01*
X170498157Y-58702235D01*
X170357809Y-58492191D01*
X170147765Y-58351843D01*
X169900000Y-58302560D01*
X167800000Y-58302560D01*
X167552235Y-58351843D01*
X167342191Y-58492191D01*
X167201843Y-58702235D01*
X167152560Y-58950000D01*
X166260537Y-58950000D01*
X166619507Y-58801310D01*
X167051310Y-58369507D01*
X167285000Y-57805330D01*
X167285000Y-57194670D01*
X167051310Y-56630493D01*
X166619507Y-56198690D01*
X166055330Y-55965000D01*
X165444670Y-55965000D01*
X164880493Y-56198690D01*
X164448690Y-56630493D01*
X164215000Y-57194670D01*
X159785000Y-57194670D01*
X159551310Y-56630493D01*
X159119507Y-56198690D01*
X158555330Y-55965000D01*
X157944670Y-55965000D01*
X157380493Y-56198690D01*
X156948690Y-56630493D01*
X156715000Y-57194670D01*
X101735000Y-57194670D01*
X101735000Y-55735000D01*
X200265001Y-55735000D01*
X200265001Y-74474843D01*
G36*
X145593474Y-109483962D02*
X145465000Y-109794126D01*
X145465000Y-109960198D01*
X141685199Y-113740000D01*
X129334802Y-113740000D01*
X133372455Y-109702348D01*
X143103941Y-109702348D01*
X143221372Y-109819779D01*
X143601778Y-109977348D01*
X144013526Y-109977348D01*
X144393932Y-109819779D01*
X144685083Y-109528628D01*
X144842652Y-109148222D01*
X144842652Y-108977347D01*
X145086860Y-108977347D01*
X145593474Y-109483962D01*
X145593474Y-109483962D01*
G37*
X145593474Y-109483962D02*
X145465000Y-109794126D01*
X145465000Y-109960198D01*
X141685199Y-113740000D01*
X129334802Y-113740000D01*
X133372455Y-109702348D01*
X143103941Y-109702348D01*
X143221372Y-109819779D01*
X143601778Y-109977348D01*
X144013526Y-109977348D01*
X144393932Y-109819779D01*
X144685083Y-109528628D01*
X144842652Y-109148222D01*
X144842652Y-108977347D01*
X145086860Y-108977347D01*
X145593474Y-109483962D01*
G04 #@! TD*
M02*
